<svg width="209" height="209" viewBox="0 0 209 209" fill="none" xmlns="http://www.w3.org/2000/svg">
<path d="M160.897 53.0794H136.016V179.143H185.778V53.0794H160.897Z" fill="#656D78"/>
<path d="M126.063 63.0318H9.95238V169.19H126.063V63.0318ZM136.016 53.0794V179.143H0V53.0794H136.016Z" fill="#FFD2A6"/>
<path d="M124.405 63.0317C125.317 63.0317 126.063 63.7785 126.063 64.6905V167.532C126.063 168.444 125.317 169.19 124.405 169.19H11.6109C10.6989 169.19 9.95215 168.444 9.95215 167.532V64.6905C9.95215 63.7785 10.6989 63.0317 11.6109 63.0317H124.405Z" fill="#FC6E51"/>
<path d="M23.2222 29.8571H159.238L136.016 53.0794H0L23.2222 29.8571Z" fill="#F2C397"/>
<path d="M185.778 53.0794H175.825L199.047 29.8571H209L185.778 53.0794Z" fill="#CCD1D9"/>
<path d="M199.047 29.8571L175.825 53.0794H136.016L159.238 29.8571H199.047Z" fill="#CCD1D9"/>
<path d="M209 29.8571V155.921L185.777 179.143V53.0794L209 29.8571Z" fill="#E6E9ED"/>
<path d="M114.452 72.9841C115.364 72.9841 116.111 73.7309 116.111 74.6429V84.5952C116.111 85.5072 115.364 86.254 114.452 86.254H21.563C20.651 86.254 19.9043 85.5072 19.9043 84.5952V74.6429C19.9043 73.7309 20.651 72.9841 21.563 72.9841H114.452Z" fill="#656D78"/>
<path d="M40.5272 104.867C40.5272 104.821 40.4812 104.775 40.4812 104.729C40.4812 104.683 40.4812 104.637 40.4812 104.591V104.453C40.4812 104.407 40.4352 104.361 40.4352 104.315C40.4352 104.269 40.4352 104.223 40.3893 104.177V104.039C40.3433 103.993 40.3433 103.947 40.3433 103.947L40.2513 103.81C40.2513 103.764 40.2513 103.718 40.2054 103.672C40.2054 103.626 40.1594 103.58 40.1594 103.534L40.0675 103.396C40.0675 103.396 40.0215 103.35 40.0215 103.304C39.9755 103.258 39.9296 103.212 39.9296 103.166C39.8836 103.166 39.8836 103.12 39.8376 103.12C39.7916 103.074 39.7916 103.028 39.7457 102.982L39.6537 102.89C39.6078 102.844 39.5618 102.844 39.5618 102.798L39.4239 102.706C39.4239 102.706 39.4239 102.66 39.3779 102.66C39.3779 102.66 39.3319 102.66 39.3319 102.614C39.286 102.614 39.24 102.568 39.194 102.522C39.1481 102.522 39.1481 102.476 39.1021 102.476L38.9642 102.384C38.9182 102.384 38.8722 102.339 38.8263 102.339C38.7803 102.339 38.7343 102.293 38.6884 102.293C38.6884 102.293 38.6424 102.247 38.5964 102.247C38.5504 102.247 38.5045 102.201 38.4585 102.201C38.4125 102.201 38.3666 102.155 38.3206 102.155H38.1827C38.1367 102.109 38.0907 102.109 38.0448 102.109C37.9988 102.109 37.9528 102.109 37.9069 102.109H37.723H37.677H37.631C37.5851 102.109 37.5391 102.109 37.4472 102.109H37.3552C37.3093 102.109 37.2633 102.109 37.2173 102.155H37.0794C37.0334 102.155 36.9875 102.201 36.9415 102.201C36.8955 102.201 36.8496 102.201 36.8036 102.247C36.7576 102.247 36.7116 102.247 36.6657 102.293C36.6197 102.293 36.5737 102.293 36.5278 102.339C36.4818 102.339 36.4358 102.384 36.4358 102.384C36.3899 102.43 36.3439 102.43 36.2979 102.43C36.2519 102.476 36.206 102.522 36.16 102.522L36.0681 102.614C36.0221 102.614 35.9761 102.66 35.9301 102.706C35.8842 102.706 35.8842 102.752 35.8382 102.752C35.7922 102.798 35.7922 102.844 35.7463 102.844L35.6543 102.936C35.6084 102.982 35.5624 103.028 35.5624 103.074C35.5164 103.074 35.4704 103.12 35.4704 103.166C35.4245 103.166 35.4245 103.212 35.4245 103.212C34.4131 104.545 32.7122 105.373 31.7009 105.373C30.1379 105.373 28.8507 106.66 28.8507 108.223C28.8507 109.786 30.1379 111.073 31.7009 111.073C32.7122 111.073 33.8155 110.843 34.8269 110.429V134.15C34.8269 135.713 36.114 137 37.677 137C39.24 137 40.5272 135.713 40.5272 134.15V104.913V104.867ZM66.441 131.851C66.0273 131.621 65.5216 131.484 65.016 131.438C64.6022 131.392 64.1885 131.392 63.7748 131.392H53.7533C54.4428 130.886 59.9593 124.404 62.5795 121.324C64.0966 119.577 65.6136 117.693 66.2572 115.486C66.9007 113.279 66.579 110.843 65.5676 108.774C64.5103 106.568 62.6715 104.775 60.5109 103.672C57.9825 102.384 54.9485 101.971 52.1903 102.706C49.7079 103.35 42.5825 107.119 45.9843 110.521C46.7658 111.303 48.007 111.533 49.0184 111.073C49.7539 110.751 50.3055 110.016 50.9031 109.464C52.7879 107.717 55.8219 107.395 58.1204 108.59C59.9133 109.51 61.2464 111.441 61.0166 113.417C60.8327 115.026 59.7294 116.359 58.6721 117.555C54.5807 122.198 50.5354 126.979 46.5819 131.713C46.1222 132.265 45.6625 132.817 45.4327 133.506C45.0649 134.701 45.7545 136.127 46.9037 136.632C47.5473 136.908 48.2828 136.908 48.9724 136.908H63.8207C64.6942 136.908 65.6595 136.908 66.441 136.494C67.2685 136.035 67.7742 135.115 67.8201 134.196C67.8661 133.23 67.2685 132.311 66.441 131.851ZM76.7718 137.046H76.404C74.841 137.046 73.5998 135.759 73.5998 134.104C73.5998 132.449 74.841 131.07 76.404 131.07H76.7718C78.2888 131.07 79.5759 132.449 79.5759 134.104C79.5759 135.759 78.2888 137.046 76.7718 137.046ZM87.5503 137.092C87.1366 137.092 86.6769 137 86.2632 136.816C84.884 136.081 84.3324 134.38 85.0679 133.001L97.9855 107.855H85.8494C84.2864 107.855 83.0452 106.614 83.0452 105.051C83.0452 103.488 84.2864 102.201 85.8494 102.201H102.629C103.594 102.201 104.513 102.706 105.019 103.58C105.525 104.407 105.571 105.464 105.111 106.338L90.0787 135.575C89.573 136.54 88.5617 137.092 87.5503 137.092Z" fill="#FFCABF"/>
<path d="M159.232 106.168V160.887C157.408 160.887 155.914 162.379 155.914 164.205V167.522H142.645V164.205C142.645 162.379 141.151 160.887 139.327 160.887V106.168L142.645 99.5335V92.8986H155.914V99.5335L159.232 106.168Z" fill="#F6BB42"/>
<path d="M149.279 63.0415C149.279 63.0415 142.645 76.3113 142.645 89.5812V92.8986H155.914V89.5812C155.914 76.3113 149.279 63.0415 149.279 63.0415Z" fill="#FC6E51"/>
<path d="M157.573 169.181H140.982C140.067 169.181 139.323 168.437 139.323 167.522C139.323 166.607 140.067 165.863 140.982 165.863H157.573C158.488 165.863 159.231 166.607 159.231 167.522C159.231 168.437 158.488 169.181 157.573 169.181Z" fill="#FFCE54"/>
<path d="M149.279 155.908C148.364 155.908 147.62 155.164 147.62 154.249V110.053C147.62 109.138 148.364 108.394 149.279 108.394C150.194 108.394 150.938 109.138 150.938 110.053V154.249C150.938 155.164 150.194 155.908 149.279 155.908Z" fill="#FFCE54"/>
<path d="M182.467 106.168V160.887C180.643 160.887 179.15 162.379 179.15 164.205V167.522H165.88V164.205C165.88 162.379 164.386 160.887 162.562 160.887V106.168L165.88 99.5335V92.8986H179.15V99.5335L182.467 106.168Z" fill="#F6BB42"/>
<path d="M172.515 63.0415C172.515 63.0415 165.88 76.3113 165.88 89.5812V92.8986H179.15V89.5812C179.15 76.3113 172.515 63.0415 172.515 63.0415Z" fill="#FC6E51"/>
<path d="M180.808 169.181H164.217C163.302 169.181 162.559 168.437 162.559 167.522C162.559 166.607 163.302 165.863 164.217 165.863H180.808C181.723 165.863 182.467 166.607 182.467 167.522C182.467 168.437 181.723 169.181 180.808 169.181Z" fill="#FFCE54"/>
<path d="M172.514 155.908C171.599 155.908 170.855 155.164 170.855 154.249V110.053C170.855 109.138 171.599 108.394 172.514 108.394C173.429 108.394 174.173 109.138 174.173 110.053V154.249C174.173 155.164 173.429 155.908 172.514 155.908Z" fill="#FFCE54"/>
<path d="M99.5174 81.2778H36.4986C35.5834 81.2778 34.8398 80.5343 34.8398 79.6191C34.8398 78.7038 35.5834 77.9603 36.4986 77.9603H99.5174C100.433 77.9603 101.176 78.7038 101.176 79.6191C101.176 80.5343 100.433 81.2778 99.5174 81.2778Z" fill="#545C66"/>
<path d="M106.159 154.262H29.857C28.9418 154.262 28.1982 153.518 28.1982 152.603C28.1982 151.688 28.9418 150.944 29.857 150.944H106.159C107.074 150.944 107.817 151.688 107.817 152.603C107.817 153.518 107.074 154.262 106.159 154.262Z" fill="#FFCABF"/>
<path d="M82.9368 160.897H53.0796C52.1644 160.897 51.4209 160.153 51.4209 159.238C51.4209 158.323 52.1644 157.579 53.0796 157.579H82.9368C83.852 157.579 84.5955 158.323 84.5955 159.238C84.5955 160.153 83.852 160.897 82.9368 160.897Z" fill="#FFCABF"/>
<path d="M127.723 46.4444H24.8814C23.9662 46.4444 23.2227 45.7009 23.2227 44.7857C23.2227 43.8705 23.9662 43.127 24.8814 43.127H127.723C128.638 43.127 129.381 43.8705 129.381 44.7857C129.381 45.7009 128.638 46.4444 127.723 46.4444Z" fill="#FFD2A6"/>
<path d="M134.357 39.8095H31.5162C30.6009 39.8095 29.8574 39.066 29.8574 38.1508C29.8574 37.2356 30.6009 36.4921 31.5162 36.4921H134.357C135.273 36.4921 136.016 37.2356 136.016 38.1508C136.016 39.066 135.273 39.8095 134.357 39.8095Z" fill="#FFD2A6"/>
</svg>
