<svg width="209" height="209" viewBox="0 0 209 209" fill="none" xmlns="http://www.w3.org/2000/svg">
<path d="M160.897 53.0794H136.016V179.143H185.778V53.0794H160.897Z" fill="#656D78"/>
<path d="M159.116 128.186C159.581 128.186 159.959 127.808 159.959 127.342V103.718C159.959 103.252 159.582 102.874 159.116 102.874H158.272V96.9683C158.272 91.8427 154.117 86 148.991 86C143.865 86 139.71 91.8427 139.71 96.9684V102.874H138.866C138.4 102.874 138.022 103.252 138.022 103.718V127.342C138.022 127.808 138.4 128.186 138.866 128.186H139.71V131.561H138.866C138.4 131.561 138.022 131.939 138.022 132.405V134.092C138.022 134.558 138.4 134.936 138.866 134.936H159.116C159.581 134.936 159.959 134.558 159.959 134.092V132.405C159.959 131.939 159.582 131.561 159.116 131.561H158.272V128.186H159.116V128.186Z" fill="#E4C05C"/>
<path d="M138.846 102.917H159.137C159.604 102.917 159.983 103.587 159.983 104.412V146.272C159.983 147.098 159.604 147.767 159.137 147.767H138.846C138.379 147.767 138 147.098 138 146.272V104.412C138 103.587 138.379 102.917 138.846 102.917Z" fill="#B19046"/>
<path d="M138.867 147.721H159.116C159.582 147.721 159.96 148.312 159.96 149.041V151.68C159.96 152.409 159.583 153 159.116 153H138.867C138.401 153 138.023 152.409 138.023 151.68V149.041C138.023 148.312 138.401 147.721 138.867 147.721Z" fill="#E4C05C"/>
<path d="M148.065 89.4153C147.969 89.2132 147.796 89.0579 147.584 88.9837C147.373 88.9094 147.141 88.9222 146.939 89.0194C144.35 90.2619 142.242 93.8279 142.242 96.9684V97.8122C142.242 98.2781 142.62 98.6559 143.086 98.6559C143.552 98.6559 143.93 98.2782 143.93 97.8122V96.9684C143.93 94.5003 145.677 91.4966 147.67 90.5412C147.871 90.4444 148.026 90.2714 148.101 90.0602C148.175 89.849 148.162 89.6171 148.065 89.4153Z" fill="#F9EAB0"/>
<path d="M141.398 106.249C141.175 106.249 140.96 106.338 140.802 106.496C140.643 106.655 140.555 106.869 140.555 107.093V123.968C140.555 124.433 140.932 124.811 141.398 124.811C141.864 124.811 142.242 124.434 142.242 123.968V107.093C142.242 106.869 142.153 106.655 141.995 106.496C141.837 106.338 141.622 106.249 141.398 106.249Z" fill="#F9EAB0"/>
<path d="M183.116 128.186C183.581 128.186 183.959 127.808 183.959 127.342V103.718C183.959 103.252 183.582 102.874 183.116 102.874H182.272V96.9683C182.272 91.8427 178.117 86 172.991 86C167.865 86 163.71 91.8427 163.71 96.9684V102.874H162.866C162.4 102.874 162.022 103.252 162.022 103.718V127.342C162.022 127.808 162.4 128.186 162.866 128.186H163.71V131.561H162.866C162.4 131.561 162.022 131.939 162.022 132.405V134.092C162.022 134.558 162.4 134.936 162.866 134.936H183.116C183.581 134.936 183.959 134.558 183.959 134.092V132.405C183.959 131.939 183.582 131.561 183.116 131.561H182.272V128.186H183.116V128.186Z" fill="#E4C05C"/>
<path d="M162.846 102.917H183.137C183.604 102.917 183.983 103.587 183.983 104.412V146.272C183.983 147.098 183.604 147.767 183.137 147.767H162.846C162.379 147.767 162 147.098 162 146.272V104.412C162 103.587 162.379 102.917 162.846 102.917Z" fill="#B19046"/>
<path d="M162.867 147.721H183.116C183.582 147.721 183.96 148.312 183.96 149.041V151.68C183.96 152.409 183.583 153 183.116 153H162.867C162.401 153 162.023 152.409 162.023 151.68V149.041C162.023 148.312 162.401 147.721 162.867 147.721Z" fill="#E4C05C"/>
<path d="M172.065 89.4153C171.969 89.2132 171.796 89.0579 171.584 88.9837C171.373 88.9094 171.141 88.9222 170.939 89.0194C168.35 90.2619 166.242 93.8279 166.242 96.9684V97.8122C166.242 98.2781 166.62 98.6559 167.086 98.6559C167.552 98.6559 167.93 98.2782 167.93 97.8122V96.9684C167.93 94.5003 169.677 91.4966 171.67 90.5412C171.871 90.4444 172.026 90.2714 172.101 90.0602C172.175 89.849 172.162 89.6171 172.065 89.4153Z" fill="#F9EAB0"/>
<path d="M165.398 106.249C165.175 106.249 164.96 106.338 164.802 106.496C164.643 106.655 164.555 106.869 164.555 107.093V123.968C164.555 124.433 164.932 124.811 165.398 124.811C165.864 124.811 166.242 124.434 166.242 123.968V107.093C166.242 106.869 166.153 106.655 165.995 106.496C165.837 106.338 165.622 106.249 165.398 106.249Z" fill="#F9EAB0"/>
<path d="M126.063 63.0318H9.95238V169.19H126.063V63.0318ZM136.016 53.0794V179.143H0V53.0794H136.016Z" fill="#FFD2A6"/>
<path d="M124.405 63.0317C125.317 63.0317 126.063 63.7785 126.063 64.6905V167.532C126.063 168.444 125.317 169.19 124.405 169.19H11.6109C10.6989 169.19 9.95215 168.444 9.95215 167.532V64.6905C9.95215 63.7785 10.6989 63.0317 11.6109 63.0317H124.405Z" fill="#2D9CDB"/>
<path d="M23.2222 29.8571H159.238L136.016 53.0794H0L23.2222 29.8571Z" fill="#F2C397"/>
<path d="M185.778 53.0794H175.825L199.047 29.8571H209L185.778 53.0794Z" fill="#CCD1D9"/>
<path d="M199.047 29.8571L175.825 53.0794H136.016L159.238 29.8571H199.047Z" fill="#CCD1D9"/>
<path d="M209 29.8571V155.921L185.777 179.143V53.0794L209 29.8571Z" fill="#E6E9ED"/>
<path d="M114.452 72.9841C115.364 72.9841 116.111 73.7309 116.111 74.6429V84.5952C116.111 85.5072 115.364 86.254 114.452 86.254H21.563C20.651 86.254 19.9043 85.5072 19.9043 84.5952V74.6429C19.9043 73.7309 20.651 72.9841 21.563 72.9841H114.452Z" fill="#656D78"/>
<path d="M37.8857 138.049H37.4901C35.8084 138.049 34.473 136.665 34.473 134.884C34.473 133.103 35.8084 131.62 37.4901 131.62H37.8857C39.5179 131.62 40.9028 133.103 40.9028 134.884C40.9028 136.665 39.5179 138.049 37.8857 138.049ZM64.1722 101.053C62.54 101.053 61.2046 102.389 61.2046 104.021V116.188H51.7577L55.5662 104.911C56.0608 103.329 55.2199 101.647 53.6867 101.152C52.1534 100.608 50.4718 101.449 49.9277 103.032L44.8828 118.216C44.5366 119.106 44.7344 120.095 45.2785 120.887C45.8225 121.629 46.7128 122.123 47.6526 122.123H61.2046V135.23C61.2046 136.862 62.54 138.148 64.1722 138.148C65.8044 138.148 67.0903 136.862 67.0903 135.23V104.021C67.0903 102.389 65.8044 101.053 64.1722 101.053ZM91.5587 101.053C89.9266 101.053 88.5911 102.389 88.5911 104.021V116.188H79.1443L82.9527 104.911C83.4473 103.329 82.6065 101.647 81.0732 101.152C79.54 100.608 77.8583 101.449 77.3143 103.032L72.2693 118.216C71.9231 119.106 72.121 120.095 72.665 120.887C73.2091 121.629 74.0994 122.123 75.0391 122.123H88.5911V135.23C88.5911 136.862 89.9266 138.148 91.5587 138.148C93.1909 138.148 94.4769 136.862 94.4769 135.23V104.021C94.4769 102.389 93.1909 101.053 91.5587 101.053Z" fill="#56CCF2"/>
<path d="M99.5174 81.2778H36.4986C35.5834 81.2778 34.8398 80.5343 34.8398 79.6191C34.8398 78.7038 35.5834 77.9603 36.4986 77.9603H99.5174C100.433 77.9603 101.176 78.7038 101.176 79.6191C101.176 80.5343 100.433 81.2778 99.5174 81.2778Z" fill="#545C66"/>
<path d="M106.159 154.262H29.857C28.9418 154.262 28.1982 153.518 28.1982 152.603C28.1982 151.688 28.9418 150.944 29.857 150.944H106.159C107.074 150.944 107.817 151.688 107.817 152.603C107.817 153.518 107.074 154.262 106.159 154.262Z" fill="#56CCF2"/>
<path d="M82.9368 160.897H53.0796C52.1644 160.897 51.4209 160.153 51.4209 159.238C51.4209 158.323 52.1644 157.579 53.0796 157.579H82.9368C83.852 157.579 84.5955 158.323 84.5955 159.238C84.5955 160.153 83.852 160.897 82.9368 160.897Z" fill="#56CCF2"/>
<path d="M127.723 46.4444H24.8814C23.9662 46.4444 23.2227 45.7009 23.2227 44.7857C23.2227 43.8705 23.9662 43.127 24.8814 43.127H127.723C128.638 43.127 129.381 43.8705 129.381 44.7857C129.381 45.7009 128.638 46.4444 127.723 46.4444Z" fill="#FFD2A6"/>
<path d="M134.357 39.8095H31.5162C30.6009 39.8095 29.8574 39.066 29.8574 38.1508C29.8574 37.2356 30.6009 36.4921 31.5162 36.4921H134.357C135.273 36.4921 136.016 37.2356 136.016 38.1508C136.016 39.066 135.273 39.8095 134.357 39.8095Z" fill="#FFD2A6"/>
</svg>
