<svg width="209" height="209" viewBox="0 0 209 209" fill="none" xmlns="http://www.w3.org/2000/svg">
<path d="M160.897 53.0794H136.016V179.143H185.778V53.0794H160.897Z" fill="#656D78"/>
<path d="M126.063 63.0318H9.95238V169.19H126.063V63.0318ZM136.016 53.0794V179.143H0V53.0794H136.016Z" fill="#FFD2A6"/>
<path d="M124.405 63.0317C125.317 63.0317 126.063 63.7785 126.063 64.6905V167.532C126.063 168.444 125.317 169.19 124.405 169.19H11.6109C10.6989 169.19 9.95215 168.444 9.95215 167.532V64.6905C9.95215 63.7785 10.6989 63.0317 11.6109 63.0317H124.405Z" fill="#27AE60"/>
<path d="M23.2222 29.8571H159.238L136.016 53.0794H0L23.2222 29.8571Z" fill="#F2C397"/>
<path d="M185.778 53.0794H175.825L199.047 29.8571H209L185.778 53.0794Z" fill="#CCD1D9"/>
<path d="M199.047 29.8571L175.825 53.0794H136.016L159.238 29.8571H199.047Z" fill="#CCD1D9"/>
<path d="M209 29.8571V155.921L185.777 179.143V53.0794L209 29.8571Z" fill="#E6E9ED"/>
<path d="M114.452 72.9841C115.364 72.9841 116.111 73.7309 116.111 74.6429V84.5952C116.111 85.5072 115.364 86.254 114.452 86.254H21.563C20.651 86.254 19.9043 85.5072 19.9043 84.5952V74.6429C19.9043 73.7309 20.651 72.9841 21.563 72.9841H114.452Z" fill="#656D78"/>
<path d="M29.6106 129.022H29.4351C28.6892 129.022 28.0969 128.408 28.0969 127.618C28.0969 126.828 28.6892 126.17 29.4351 126.17H29.6106C30.3345 126.17 30.9487 126.828 30.9487 127.618C30.9487 128.408 30.3345 129.022 29.6106 129.022ZM41.2697 112.613C40.5457 112.613 39.9534 113.205 39.9534 113.929V119.326H35.7633L37.4525 114.324C37.6719 113.622 37.299 112.876 36.6189 112.657C35.9388 112.415 35.193 112.788 34.9517 113.49L32.714 120.225C32.5605 120.62 32.6482 121.059 32.8895 121.41C33.1308 121.739 33.5257 121.958 33.9425 121.958H39.9534V127.772C39.9534 128.495 40.5457 129.066 41.2697 129.066C41.9936 129.066 42.564 128.495 42.564 127.772V113.929C42.564 113.205 41.9936 112.613 41.2697 112.613ZM50.1699 129.022C48.3491 129.022 46.638 128.188 45.585 126.806C45.1463 126.214 45.2559 125.358 45.8483 124.92C46.4406 124.481 47.2961 124.591 47.7349 125.183C48.2833 125.907 49.1828 126.346 50.1699 126.346C52.2759 126.346 53.0218 124.898 53.0438 123.691C53.0438 122.638 52.4514 120.861 50.1699 120.839C50.1699 120.839 50.3674 120.883 46.9451 120.839C46.1993 120.839 45.6289 120.181 45.6289 119.457V113.732C45.6289 112.986 46.2212 112.371 46.9671 112.371H53.3509C54.0968 112.371 54.6891 112.986 54.6891 113.732C54.6891 114.455 54.0968 115.07 53.3509 115.07H48.3272V118.119L50.1919 118.141C52.3198 118.163 53.6141 119.128 54.3381 119.94C55.2375 120.949 55.7201 122.287 55.7201 123.691C55.7201 125.095 55.2156 126.389 54.3161 127.355C53.5922 128.123 52.2979 129.022 50.1699 129.022ZM79.324 127.179L72.4137 113.337C72.1724 112.898 71.7336 112.613 71.2291 112.613H71.2071C70.7026 112.635 70.2638 112.92 70.0445 113.381L63.6387 127.223C63.3316 127.881 63.6168 128.649 64.2749 128.956C64.4504 129.044 64.6259 129.088 64.8233 129.088C65.306 129.088 65.7886 128.803 66.008 128.32L67.5875 124.92C67.6313 124.942 67.6752 124.942 67.741 124.942H75.2436H75.2656L76.9767 128.364C77.3058 129 78.0955 129.263 78.7317 128.934C79.3898 128.627 79.6531 127.837 79.324 127.179ZM68.794 122.309L71.273 116.956L73.9493 122.309H68.794ZM89.6242 129C85.0393 129 81.3099 125.249 81.3099 120.664C81.3099 116.079 85.0393 112.349 89.6242 112.349C91.6863 112.349 93.6607 113.095 95.1963 114.477C95.7448 114.96 95.7886 115.794 95.2841 116.342C94.8014 116.869 93.9678 116.912 93.4413 116.43C92.3883 115.486 91.0282 114.982 89.6242 114.982C86.4871 114.982 83.9424 117.527 83.9424 120.664C83.9424 123.801 86.4871 126.346 89.6242 126.346C91.0721 126.346 92.4541 125.819 93.5071 124.832C94.0336 124.327 94.8673 124.371 95.3718 124.898C95.8544 125.424 95.8325 126.258 95.306 126.762C93.7484 128.188 91.7302 129 89.6242 129ZM103.822 112.306H98.8201V112.437C98.14 112.481 97.5916 113.051 97.5916 113.732V127.662C97.5916 128.386 98.162 128.956 98.8859 128.956C99.6099 128.956 100.18 128.386 100.18 127.662V122.156H103.646C106.367 122.156 108.648 119.94 108.648 117.351C108.648 114.609 106.432 112.306 103.822 112.306ZM103.646 119.545H100.18V114.916H103.822C104.985 114.916 106.038 116.079 106.038 117.351C106.038 118.514 104.919 119.545 103.646 119.545Z" fill="#A3FBC8"/>
<path d="M99.5174 81.2778H36.4986C35.5834 81.2778 34.8398 80.5343 34.8398 79.6191C34.8398 78.7038 35.5834 77.9603 36.4986 77.9603H99.5174C100.433 77.9603 101.176 78.7038 101.176 79.6191C101.176 80.5343 100.433 81.2778 99.5174 81.2778Z" fill="#545C66"/>
<path d="M106.159 154.262H29.857C28.9418 154.262 28.1982 153.518 28.1982 152.603C28.1982 151.688 28.9418 150.944 29.857 150.944H106.159C107.074 150.944 107.817 151.688 107.817 152.603C107.817 153.518 107.074 154.262 106.159 154.262Z" fill="#A3FBC8"/>
<path d="M82.9368 160.897H53.0796C52.1644 160.897 51.4209 160.153 51.4209 159.238C51.4209 158.323 52.1644 157.579 53.0796 157.579H82.9368C83.852 157.579 84.5955 158.323 84.5955 159.238C84.5955 160.153 83.852 160.897 82.9368 160.897Z" fill="#A3FBC8"/>
<path d="M127.723 46.4444H24.8814C23.9662 46.4444 23.2227 45.7009 23.2227 44.7857C23.2227 43.8705 23.9662 43.127 24.8814 43.127H127.723C128.638 43.127 129.381 43.8705 129.381 44.7857C129.381 45.7009 128.638 46.4444 127.723 46.4444Z" fill="#FFD2A6"/>
<path d="M134.357 39.8095H31.5162C30.6009 39.8095 29.8574 39.066 29.8574 38.1508C29.8574 37.2356 30.6009 36.4921 31.5162 36.4921H134.357C135.273 36.4921 136.016 37.2356 136.016 38.1508C136.016 39.066 135.273 39.8095 134.357 39.8095Z" fill="#FFD2A6"/>
<path d="M157.241 98.0166C156.857 94.0782 153.538 91 149.499 91C145.46 91 142.141 94.0782 141.758 98.0166L149.499 99.0185L157.241 98.0166Z" fill="#FFC107"/>
<path d="M141.758 98.0166C141.734 98.2675 141.721 98.5218 141.721 98.7792V100.085L149.5 101.087L157.279 100.085V98.7792C157.279 98.5218 157.266 98.2676 157.241 98.0166H141.758Z" fill="#FFA000"/>
<path d="M157.279 139.176L149.5 138.174L141.721 139.176V141.519L149.5 142.521L157.279 141.519V139.176Z" fill="#FFC107"/>
<path d="M141.721 143.588L149.5 144.59L157.279 143.588V141.519H141.721V143.588Z" fill="#FFA000"/>
<path d="M157.279 102.429V100.085H141.721V102.429L149.5 103.431L157.279 102.429Z" fill="#FFA000"/>
<path d="M141.721 104.497L149.5 105.499L157.279 104.497V102.429H141.721V104.497Z" fill="#FFC107"/>
<path d="M158.982 137.108V106.22C158.982 105.268 158.21 104.497 157.259 104.497H141.739C140.788 104.497 140.017 105.268 140.017 106.22V137.108L149.499 138.109L158.982 137.108Z" fill="#FFC107"/>
<path d="M140.591 139.176H158.407C158.724 139.176 158.982 138.919 158.982 138.601V137.108H140.017V138.601C140.017 138.919 140.274 139.176 140.591 139.176Z" fill="#FFA000"/>
<path d="M140.911 146.743H158.088C158.932 146.743 160.036 145.925 160.036 144.76C159.665 144.063 158.932 143.588 158.088 143.588H140.911C140.066 143.588 139.334 144.063 138.963 144.76C138.963 145.826 140.067 146.743 140.911 146.743Z" fill="#FFC107"/>
<path d="M158.088 145.931H140.911C140.067 145.931 139.334 145.457 138.963 144.76C138.799 145.068 138.705 145.42 138.705 145.794C138.705 147.012 139.693 148 140.911 148H158.088C159.306 148 160.294 147.012 160.294 145.794C160.294 145.42 160.2 145.068 160.036 144.76C159.665 145.457 158.932 145.931 158.088 145.931Z" fill="#FFA000"/>
<path d="M181.241 98.0166C180.857 94.0782 177.538 91 173.499 91C169.46 91 166.141 94.0782 165.758 98.0166L173.499 99.0185L181.241 98.0166Z" fill="#FFC107"/>
<path d="M165.758 98.0166C165.734 98.2675 165.721 98.5218 165.721 98.7792V100.085L173.5 101.087L181.279 100.085V98.7792C181.279 98.5218 181.266 98.2676 181.241 98.0166H165.758Z" fill="#FFA000"/>
<path d="M181.279 139.176L173.5 138.174L165.721 139.176V141.519L173.5 142.521L181.279 141.519V139.176Z" fill="#FFC107"/>
<path d="M165.721 143.588L173.5 144.59L181.279 143.588V141.519H165.721V143.588Z" fill="#FFA000"/>
<path d="M181.279 102.429V100.085H165.721V102.429L173.5 103.431L181.279 102.429Z" fill="#FFA000"/>
<path d="M165.721 104.497L173.5 105.499L181.279 104.497V102.429H165.721V104.497Z" fill="#FFC107"/>
<path d="M182.982 137.108V106.22C182.982 105.268 182.21 104.497 181.259 104.497H165.739C164.788 104.497 164.017 105.268 164.017 106.22V137.108L173.499 138.109L182.982 137.108Z" fill="#FFC107"/>
<path d="M164.591 139.176H182.407C182.724 139.176 182.982 138.919 182.982 138.601V137.108H164.017V138.601C164.017 138.919 164.274 139.176 164.591 139.176Z" fill="#FFA000"/>
<path d="M164.911 146.743H182.088C182.932 146.743 184.036 145.925 184.036 144.76C183.665 144.063 182.932 143.588 182.088 143.588H164.911C164.066 143.588 163.334 144.063 162.963 144.76C162.963 145.826 164.067 146.743 164.911 146.743Z" fill="#FFC107"/>
<path d="M182.088 145.931H164.911C164.067 145.931 163.334 145.457 162.963 144.76C162.799 145.068 162.705 145.42 162.705 145.794C162.705 147.012 163.693 148 164.911 148H182.088C183.306 148 184.294 147.012 184.294 145.794C184.294 145.42 184.2 145.068 184.036 144.76C183.665 145.457 182.932 145.931 182.088 145.931Z" fill="#FFA000"/>
</svg>
