<svg width="209" height="209" viewBox="0 0 209 209" fill="none" xmlns="http://www.w3.org/2000/svg">
<path d="M160.897 53.0794H136.016V179.143H185.778V53.0794H160.897Z" fill="#656D78"/>
<path d="M126.063 63.0318H9.95238V169.19H126.063V63.0318ZM136.016 53.0794V179.143H0V53.0794H136.016Z" fill="#FFD2A6"/>
<path d="M124.405 63.0317C125.317 63.0317 126.063 63.7785 126.063 64.6905V167.532C126.063 168.444 125.317 169.19 124.405 169.19H11.6109C10.6989 169.19 9.95215 168.444 9.95215 167.532V64.6905C9.95215 63.7785 10.6989 63.0317 11.6109 63.0317H124.405Z" fill="#C07744"/>
<path d="M23.2222 29.8571H159.238L136.016 53.0794H0L23.2222 29.8571Z" fill="#F2C397"/>
<path d="M185.778 53.0794H175.825L199.047 29.8571H209L185.778 53.0794Z" fill="#CCD1D9"/>
<path d="M199.047 29.8571L175.825 53.0794H136.016L159.238 29.8571H199.047Z" fill="#CCD1D9"/>
<path d="M209 29.8571V155.921L185.777 179.143V53.0794L209 29.8571Z" fill="#E6E9ED"/>
<path d="M114.452 72.9841C115.364 72.9841 116.111 73.7309 116.111 74.6429V84.5952C116.111 85.5072 115.364 86.254 114.452 86.254H21.563C20.651 86.254 19.9043 85.5072 19.9043 84.5952V74.6429C19.9043 73.7309 20.651 72.9841 21.563 72.9841H114.452Z" fill="#656D78"/>
<path d="M38.4452 137.042C34.9527 137.042 31.6706 135.443 29.6509 132.792C28.8094 131.656 29.0197 130.015 30.1558 129.174C31.2919 128.332 32.933 128.542 33.7745 129.678C34.8265 131.067 36.5517 131.909 38.4452 131.909C42.4847 131.909 43.9153 129.131 43.9574 126.817C43.9574 124.797 42.8213 121.389 38.4452 121.347C38.4452 121.347 38.8239 121.431 32.2597 121.347C30.8291 121.347 29.7351 120.085 29.7351 118.696V107.714C29.7351 106.283 30.8712 105.105 32.3018 105.105H44.5465C45.9771 105.105 47.1132 106.283 47.1132 107.714C47.1132 109.102 45.9771 110.281 44.5465 110.281H34.9106V116.129L38.4873 116.171C42.5688 116.214 45.0514 118.065 46.44 119.622C48.1652 121.557 49.0909 124.124 49.0909 126.817C49.0909 129.51 48.1231 131.993 46.3979 133.844C45.0094 135.317 42.5268 137.042 38.4452 137.042ZM55.5528 137.042H55.2162C53.7856 137.042 52.6495 135.864 52.6495 134.349C52.6495 132.834 53.7856 131.572 55.2162 131.572H55.5528C56.9414 131.572 58.1196 132.834 58.1196 134.349C58.1196 135.864 56.9414 137.042 55.5528 137.042ZM77.9159 105.568C76.5274 105.568 75.3913 106.704 75.3913 108.092V118.444H67.3544L70.5944 108.85C71.0152 107.503 70.2998 106.073 68.9954 105.652C67.691 105.189 66.2603 105.904 65.7975 107.251L61.5055 120.169C61.211 120.926 61.3793 121.768 61.8422 122.441C62.305 123.072 63.0624 123.493 63.8619 123.493H75.3913V134.644C75.3913 136.032 76.5274 137.126 77.9159 137.126C79.3045 137.126 80.3985 136.032 80.3985 134.644V108.092C80.3985 106.704 79.3045 105.568 77.9159 105.568ZM94.9874 137.042C91.4949 137.042 88.2129 135.443 86.1931 132.792C85.3516 131.656 85.5619 130.015 86.6981 129.174C87.8342 128.332 89.4752 128.542 90.3168 129.678C91.3687 131.067 93.0939 131.909 94.9874 131.909C99.0269 131.909 100.458 129.131 100.5 126.817C100.5 124.797 99.3635 121.389 94.9874 121.347C94.9874 121.347 95.3661 121.431 88.8019 121.347C87.3713 121.347 86.2773 120.085 86.2773 118.696V107.714C86.2773 106.283 87.4134 105.105 88.844 105.105H101.089C102.519 105.105 103.655 106.283 103.655 107.714C103.655 109.102 102.519 110.281 101.089 110.281H91.4529V116.129L95.0295 116.171C99.111 116.214 101.594 118.065 102.982 119.622C104.707 121.557 105.633 124.124 105.633 126.817C105.633 129.51 104.665 131.993 102.94 133.844C101.552 135.317 99.069 137.042 94.9874 137.042Z" fill="#FFC69E"/>
<path d="M159.232 106.168V160.887C157.408 160.887 155.914 162.379 155.914 164.205V167.522H142.645V164.205C142.645 162.379 141.151 160.887 139.327 160.887V106.168L142.645 99.5335V92.8986H155.914V99.5335L159.232 106.168Z" fill="#F6BB42"/>
<path d="M149.279 63.0415C149.279 63.0415 142.645 76.3113 142.645 89.5812V92.8986H155.914V89.5812C155.914 76.3113 149.279 63.0415 149.279 63.0415Z" fill="#FC6E51"/>
<path d="M157.573 169.181H140.982C140.067 169.181 139.323 168.437 139.323 167.522C139.323 166.607 140.067 165.863 140.982 165.863H157.573C158.488 165.863 159.231 166.607 159.231 167.522C159.231 168.437 158.488 169.181 157.573 169.181Z" fill="#FFCE54"/>
<path d="M149.279 155.908C148.364 155.908 147.62 155.164 147.62 154.249V110.053C147.62 109.138 148.364 108.394 149.279 108.394C150.194 108.394 150.938 109.138 150.938 110.053V154.249C150.938 155.164 150.194 155.908 149.279 155.908Z" fill="#FFCE54"/>
<path d="M182.467 106.168V160.887C180.643 160.887 179.15 162.379 179.15 164.205V167.522H165.88V164.205C165.88 162.379 164.386 160.887 162.562 160.887V106.168L165.88 99.5335V92.8986H179.15V99.5335L182.467 106.168Z" fill="#F6BB42"/>
<path d="M172.515 63.0415C172.515 63.0415 165.88 76.3113 165.88 89.5812V92.8986H179.15V89.5812C179.15 76.3113 172.515 63.0415 172.515 63.0415Z" fill="#FC6E51"/>
<path d="M180.808 169.181H164.217C163.302 169.181 162.559 168.437 162.559 167.522C162.559 166.607 163.302 165.863 164.217 165.863H180.808C181.723 165.863 182.467 166.607 182.467 167.522C182.467 168.437 181.723 169.181 180.808 169.181Z" fill="#FFCE54"/>
<path d="M172.514 155.908C171.599 155.908 170.855 155.164 170.855 154.249V110.053C170.855 109.138 171.599 108.394 172.514 108.394C173.429 108.394 174.173 109.138 174.173 110.053V154.249C174.173 155.164 173.429 155.908 172.514 155.908Z" fill="#FFCE54"/>
<path d="M99.5174 81.2778H36.4986C35.5834 81.2778 34.8398 80.5343 34.8398 79.6191C34.8398 78.7038 35.5834 77.9603 36.4986 77.9603H99.5174C100.433 77.9603 101.176 78.7038 101.176 79.6191C101.176 80.5343 100.433 81.2778 99.5174 81.2778Z" fill="#545C66"/>
<path d="M106.159 154.262H29.857C28.9418 154.262 28.1982 153.518 28.1982 152.603C28.1982 151.688 28.9418 150.944 29.857 150.944H106.159C107.074 150.944 107.817 151.688 107.817 152.603C107.817 153.518 107.074 154.262 106.159 154.262Z" fill="#FFC69E"/>
<path d="M82.9368 160.897H53.0796C52.1644 160.897 51.4209 160.153 51.4209 159.238C51.4209 158.323 52.1644 157.579 53.0796 157.579H82.9368C83.852 157.579 84.5955 158.323 84.5955 159.238C84.5955 160.153 83.852 160.897 82.9368 160.897Z" fill="#FFC69E"/>
<path d="M127.723 46.4444H24.8814C23.9662 46.4444 23.2227 45.7009 23.2227 44.7857C23.2227 43.8705 23.9662 43.127 24.8814 43.127H127.723C128.638 43.127 129.381 43.8705 129.381 44.7857C129.381 45.7009 128.638 46.4444 127.723 46.4444Z" fill="#FFD2A6"/>
<path d="M134.357 39.8095H31.5162C30.6009 39.8095 29.8574 39.066 29.8574 38.1508C29.8574 37.2356 30.6009 36.4921 31.5162 36.4921H134.357C135.273 36.4921 136.016 37.2356 136.016 38.1508C136.016 39.066 135.273 39.8095 134.357 39.8095Z" fill="#FFD2A6"/>
</svg>
