<svg width="209" height="209" viewBox="0 0 209 209" fill="none" xmlns="http://www.w3.org/2000/svg">
<path d="M160.897 53.0794H136.016V179.143H185.778V53.0794H160.897Z" fill="#656D78"/>
<path d="M126.063 63.0318H9.95238V169.19H126.063V63.0318ZM136.016 53.0794V179.143H0V53.0794H136.016Z" fill="#FFD2A6"/>
<path d="M124.405 63.0317C125.317 63.0317 126.063 63.7785 126.063 64.6905V167.532C126.063 168.444 125.317 169.19 124.405 169.19H11.6109C10.6989 169.19 9.95215 168.444 9.95215 167.532V64.6905C9.95215 63.7785 10.6989 63.0317 11.6109 63.0317H124.405Z" fill="#5580ED"/>
<path d="M23.2222 29.8571H159.238L136.016 53.0794H0L23.2222 29.8571Z" fill="#F2C397"/>
<path d="M185.778 53.0794H175.825L199.047 29.8571H209L185.778 53.0794Z" fill="#CCD1D9"/>
<path d="M199.047 29.8571L175.825 53.0794H136.016L159.238 29.8571H199.047Z" fill="#CCD1D9"/>
<path d="M209 29.8571V155.921L185.777 179.143V53.0794L209 29.8571Z" fill="#E6E9ED"/>
<path d="M114.452 72.9841C115.364 72.9841 116.111 73.7309 116.111 74.6429V84.5952C116.111 85.5072 115.364 86.254 114.452 86.254H21.563C20.651 86.254 19.9043 85.5072 19.9043 84.5952V74.6429C19.9043 73.7309 20.651 72.9841 21.563 72.9841H114.452Z" fill="#656D78"/>
<path d="M38.4452 137.042C34.9527 137.042 31.6706 135.443 29.6509 132.792C28.8094 131.656 29.0197 130.015 30.1558 129.174C31.2919 128.332 32.933 128.542 33.7745 129.678C34.8265 131.067 36.5517 131.909 38.4452 131.909C42.4847 131.909 43.9153 129.131 43.9574 126.817C43.9574 124.797 42.8213 121.389 38.4452 121.347C38.4452 121.347 38.8239 121.431 32.2597 121.347C30.8291 121.347 29.7351 120.085 29.7351 118.696V107.714C29.7351 106.283 30.8712 105.105 32.3018 105.105H44.5465C45.9771 105.105 47.1132 106.283 47.1132 107.714C47.1132 109.102 45.9771 110.281 44.5465 110.281H34.9106V116.129L38.4873 116.171C42.5688 116.214 45.0514 118.065 46.44 119.622C48.1652 121.557 49.0909 124.124 49.0909 126.817C49.0909 129.51 48.1231 131.993 46.3979 133.844C45.0094 135.317 42.5268 137.042 38.4452 137.042ZM55.5528 137.042H55.2162C53.7856 137.042 52.6495 135.864 52.6495 134.349C52.6495 132.834 53.7856 131.572 55.2162 131.572H55.5528C56.9414 131.572 58.1196 132.834 58.1196 134.349C58.1196 135.864 56.9414 137.042 55.5528 137.042ZM71.6884 137.042C68.1959 137.042 64.9139 135.443 62.8941 132.792C62.0526 131.656 62.2629 130.015 63.399 129.174C64.5352 128.332 66.1762 128.542 67.0177 129.678C68.0697 131.067 69.7949 131.909 71.6884 131.909C75.7279 131.909 77.1585 129.131 77.2006 126.817C77.2006 124.797 76.0645 121.389 71.6884 121.347C71.6884 121.347 72.0671 121.431 65.5029 121.347C64.0723 121.347 62.9783 120.085 62.9783 118.696V107.714C62.9783 106.283 64.1144 105.105 65.545 105.105H77.7897C79.2203 105.105 80.3564 106.283 80.3564 107.714C80.3564 109.102 79.2203 110.281 77.7897 110.281H68.1539V116.129L71.7305 116.171C75.812 116.214 78.2946 118.065 79.6832 119.622C81.4084 121.557 82.3341 124.124 82.3341 126.817C82.3341 129.51 81.3663 131.993 79.6411 133.844C78.2526 135.317 75.77 137.042 71.6884 137.042ZM103.145 119.874C101.293 117.939 98.7685 116.887 96.0755 116.845C95.6547 116.845 95.276 116.845 94.8553 116.887L98.474 108.934C99.063 107.672 98.516 106.157 97.2537 105.61C95.9493 105.021 94.4766 105.568 93.8875 106.83L86.5238 122.946C86.0189 124.04 85.8927 125.555 85.8927 126.733C85.8085 132.287 90.2688 136.874 95.823 136.958H95.9493C98.5581 136.958 101.083 135.948 102.934 134.097C104.87 132.245 105.964 129.721 106.006 127.028C106.048 124.335 105.038 121.81 103.145 119.874ZM100.914 126.943C100.914 128.29 100.367 129.552 99.3997 130.478C98.474 131.404 97.2116 131.866 95.8651 131.866C93.1301 131.824 90.942 129.552 90.942 126.817C90.9841 125.471 91.5311 124.25 92.4568 123.325C93.4246 122.399 94.6449 121.894 95.9493 121.894H95.9914C97.3379 121.936 98.6002 122.483 99.5259 123.409C100.452 124.377 100.957 125.639 100.914 126.943Z" fill="#BCCFFF"/>
<path d="M182.467 106.168V160.887C180.643 160.887 179 159.174 179 161L177.5 161.5L167.5 160.887V161C167.5 159.174 164.386 160.887 162.562 160.887V106.168L165.88 99.5335V92.8986H179.15V99.5335L182.467 106.168Z" fill="#DA970F"/>
<path d="M158.908 106.168V160.887C157.084 160.887 155.441 159.174 155.441 161L153.941 161.5L143.941 160.887V161C143.941 159.174 140.827 160.887 139.003 160.887V106.168L142.32 99.5335V92.8986H155.59V99.5335L158.908 106.168Z" fill="#DA970F"/>
<path d="M172.514 63.0415C172.514 63.0415 165.879 76.3113 165.879 89.5812V92.8986H179.149V89.5812C179.149 76.3113 172.514 63.0415 172.514 63.0415Z" fill="#C88B11"/>
<path d="M148.955 63.0415C148.955 63.0415 142.32 76.3113 142.32 89.5812V92.8986H155.59V89.5812C155.59 76.3113 148.955 63.0415 148.955 63.0415Z" fill="#C88B11"/>
<path d="M180.808 162.317H164.217C163.302 162.317 162.559 161.574 162.559 160.659C162.559 159.744 163.302 159 164.217 159H180.808C181.723 159 182.467 159.744 182.467 160.659C182.467 161.574 181.723 162.317 180.808 162.317Z" fill="#C88B11"/>
<path d="M157.249 162.317H140.659C139.744 162.317 139 161.574 139 160.659C139 159.744 139.744 159 140.659 159H157.249C158.164 159 158.908 159.744 158.908 160.659C158.908 161.574 158.164 162.317 157.249 162.317Z" fill="#C88B11"/>
<path d="M172.514 155.908C171.599 155.908 170.855 155.164 170.855 154.249V110.053C170.855 109.138 171.599 108.394 172.514 108.394C173.429 108.394 174.173 109.138 174.173 110.053V154.249C174.173 155.164 173.429 155.908 172.514 155.908Z" fill="#FFB621"/>
<path d="M148.956 155.908C148.04 155.908 147.297 155.164 147.297 154.249V110.053C147.297 109.138 148.04 108.394 148.956 108.394C149.871 108.394 150.614 109.138 150.614 110.053V154.249C150.614 155.164 149.871 155.908 148.956 155.908Z" fill="#FFB621"/>
<path d="M99.5174 81.2778H36.4986C35.5834 81.2778 34.8398 80.5343 34.8398 79.6191C34.8398 78.7038 35.5834 77.9603 36.4986 77.9603H99.5174C100.433 77.9603 101.176 78.7038 101.176 79.6191C101.176 80.5343 100.433 81.2778 99.5174 81.2778Z" fill="#545C66"/>
<path d="M106.159 154.262H29.857C28.9418 154.262 28.1982 153.518 28.1982 152.603C28.1982 151.688 28.9418 150.944 29.857 150.944H106.159C107.074 150.944 107.817 151.688 107.817 152.603C107.817 153.518 107.074 154.262 106.159 154.262Z" fill="#BCCFFF"/>
<path d="M82.9368 160.897H53.0796C52.1644 160.897 51.4209 160.153 51.4209 159.238C51.4209 158.323 52.1644 157.579 53.0796 157.579H82.9368C83.852 157.579 84.5955 158.323 84.5955 159.238C84.5955 160.153 83.852 160.897 82.9368 160.897Z" fill="#BCCFFF"/>
<path d="M127.723 46.4444H24.8814C23.9662 46.4444 23.2227 45.7009 23.2227 44.7857C23.2227 43.8705 23.9662 43.127 24.8814 43.127H127.723C128.638 43.127 129.381 43.8705 129.381 44.7857C129.381 45.7009 128.638 46.4444 127.723 46.4444Z" fill="#FFD2A6"/>
<path d="M134.357 39.8095H31.5162C30.6009 39.8095 29.8574 39.066 29.8574 38.1508C29.8574 37.2356 30.6009 36.4921 31.5162 36.4921H134.357C135.273 36.4921 136.016 37.2356 136.016 38.1508C136.016 39.066 135.273 39.8095 134.357 39.8095Z" fill="#FFD2A6"/>
</svg>
