<svg width="209" height="209" viewBox="0 0 209 209" fill="none" xmlns="http://www.w3.org/2000/svg">
<path d="M160.897 53.0794H136.016V179.143H185.778V53.0794H160.897Z" fill="#656D78"/>
<path d="M126.063 63.0318H9.95238V169.19H126.063V63.0318ZM136.016 53.0794V179.143H0V53.0794H136.016Z" fill="#FFD2A6"/>
<path d="M124.405 63.0317C125.317 63.0317 126.063 63.7785 126.063 64.6905V167.532C126.063 168.444 125.317 169.19 124.405 169.19H11.6109C10.6989 169.19 9.95215 168.444 9.95215 167.532V64.6905C9.95215 63.7785 10.6989 63.0317 11.6109 63.0317H124.405Z" fill="#AF9474"/>
<path d="M23.2222 29.8571H159.238L136.016 53.0794H0L23.2222 29.8571Z" fill="#F2C397"/>
<path d="M185.778 53.0794H175.825L199.047 29.8571H209L185.778 53.0794Z" fill="#CCD1D9"/>
<path d="M199.047 29.8571L175.825 53.0794H136.016L159.238 29.8571H199.047Z" fill="#CCD1D9"/>
<path d="M209 29.8571V155.921L185.777 179.143V53.0794L209 29.8571Z" fill="#E6E9ED"/>
<path d="M114.452 72.9841C115.364 72.9841 116.111 73.7309 116.111 74.6429V84.5952C116.111 85.5072 115.364 86.254 114.452 86.254H21.563C20.651 86.254 19.9043 85.5072 19.9043 84.5952V74.6429C19.9043 73.7309 20.651 72.9841 21.563 72.9841H114.452Z" fill="#656D78"/>
<path d="M35.0375 139.082C34.6689 139.082 34.2593 139 33.8907 138.836C32.6621 138.181 32.1706 136.666 32.8259 135.437L44.3343 113.034H33.5221C32.1297 113.034 31.0239 111.929 31.0239 110.536C31.0239 109.144 32.1297 107.997 33.5221 107.997H48.4708C49.3309 107.997 50.15 108.447 50.6005 109.226C51.051 109.963 51.0919 110.905 50.6824 111.683L37.29 137.73C36.8395 138.59 35.9385 139.082 35.0375 139.082ZM56.8711 139.041H56.5435C55.151 139.041 54.0452 137.894 54.0452 136.42C54.0452 134.945 55.151 133.717 56.5435 133.717H56.8711C58.2226 133.717 59.3694 134.945 59.3694 136.42C59.3694 137.894 58.2226 139.041 56.8711 139.041ZM80.2757 122.331C78.4737 120.447 76.0164 119.423 73.3953 119.382C72.9857 119.382 72.6171 119.382 72.2076 119.423L75.7297 111.683C76.3031 110.454 75.7707 108.98 74.542 108.447C73.2724 107.874 71.839 108.406 71.2656 109.635L64.0984 125.321C63.607 126.386 63.4841 127.86 63.4841 129.007C63.4022 134.413 67.7434 138.877 73.1495 138.959H73.2724C75.8116 138.959 78.2689 137.976 80.071 136.174C81.9549 134.372 83.0197 131.915 83.0607 129.294C83.1016 126.672 82.1187 124.215 80.2757 122.331ZM78.1051 129.212C78.1051 130.522 77.5727 131.751 76.6307 132.652C75.7297 133.553 74.501 134.003 73.1905 134.003C70.5284 133.963 68.3987 131.751 68.3987 129.089C68.4397 127.778 68.9721 126.591 69.8731 125.69C70.8151 124.789 72.0028 124.297 73.2724 124.297H73.3133C74.6239 124.338 75.8526 124.87 76.7536 125.771C77.6546 126.713 78.1461 127.942 78.1051 129.212ZM105.141 134.413C104.772 134.208 104.322 134.085 103.871 134.044C103.502 134.003 103.134 134.003 102.765 134.003H93.837C94.4514 133.553 99.366 127.778 101.7 125.034C103.052 123.478 104.403 121.799 104.977 119.833C105.55 117.867 105.264 115.696 104.363 113.853C103.421 111.888 101.782 110.29 99.8575 109.307C97.6049 108.161 94.9019 107.792 92.4446 108.447C90.233 109.021 83.8849 112.379 86.9156 115.41C87.6118 116.106 88.7176 116.311 89.6186 115.901C90.2739 115.615 90.7654 114.959 91.2978 114.468C92.977 112.912 95.68 112.625 97.7278 113.69C99.325 114.509 100.513 116.229 100.308 117.99C100.144 119.423 99.1612 120.611 98.2192 121.676C94.5742 125.812 90.9702 130.072 87.448 134.29C87.0385 134.782 86.6289 135.273 86.4241 135.887C86.0965 136.952 86.7108 138.222 87.7347 138.672C88.3081 138.918 88.9634 138.918 89.5777 138.918H102.806C103.584 138.918 104.444 138.918 105.141 138.549C105.878 138.14 106.328 137.321 106.369 136.502C106.41 135.642 105.878 134.823 105.141 134.413Z" fill="#FADEBC"/>
<path d="M159.232 106.168V160.887C157.408 160.887 155.914 162.379 155.914 164.205V167.522H142.645V164.205C142.645 162.379 141.151 160.887 139.327 160.887V106.168L142.645 99.5335V92.8986H155.914V99.5335L159.232 106.168Z" fill="#F6BB42"/>
<path d="M149.279 63.0415C149.279 63.0415 142.645 76.3113 142.645 89.5812V92.8986H155.914V89.5812C155.914 76.3113 149.279 63.0415 149.279 63.0415Z" fill="#FC6E51"/>
<path d="M157.573 169.181H140.982C140.067 169.181 139.323 168.437 139.323 167.522C139.323 166.607 140.067 165.863 140.982 165.863H157.573C158.488 165.863 159.231 166.607 159.231 167.522C159.231 168.437 158.488 169.181 157.573 169.181Z" fill="#FFCE54"/>
<path d="M149.279 155.908C148.364 155.908 147.62 155.164 147.62 154.249V110.053C147.62 109.138 148.364 108.394 149.279 108.394C150.194 108.394 150.938 109.138 150.938 110.053V154.249C150.938 155.164 150.194 155.908 149.279 155.908Z" fill="#FFCE54"/>
<path d="M182.467 106.168V160.887C180.643 160.887 179.15 162.379 179.15 164.205V167.522H165.88V164.205C165.88 162.379 164.386 160.887 162.562 160.887V106.168L165.88 99.5335V92.8986H179.15V99.5335L182.467 106.168Z" fill="#F6BB42"/>
<path d="M172.515 63.0415C172.515 63.0415 165.88 76.3113 165.88 89.5812V92.8986H179.15V89.5812C179.15 76.3113 172.515 63.0415 172.515 63.0415Z" fill="#FC6E51"/>
<path d="M180.808 169.181H164.217C163.302 169.181 162.559 168.437 162.559 167.522C162.559 166.607 163.302 165.863 164.217 165.863H180.808C181.723 165.863 182.467 166.607 182.467 167.522C182.467 168.437 181.723 169.181 180.808 169.181Z" fill="#FFCE54"/>
<path d="M172.514 155.908C171.599 155.908 170.855 155.164 170.855 154.249V110.053C170.855 109.138 171.599 108.394 172.514 108.394C173.429 108.394 174.173 109.138 174.173 110.053V154.249C174.173 155.164 173.429 155.908 172.514 155.908Z" fill="#FFCE54"/>
<path d="M99.5174 81.2778H36.4986C35.5834 81.2778 34.8398 80.5343 34.8398 79.6191C34.8398 78.7038 35.5834 77.9603 36.4986 77.9603H99.5174C100.433 77.9603 101.176 78.7038 101.176 79.6191C101.176 80.5343 100.433 81.2778 99.5174 81.2778Z" fill="#545C66"/>
<path d="M106.159 154.262H29.857C28.9418 154.262 28.1982 153.518 28.1982 152.603C28.1982 151.688 28.9418 150.944 29.857 150.944H106.159C107.074 150.944 107.817 151.688 107.817 152.603C107.817 153.518 107.074 154.262 106.159 154.262Z" fill="#FADEBC"/>
<path d="M82.9368 160.897H53.0796C52.1644 160.897 51.4209 160.153 51.4209 159.238C51.4209 158.323 52.1644 157.579 53.0796 157.579H82.9368C83.852 157.579 84.5955 158.323 84.5955 159.238C84.5955 160.153 83.852 160.897 82.9368 160.897Z" fill="#FADEBC"/>
<path d="M127.723 46.4444H24.8814C23.9662 46.4444 23.2227 45.7009 23.2227 44.7857C23.2227 43.8705 23.9662 43.127 24.8814 43.127H127.723C128.638 43.127 129.381 43.8705 129.381 44.7857C129.381 45.7009 128.638 46.4444 127.723 46.4444Z" fill="#FFD2A6"/>
<path d="M134.357 39.8095H31.5162C30.6009 39.8095 29.8574 39.066 29.8574 38.1508C29.8574 37.2356 30.6009 36.4921 31.5162 36.4921H134.357C135.273 36.4921 136.016 37.2356 136.016 38.1508C136.016 39.066 135.273 39.8095 134.357 39.8095Z" fill="#FFD2A6"/>
</svg>
