<svg width="209" height="209" viewBox="0 0 209 209" fill="none" xmlns="http://www.w3.org/2000/svg">
<path d="M160.897 53.0794H136.016V179.143H185.778V53.0794H160.897Z" fill="#656D78"/>
<path d="M126.063 63.0318H9.95238V169.19H126.063V63.0318ZM136.016 53.0794V179.143H0V53.0794H136.016Z" fill="#FFD2A6"/>
<path d="M124.405 63.0317C125.317 63.0317 126.063 63.7785 126.063 64.6905V167.532C126.063 168.444 125.317 169.19 124.405 169.19H11.6109C10.6989 169.19 9.95215 168.444 9.95215 167.532V64.6905C9.95215 63.7785 10.6989 63.0317 11.6109 63.0317H124.405Z" fill="#ED5565"/>
<path d="M23.2222 29.8571H159.238L136.016 53.0794H0L23.2222 29.8571Z" fill="#F2C397"/>
<path d="M185.778 53.0794H175.825L199.047 29.8571H209L185.778 53.0794Z" fill="#CCD1D9"/>
<path d="M199.047 29.8571L175.825 53.0794H136.016L159.238 29.8571H199.047Z" fill="#CCD1D9"/>
<path d="M209 29.8571V155.921L185.777 179.143V53.0794L209 29.8571Z" fill="#E6E9ED"/>
<path d="M114.452 72.9841C115.364 72.9841 116.111 73.7309 116.111 74.6429V84.5952C116.111 85.5072 115.364 86.254 114.452 86.254H21.563C20.651 86.254 19.9043 85.5072 19.9043 84.5952V74.6429C19.9043 73.7309 20.651 72.9841 21.563 72.9841H114.452Z" fill="#656D78"/>
<path d="M34.2517 108.865C34.2517 108.833 34.22 108.802 34.22 108.77C34.22 108.738 34.22 108.707 34.22 108.675V108.58C34.22 108.548 34.1883 108.517 34.1883 108.485C34.1883 108.453 34.1883 108.422 34.1567 108.39V108.295C34.125 108.263 34.125 108.232 34.125 108.232L34.0617 108.137C34.0617 108.105 34.0617 108.073 34.03 108.042C34.03 108.01 33.9983 107.978 33.9983 107.947L33.935 107.852C33.935 107.852 33.9033 107.82 33.9033 107.788C33.8717 107.757 33.84 107.725 33.84 107.693C33.8083 107.693 33.8083 107.662 33.7767 107.662C33.745 107.63 33.745 107.598 33.7133 107.567L33.65 107.503C33.6183 107.472 33.5867 107.472 33.5867 107.44L33.4917 107.377C33.4917 107.377 33.4917 107.345 33.46 107.345C33.46 107.345 33.4283 107.345 33.4283 107.313C33.3967 107.313 33.365 107.282 33.3333 107.25C33.3017 107.25 33.3017 107.218 33.27 107.218L33.175 107.155C33.1433 107.155 33.1117 107.123 33.08 107.123C33.0483 107.123 33.0167 107.092 32.985 107.092C32.985 107.092 32.9533 107.06 32.9217 107.06C32.89 107.06 32.8583 107.028 32.8267 107.028C32.795 107.028 32.7633 106.997 32.7317 106.997H32.6367C32.605 106.965 32.5733 106.965 32.5417 106.965C32.51 106.965 32.4783 106.965 32.4467 106.965H32.32H32.2883H32.2567C32.225 106.965 32.1933 106.965 32.13 106.965H32.0667C32.035 106.965 32.0033 106.965 31.9717 106.997H31.8767C31.845 106.997 31.8133 107.028 31.7817 107.028C31.75 107.028 31.7183 107.028 31.6867 107.06C31.655 107.06 31.6233 107.06 31.5917 107.092C31.56 107.092 31.5283 107.092 31.4967 107.123C31.465 107.123 31.4333 107.155 31.4333 107.155C31.4017 107.187 31.37 107.187 31.3383 107.187C31.3067 107.218 31.275 107.25 31.2433 107.25L31.18 107.313C31.1483 107.313 31.1167 107.345 31.085 107.377C31.0533 107.377 31.0533 107.408 31.0217 107.408C30.99 107.44 30.99 107.472 30.9583 107.472L30.895 107.535C30.8633 107.567 30.8317 107.598 30.8317 107.63C30.8 107.63 30.7683 107.662 30.7683 107.693C30.7367 107.693 30.7367 107.725 30.7367 107.725C30.04 108.643 28.8683 109.213 28.1717 109.213C27.095 109.213 26.2083 110.1 26.2083 111.177C26.2083 112.253 27.095 113.14 28.1717 113.14C28.8683 113.14 29.6283 112.982 30.325 112.697V129.037C30.325 130.113 31.2117 131 32.2883 131C33.365 131 34.2517 130.113 34.2517 129.037V108.897V108.865ZM52.1025 127.453C51.8175 127.295 51.4692 127.2 51.1208 127.168C50.8358 127.137 50.5508 127.137 50.2658 127.137H43.3625C43.8375 126.788 47.6375 122.323 49.4425 120.202C50.4875 118.998 51.5325 117.7 51.9758 116.18C52.4192 114.66 52.1975 112.982 51.5008 111.557C50.7725 110.037 49.5058 108.802 48.0175 108.042C46.2758 107.155 44.1858 106.87 42.2858 107.377C40.5758 107.82 35.6675 110.417 38.0108 112.76C38.5492 113.298 39.4042 113.457 40.1008 113.14C40.6075 112.918 40.9875 112.412 41.3992 112.032C42.6975 110.828 44.7875 110.607 46.3708 111.43C47.6058 112.063 48.5242 113.393 48.3658 114.755C48.2392 115.863 47.4792 116.782 46.7508 117.605C43.9325 120.803 41.1458 124.097 38.4225 127.358C38.1058 127.738 37.7892 128.118 37.6308 128.593C37.3775 129.417 37.8525 130.398 38.6442 130.747C39.0875 130.937 39.5942 130.937 40.0692 130.937H50.2975C50.8992 130.937 51.5642 130.937 52.1025 130.652C52.6725 130.335 53.0208 129.702 53.0525 129.068C53.0842 128.403 52.6725 127.77 52.1025 127.453ZM58.9339 131.095C58.6805 131.095 58.4272 131.032 58.1739 130.937C57.2239 130.493 56.7805 129.385 57.1922 128.435L65.8372 108.453C66.2489 107.503 67.3572 107.06 68.3389 107.472C69.2889 107.883 69.7322 108.992 69.3205 109.973L60.6755 129.923C60.3589 130.652 59.6622 131.095 58.9339 131.095ZM74.9624 131.063C74.6774 131.063 74.3607 131 74.0757 130.873C73.1257 130.367 72.7457 129.195 73.2524 128.245L82.1507 110.923H73.7907C72.714 110.923 71.859 110.068 71.859 108.992C71.859 107.915 72.714 107.028 73.7907 107.028H85.349C86.014 107.028 86.6474 107.377 86.9957 107.978C87.344 108.548 87.3757 109.277 87.059 109.878L76.704 130.018C76.3557 130.683 75.659 131.063 74.9624 131.063ZM102.643 118.112C101.249 116.655 99.3492 115.863 97.3225 115.832C97.0058 115.832 96.7208 115.832 96.4042 115.863L99.1275 109.878C99.5708 108.928 99.1592 107.788 98.2092 107.377C97.2275 106.933 96.1192 107.345 95.6758 108.295L90.1342 120.423C89.7542 121.247 89.6592 122.387 89.6592 123.273C89.5958 127.453 92.9525 130.905 97.1325 130.968H97.2275C99.1908 130.968 101.091 130.208 102.484 128.815C103.941 127.422 104.764 125.522 104.796 123.495C104.828 121.468 104.068 119.568 102.643 118.112ZM100.964 123.432C100.964 124.445 100.553 125.395 99.8242 126.092C99.1275 126.788 98.1775 127.137 97.1642 127.137C95.1058 127.105 93.4592 125.395 93.4592 123.337C93.4908 122.323 93.9025 121.405 94.5992 120.708C95.3275 120.012 96.2458 119.632 97.2275 119.632H97.2592C98.2725 119.663 99.2225 120.075 99.9192 120.772C100.616 121.5 100.996 122.45 100.964 123.432Z" fill="#FF9EA8"/>
<path d="M99.5174 81.2778H36.4986C35.5834 81.2778 34.8398 80.5343 34.8398 79.6191C34.8398 78.7038 35.5834 77.9603 36.4986 77.9603H99.5174C100.433 77.9603 101.176 78.7038 101.176 79.6191C101.176 80.5343 100.433 81.2778 99.5174 81.2778Z" fill="#545C66"/>
<path d="M106.159 154.262H29.857C28.9418 154.262 28.1982 153.518 28.1982 152.603C28.1982 151.688 28.9418 150.944 29.857 150.944H106.159C107.074 150.944 107.817 151.688 107.817 152.603C107.817 153.518 107.074 154.262 106.159 154.262Z" fill="#FF9EA8"/>
<path d="M82.9368 160.897H53.0796C52.1644 160.897 51.4209 160.153 51.4209 159.238C51.4209 158.323 52.1644 157.579 53.0796 157.579H82.9368C83.852 157.579 84.5955 158.323 84.5955 159.238C84.5955 160.153 83.852 160.897 82.9368 160.897Z" fill="#FF9EA8"/>
<path d="M127.723 46.4444H24.8814C23.9662 46.4444 23.2227 45.7009 23.2227 44.7857C23.2227 43.8705 23.9662 43.127 24.8814 43.127H127.723C128.638 43.127 129.381 43.8705 129.381 44.7857C129.381 45.7009 128.638 46.4444 127.723 46.4444Z" fill="#FFD2A6"/>
<path d="M134.357 39.8095H31.5162C30.6009 39.8095 29.8574 39.066 29.8574 38.1508C29.8574 37.2356 30.6009 36.4921 31.5162 36.4921H134.357C135.273 36.4921 136.016 37.2356 136.016 38.1508C136.016 39.066 135.273 39.8095 134.357 39.8095Z" fill="#FFD2A6"/>
<path d="M143.095 158.938L152.59 158.94C154.344 158.938 155.757 157.526 155.758 155.772L155.758 124.117C155.754 122.365 154.342 120.952 152.59 120.949C150.839 120.949 149.423 122.365 149.424 124.115L146.265 124.117C146.267 122.371 144.853 120.949 143.101 120.952C141.348 120.95 139.936 122.363 139.936 124.118L139.929 155.773C139.927 157.518 141.343 158.938 143.095 158.938Z" fill="#ED5565"/>
<path d="M141.519 120.95L154.175 120.949C155.925 120.95 157.34 122.369 157.341 124.115C157.341 125.866 155.925 127.281 154.175 127.28L141.518 127.28C139.765 127.279 138.35 125.859 138.353 124.116C138.351 122.362 139.774 120.948 141.519 120.95Z" fill="#CCD1D9"/>
<path d="M153.582 152.368C153.22 152.368 152.925 152.073 152.925 151.71V134.187C152.925 133.825 153.22 133.53 153.582 133.53C153.945 133.53 154.24 133.825 154.24 134.187V151.71C154.24 152.073 153.945 152.368 153.582 152.368Z" fill="#F77381"/>
<path d="M143.095 111.629L152.59 111.63C154.344 111.629 155.757 110.217 155.758 108.462L155.758 76.8071C155.754 75.055 154.342 73.6427 152.59 73.6395C150.839 73.6395 149.423 75.055 149.424 76.805L146.265 76.8071C146.267 75.0615 144.853 73.6395 143.101 73.6427C141.348 73.6406 139.936 75.0528 139.936 76.8082L139.929 108.463C139.927 110.208 141.343 111.629 143.095 111.629Z" fill="#ED5565"/>
<path d="M141.519 73.6405L154.175 73.6394C155.925 73.6405 157.34 75.0593 157.341 76.8049C157.341 78.556 155.925 79.9715 154.175 79.9704L141.518 79.9704C139.765 79.9693 138.35 78.5494 138.353 76.806C138.351 75.0527 139.774 73.6383 141.519 73.6405Z" fill="#CCD1D9"/>
<path d="M153.582 105.058C153.22 105.058 152.925 104.763 152.925 104.4V86.8777C152.925 86.5148 153.22 86.2201 153.582 86.2201C153.945 86.2201 154.24 86.5148 154.24 86.8777V104.4C154.24 104.763 153.945 105.058 153.582 105.058Z" fill="#F77381"/>
<path d="M167.874 158.939L177.369 158.94C179.124 158.939 180.536 157.527 180.537 155.773L180.537 124.118C180.534 122.365 179.121 120.953 177.369 120.95C175.618 120.95 174.203 122.365 174.204 124.115L171.045 124.118C171.046 122.372 169.633 120.95 167.88 120.953C166.127 120.951 164.715 122.363 164.715 124.119L164.708 155.774C164.706 157.518 166.123 158.939 167.874 158.939Z" fill="#ED5565"/>
<path d="M166.298 120.951L178.954 120.95C180.704 120.951 182.119 122.37 182.12 124.115C182.12 125.867 180.704 127.282 178.954 127.281L166.297 127.281C164.545 127.28 163.129 125.86 163.132 124.117C163.13 122.363 164.553 120.949 166.298 120.951Z" fill="#CCD1D9"/>
<path d="M178.362 152.368C177.999 152.368 177.704 152.074 177.704 151.711V134.188C177.704 133.825 177.999 133.531 178.362 133.531C178.725 133.531 179.019 133.825 179.019 134.188V151.711C179.019 152.074 178.725 152.368 178.362 152.368Z" fill="#F77381"/>
<path d="M167.873 111.629L177.368 111.63C179.123 111.629 180.535 110.217 180.536 108.462L180.536 76.8072C180.533 75.055 179.12 73.6428 177.368 73.6395C175.617 73.6395 174.202 75.055 174.203 76.805L171.044 76.8072C171.045 75.0616 169.632 73.6395 167.879 73.6428C166.126 73.6406 164.714 75.0528 164.714 76.8083L164.707 108.463C164.705 110.208 166.122 111.629 167.873 111.629Z" fill="#ED5565"/>
<path d="M166.297 73.6405L178.953 73.6394C180.703 73.6405 182.118 75.0593 182.119 76.8049C182.119 78.556 180.703 79.9715 178.953 79.9704L166.296 79.9704C164.544 79.9693 163.128 78.5495 163.131 76.806C163.129 75.0528 164.552 73.6383 166.297 73.6405Z" fill="#CCD1D9"/>
<path d="M178.361 105.058C177.998 105.058 177.703 104.763 177.703 104.4V86.8778C177.703 86.5149 177.998 86.2201 178.361 86.2201C178.724 86.2201 179.018 86.5149 179.018 86.8778V104.4C179.018 104.763 178.724 105.058 178.361 105.058Z" fill="#F77381"/>
</svg>
