<svg width="209" height="209" viewBox="0 0 209 209" fill="none" xmlns="http://www.w3.org/2000/svg">
<path d="M160.897 53.0794H136.016V179.143H185.778V53.0794H160.897Z" fill="#656D78"/>
<path d="M126.063 63.0318H9.95238V169.19H126.063V63.0318ZM136.016 53.0794V179.143H0V53.0794H136.016Z" fill="#FFD2A6"/>
<path d="M124.405 63.0317C125.317 63.0317 126.063 63.7785 126.063 64.6905V167.532C126.063 168.444 125.317 169.19 124.405 169.19H11.6109C10.6989 169.19 9.95215 168.444 9.95215 167.532V64.6905C9.95215 63.7785 10.6989 63.0317 11.6109 63.0317H124.405Z" fill="#F2994A"/>
<path d="M23.2222 29.8571H159.238L136.016 53.0794H0L23.2222 29.8571Z" fill="#F2C397"/>
<path d="M185.778 53.0794H175.825L199.047 29.8571H209L185.778 53.0794Z" fill="#CCD1D9"/>
<path d="M199.047 29.8571L175.825 53.0794H136.016L159.238 29.8571H199.047Z" fill="#CCD1D9"/>
<path d="M209 29.8571V155.921L185.777 179.143V53.0794L209 29.8571Z" fill="#E6E9ED"/>
<path d="M114.452 72.9841C115.364 72.9841 116.111 73.7309 116.111 74.6429V84.5952C116.111 85.5072 115.364 86.254 114.452 86.254H21.563C20.651 86.254 19.9043 85.5072 19.9043 84.5952V74.6429C19.9043 73.7309 20.651 72.9841 21.563 72.9841H114.452Z" fill="#656D78"/>
<path d="M47.0991 116.545C47.0991 111.294 42.795 106.99 37.5432 106.99C32.2913 106.99 27.9872 111.294 27.9872 116.545C27.9872 121.797 32.2913 126.062 37.5432 126.062C37.938 126.062 38.3329 126.062 38.6883 126.022L35.3713 133.604C34.8185 134.789 35.3713 136.21 36.5955 136.763C36.9114 136.882 37.2273 136.961 37.5432 136.961C38.4909 136.961 39.3596 136.447 39.7545 135.539L43.9006 126.101C44.4535 124.917 44.9668 123.732 45.4801 122.508C46.3489 120.573 47.0991 118.717 47.0991 116.545ZM32.8047 116.545C32.8047 113.939 34.937 111.807 37.5432 111.807C40.1493 111.807 42.2817 113.939 42.2817 116.545C42.2817 119.152 40.1493 121.244 37.5432 121.244C34.937 121.244 32.8047 119.152 32.8047 116.545ZM76.5803 109.398V109.28C76.5803 109.24 76.5803 109.201 76.5803 109.161V109.043C76.5408 109.003 76.5408 108.964 76.5408 108.924C76.5408 108.885 76.5013 108.845 76.5013 108.806C76.5013 108.766 76.5013 108.727 76.4618 108.687C76.4618 108.648 76.4618 108.648 76.4223 108.608C76.4223 108.569 76.4223 108.53 76.3828 108.49C76.3828 108.451 76.3433 108.411 76.3433 108.372C76.3038 108.332 76.3038 108.332 76.3038 108.293C76.2644 108.253 76.2249 108.214 76.2249 108.174L76.1459 108.095C76.1459 108.056 76.1064 108.016 76.0669 107.977C76.0669 107.937 76.0274 107.937 76.0274 107.898C75.9879 107.858 75.9485 107.858 75.9485 107.819L75.8695 107.74C75.83 107.7 75.7905 107.661 75.751 107.661C75.751 107.621 75.7115 107.582 75.672 107.582L75.6326 107.542C75.5931 107.503 75.5931 107.503 75.5931 107.503L75.4746 107.424C75.4351 107.424 75.3956 107.384 75.3956 107.384L75.2772 107.305C75.2377 107.305 75.1982 107.305 75.1587 107.266C75.1192 107.266 75.0797 107.226 75.0797 107.226C75.0402 107.226 75.0008 107.187 74.9218 107.187C74.9218 107.187 74.8823 107.187 74.8428 107.147C74.8033 107.147 74.7638 107.147 74.7243 107.108H74.6059C74.5664 107.108 74.5269 107.108 74.4874 107.068H74.4084C74.3295 107.068 74.29 107.068 74.2505 107.068H74.211C74.1715 107.068 74.1715 107.068 74.132 107.068H74.0136C73.9741 107.068 73.9346 107.068 73.8951 107.108H73.7766C73.7372 107.108 73.6977 107.108 73.6582 107.147H73.5397C73.5002 107.187 73.4607 107.187 73.4213 107.187C73.3818 107.226 73.3818 107.226 73.3423 107.226C73.3028 107.266 73.2633 107.266 73.2238 107.266L73.1054 107.345C73.0659 107.345 73.0659 107.345 73.0264 107.384C72.9869 107.384 72.9474 107.424 72.9079 107.463C72.8684 107.463 72.8684 107.503 72.8289 107.503C72.7895 107.542 72.75 107.542 72.7105 107.582L72.6315 107.661C72.592 107.661 72.592 107.7 72.5525 107.74C72.513 107.779 72.4736 107.779 72.4736 107.819C72.4341 107.858 72.3946 107.858 72.3946 107.898C72.3551 107.937 72.3156 107.977 72.3156 108.016C72.2761 108.016 72.2761 108.016 72.2761 108.056L63.7073 119.783L55.178 108.056C55.1385 108.016 55.1385 108.016 55.0991 108.016C55.0991 107.977 55.0596 107.937 55.0201 107.898C55.0201 107.858 54.9806 107.858 54.9411 107.819C54.9411 107.779 54.9016 107.779 54.9016 107.74C54.8621 107.7 54.8226 107.661 54.7832 107.661C54.7437 107.621 54.7437 107.621 54.7042 107.582L54.5857 107.503C54.5857 107.503 54.5462 107.463 54.5067 107.463C54.4673 107.424 54.4278 107.384 54.3883 107.384C54.3883 107.345 54.3488 107.345 54.3093 107.345L54.1908 107.266C54.1514 107.266 54.1514 107.266 54.1119 107.226C54.0724 107.226 54.0329 107.226 53.9934 107.187C53.9539 107.187 53.9144 107.187 53.8749 107.147H53.7565C53.717 107.108 53.6775 107.108 53.638 107.108H53.5196C53.4801 107.068 53.4406 107.068 53.4406 107.068H53.2826C53.2431 107.068 53.2431 107.068 53.2037 107.068C53.1247 107.068 53.0852 107.068 53.0457 107.068H52.9667C52.8878 107.108 52.8483 107.108 52.8088 107.108H52.7298C52.6508 107.147 52.6113 107.147 52.5719 107.147C52.5324 107.187 52.5324 107.187 52.4929 107.187C52.4534 107.187 52.4139 107.226 52.3744 107.226C52.3349 107.226 52.2954 107.266 52.256 107.266C52.2165 107.305 52.177 107.305 52.1375 107.305C52.1375 107.345 52.098 107.345 52.0585 107.384C52.019 107.384 51.9795 107.424 51.9401 107.424C51.9006 107.463 51.8611 107.463 51.8611 107.503C51.8216 107.503 51.8216 107.503 51.8216 107.542C51.7821 107.542 51.7821 107.542 51.7426 107.582L51.6636 107.661C51.6242 107.661 51.5847 107.7 51.5847 107.74C51.5452 107.74 51.5057 107.779 51.5057 107.819L51.3872 107.898C51.3872 107.937 51.3477 107.937 51.3477 107.977C51.3083 108.016 51.2688 108.056 51.2688 108.095L51.1898 108.174C51.1898 108.214 51.1503 108.253 51.1503 108.293L51.0713 108.372C51.0713 108.411 51.0713 108.451 51.0318 108.49C51.0318 108.53 50.9924 108.569 50.9924 108.608C50.9924 108.648 50.9529 108.648 50.9529 108.687C50.9529 108.727 50.9134 108.766 50.9134 108.806C50.9134 108.845 50.9134 108.885 50.8739 108.924V109.043C50.8739 109.082 50.8344 109.122 50.8344 109.161V109.28C50.8344 109.319 50.8344 109.359 50.8344 109.398V109.477V134.631C50.8344 135.973 51.9006 137.039 53.2037 137.039C54.5462 137.039 55.6124 135.973 55.6124 134.631V116.822L61.7724 125.272C62.2463 125.865 62.9571 126.259 63.7073 126.259C64.4971 126.259 65.2079 125.865 65.6422 125.272L71.8023 116.822V134.631C71.8023 135.973 72.8684 137.039 74.211 137.039C75.5141 137.039 76.6197 135.973 76.6197 134.631V109.477C76.6197 109.438 76.5803 109.438 76.5803 109.398ZM105.733 109.398V109.28C105.733 109.24 105.733 109.201 105.733 109.161V109.043C105.694 109.003 105.694 108.964 105.694 108.924C105.694 108.885 105.654 108.845 105.654 108.806C105.654 108.766 105.654 108.727 105.615 108.687C105.615 108.648 105.615 108.648 105.575 108.608C105.575 108.569 105.575 108.53 105.536 108.49C105.536 108.451 105.496 108.411 105.496 108.372C105.457 108.332 105.457 108.332 105.457 108.293C105.417 108.253 105.378 108.214 105.378 108.174L105.299 108.095C105.299 108.056 105.259 108.016 105.22 107.977C105.22 107.937 105.18 107.937 105.18 107.898C105.141 107.858 105.101 107.858 105.101 107.819L105.022 107.74C104.983 107.7 104.943 107.661 104.904 107.661C104.904 107.621 104.864 107.582 104.825 107.582L104.785 107.542C104.746 107.503 104.746 107.503 104.746 107.503L104.627 107.424C104.588 107.424 104.549 107.384 104.549 107.384L104.43 107.305C104.391 107.305 104.351 107.305 104.312 107.266C104.272 107.266 104.233 107.226 104.233 107.226C104.193 107.226 104.154 107.187 104.075 107.187C104.075 107.187 104.035 107.187 103.996 107.147C103.956 107.147 103.917 107.147 103.877 107.108H103.759C103.719 107.108 103.68 107.108 103.64 107.068H103.561C103.482 107.068 103.443 107.068 103.403 107.068H103.364C103.324 107.068 103.324 107.068 103.285 107.068H103.166C103.127 107.068 103.087 107.068 103.048 107.108H102.93C102.89 107.108 102.851 107.108 102.811 107.147H102.693C102.653 107.187 102.614 107.187 102.574 107.187C102.535 107.226 102.535 107.226 102.495 107.226C102.456 107.266 102.416 107.266 102.377 107.266L102.258 107.345C102.219 107.345 102.219 107.345 102.179 107.384C102.14 107.384 102.1 107.424 102.061 107.463C102.021 107.463 102.021 107.503 101.982 107.503C101.942 107.542 101.903 107.542 101.863 107.582L101.784 107.661C101.745 107.661 101.745 107.7 101.705 107.74C101.666 107.779 101.626 107.779 101.626 107.819C101.587 107.858 101.547 107.858 101.547 107.898C101.508 107.937 101.468 107.977 101.468 108.016C101.429 108.016 101.429 108.016 101.429 108.056L92.8602 119.783L84.3309 108.056C84.2914 108.016 84.2914 108.016 84.2519 108.016C84.2519 107.977 84.2124 107.937 84.173 107.898C84.173 107.858 84.1335 107.858 84.094 107.819C84.094 107.779 84.0545 107.779 84.0545 107.74C84.015 107.7 83.9755 107.661 83.936 107.661C83.8965 107.621 83.8965 107.621 83.8571 107.582L83.7386 107.503C83.7386 107.503 83.6991 107.463 83.6596 107.463C83.6201 107.424 83.5806 107.384 83.5412 107.384C83.5412 107.345 83.5017 107.345 83.4622 107.345L83.3437 107.266C83.3042 107.266 83.3042 107.266 83.2647 107.226C83.2253 107.226 83.1858 107.226 83.1463 107.187C83.1068 107.187 83.0673 107.187 83.0278 107.147H82.9094C82.8699 107.108 82.8304 107.108 82.7909 107.108H82.6724C82.6329 107.068 82.5935 107.068 82.5935 107.068H82.4355C82.396 107.068 82.396 107.068 82.3565 107.068C82.2776 107.068 82.2381 107.068 82.1986 107.068H82.1196C82.0406 107.108 82.0011 107.108 81.9617 107.108H81.8827C81.8037 107.147 81.7642 107.147 81.7247 107.147C81.6852 107.187 81.6852 107.187 81.6458 107.187C81.6063 107.187 81.5668 107.226 81.5273 107.226C81.4878 107.226 81.4483 107.266 81.4088 107.266C81.3693 107.305 81.3299 107.305 81.2904 107.305C81.2904 107.345 81.2509 107.345 81.2114 107.384C81.1719 107.384 81.1324 107.424 81.0929 107.424C81.0534 107.463 81.014 107.463 81.014 107.503C80.9745 107.503 80.9745 107.503 80.9745 107.542C80.935 107.542 80.935 107.542 80.8955 107.582L80.8165 107.661C80.777 107.661 80.7375 107.7 80.7375 107.74C80.6981 107.74 80.6586 107.779 80.6586 107.819L80.5401 107.898C80.5401 107.937 80.5006 107.937 80.5006 107.977C80.4611 108.016 80.4216 108.056 80.4216 108.095L80.3427 108.174C80.3427 108.214 80.3032 108.253 80.3032 108.293L80.2242 108.372C80.2242 108.411 80.2242 108.451 80.1847 108.49C80.1847 108.53 80.1452 108.569 80.1452 108.608C80.1452 108.648 80.1057 108.648 80.1057 108.687C80.1057 108.727 80.0663 108.766 80.0663 108.806C80.0663 108.845 80.0663 108.885 80.0268 108.924V109.043C80.0268 109.082 79.9873 109.122 79.9873 109.161V109.28C79.9873 109.319 79.9873 109.359 79.9873 109.398V109.477V134.631C79.9873 135.973 81.0534 137.039 82.3565 137.039C83.6991 137.039 84.7653 135.973 84.7653 134.631V116.822L90.9253 125.272C91.3992 125.865 92.1099 126.259 92.8602 126.259C93.65 126.259 94.3607 125.865 94.7951 125.272L100.955 116.822V134.631C100.955 135.973 102.021 137.039 103.364 137.039C104.667 137.039 105.773 135.973 105.773 134.631V109.477C105.773 109.438 105.733 109.438 105.733 109.398Z" fill="#FFD2AA"/>
<path d="M99.5174 81.2778H36.4986C35.5834 81.2778 34.8398 80.5343 34.8398 79.6191C34.8398 78.7038 35.5834 77.9603 36.4986 77.9603H99.5174C100.433 77.9603 101.176 78.7038 101.176 79.6191C101.176 80.5343 100.433 81.2778 99.5174 81.2778Z" fill="#545C66"/>
<path d="M106.159 154.262H29.857C28.9418 154.262 28.1982 153.518 28.1982 152.603C28.1982 151.688 28.9418 150.944 29.857 150.944H106.159C107.074 150.944 107.817 151.688 107.817 152.603C107.817 153.518 107.074 154.262 106.159 154.262Z" fill="#FFD2AA"/>
<path d="M82.9368 160.897H53.0796C52.1644 160.897 51.4209 160.153 51.4209 159.238C51.4209 158.323 52.1644 157.579 53.0796 157.579H82.9368C83.852 157.579 84.5955 158.323 84.5955 159.238C84.5955 160.153 83.852 160.897 82.9368 160.897Z" fill="#FFD2AA"/>
<path d="M127.723 46.4444H24.8814C23.9662 46.4444 23.2227 45.7009 23.2227 44.7857C23.2227 43.8705 23.9662 43.127 24.8814 43.127H127.723C128.638 43.127 129.381 43.8705 129.381 44.7857C129.381 45.7009 128.638 46.4444 127.723 46.4444Z" fill="#FFD2A6"/>
<path d="M134.357 39.8095H31.5162C30.6009 39.8095 29.8574 39.066 29.8574 38.1508C29.8574 37.2356 30.6009 36.4921 31.5162 36.4921H134.357C135.273 36.4921 136.016 37.2356 136.016 38.1508C136.016 39.066 135.273 39.8095 134.357 39.8095Z" fill="#FFD2A6"/>
<path d="M157.241 100.017C156.857 96.0782 153.538 93 149.499 93C145.46 93 142.141 96.0782 141.758 100.017L149.499 101.019L157.241 100.017Z" fill="#FFA000"/>
<path d="M141.758 100.017C141.734 100.268 141.721 100.522 141.721 100.779V102.085L149.5 103.087L157.279 102.085V100.779C157.279 100.522 157.266 100.268 157.241 100.017H141.758Z" fill="#FFA000"/>
<path d="M157.279 104.429V102.085H141.721V104.429L149.5 105.431L157.279 104.429Z" fill="#FFC107"/>
<path d="M141.721 106.497L149.5 107.499L157.279 106.497V104.429H141.721V106.497Z" fill="#FFA000"/>
<path d="M158.982 139.108V108.22C158.982 107.268 158.21 106.497 157.259 106.497H141.739C140.788 106.497 140.017 107.268 140.017 108.22V139.108L149.499 140.109L158.982 139.108Z" fill="#FFC107"/>
<path d="M140.591 141.176H158.407C158.724 141.176 158.982 140.919 158.982 140.601V139.108H140.017V140.601C140.017 140.919 140.274 141.176 140.591 141.176Z" fill="#FFA000"/>
<path d="M140.911 144.155H158.088C158.932 144.155 160.036 143.337 160.036 142.172C159.665 141.475 158.932 141 158.088 141H140.911C140.066 141 139.334 141.475 138.963 142.172C138.963 143.238 140.067 144.155 140.911 144.155Z" fill="#FFC107"/>
<path d="M158.088 143.327H140.911C140.067 143.327 139.334 142.852 138.963 142.155C138.799 142.464 138.705 142.815 138.705 143.189C138.705 144.408 139.693 145.395 140.911 145.395H158.088C159.306 145.395 160.294 144.408 160.294 143.189C160.294 142.815 160.2 142.464 160.036 142.155C159.665 142.852 158.932 143.327 158.088 143.327Z" fill="#FFA000"/>
<path d="M181.241 100.017C180.857 96.0782 177.538 93 173.499 93C169.46 93 166.141 96.0782 165.758 100.017L173.499 101.019L181.241 100.017Z" fill="#FFA000"/>
<path d="M165.758 100.017C165.734 100.268 165.721 100.522 165.721 100.779V102.085L173.5 103.087L181.279 102.085V100.779C181.279 100.522 181.266 100.268 181.241 100.017H165.758Z" fill="#FFA000"/>
<path d="M181.279 104.429V102.085H165.721V104.429L173.5 105.431L181.279 104.429Z" fill="#FFC107"/>
<path d="M165.721 106.497L173.5 107.499L181.279 106.497V104.429H165.721V106.497Z" fill="#FFA000"/>
<path d="M182.982 139.108V108.22C182.982 107.268 182.21 106.497 181.259 106.497H165.739C164.788 106.497 164.017 107.268 164.017 108.22V139.108L173.499 140.109L182.982 139.108Z" fill="#FFC107"/>
<path d="M164.591 141.176H182.407C182.724 141.176 182.982 140.919 182.982 140.601V139.108H164.017V140.601C164.017 140.919 164.274 141.176 164.591 141.176Z" fill="#FFA000"/>
<path d="M164.911 144.155H182.088C182.932 144.155 184.036 143.337 184.036 142.172C183.665 141.475 182.932 141 182.088 141H164.911C164.066 141 163.334 141.475 162.963 142.172C162.963 143.238 164.067 144.155 164.911 144.155Z" fill="#FFC107"/>
<path d="M182.088 143.327H164.911C164.067 143.327 163.334 142.852 162.963 142.155C162.799 142.464 162.705 142.815 162.705 143.189C162.705 144.408 163.693 145.395 164.911 145.395H182.088C183.306 145.395 184.294 144.408 184.294 143.189C184.294 142.815 184.2 142.464 184.036 142.155C183.665 142.852 182.932 143.327 182.088 143.327Z" fill="#FFA000"/>
</svg>
