<svg width="56" height="186" viewBox="0 0 56 186" fill="none" xmlns="http://www.w3.org/2000/svg">
<path d="M55.9039 165.203L37.5364 28.4908C37.4854 28.1114 37.3447 27.7492 37.1267 27.4337L29.955 17.0769C29.5022 16.423 28.7577 16.0332 27.9626 16.0332C27.1671 16.0332 26.4225 16.4234 25.9701 17.0769L18.7976 27.4337C18.5796 27.7488 18.4393 28.1114 18.3879 28.4908L0.0216725 165.203C-0.0991867 166.101 0.29188 166.991 1.03387 167.511L26.5723 185.389C26.9892 185.681 27.4753 185.827 27.9621 185.827C28.4482 185.827 28.9351 185.681 29.352 185.389L54.8913 167.511C55.6341 166.992 56.0248 166.101 55.9039 165.203Z" fill="#E03C2F"/>
<path d="M9.80955 172.978L30.6241 18.0425L29.9551 17.0769C29.5023 16.423 28.7577 16.0332 27.9626 16.0332C27.1671 16.0332 26.4225 16.4234 25.9701 17.0769L18.7976 27.4337C18.5796 27.7488 18.4393 28.1114 18.388 28.4908L0.0216725 165.203C-0.0991867 166.101 0.29188 166.991 1.03387 167.511L9.80005 173.648C9.78149 173.427 9.77933 173.203 9.80955 172.978Z" fill="#C12925"/>
<path d="M34.8652 72.6597L42.7132 67.0186L39.9279 46.2817L13.4416 65.3179L10.0605 90.4886L25.2793 79.5499" fill="#FF633E"/>
<path d="M13.442 65.3179L10.3092 88.6338L10.0605 90.489L22.0502 81.8708L25.4317 56.7002L13.442 65.3179Z" fill="#E84221"/>
<path d="M25.2786 114.311L4.891 128.965L1.50781 154.136L49.7574 119.456L46.9707 98.7197L34.7445 107.508" fill="#FF633E"/>
<path d="M13.499 145.517L16.8809 120.348L4.89167 128.965L3.54495 138.983L1.50977 154.135L13.499 145.517Z" fill="#E84221"/>
<path d="M27.9628 0L8.9707 12.9224L18.4663 28.398H27.9628H37.4594L46.9554 12.9224L27.9628 0Z" fill="#C63320"/>
<path d="M19.7936 8.36736C19.7936 7.3612 19.8696 6.37275 20.0155 5.40674L8.9707 12.9225L18.4668 28.398H27.9633H37.4598L37.727 27.9629C27.6762 27.0789 19.7936 18.6456 19.7936 8.36736Z" fill="#AF251B"/>
</svg>
