<svg width="150" height="195" viewBox="0 0 150 195" fill="none" xmlns="http://www.w3.org/2000/svg">
<path d="M142.683 55.4878H76.0981C72.5958 55.4878 69.7568 52.6485 69.7568 49.1465V6.34131C69.7568 2.83893 72.5961 0 76.0981 0H142.683C146.186 0 149.025 2.83931 149.025 6.34131V49.1461C149.025 52.6485 146.186 55.4878 142.683 55.4878Z" fill="#9DC6FB"/>
<path d="M142.684 0H134.757C138.259 0 141.098 2.83931 141.098 6.34131V49.1461C141.098 52.6485 138.259 55.4874 134.757 55.4874H142.684C146.186 55.4874 149.025 52.6481 149.025 49.1461V6.34131C149.025 2.83931 146.186 0 142.684 0V0Z" fill="#80B4FB"/>
<path d="M142.683 195H76.0981C72.5958 195 69.7568 192.161 69.7568 188.659V61.8291C69.7568 58.3267 72.5961 55.4878 76.0981 55.4878H142.683C146.186 55.4878 149.025 58.3271 149.025 61.8291V188.659C149.025 192.161 146.186 195 142.683 195Z" fill="#F9F6F9"/>
<path d="M142.684 55.4878H134.757C138.259 55.4878 141.098 58.3271 141.098 61.8291V188.659C141.098 192.161 138.259 195 134.757 195H142.684C146.186 195 149.025 192.161 149.025 188.659V61.8291C149.025 58.3271 146.186 55.4878 142.684 55.4878Z" fill="#DFDDE2"/>
<path d="M103.05 195H15.8545V41.2196H103.05C107.428 41.2196 110.976 44.7685 110.976 49.1464V187.073C110.976 191.451 107.428 195 103.05 195Z" fill="#E28086"/>
<path d="M103.049 41.2196H94.3301C98.7081 41.2196 102.257 44.7685 102.257 49.1464V187.073C102.257 191.451 98.7081 195 94.3301 195H103.049C107.427 195 110.976 191.451 110.976 187.073V49.1464C110.976 44.7685 107.427 41.2196 103.049 41.2196Z" fill="#DD636E"/>
<path d="M15.854 195H3.9636C1.77481 195 0 193.226 0 191.037V45.1828C0 42.994 1.77442 41.2192 3.9636 41.2192H15.854V195Z" fill="#5490F9"/>
<path d="M63.415 119.497C78.7376 119.497 91.159 107.076 91.159 91.7532C91.159 76.4306 78.7376 64.0092 63.415 64.0092C48.0923 64.0092 35.6709 76.4306 35.6709 91.7532C35.6709 107.076 48.0923 119.497 63.415 119.497Z" fill="#FFE07D"/>
<path d="M87.7833 147.241H39.0455C37.7452 147.241 36.6914 146.187 36.6914 144.887V136.912C36.6914 135.612 37.7452 134.558 39.0455 134.558H87.7837C89.084 134.558 90.1378 135.612 90.1378 136.912V144.887C90.1374 146.187 89.0836 147.241 87.7833 147.241Z" fill="#DDEAFB"/>
<path d="M136.342 44.1621H124.451C122.826 44.1621 121.509 42.8447 121.509 41.2196C121.509 39.5945 122.826 38.2771 124.451 38.2771H136.342C137.967 38.2771 139.284 39.5945 139.284 41.2196C139.284 42.8447 137.967 44.1621 136.342 44.1621Z" fill="#E28424"/>
<path d="M136.341 15.6255H103.049C101.424 15.6255 100.106 14.3081 100.106 12.683C100.106 11.0579 101.424 9.74048 103.049 9.74048H136.341C137.967 9.74048 139.284 11.0579 139.284 12.683C139.284 14.3081 137.967 15.6255 136.341 15.6255Z" fill="#E28424"/>
<path d="M90.3664 15.6255H82.4396C80.8145 15.6255 79.4971 14.3081 79.4971 12.683C79.4971 11.0579 80.8145 9.74048 82.4396 9.74048H90.3664C91.9915 9.74048 93.3089 11.0579 93.3089 12.683C93.3089 14.3081 91.9915 15.6255 90.3664 15.6255Z" fill="#E28424"/>
<path d="M118.11 28.3085H82.4396C80.8145 28.3085 79.4971 26.9911 79.4971 25.366C79.4971 23.7409 80.8145 22.4235 82.4396 22.4235H118.11C119.735 22.4235 121.053 23.7409 121.053 25.366C121.053 26.9911 119.735 28.3085 118.11 28.3085Z" fill="#E28424"/>
<path d="M123.659 138.492C122.034 138.492 120.717 137.174 120.717 135.549V68.1712C120.717 66.546 122.034 65.2286 123.659 65.2286C125.284 65.2286 126.602 66.546 126.602 68.1712V135.549C126.602 137.174 125.284 138.492 123.659 138.492Z" fill="#595959"/>
<path d="M136.342 185.26C134.717 185.26 133.399 183.943 133.399 182.317V68.1708C133.399 66.5457 134.717 65.2283 136.342 65.2283C137.967 65.2283 139.284 66.5457 139.284 68.1708V182.317C139.284 183.942 137.967 185.26 136.342 185.26Z" fill="#595959"/>
<path d="M63.4151 61.0667C46.4943 61.0667 32.7285 74.8324 32.7285 91.7533C32.7285 108.674 46.4943 122.44 63.4151 122.44C80.3359 122.44 94.1017 108.674 94.1017 91.7533C94.1017 74.8324 80.3356 61.0667 63.4151 61.0667ZM88.0358 88.8104H80.1566C79.8187 82.0524 78.322 75.7503 75.8563 70.8193C75.7314 70.5695 75.6007 70.3314 75.472 70.0904C82.2532 73.8799 87.0791 80.7586 88.0358 88.8104ZM60.4722 67.9991V88.8104H52.5675C53.1327 78.4239 56.6339 70.699 60.4722 67.9991ZM60.4722 94.6958V115.507C56.6339 112.807 53.1327 105.082 52.5675 94.6958H60.4722ZM66.3576 115.507V94.6958H74.2628C73.6976 105.082 70.1959 112.807 66.3576 115.507ZM66.3576 88.8104V67.9991C70.1959 70.699 73.6976 78.4239 74.2628 88.8104H66.3576ZM51.3583 70.0904C51.2291 70.3314 51.0989 70.5691 50.974 70.8193C48.5087 75.7507 47.0115 82.0528 46.6737 88.8104H38.7941C39.7512 80.7586 44.5767 73.8799 51.3583 70.0904ZM38.7945 94.6958H46.6741C47.0119 101.454 48.5087 107.756 50.9743 112.687C51.0993 112.937 51.2299 113.175 51.3586 113.416C44.5767 109.626 39.7512 102.748 38.7945 94.6958ZM75.4716 113.416C75.6007 113.175 75.731 112.937 75.8559 112.687C78.3216 107.755 79.8187 101.453 80.1562 94.6958H88.0354C87.0791 102.748 82.2532 109.626 75.4716 113.416Z" fill="#FFD064"/>
<path d="M87.1958 162.866H39.6349C38.0098 162.866 36.6924 161.549 36.6924 159.924C36.6924 158.299 38.0098 156.981 39.6349 156.981H87.1958C88.821 156.981 90.1384 158.299 90.1384 159.924C90.1384 161.549 88.821 162.866 87.1958 162.866Z" fill="#FFE07D"/>
<path d="M79.2693 175.153H76.9152C75.2901 175.153 73.9727 173.836 73.9727 172.211C73.9727 170.585 75.2901 169.268 76.9152 169.268H79.2693C80.8944 169.268 82.2118 170.585 82.2118 172.211C82.2118 173.836 80.8944 175.153 79.2693 175.153Z" fill="#FFE07D"/>
<path d="M64.6423 175.153H62.1876C60.5625 175.153 59.2451 173.836 59.2451 172.211C59.2451 170.585 60.5625 169.268 62.1876 169.268H64.6423C66.2674 169.268 67.5848 170.585 67.5848 172.211C67.5848 173.836 66.2674 175.153 64.6423 175.153Z" fill="#FFE07D"/>
<path d="M49.9158 175.153H47.5617C45.9365 175.153 44.6191 173.836 44.6191 172.211C44.6191 170.585 45.9365 169.268 47.5617 169.268H49.9158C51.5409 169.268 52.8583 170.585 52.8583 172.211C52.8583 173.836 51.5409 175.153 49.9158 175.153Z" fill="#FFE07D"/>
</svg>
