<svg width="161" height="161" viewBox="0 0 161 161" fill="none" xmlns="http://www.w3.org/2000/svg">
<path d="M138.211 156.594V151.492H158.506V156.594C158.506 158.839 156.669 160.676 154.424 160.676H142.293C140.048 160.676 138.211 158.839 138.211 156.594Z" fill="#CCCCCC"/>
<path d="M147.929 156.594V151.492H138.21V156.594C138.21 158.839 140.047 160.676 142.292 160.676H152.011C149.766 160.676 147.929 158.839 147.929 156.594Z" fill="#BABABA"/>
<path d="M2.49414 156.594V151.492H22.7892V156.594C22.7892 158.839 20.9525 160.676 18.7076 160.676H6.57573C4.33054 160.676 2.49414 158.839 2.49414 156.594Z" fill="#CCCCCC"/>
<path d="M12.2129 156.594V151.492H2.49414V156.594C2.49414 158.839 4.33086 160.676 6.57573 160.676H16.2948C14.0496 160.676 12.2129 158.839 12.2129 156.594Z" fill="#BABABA"/>
<path d="M145.217 9.5581C139.883 4.22341 131.869 0 121.997 0C99.3211 0 89.042 19.1046 89.042 19.1046C89.042 46.1421 89.042 44.3089 89.042 44.3884C89.042 44.3884 99.3211 63.493 121.997 63.493C127.345 63.493 131.935 62.0415 135.829 59.8249C135.829 63.9556 135.829 142.75 135.829 149.3C135.829 150.689 136.956 151.816 138.346 151.816H158.537C159.897 151.816 161 150.713 161 149.353C161 145.929 161 55.6568 161 51.6447C161 51.6451 161.137 23.7531 145.217 9.5581Z" fill="#EFEFEF"/>
<path d="M71.9581 19.1046C71.9581 19.1046 61.679 0 39.0028 0C29.1306 0 21.1174 4.22341 15.7827 9.5581C-0.137061 23.7531 3.93068e-05 51.6451 3.93068e-05 51.6451C3.93068e-05 55.6782 3.93068e-05 145.929 3.93068e-05 149.353C3.93068e-05 150.713 1.10282 151.816 2.46346 151.816H22.6541C24.044 151.816 25.1707 150.69 25.1707 149.3C25.1707 144.381 25.1707 71.6873 25.1707 66.7812V59.8252C29.0646 62.0421 33.6553 63.4933 39.0028 63.4933C61.679 63.4933 71.9581 44.3887 71.9581 44.3887C71.9581 44.3098 71.9581 46.1368 71.9581 19.1046Z" fill="#EFEFEF"/>
<path d="M9.71914 149.353C9.71914 145.929 9.71914 55.6568 9.71914 51.6447C9.71914 51.6447 9.58204 23.7534 25.5015 9.55808C29.9655 5.09411 36.3067 1.40967 44.0419 0.325756C32.7606 -1.15469 22.8013 2.53919 15.7824 9.55808C-0.137062 23.7531 3.93094e-05 51.645 3.93094e-05 51.645C3.93094e-05 55.6782 3.93094e-05 145.929 3.93094e-05 149.353C3.93094e-05 150.713 1.10282 151.816 2.46346 151.816H12.1826C10.8219 151.816 9.71914 150.713 9.71914 149.353Z" fill="#DDDDDD"/>
<path d="M71.9572 19.1359C69.2384 15.7292 63.7764 17.663 63.7764 22.1245V41.3693C63.7764 45.8323 69.2403 47.7624 71.9572 44.3579L71.9581 44.3893" fill="#EFEFEF"/>
<path d="M135.816 59.8322C135.81 59.7995 135.948 51.2948 130.274 48.0846C129.106 47.4236 127.624 47.8349 126.963 49.0028C126.302 50.171 126.714 51.6533 127.881 52.3139C131.482 54.3513 130.949 61.9214 130.956 62.0245C132.683 61.4353 134.303 60.6925 135.816 59.8322Z" fill="#CCCCCC"/>
<path d="M145.555 28.165C142.914 22.391 140.41 19.9012 137.829 17.3302C136.967 16.4683 136.029 15.6586 135.041 14.9237C133.964 14.1231 133.74 12.6012 134.541 11.5245C135.341 10.4475 136.863 10.223 137.94 11.0242C143.458 15.1256 147.274 20.2405 149.974 26.1431C150.532 27.3635 149.996 28.8052 148.775 29.3634C147.565 29.9178 146.117 29.3951 145.555 28.165Z" fill="#666666"/>
<path d="M110.998 36.3394C113.534 36.3394 115.59 34.2835 115.59 31.7475C115.59 29.2114 113.534 27.1555 110.998 27.1555C108.462 27.1555 106.406 29.2114 106.406 31.7475C106.406 34.2835 108.462 36.3394 110.998 36.3394Z" fill="#666666"/>
<path d="M149.547 50.6729C149.297 49.4752 150.027 48.1205 151.452 47.8155C154.068 47.3045 155.466 50.7616 153.276 52.2216C151.838 53.1907 149.86 52.3442 149.547 50.6729Z" fill="#666666"/>
<path d="M68.3683 46.0896C70.9044 46.0896 72.9603 44.0337 72.9603 41.4977V21.9962C72.9603 19.4602 70.9044 17.4043 68.3683 17.4043C65.8323 17.4043 63.7764 19.4602 63.7764 21.9962V41.498C63.7764 44.0337 65.8323 46.0896 68.3683 46.0896Z" fill="#666666"/>
<path d="M68.3683 33.7886C65.8323 33.7886 63.7764 31.7327 63.7764 29.1966V41.4974C63.7764 44.0334 65.8323 46.0893 68.3683 46.0893C70.9044 46.0893 72.9603 44.0334 72.9603 41.4974V29.1963C72.9599 31.7327 70.9044 33.7886 68.3683 33.7886Z" fill="#535454"/>
<path d="M30.7154 48.0842C25.0427 51.2938 25.199 59.7441 25.1738 59.8265C26.6867 60.6875 28.3064 61.4312 30.0334 62.0207V59.8246C30.0334 58.3278 30.5981 53.7343 33.1087 52.3136C34.2766 51.6529 34.6879 50.1706 34.0269 49.0024C33.3659 47.8349 31.8842 47.4239 30.7154 48.0842Z" fill="#CCCCCC"/>
<path d="M12.2243 29.3634C11.0039 28.8055 10.4672 27.3638 11.0256 26.1431C13.7337 20.2232 17.553 15.1165 23.0594 11.0242C24.1364 10.223 25.658 10.4475 26.459 11.5245C27.2596 12.6015 27.0353 14.1234 25.9587 14.9237C24.9707 15.6583 24.0323 16.468 23.1701 17.3302C20.3142 20.1719 18.015 22.5464 15.4449 28.165C15.0365 29.0574 13.4406 29.9206 12.2243 29.3634Z" fill="#666666"/>
<path d="M50.0011 36.3394C52.5372 36.3394 54.5931 34.2835 54.5931 31.7475C54.5931 29.2114 52.5372 27.1555 50.0011 27.1555C47.4651 27.1555 45.4092 29.2114 45.4092 31.7475C45.4092 34.2835 47.4651 36.3394 50.0011 36.3394Z" fill="#666666"/>
<path d="M6.64062 50.1999C6.64062 48.0858 9.20184 46.9327 10.7905 48.4798C11.7829 49.5005 11.6895 51.0184 10.7905 51.9168C9.70308 53.0057 6.64062 52.4108 6.64062 50.1999Z" fill="#666666"/>
<path d="M17.0151 145.892H8.26833C6.92656 145.892 5.83887 144.804 5.83887 143.462C5.83887 142.12 6.92656 141.033 8.26833 141.033H17.0151C18.3569 141.033 19.4446 142.12 19.4446 143.462C19.4449 144.804 18.3569 145.892 17.0151 145.892Z" fill="#CCCCCC"/>
<path d="M126.894 0.357847C125.318 0.126095 123.686 0 121.997 0C99.3211 0 89.042 19.1046 89.042 19.1046C89.042 46.1421 89.042 44.3089 89.042 44.3884C89.042 44.3884 99.3211 63.493 121.997 63.493C123.635 63.493 125.199 63.3556 126.696 63.1031C111.706 60.7164 100.364 47.5525 100.364 31.9493V31.5437C100.364 15.872 111.806 2.65964 126.894 0.357847Z" fill="#DDDDDD"/>
<path d="M145.599 149.3C145.599 138.281 145.599 72.1928 145.599 59.825C145.599 45.9259 130.274 48.0846 130.274 48.0846C134.163 50.2852 135.816 55.6164 135.816 59.825V59.8323C135.82 59.8298 135.825 59.8276 135.829 59.825C135.829 65.0978 135.829 144.051 135.829 149.3C135.829 150.69 136.956 151.817 138.346 151.817H148.115C146.725 151.816 145.599 150.69 145.599 149.3Z" fill="#DDDDDD"/>
<path d="M92.631 46.0891C90.095 46.0891 88.0391 44.0332 88.0391 41.4972V21.9958C88.0391 19.4597 90.095 17.4038 92.631 17.4038C95.1671 17.4038 97.223 19.4597 97.223 21.9958V41.4975C97.223 44.0332 95.1671 46.0891 92.631 46.0891Z" fill="#666666"/>
<path d="M92.631 33.7886C90.095 33.7886 88.0391 31.7327 88.0391 29.1966V41.4974C88.0391 44.0334 90.095 46.0893 92.631 46.0893C95.1671 46.0893 97.223 44.0334 97.223 41.4974V29.1963C97.223 31.7327 95.1671 33.7886 92.631 33.7886Z" fill="#535454"/>
<path d="M152.731 145.892H143.984C142.642 145.892 141.555 144.804 141.555 143.462C141.555 142.12 142.642 141.033 143.984 141.033H152.731C154.073 141.033 155.161 142.12 155.161 143.462C155.161 144.804 154.073 145.892 152.731 145.892Z" fill="#CCCCCC"/>
</svg>
