<svg width="151" height="159" viewBox="0 0 151 159" fill="none" xmlns="http://www.w3.org/2000/svg">
<path d="M36.8394 48.0292L33.2887 54.6131L29.4417 58.3119L14.9429 58.3119L11.0959 54.6131L7.54524 48.0292C4.88187 41.2977 5.39955 33.8261 8.95094 27.5379C10.3565 25.0971 11.0961 22.286 11.0961 19.4749L11.0346 11.0964C11.0346 4.95674 15.9908 0.000174266 22.1309 0C28.2709 0 33.2273 4.95675 33.2273 11.0964L33.2888 19.4749C33.2888 22.286 34.0285 25.0971 35.434 27.5379C39.059 33.8261 39.5763 41.2977 36.8394 48.0292Z" fill="#B7E0F6"/>
<path d="M36.8403 48.0292L33.2896 54.6131L29.4426 58.3119H22.193L22.1318 0C28.2718 -1.8552e-07 33.2282 4.95675 33.2282 11.0964L33.2898 19.4749C33.2898 22.286 34.0294 25.0971 35.4349 27.5379C39.0599 33.8261 39.5772 41.2977 36.8403 48.0292Z" fill="#A4D9F5"/>
<path d="M44.3853 78.433V86.3483L34.8425 98.9982C28.4804 98.9982 23.6722 94.8557 23.0802 94.3377C23.0802 94.3377 22.7845 94.0416 22.1925 93.6718C21.0092 92.8581 18.7894 91.6007 16.3486 91.6007C12.7233 91.6007 9.54263 94.3379 9.54263 94.3379L0 92.9323V78.4331C0 72.811 1.84928 67.3368 5.17836 62.8984L11.0964 54.6133L33.2891 54.6133L39.2071 62.8984C42.5358 67.3368 44.3853 72.8109 44.3853 78.433Z" fill="#CAE8F9"/>
<path d="M44.3856 78.4329V86.3482L34.8428 98.9981C28.4807 98.9981 23.6725 94.8557 23.0805 94.3376C23.0805 94.3376 22.7848 94.0416 22.1929 93.6717L22.1929 54.613L33.2892 54.613L39.2072 62.8982C42.5361 67.3367 44.3856 72.8108 44.3856 78.4329Z" fill="#B7E0F6"/>
<path d="M44.3853 86.3485L44.3855 147.082C44.3855 153.222 39.4292 158.178 33.2891 158.179H11.0964C4.9564 158.179 1.99541e-06 153.222 1.99541e-06 147.082L0 92.9322L4.5864 88.8636C5.17836 88.3456 9.98655 84.2031 16.3487 84.2031C18.4936 84.2031 20.4911 84.721 22.1925 85.3867C25.4475 86.6442 27.6666 88.4936 28.0364 88.8638C28.0364 88.8638 31.2173 91.6008 34.8425 91.6009C38.3932 91.6009 41.574 88.864 41.6481 88.8638L44.3853 86.3485Z" fill="#19DEC1"/>
<path d="M44.3854 86.3482L44.3856 147.082C44.3856 153.222 39.4294 158.178 33.2892 158.178H22.1929L22.193 85.3865C25.448 86.644 27.6671 88.4934 28.0369 88.8636C28.0369 88.8636 31.2178 91.6005 34.843 91.6007C38.3937 91.6007 41.5745 88.8638 41.6486 88.8636L44.3854 86.3482Z" fill="#17CEB4"/>
<path d="M21.1111 112.711C22.5555 111.267 22.5555 108.925 21.1111 107.481C19.6666 106.036 17.3247 106.036 15.8802 107.481C14.4358 108.925 14.4358 111.267 15.8802 112.711C17.3247 114.156 19.6666 114.156 21.1111 112.711Z" fill="#CAE8F9"/>
<path d="M28.5071 134.904C29.9515 133.459 29.9515 131.118 28.5071 129.673C27.0626 128.229 24.7207 128.229 23.2762 129.673C21.8318 131.118 21.8318 133.459 23.2762 134.904C24.7207 136.348 27.0626 136.348 28.5071 134.904Z" fill="#B7E0F6"/>
<path d="M89.7593 48.0292L86.2086 54.6131L82.3616 58.3119L67.8628 58.3119L64.0159 54.6131L60.4652 48.0292C57.8018 41.2977 58.3195 33.8261 61.8709 27.5379C63.2764 25.0971 64.016 22.286 64.016 19.4749L63.9545 11.0964C63.9545 4.95674 68.9107 0.000174266 75.0508 0C81.1908 0 86.1472 4.95675 86.1472 11.0964L86.2088 19.4749C86.2088 22.286 86.9484 25.0971 88.3539 27.5379C91.9789 33.8261 92.4962 41.2977 89.7593 48.0292Z" fill="#B7E0F6"/>
<path d="M89.7602 48.0292L86.2095 54.6131L82.3626 58.3119H75.113L75.0518 0C81.1917 -1.8552e-07 86.1481 4.95675 86.1481 11.0964L86.2097 19.4749C86.2097 22.286 86.9493 25.0971 88.3548 27.5379C91.9798 33.8261 92.4971 41.2977 89.7602 48.0292Z" fill="#A4D9F5"/>
<path d="M97.3052 78.433V86.3483L87.7624 98.9982C81.4003 98.9982 76.5921 94.8557 76.0001 94.3377C76.0001 94.3377 75.7044 94.0416 75.1125 93.6718C73.9291 92.8581 71.7093 91.6007 69.2686 91.6007C65.6432 91.6007 62.4625 94.3379 62.4625 94.3379L52.9199 92.9323V78.4331C52.9199 72.811 54.7692 67.3368 58.0983 62.8984L64.0163 54.6133L86.209 54.6133L92.127 62.8984C95.4557 67.3368 97.3052 72.8109 97.3052 78.433Z" fill="#CAE8F9"/>
<path d="M97.3055 78.4329V86.3482L87.7627 98.9981C81.4006 98.9981 76.5924 94.8557 76.0005 94.3376C76.0005 94.3376 75.7048 94.0416 75.1128 93.6717L75.1128 54.613L86.2092 54.613L92.1272 62.8982C95.4561 67.3367 97.3055 72.8108 97.3055 78.4329Z" fill="#B7E0F6"/>
<path d="M97.3052 86.3485L97.3054 147.082C97.3054 153.222 92.3491 158.178 86.209 158.179H64.0163C57.8763 158.179 52.9199 153.222 52.9199 147.082L52.9199 92.9322L57.5063 88.8636C58.0983 88.3456 62.9065 84.2031 69.2686 84.2031C71.4136 84.2031 73.411 84.721 75.1125 85.3867C78.3674 86.6442 80.5866 88.4936 80.9564 88.8638C80.9564 88.8638 84.1372 91.6008 87.7624 91.6009C91.3131 91.6009 94.494 88.864 94.5681 88.8638L97.3052 86.3485Z" fill="#19DEC1"/>
<path d="M97.3053 86.3482L97.3055 147.082C97.3055 153.222 92.3493 158.178 86.2092 158.178H75.1128L75.113 85.3865C78.3679 86.644 80.587 88.4934 80.9569 88.8636C80.9569 88.8636 84.1377 91.6005 87.7629 91.6007C91.3136 91.6007 94.4945 88.8638 94.5686 88.8636L97.3053 86.3482Z" fill="#17CEB4"/>
<path d="M74.031 112.711C75.4754 111.267 75.4754 108.925 74.031 107.481C72.5865 106.036 70.2446 106.036 68.8001 107.481C67.3557 108.925 67.3557 111.267 68.8001 112.711C70.2446 114.156 72.5865 114.156 74.031 112.711Z" fill="#CAE8F9"/>
<path d="M81.427 134.904C82.8714 133.459 82.8714 131.118 81.427 129.673C79.9825 128.229 77.6406 128.229 76.1961 129.673C74.7517 131.118 74.7517 133.459 76.1961 134.904C77.6406 136.348 79.9825 136.348 81.427 134.904Z" fill="#B7E0F6"/>
<path d="M142.759 48.0292L139.209 54.6131L135.362 58.3119L120.863 58.3119L117.016 54.6131L113.465 48.0292C110.802 41.2977 111.319 33.8261 114.871 27.5379C116.276 25.0971 117.016 22.286 117.016 19.4749L116.954 11.0964C116.954 4.95674 121.911 0.000174266 128.051 0C134.191 0 139.147 4.95675 139.147 11.0964L139.209 19.4749C139.209 22.286 139.948 25.0971 141.354 27.5379C144.979 33.8261 145.496 41.2977 142.759 48.0292Z" fill="#B7E0F6"/>
<path d="M142.76 48.0292L139.209 54.6131L135.363 58.3119H128.113L128.052 0C134.192 -1.8552e-07 139.148 4.95675 139.148 11.0964L139.21 19.4749C139.21 22.286 139.949 25.0971 141.355 27.5379C144.98 33.8261 145.497 41.2977 142.76 48.0292Z" fill="#A4D9F5"/>
<path d="M150.305 78.433V86.3483L140.762 98.9982C134.4 98.9982 129.592 94.8557 129 94.3377C129 94.3377 128.704 94.0416 128.112 93.6718C126.929 92.8581 124.709 91.6007 122.269 91.6007C118.643 91.6007 115.463 94.3379 115.463 94.3379L105.92 92.9323V78.4331C105.92 72.811 107.769 67.3368 111.098 62.8984L117.016 54.6133L139.209 54.6133L145.127 62.8984C148.456 67.3368 150.305 72.8109 150.305 78.433Z" fill="#CAE8F9"/>
<path d="M150.306 78.4329V86.3482L140.763 98.9981C134.401 98.9981 129.592 94.8557 129 94.3376C129 94.3376 128.705 94.0416 128.113 93.6717L128.113 54.613L139.209 54.613L145.127 62.8982C148.456 67.3367 150.306 72.8108 150.306 78.4329Z" fill="#B7E0F6"/>
<path d="M150.305 86.3485L150.305 147.082C150.305 153.222 145.349 158.178 139.209 158.179H117.016C110.876 158.179 105.92 153.222 105.92 147.082L105.92 92.9322L110.506 88.8636C111.098 88.3456 115.906 84.2031 122.269 84.2031C124.414 84.2031 126.411 84.721 128.112 85.3867C131.367 86.6442 133.587 88.4936 133.956 88.8638C133.956 88.8638 137.137 91.6008 140.762 91.6009C144.313 91.6009 147.494 88.864 147.568 88.8638L150.305 86.3485Z" fill="#19DEC1"/>
<path d="M150.305 86.3482L150.306 147.082C150.306 153.222 145.349 158.178 139.209 158.178H128.113L128.113 85.3865C131.368 86.644 133.587 88.4934 133.957 88.8636C133.957 88.8636 137.138 91.6005 140.763 91.6007C144.314 91.6007 147.494 88.8638 147.569 88.8636L150.305 86.3482Z" fill="#17CEB4"/>
<path d="M127.031 112.711C128.475 111.267 128.475 108.925 127.031 107.481C125.587 106.036 123.245 106.036 121.8 107.481C120.356 108.925 120.356 111.267 121.8 112.711C123.245 114.156 125.587 114.156 127.031 112.711Z" fill="#CAE8F9"/>
<path d="M134.427 134.904C135.871 133.459 135.871 131.118 134.427 129.673C132.983 128.229 130.641 128.229 129.196 129.673C127.752 131.118 127.752 133.459 129.196 134.904C130.641 136.348 132.983 136.348 134.427 134.904Z" fill="#B7E0F6"/>
</svg>
