<svg width="256" height="256" viewBox="0 0 256 256" fill="none" xmlns="http://www.w3.org/2000/svg">
<path d="M221.502 60.9866C222.66 63.4275 223.449 65.4097 223.449 68.1304C223.449 71.0662 222.283 73.8817 220.207 75.9576C218.131 78.0335 215.316 79.1998 212.38 79.1998C209.444 79.1998 206.629 78.0335 204.553 75.9576C202.477 73.8817 201.311 71.0662 201.311 68.1304C201.311 65.4097 202.243 63.1399 203.254 60.9866C205.042 57.1893 212.38 46.3726 212.38 46.3726C212.38 46.3726 219.691 57.1621 221.502 60.9866Z" fill="#75D2FC"/>
<path d="M61.8081 209.436L41.2667 188.894C40.3586 187.986 39.1269 187.476 37.8425 187.476C36.5582 187.476 35.3265 187.986 34.4183 188.894C33.5102 189.803 33 191.034 33 192.319C33 193.603 33.5102 194.835 34.4183 195.743L54.9597 216.284C55.8678 217.192 57.0995 217.702 58.3839 217.702C59.6682 217.702 60.8999 217.192 61.8081 216.284C62.7162 215.376 63.2264 214.144 63.2264 212.86C63.2264 211.576 62.7162 210.344 61.8081 209.436Z" fill="#B0B5CA"/>
<path d="M73.7365 183.815L54.9597 202.588L48.1152 195.743L66.8881 176.966L73.7365 183.815Z" fill="#D4E1F4"/>
<path d="M170.376 90.5991L170.489 90.7118C170.924 91.1461 171.269 91.6619 171.505 92.2298C171.74 92.7977 171.862 93.4065 171.862 94.0213C171.862 94.6362 171.74 95.245 171.505 95.8129C171.269 96.3808 170.924 96.8966 170.489 97.3309L160.092 107.728L142.975 90.6069L153.372 80.2138C153.806 79.7786 154.322 79.4333 154.89 79.1977C155.458 78.9621 156.066 78.8408 156.681 78.8408C157.296 78.8408 157.905 78.9621 158.473 79.1977C159.041 79.4333 159.556 79.7786 159.991 80.2138L160.103 80.3265L170.376 90.5991Z" fill="#B7FF8D"/>
<path d="M160.885 117.208C162.036 116.055 162.683 114.492 162.683 112.862C162.683 111.233 162.036 109.67 160.885 108.517L142.182 89.8181C141.03 88.6665 139.467 88.0195 137.838 88.0195C136.209 88.0195 134.647 88.6665 133.495 89.8181L64.1016 159.212V159.215L91.4913 186.605V186.601L160.885 117.208ZM137.253 98.0774C137.217 98.113 137.168 98.133 137.117 98.133C137.067 98.133 137.018 98.113 136.981 98.0774C136.963 98.0593 136.949 98.0378 136.939 98.0142C136.929 97.9905 136.924 97.9651 136.924 97.9394C136.924 97.9138 136.929 97.8884 136.939 97.8647C136.949 97.841 136.963 97.8195 136.981 97.8014C137.018 97.7658 137.067 97.7459 137.117 97.7459C137.168 97.7459 137.217 97.7658 137.253 97.8014C137.272 97.8195 137.286 97.841 137.296 97.8647C137.306 97.8884 137.311 97.9138 137.311 97.9394C137.311 97.9651 137.306 97.9905 137.296 98.0142C137.286 98.0378 137.272 98.0593 137.253 98.0774Z" fill="#A0EAEA"/>
<path d="M208.695 66.8164C210.118 63.7925 215.054 56.33 217.01 53.408C214.674 49.758 212.38 46.373 212.38 46.373C212.38 46.373 205.042 57.1898 203.254 60.9871C202.243 63.1404 201.311 65.4102 201.311 68.1309C201.311 70.2095 201.896 72.2461 203 74.0073C204.104 75.7686 205.682 77.1833 207.553 78.0894C207.023 76.7771 206.752 75.3752 206.753 73.9602C206.752 71.2395 207.685 68.9697 208.695 66.8164Z" fill="#5EBAD3"/>
<path d="M160.103 80.3265L159.991 80.2138C159.556 79.7786 159.041 79.4333 158.473 79.1977C157.905 78.9621 157.296 78.8408 156.681 78.8408C156.066 78.8408 155.458 78.9621 154.89 79.1977C154.322 79.4333 153.806 79.7786 153.372 80.2138L142.975 90.6069L148.61 96.2426L158.813 86.0439C159.247 85.6086 159.763 85.2634 160.331 85.0278C160.899 84.7922 161.508 84.6709 162.123 84.6709C162.737 84.6709 163.346 84.7922 163.914 85.0278C164.482 85.2634 164.998 85.6086 165.432 86.0439L165.545 86.1566L160.103 80.3265Z" fill="#9FDD76"/>
<path d="M142.182 89.8181C141.03 88.6665 139.467 88.0195 137.838 88.0195C136.209 88.0195 134.647 88.6665 133.495 89.8181L64.1016 159.212V159.215L69.7373 164.849L138.936 95.6482C140.089 94.4966 141.651 93.8496 143.28 93.8496C144.909 93.8496 146.471 94.4966 147.623 95.6482L142.182 89.8181Z" fill="#83CCC8"/>
<path d="M137.117 98.1324C137.224 98.1324 137.31 98.046 137.31 97.9393C137.31 97.8326 137.224 97.7461 137.117 97.7461C137.01 97.7461 136.924 97.8326 136.924 97.9393C136.924 98.046 137.01 98.1324 137.117 98.1324Z" fill="#A0EAEA"/>
<path d="M182.994 70.0396C182.533 70.0396 182.082 69.9029 181.699 69.6467C181.315 69.3904 181.016 69.0262 180.84 68.6C180.663 68.1739 180.617 67.7049 180.707 67.2525C180.797 66.8001 181.019 66.3846 181.345 66.0584L207.721 39.6832C207.937 39.4666 208.194 39.2948 208.477 39.1776C208.76 39.0604 209.063 39 209.37 39C209.676 39 209.979 39.0603 210.262 39.1775C210.545 39.2946 210.802 39.4664 211.019 39.683C211.235 39.8995 211.407 40.1566 211.524 40.4395C211.641 40.7224 211.702 41.0257 211.702 41.332C211.702 41.6382 211.642 41.9415 211.524 42.2244C211.407 42.5074 211.235 42.7645 211.019 42.981L184.643 69.3567C184.427 69.5735 184.17 69.7454 183.887 69.8626C183.604 69.9798 183.301 70.04 182.994 70.0396Z" fill="#D4E1F4"/>
<path d="M144.543 113.006C144.103 112.583 143.515 112.35 142.905 112.356C142.294 112.362 141.711 112.607 141.279 113.039C140.848 113.47 140.602 114.053 140.596 114.663C140.589 115.274 140.822 115.862 141.245 116.302L151.516 126.574L154.814 123.276L144.543 113.006Z" fill="#55D8D8"/>
<path d="M127.881 129.668C127.665 129.452 127.408 129.28 127.125 129.163C126.842 129.045 126.539 128.985 126.232 128.985C125.926 128.985 125.623 129.045 125.34 129.163C125.057 129.28 124.8 129.452 124.583 129.668C124.367 129.885 124.195 130.142 124.078 130.425C123.961 130.708 123.9 131.011 123.9 131.317C123.9 131.624 123.961 131.927 124.078 132.21C124.195 132.493 124.367 132.75 124.584 132.966L134.855 143.237L138.152 139.939L127.881 129.668Z" fill="#55D8D8"/>
<path d="M141.348 126.473C141.132 126.256 140.875 126.084 140.592 125.967C140.309 125.85 140.006 125.79 139.699 125.79C139.393 125.79 139.09 125.85 138.807 125.967C138.524 126.084 138.267 126.256 138.05 126.473C137.834 126.689 137.662 126.946 137.545 127.229C137.428 127.512 137.367 127.815 137.367 128.122C137.367 128.428 137.427 128.731 137.545 129.014C137.662 129.297 137.834 129.554 138.05 129.771L143.186 134.906L146.484 131.608L141.348 126.473Z" fill="#55D8D8"/>
<path d="M111.22 146.33C110.782 145.893 110.189 145.647 109.571 145.647C108.952 145.647 108.359 145.893 107.921 146.33C107.484 146.767 107.238 147.361 107.238 147.979C107.238 148.598 107.484 149.191 107.921 149.628L118.192 159.899L121.491 156.602L111.22 146.33Z" fill="#55D8D8"/>
<path d="M124.688 143.135C124.251 142.697 123.658 142.452 123.039 142.452C122.421 142.452 121.828 142.697 121.39 143.135C120.953 143.572 120.707 144.165 120.707 144.784C120.707 145.402 120.953 145.995 121.39 146.433L126.526 151.568L129.824 148.27L124.688 143.135Z" fill="#55D8D8"/>
<path d="M94.5572 162.992C94.3406 162.775 94.0835 162.604 93.8006 162.486C93.5176 162.369 93.2144 162.309 92.9081 162.309C92.2896 162.309 91.6965 162.555 91.2591 162.992C90.8218 163.429 90.5761 164.023 90.5762 164.641C90.5762 165.26 90.8219 165.853 91.2593 166.29L101.53 176.561L104.829 173.263L94.5572 162.992Z" fill="#55D8D8"/>
<path d="M108.024 159.797C107.587 159.359 106.993 159.114 106.375 159.114C105.756 159.114 105.163 159.36 104.726 159.797C104.289 160.234 104.043 160.827 104.043 161.446C104.043 162.065 104.289 162.658 104.726 163.095L109.862 168.229L113.16 164.931L108.024 159.797Z" fill="#55D8D8"/>
<path d="M137.116 100.465C136.617 100.465 136.129 100.317 135.713 100.04C135.298 99.7625 134.974 99.3681 134.783 98.9067C134.591 98.4452 134.541 97.9374 134.638 97.4474C134.735 96.9574 134.976 96.5073 135.329 96.1538C135.622 95.8598 135.984 95.6427 136.381 95.5218C136.779 95.401 137.2 95.38 137.608 95.4609C138.015 95.5417 138.397 95.7218 138.718 95.9853C139.039 96.2488 139.291 96.5874 139.45 96.9712C139.609 97.3551 139.671 97.7722 139.63 98.1858C139.59 98.5993 139.448 98.9965 139.217 99.342C138.986 99.6876 138.674 99.9709 138.308 100.167C137.941 100.363 137.532 100.465 137.116 100.465Z" fill="#F4F8FC"/>
<path d="M105.572 132.091C105.11 132.091 104.659 131.955 104.276 131.698C103.892 131.442 103.593 131.078 103.417 130.652C103.24 130.226 103.194 129.757 103.284 129.304C103.374 128.852 103.596 128.436 103.922 128.11L130.796 101.237C131.233 100.8 131.826 100.554 132.445 100.554C133.063 100.554 133.656 100.8 134.094 101.237C134.531 101.674 134.777 102.268 134.777 102.886C134.777 103.505 134.531 104.098 134.094 104.535L107.221 131.408C107.004 131.625 106.747 131.797 106.464 131.914C106.181 132.031 105.878 132.092 105.572 132.091Z" fill="#F4F8FC"/>
<path d="M182.992 67.7066C184.354 69.0694 185.118 70.9168 185.118 72.8429C185.118 74.769 184.354 76.6164 182.992 77.9792L170.376 90.5955V90.5994L160.104 80.3268L172.724 67.7066C174.086 66.3459 175.933 65.5815 177.858 65.5815C179.783 65.5815 181.63 66.3459 182.992 67.7066Z" fill="#B1E862"/>
<path d="M185.01 71.6235C184.788 70.31 184.209 69.0829 183.336 68.0768C182.463 67.0707 181.33 66.3244 180.061 65.9198C178.792 65.5152 177.435 65.4679 176.141 65.7832C174.847 66.0984 173.665 66.764 172.724 67.7069L160.104 80.327L165.739 85.9628L178.165 73.5369C179.046 72.6578 180.138 72.02 181.337 71.6849C182.536 71.3498 183.8 71.3287 185.01 71.6235Z" fill="#9EC94C"/>
<path d="M93.9817 189.096L61.6053 156.72C60.6113 155.737 59.2685 155.187 57.8702 155.19C56.472 155.194 55.132 155.751 54.1433 156.74C53.1546 157.729 52.5975 159.069 52.5938 160.467C52.59 161.865 53.14 163.208 54.1234 164.202L86.4998 196.578C87.4937 197.562 88.8366 198.112 90.2349 198.108C91.6331 198.104 92.973 197.547 93.9617 196.558C94.9505 195.57 95.5076 194.23 95.5113 192.832C95.515 191.433 94.9651 190.09 93.9817 189.096Z" fill="#B0B5CA"/>
</svg>
