<svg width="150" height="175" viewBox="0 0 150 175" fill="none" xmlns="http://www.w3.org/2000/svg">
<path d="M16.84 167.555V96.6472H4.98988C2.23432 96.6472 0 98.8809 0 101.637V170.01C0 172.766 2.23432 175 4.98988 175H20.3738C20.9894 175 21.5773 174.883 22.1217 174.678C19.0657 173.752 16.84 170.914 16.84 167.555Z" fill="#9BFCFF"/>
<path d="M7.65897 170.01V101.637C7.65897 98.8809 9.89329 96.6472 12.6489 96.6472H4.98988C2.23432 96.6472 0 98.8809 0 101.637V170.01C0 172.766 2.23432 175 4.98988 175H12.6489C9.89329 175 7.65897 172.765 7.65897 170.01Z" fill="#41F2ED"/>
<path d="M149.412 129.918V101.637C149.412 98.8809 147.178 96.6472 144.423 96.6472H132.573V167.556C132.573 170.915 130.346 173.752 127.29 174.679C127.835 174.883 128.422 175.001 129.039 175.001H144.423C147.178 175.001 149.412 172.766 149.412 170.011V139.429" fill="#9BFCFF"/>
<path d="M149.412 114.576V101.637C149.412 98.8811 147.178 96.6475 144.422 96.6475H132.572V114.576H149.412V114.576Z" fill="#FFE8A5"/>
<path d="M0 101.638V114.577H16.84V96.6484H4.98988C2.23432 96.6481 0 98.8817 0 101.638Z" fill="#FFE8A5"/>
<path d="M91.2549 24.7262H58.1571C56.6904 24.7262 55.4624 23.6137 55.3178 22.1542C55.2535 21.5051 55.2207 20.8509 55.2207 20.2094C55.2207 9.46571 63.9615 0.724609 74.7058 0.724609C85.4495 0.724609 94.1909 9.46537 94.1909 20.2094C94.1909 20.8431 94.1585 21.4963 94.0942 22.1508C93.9517 23.612 92.7229 24.7262 91.2549 24.7262ZM60.9779 19.0199H88.433C87.8281 11.9772 81.902 6.43124 74.7055 6.43124C67.509 6.43124 61.5832 11.9772 60.9779 19.0199Z" fill="#49BAED"/>
<path d="M36.1872 0H22.3157C19.5595 0 17.3262 2.23398 17.3262 4.98954V16.8793V48.5245V60.4142C20.4984 47.9851 29.4637 37.8738 41.1764 33.1214V21.2317V16.8796V4.98954C41.1767 2.23398 38.9427 0 36.1872 0Z" fill="#527A84"/>
<path d="M127.096 0H113.224C110.468 0 108.234 2.23398 108.234 4.98954V14.137V21.2314V30.3789C119.947 35.1305 128.912 45.2425 132.085 57.6716V48.5245V14.137V4.98954C132.085 2.23398 129.852 0 127.096 0Z" fill="#527A84"/>
<path d="M25.1451 16.8793V4.98954C25.1451 2.23398 27.3784 0 30.1346 0H22.3157C19.5595 0 17.3262 2.23398 17.3262 4.98954V16.8793V48.5245V60.4142C18.7932 54.6662 21.5016 49.4155 25.1451 44.9599C25.1451 44.9595 25.1451 16.8793 25.1451 16.8793Z" fill="#275D68"/>
<path d="M116.053 31.6937V30.3792V24.5987V21.231V15.4512V14.1367V4.98954C116.053 2.23398 118.286 0 121.042 0H113.223C110.467 0 108.233 2.23398 108.233 4.98954V14.137V21.2314V30.3789C111.008 31.5044 113.627 32.9345 116.052 34.6212V31.6937H116.053Z" fill="#275D68"/>
<path d="M93.1323 18.2952H56.2805C34.0781 18.2952 16.0791 36.2952 16.0791 58.4966V167.556C16.0791 171.667 19.4116 175 23.5234 175H125.888C129.999 175 133.333 171.667 133.333 167.556V58.4966C133.333 36.2952 115.335 18.2952 93.1323 18.2952Z" fill="#49BAED"/>
<path d="M115.038 102.236H34.3733C31.6167 102.236 29.3838 104.469 29.3838 107.225V157.17C29.3838 159.926 31.6171 162.16 34.3733 162.16H115.037C117.793 162.16 120.027 159.926 120.027 157.17V107.225C120.027 104.469 117.793 102.236 115.038 102.236Z" fill="#9BFCFF"/>
<path d="M102.918 136.714H46.4939C44.9183 136.714 43.6406 135.437 43.6406 133.861C43.6406 132.285 44.9183 131.007 46.4939 131.007H102.918C104.494 131.007 105.771 132.284 105.771 133.861C105.771 135.437 104.494 136.714 102.918 136.714Z" fill="#618A93"/>
<path d="M102.918 149.629H46.4939C44.9183 149.629 43.6406 148.351 43.6406 146.775C43.6406 145.199 44.9183 143.922 46.4939 143.922H102.918C104.494 143.922 105.771 145.199 105.771 146.775C105.771 148.351 104.494 149.629 102.918 149.629Z" fill="#618A93"/>
<path d="M12.6489 96.6472H4.98988C2.23432 96.6472 0 98.8809 0 101.637V114.576H7.65897V101.637C7.65897 98.8809 9.89329 96.6472 12.6489 96.6472Z" fill="#F2D17E"/>
<path d="M23.7381 167.556V58.4966C23.7381 36.2955 41.7367 18.2952 63.9395 18.2952H56.2805C34.0781 18.2952 16.0791 36.2952 16.0791 58.4966V167.556C16.0791 171.667 19.4116 175 23.5234 175H31.1824C27.0706 175 23.7381 171.666 23.7381 167.556Z" fill="#36A6CE"/>
<path d="M37.0428 157.17V107.225C37.0428 104.469 39.2761 102.236 42.0323 102.236H34.3733C31.6167 102.236 29.3838 104.469 29.3838 107.225V157.17C29.3838 159.926 31.6171 162.16 34.3733 162.16H42.0323C39.2761 162.16 37.0428 159.926 37.0428 157.17Z" fill="#41F2ED"/>
<path d="M51.2996 133.861C51.2996 132.285 52.5772 131.007 54.1529 131.007H46.4939C44.9183 131.007 43.6406 132.284 43.6406 133.861C43.6406 135.437 44.9183 136.714 46.4939 136.714H54.1529C52.5769 136.714 51.2996 135.437 51.2996 133.861Z" fill="#527A84"/>
<path d="M51.2996 146.775C51.2996 145.199 52.5772 143.922 54.1529 143.922H46.4939C44.9183 143.922 43.6406 145.199 43.6406 146.775C43.6406 148.351 44.9183 149.629 46.4939 149.629H54.1529C52.5769 149.629 51.2996 148.351 51.2996 146.775Z" fill="#527A84"/>
<path d="M115.038 102.236H34.3733C31.6167 102.236 29.3838 104.469 29.3838 107.225V120.165H41.7452H51.5096H120.026V107.225C120.027 104.469 117.793 102.236 115.038 102.236Z" fill="#FFE8A5"/>
<path d="M42.0333 102.236H34.3743C31.6177 102.236 29.3848 104.469 29.3848 107.225V120.165H37.0437V107.225C37.0434 104.469 39.2767 102.236 42.0333 102.236Z" fill="#F2D17E"/>
<path d="M93.1323 18.2952H56.2805C34.0781 18.2952 16.0791 36.2952 16.0791 58.4966V83.7577H133.333V58.4966C133.333 36.2952 115.335 18.2952 93.1323 18.2952Z" fill="#9BFCFF"/>
<path d="M93.7659 30.9519H80.8761H69.3442H56.4544C41.7414 30.9519 29.8145 42.8799 29.8145 57.5925V67.0169V74.3323V83.7567H42.7043H107.516H120.406V74.333V67.0172V57.5929C120.406 42.8806 108.479 30.9519 93.7659 30.9519Z" fill="#FFE8A5"/>
<path d="M102.918 56.5352H46.4939C44.9183 56.5352 43.6406 55.2583 43.6406 53.6819C43.6406 52.1056 44.9183 50.8286 46.4939 50.8286H102.918C104.494 50.8286 105.771 52.1056 105.771 53.6819C105.771 55.2583 104.494 56.5352 102.918 56.5352Z" fill="#FFA052"/>
<path d="M63.9395 18.2952H56.2805C34.0781 18.2952 16.0791 36.2952 16.0791 58.4966V83.7577H23.7381V58.4966C23.7384 36.2952 41.7367 18.2952 63.9395 18.2952Z" fill="#41F2ED"/>
<path d="M37.4734 67.0177V57.593C37.4734 42.8804 49.4007 30.9524 64.1134 30.9524H56.4544C41.7414 30.9524 29.8145 42.8804 29.8145 57.593V67.0174V74.3328V83.7572H37.4734V74.3332V67.0177Z" fill="#F2D17E"/>
<path d="M51.2996 53.6819C51.2996 52.1059 52.5772 50.8286 54.1529 50.8286H46.4939C44.9183 50.8286 43.6406 52.1056 43.6406 53.6819C43.6406 55.2583 44.9183 56.5352 46.4939 56.5352H54.1529C52.5769 56.5352 51.2996 55.2583 51.2996 53.6819Z" fill="#FF8D40"/>
</svg>
