<svg width="192" height="189" viewBox="0 0 192 189" fill="none" xmlns="http://www.w3.org/2000/svg">
<path d="M79.4489 39.728H69.5172C66.9157 39.731 64.4181 38.707 62.5651 36.8818C60.6491 35.0244 59.5724 32.4653 59.5871 29.7964L62.8961 0.13623C69.8483 0.864258 79.4489 5.896 79.4489 39.728Z" fill="#802F34"/>
<path d="M129.104 0.13623L132.413 29.7964C132.427 32.4653 131.351 35.0244 129.435 36.8818C127.582 38.707 125.084 39.731 122.482 39.728H112.551C112.551 5.896 122.151 0.864258 129.104 0.13623Z" fill="#802F34"/>
<path d="M192.001 148.97C192.001 169.991 177.171 188.694 158.897 188.694C141.584 188.694 124.37 178.299 133.904 158.9C136.622 150.955 136.883 147.497 139.531 146.556C142.432 145.521 154.359 130.21 150.238 152.909C147.784 157.904 146.233 163.295 145.656 168.832C145.656 172.143 151.813 175.452 158.897 175.452C169.291 175.452 178.76 162.839 178.76 148.97C178.76 135.993 170.516 126.127 159.461 125.83L148.069 125.588L148.139 111.933L158.368 112.687C177.2 114.417 191.702 130.061 192.001 148.97Z" fill="#F3D55B"/>
<path d="M33.104 188.694C14.8301 188.694 0 169.991 0 148.97C0.298828 130.061 14.8008 114.417 33.6328 112.688L32.54 125.83C21.4849 126.127 13.2407 135.993 13.2407 148.97C13.2407 162.839 22.7095 175.452 33.104 175.452C40.188 175.452 46.3447 172.143 46.3447 168.832C45.772 163.296 44.2251 157.906 41.7759 152.909C46.3799 156.699 52.1353 158.811 58.0972 158.9C67.6304 178.299 50.417 188.694 33.104 188.694Z" fill="#F3D55B"/>
<path d="M126.125 36.8818C128.041 35.0244 129.117 32.4653 129.104 29.7964V6.21094L150.091 13.2451L155.603 84.4834L156.034 89.5151L157.953 112.688L159.046 125.83L159.41 130.233C160.015 137.53 157.572 144.751 152.662 150.183C147.75 155.615 140.811 158.77 133.49 158.9H57.6829C50.3616 158.77 43.4227 155.615 38.511 150.183C33.6009 144.751 31.1575 137.53 31.7625 130.233L32.1272 125.83L33.22 112.688L35.139 89.5151L35.5696 84.4834L41.9095 13.2451L62.8963 5.65869V29.7964C62.8831 32.4653 63.9598 35.0244 65.8758 36.8818L64.6907 62.0728L129.657 67.4517L126.125 36.8818Z" fill="#E64C3C"/>
<path d="M156.446 89.5151C124.965 92.8257 109.24 158.9 109.24 158.9H82.7588C82.7588 158.9 67.0337 92.8257 35.5527 89.5151L35.9834 84.4834C42.4053 73.5923 57.9634 47.5737 65.875 36.8818C67.728 38.707 70.2256 39.731 72.8272 39.728H119.172C121.773 39.731 124.271 38.707 126.124 36.8818C134.036 47.5737 149.594 73.5923 156.016 84.4834V84.5171L156.446 89.5151Z" fill="#35495E"/>
<path d="M112.552 66.2109H79.4492C77.6211 66.2109 76.1387 64.7285 76.1387 62.9004C76.1387 61.0723 77.6211 59.5898 79.4492 59.5898H112.552C114.38 59.5898 115.862 61.0723 115.862 62.9004C115.862 64.7285 114.38 66.2109 112.552 66.2109Z" fill="#BDC3C7"/>
<path d="M135.724 132.417C133.896 132.417 132.413 130.935 132.413 129.107V79.4517C132.413 77.6235 133.896 76.1426 135.724 76.1426C137.552 76.1426 139.034 77.6235 139.034 79.4517V129.107C139.034 130.935 137.552 132.417 135.724 132.417Z" fill="#FB7B76"/>
<path d="M135.723 129.107C139.381 129.107 142.344 132.072 142.344 135.728V139.039C142.344 140.867 140.862 142.349 139.034 142.349H132.413C130.584 142.349 129.104 140.867 129.104 139.039V135.728C129.104 132.072 132.067 129.107 135.723 129.107Z" fill="#802F34"/>
<path d="M62.896 0.136154V13.245H41.9092L42.0088 12.1523C42.6035 5.2675 46.0796 0.00431786 52.9658 0.00431786H59.5869C60.6914 -0.014725 61.7959 0.0292201 62.896 0.136154Z" fill="#C03A2B"/>
<path d="M150.09 13.245H129.104V0.136154C130.204 0.0292201 131.308 -0.014725 132.413 0.00431786H135.723C142.839 -0.0586705 148.92 5.11809 149.991 12.1523L150.09 13.245Z" fill="#C03A2B"/>
</svg>
