<svg width="182" height="176" viewBox="0 0 182 176" fill="none" xmlns="http://www.w3.org/2000/svg">
<path d="M57.3014 125L40.5101 99.8131C36.5161 93.822 34.3848 86.7827 34.3848 79.5823V79.5823C34.3848 74.2357 35.5603 68.9546 37.8281 64.1128C40.0958 59.271 43.4004 54.987 47.5078 51.5642L53.1348 46.875L65.6348 68.75V54.5913C65.6348 49.4555 67.0649 44.4213 69.7649 40.0526C72.4649 35.6839 76.3281 32.1533 80.9217 29.8566H80.9217C87.165 26.7349 91.9969 21.3677 94.4478 14.8319L100.01 0L128.54 26.6282C134.329 32.0311 138.945 38.5667 142.1 45.8291C145.256 53.0914 146.885 60.9252 146.885 68.8435V68.8436C146.885 80.9813 143.117 92.8198 136.103 102.725L120.328 125H57.3014Z" fill="#F78E00"/>
<path d="M73.9705 125L61.8789 106.868C60.2526 104.429 59.3848 101.563 59.3848 98.6322C59.3821 96.1722 59.9873 93.7496 61.1465 91.5798C62.3057 89.41 63.9831 87.5602 66.0296 86.1949C67.5655 85.1712 68.7598 84.375 68.7598 84.375L78.1348 93.75V89.5494C78.1348 86.065 79.0371 82.64 80.7538 79.6079C82.4706 76.5758 84.9433 74.0399 87.9311 72.2472C91.7125 69.9784 94.6465 66.5332 96.2842 62.4388L100.01 53.125L113.365 66.4799C116.066 69.1811 118.209 72.3879 119.67 75.9172C121.132 79.4465 121.885 83.2291 121.885 87.0492V87.0492C121.885 93.4229 119.791 99.6201 115.927 104.688L100.438 125H73.9705Z" fill="#FFC431"/>
<path d="M56.2598 125H128.135V162.5H56.2598V125Z" fill="#B1712C"/>
<path d="M84.3848 146.875H90.6348V153.125H84.3848V146.875Z" fill="#A36522"/>
<path d="M96.8848 146.875H115.635V153.125H96.8848V146.875Z" fill="#A36522"/>
<path d="M115.635 124.844C115.634 126.875 116.034 128.887 116.811 130.764C117.589 132.64 118.729 134.346 120.166 135.781L154.541 170.156L154.854 170.469C156.289 171.908 157.995 173.049 159.872 173.828C161.749 174.608 163.762 175.009 165.794 175.01C167.827 175.011 169.84 174.612 171.718 173.834C173.596 173.057 175.302 171.917 176.74 170.48C178.177 169.043 179.317 167.336 180.094 165.458C180.872 163.58 181.271 161.567 181.27 159.535C181.269 157.502 180.867 155.489 180.088 153.612C179.309 151.735 178.167 150.03 176.729 148.594L176.416 148.281L142.041 113.906C140.606 112.468 138.901 111.327 137.024 110.548C135.147 109.77 133.135 109.369 131.104 109.369C129.072 109.369 127.06 109.77 125.183 110.548C123.306 111.327 121.601 112.468 120.166 113.906C119.951 114.121 119.74 114.348 119.537 114.574C117.018 117.401 115.628 121.057 115.635 124.844Z" fill="#B1712C"/>
<path d="M150.01 159.219C150.009 161.25 150.409 163.262 151.186 165.139C151.964 167.016 153.104 168.721 154.541 170.156L154.854 170.469C156.289 171.908 157.995 173.049 159.872 173.828C161.749 174.608 163.762 175.009 165.794 175.01C167.827 175.011 169.84 174.612 171.718 173.834C173.596 173.057 175.302 171.917 176.74 170.48C178.177 169.043 179.317 167.336 180.094 165.458C180.871 163.58 181.271 161.567 181.27 159.535C181.269 157.502 180.867 155.49 180.088 153.612C179.309 151.735 178.167 150.03 176.729 148.594L176.416 148.281C174.253 146.118 171.497 144.645 168.496 144.048C165.496 143.452 162.385 143.758 159.559 144.929C156.733 146.099 154.317 148.082 152.617 150.625C150.917 153.169 150.01 156.16 150.01 159.219Z" fill="#C78640"/>
<path d="M165.635 162.5C167.361 162.5 168.76 161.101 168.76 159.375C168.76 157.649 167.361 156.25 165.635 156.25C163.909 156.25 162.51 157.649 162.51 159.375C162.51 161.101 163.909 162.5 165.635 162.5Z" fill="#D69651"/>
<path d="M165.635 162.5C167.361 162.5 168.76 161.101 168.76 159.375C168.76 157.649 167.361 156.25 165.635 156.25C163.909 156.25 162.51 157.649 162.51 159.375C162.51 161.101 163.909 162.5 165.635 162.5Z" fill="#B1712C"/>
<path d="M65.6353 124.844C65.636 126.875 65.2362 128.887 64.4587 130.764C63.6812 132.64 62.5412 134.346 61.104 135.781L26.729 170.156L26.4165 170.469C24.9807 171.908 23.2754 173.049 21.3981 173.828C19.5209 174.608 17.5084 175.009 15.4758 175.01C13.4432 175.011 11.4303 174.612 9.55225 173.834C7.67417 173.057 5.96773 171.917 4.53046 170.48C3.0932 169.043 1.9533 167.336 1.17593 165.458C0.398565 163.58 -0.00102592 161.567 1.97807e-06 159.535C0.00102988 157.502 0.402657 155.489 1.18192 153.612C1.96119 151.735 3.10281 150.03 4.54153 148.594L4.85403 148.281L39.229 113.906C40.6642 112.468 42.3691 111.327 44.2459 110.548C46.1227 109.77 48.1346 109.369 50.1665 109.369C52.1984 109.369 54.2104 109.77 56.0872 110.548C57.964 111.327 59.6688 112.468 61.104 113.906C61.3188 114.121 61.5298 114.348 61.7329 114.574C64.2525 117.401 65.6418 121.057 65.6353 124.844Z" fill="#B1712C"/>
<path d="M31.2603 159.219C31.261 161.25 30.8612 163.262 30.0837 165.139C29.3062 167.016 28.1662 168.721 26.729 170.156L26.4165 170.469C24.9807 171.908 23.2754 173.049 21.3981 173.828C19.5209 174.608 17.5084 175.009 15.4758 175.01C13.4432 175.011 11.4303 174.612 9.55225 173.834C7.67417 173.057 5.96773 171.917 4.53046 170.48C3.0932 169.043 1.9533 167.336 1.17593 165.458C0.398565 163.58 -0.00102592 161.567 1.97807e-06 159.535C0.00102988 157.502 0.402657 155.49 1.18192 153.612C1.96119 151.735 3.10281 150.03 4.54153 148.594L4.85403 148.281C7.01737 146.118 9.77354 144.645 12.774 144.048C15.7745 143.452 18.8846 143.758 21.711 144.929C24.5374 146.099 26.9532 148.082 28.653 150.625C30.3527 153.169 31.2601 156.16 31.2603 159.219Z" fill="#C78640"/>
<path d="M15.6348 162.5C17.3607 162.5 18.7598 161.101 18.7598 159.375C18.7598 157.649 17.3607 156.25 15.6348 156.25C13.9089 156.25 12.5098 157.649 12.5098 159.375C12.5098 161.101 13.9089 162.5 15.6348 162.5Z" fill="#D69651"/>
<path d="M90.6353 124.844C90.636 126.875 90.2362 128.887 89.4587 130.764C88.6812 132.64 87.5412 134.346 86.104 135.781L51.729 170.156L51.4165 170.469C49.9807 171.908 48.2754 173.049 46.3981 173.828C44.5209 174.608 42.5084 175.009 40.4758 175.01C38.4432 175.011 36.4303 174.612 34.5522 173.834C32.6742 173.057 30.9677 171.917 29.5305 170.48C28.0932 169.043 26.9533 167.336 26.1759 165.458C25.3986 163.58 24.999 161.567 25 159.535C25.001 157.502 25.4027 155.489 26.1819 153.612C26.9612 151.735 28.1028 150.03 29.5415 148.594L29.854 148.281L64.229 113.906C65.6643 112.468 67.3691 111.327 69.2459 110.548C71.1227 109.77 73.1346 109.369 75.1665 109.369C77.1984 109.369 79.2104 109.77 81.0872 110.548C82.964 111.327 84.6688 112.468 86.104 113.906C86.3189 114.121 86.5298 114.348 86.7329 114.574C89.2525 117.401 90.6418 121.057 90.6353 124.844Z" fill="#C78640"/>
<path d="M56.2603 159.219C56.261 161.25 55.8612 163.262 55.0837 165.139C54.3062 167.016 53.1662 168.721 51.729 170.156L51.4165 170.469C49.9807 171.908 48.2754 173.049 46.3981 173.828C44.5209 174.608 42.5084 175.009 40.4758 175.01C38.4432 175.011 36.4303 174.612 34.5522 173.834C32.6742 173.057 30.9677 171.917 29.5305 170.48C28.0932 169.043 26.9533 167.336 26.1759 165.458C25.3986 163.58 24.999 161.567 25 159.535C25.001 157.502 25.4027 155.49 26.1819 153.612C26.9612 151.735 28.1028 150.03 29.5415 148.594L29.854 148.281C32.0174 146.118 34.7735 144.645 37.774 144.048C40.7745 143.452 43.8846 143.758 46.711 144.929C49.5374 146.099 51.9532 148.082 53.653 150.625C55.3527 153.169 56.2601 156.16 56.2603 159.219Z" fill="#E3A15B"/>
<path d="M40.6348 162.5C42.3607 162.5 43.7598 161.101 43.7598 159.375C43.7598 157.649 42.3607 156.25 40.6348 156.25C38.9089 156.25 37.5098 157.649 37.5098 159.375C37.5098 161.101 38.9089 162.5 40.6348 162.5Z" fill="#D69651"/>
<path d="M86.7324 114.574L67.8456 133.461L63.4238 129.039L81.6621 110.801C83.3137 111.567 84.8173 112.618 86.1035 113.906C86.3183 114.121 86.5293 114.348 86.7324 114.574Z" fill="#B1712C"/>
<path d="M15.6348 162.5C17.3607 162.5 18.7598 161.101 18.7598 159.375C18.7598 157.649 17.3607 156.25 15.6348 156.25C13.9089 156.25 12.5098 157.649 12.5098 159.375C12.5098 161.101 13.9089 162.5 15.6348 162.5Z" fill="#B1712C"/>
<path d="M54.0273 138.407L60.2763 132.158L64.695 136.576L58.4461 142.825L54.0273 138.407Z" fill="#B1712C"/>
<path d="M156.26 159.531C156.26 162.591 155.353 165.581 153.653 168.125C151.953 170.669 149.538 172.652 146.711 173.823C143.884 174.993 140.774 175.3 137.774 174.703C134.773 174.106 132.017 172.632 129.853 170.469L129.541 170.156L95.166 135.781C93.7294 134.345 92.5899 132.64 91.8124 130.763C91.0349 128.887 90.6348 126.875 90.6348 124.844C90.6348 122.812 91.0349 120.801 91.8124 118.924C92.5899 117.048 93.7294 115.342 95.166 113.906C95.9995 113.073 96.9247 112.336 97.9238 111.711C99.9187 110.467 102.171 109.695 104.51 109.453C105.033 109.402 105.564 109.375 106.104 109.375C108.135 109.375 110.146 109.775 112.023 110.553C113.9 111.33 115.605 112.47 117.041 113.906L151.416 148.281L151.728 148.594C153.165 150.03 154.305 151.735 155.082 153.612C155.86 155.488 156.26 157.5 156.26 159.531Z" fill="#C78640"/>
<path d="M117.846 122.789L113.424 127.211L97.9238 111.711C99.9187 110.467 102.171 109.695 104.51 109.453L117.846 122.789Z" fill="#B1712C"/>
</svg>
