<svg width="167" height="67" viewBox="0 0 167 67" fill="none" xmlns="http://www.w3.org/2000/svg">
<path d="M133.683 64.3669C143.626 67.2579 152.921 67.7821 158.029 62.5794C164.552 55.9356 166.771 44.7758 166.561 33.2641C166.772 21.7515 164.552 10.5921 158.029 3.94783C145.596 -8.71461 108.367 12.5437 97.3472 19.2911C97.956 20.2347 98.3131 21.3549 98.3131 22.561V43.9671C98.3131 45.1728 97.9565 46.2939 97.3472 47.2353C102.195 50.2036 112.116 55.9807 122.766 60.4426" fill="#EA463D"/>
<path d="M8.54479 3.94832C20.9778 -8.71412 58.2076 12.5442 69.2264 19.2916C68.6176 20.2352 68.2605 21.3554 68.2605 22.5615V43.9676C68.2605 45.1733 68.6171 46.2944 69.2264 47.2358C58.2063 53.9836 20.9778 75.2415 8.54479 62.5795C2.02172 55.9357 -0.198904 44.7759 0.0137914 33.2641C-0.198904 21.752 2.02172 10.5921 8.54479 3.94832Z" fill="#E03C2F"/>
<path d="M27.7549 58.4237C21.2314 51.7799 19.0112 40.6201 19.2239 29.1083C19.0207 18.1092 21.0488 7.44266 26.9179 0.71849C19.3313 -0.702914 12.6115 -0.192873 8.54577 3.94802C2.02269 10.5918 -0.197927 21.7517 0.014768 33.2642C-0.197497 44.776 2.02312 55.9354 8.54577 62.5796C14.6783 68.8256 26.8431 66.8172 38.9203 62.3691C34.3699 62.3356 30.4705 61.1896 27.7549 58.4237Z" fill="#CE3028"/>
<path d="M68.2659 31.3319C68.1031 31.3319 67.9381 31.3207 67.7726 31.2984L42.086 27.7719C40.118 27.5021 38.7413 25.6875 39.012 23.72C39.2823 21.752 41.096 20.3783 43.0639 20.6455L68.7506 24.172C70.7186 24.4423 72.0953 26.2564 71.8246 28.2239C71.5767 30.0256 70.0345 31.3319 68.2659 31.3319Z" fill="#AA241A"/>
<path d="M42.569 45.326C40.8 45.326 39.2583 44.0198 39.0103 42.2181C38.7405 40.2501 40.1172 38.436 42.0843 38.1661L67.771 34.6405C69.7389 34.3715 71.5531 35.747 71.8229 37.7149C72.0928 39.6829 70.7161 41.4971 68.7489 41.7669L43.0623 45.2925C42.8969 45.3144 42.7319 45.326 42.569 45.326Z" fill="#AA241A"/>
<path d="M116.557 30.41C116.557 20.3428 120.502 11.203 126.92 4.43066C114.763 9.00769 102.821 15.939 97.3472 19.291C97.956 20.2345 98.3131 21.3547 98.3131 22.5609V43.967C98.3131 45.1727 97.9565 46.2938 97.3472 47.2352C102.195 50.2035 112.116 55.9806 122.766 60.4425L133.683 64.3664C136.657 65.2309 139.571 65.8815 142.335 66.2329C127.356 61.215 116.557 47.0779 116.557 30.41Z" fill="#E03C2F"/>
<path d="M93.2288 16.5176H92.2698H91.3107H75.3478H74.3888H73.4297C70.0919 16.5176 67.3857 19.2242 67.3857 22.5616V43.9677C67.3857 47.3055 70.0915 50.0117 73.4297 50.0117H74.3888H75.3478H91.3107H92.2698H93.2288C96.5666 50.0117 99.2724 47.3051 99.2724 43.9677V22.5616C99.2719 19.2233 96.5666 16.5176 93.2288 16.5176Z" fill="#C63320"/>
<path d="M77.2415 43.9677V22.5616C77.2415 19.2237 79.9472 16.5176 83.2854 16.5176H75.3478H74.3888H73.4297C70.0919 16.5176 67.3857 19.2242 67.3857 22.5616V43.9677C67.3857 47.3055 70.0915 50.0117 73.4297 50.0117H74.3888H75.3478H83.2854C79.9476 50.0112 77.2415 47.3055 77.2415 43.9677Z" fill="#AF2015"/>
<path d="M98.3084 31.3321C96.5393 31.3321 94.9976 30.0259 94.7497 28.2242C94.4794 26.2562 95.8566 24.4421 97.8237 24.1723L123.512 20.6458C125.48 20.3773 127.294 21.7523 127.564 23.7202C127.834 25.6882 126.457 27.5023 124.489 27.7722L98.8012 31.2986C98.6362 31.321 98.4716 31.3321 98.3084 31.3321Z" fill="#AA241A"/>
<path d="M124.006 45.3261C123.843 45.3261 123.678 45.315 123.512 45.2926L97.8245 41.767C95.857 41.4967 94.4802 39.6826 94.7501 37.7151C95.0199 35.7471 96.8332 34.3699 98.802 34.6407L124.49 38.1662C126.458 38.4365 127.834 40.2507 127.564 42.2182C127.316 44.0199 125.775 45.3261 124.006 45.3261Z" fill="#AA241A"/>
</svg>
