<svg width="134" height="162" viewBox="0 0 134 162" fill="none" xmlns="http://www.w3.org/2000/svg">
<g clip-path="url(#clip0)">
<path d="M23.1451 129.139C20.0474 123.494 17.9196 117.283 16.8193 110.683L24.5175 108.811C25.4147 114.201 27.1551 119.276 29.6854 123.892L23.1451 129.139Z" fill="#766E6E"/>
<path d="M24.5175 91.7909L16.8193 89.9184C17.9196 83.3185 20.0474 77.1077 23.1451 71.4624L29.6854 76.7091C27.1551 81.3254 25.4144 86.4006 24.5175 91.7909Z" fill="#766E6E"/>
<path d="M114.109 57.5859H106.258C99.7635 57.5859 94.4805 51.199 94.4805 43.3477V14.2383C94.4805 11.6197 92.7207 9.49219 90.5547 9.49219C88.3887 9.49219 86.6289 11.6197 86.6289 14.2383V43.3477C86.6289 51.199 81.3459 57.5859 74.8516 57.5859H67V48.0938H74.8516C77.0175 48.0938 78.7773 45.9662 78.7773 43.3477V14.2383C78.7773 6.38698 84.0604 0 90.5547 0C97.049 0 102.332 6.38698 102.332 14.2383V43.3477C102.332 45.9662 104.092 48.0938 106.258 48.0938H114.109C116.275 48.0938 118.035 45.9662 118.035 43.3477C118.035 40.7291 116.275 38.6016 114.109 38.6016H110.184V29.1094H114.109C120.604 29.1094 125.887 35.4964 125.887 43.3477C125.887 51.199 120.604 57.5859 114.109 57.5859Z" fill="#5B5555"/>
<path d="M125.887 105.047H118.035V86.0625C118.035 80.8298 114.512 76.5703 110.184 76.5703C105.855 76.5703 102.332 80.8298 102.332 86.0625V90.8086H94.4805V86.0625C94.4805 75.5923 101.523 67.0781 110.184 67.0781C118.844 67.0781 125.887 75.5923 125.887 86.0625V105.047Z" fill="#5B5555"/>
<path d="M95.1517 129.139L88.6113 123.892C91.1416 119.276 92.8821 114.201 93.7792 108.811L101.477 110.683C100.377 117.283 98.2494 123.494 95.1517 129.139V129.139Z" fill="#5B5555"/>
<path d="M67.7363 151.474L66.1875 142.167C70.6461 141.083 74.8441 138.979 78.6626 135.92L83.0024 143.827C78.3328 147.572 73.1955 150.144 67.7363 151.474V151.474Z" fill="#5B5555"/>
<path d="M50.561 151.474C45.1018 150.144 39.9645 147.572 35.2949 143.827L39.6347 135.92C43.4532 138.979 47.6512 141.083 52.1098 142.167L50.561 151.474Z" fill="#766E6E"/>
<path d="M39.6347 64.6817L35.2949 56.7747C39.9645 53.0298 45.1018 50.4574 50.561 49.1272L52.1098 58.434C47.6512 59.5183 43.4532 61.6227 39.6347 64.6817V64.6817Z" fill="#766E6E"/>
<path d="M59.1484 38.6016C52.6314 38.6016 47.3711 44.961 47.3711 52.8398C47.3711 60.7187 52.6314 67.0781 59.1484 67.0781C65.6655 67.0781 70.9258 60.7187 70.9258 52.8398C70.9258 44.961 65.6655 38.6016 59.1484 38.6016Z" fill="#FF9100"/>
<path d="M59.1484 133.523C52.6314 133.523 47.3711 139.883 47.3711 147.762C47.3711 155.641 52.6314 162 59.1484 162C65.6655 162 70.9258 155.641 70.9258 147.762C70.9258 139.883 65.6655 133.523 59.1484 133.523Z" fill="#FF9100"/>
<path d="M23.0612 76.8067C18.4644 71.2588 18.4505 62.2469 23.0612 56.6728C27.5123 51.2917 35.2756 51.3008 39.7188 56.6728C44.3256 62.2517 44.3112 71.2547 39.7149 76.8111C35.1236 82.3621 27.6719 82.3808 23.0612 76.8067V76.8067Z" fill="#FF9100"/>
<path d="M78.5776 143.929C73.9682 138.347 73.9892 129.342 78.5815 123.79C83.0171 118.428 90.7768 118.409 95.2355 123.79C99.8323 129.348 99.8462 138.355 95.2355 143.929C90.6209 149.507 83.17 149.48 78.5776 143.929V143.929Z" fill="#FF641A"/>
<path d="M23.0609 143.929C18.4463 138.35 18.4688 129.342 23.0609 123.79C27.5196 118.409 35.2753 118.423 39.7185 123.795C41.9382 126.478 43.1651 130.057 43.1651 133.862C43.1651 137.662 41.9382 141.24 39.7146 143.929C35.1259 149.486 27.6716 149.502 23.0609 143.929V143.929Z" fill="#FF9100"/>
<path d="M98.4062 114.539C91.912 114.539 86.6289 108.152 86.6289 100.301C86.6289 92.4495 91.912 86.0625 98.4062 86.0625C104.901 86.0625 110.184 92.4495 110.184 100.301C110.184 108.152 104.901 114.539 98.4062 114.539Z" fill="#FF641A"/>
<path d="M19.8906 114.539C13.3963 114.539 8.11328 108.152 8.11328 100.301C8.11328 92.4495 13.3963 86.0625 19.8906 86.0625C26.3849 86.0625 31.668 92.4495 31.668 100.301C31.668 108.152 26.3849 114.539 19.8906 114.539Z" fill="#FF9100"/>
<path d="M70.9258 147.762C70.9258 155.641 65.6655 162 59.1484 162V133.523C65.6655 133.523 70.9258 139.883 70.9258 147.762Z" fill="#FF641A"/>
<path d="M59.1484 67.0781V38.6016C65.6655 38.6016 70.9258 44.961 70.9258 52.8398C70.9258 60.7187 65.6655 67.0781 59.1484 67.0781Z" fill="#FF641A"/>
</g>
<defs>
<clipPath id="clip0">
<rect width="134" height="162" fill="white"/>
</clipPath>
</defs>
</svg>
