<svg width="137" height="167" viewBox="0 0 137 167" fill="none" xmlns="http://www.w3.org/2000/svg">
<path d="M96.8003 1.40771L95.4155 2.95003L92.6914 5.68089C78.9853 19.421 56.7271 19.421 43.021 5.68089L40.2969 2.95003H31.7051V37.6289H105.163V2.94969V1.40771H96.8003Z" fill="#9B8E99"/>
<path d="M133.854 163.628C133.854 165.49 132.344 167 130.482 167H5.23048C3.36806 167 1.8584 165.49 1.8584 163.628V135.93H133.854V163.628Z" fill="#9B8E99"/>
<path d="M26.3503 163.24C21.7264 163.24 17.9783 159.492 17.9783 154.868V135.93H1.8584V163.628C1.8584 165.49 3.36806 167 5.23048 167H130.482C132.344 167 133.854 165.49 133.854 163.628V163.241H26.3503V163.24Z" fill="#8B8089"/>
<path d="M3.63999 118.873L0.000976562 123.924V146.59L5.44182 151.636H38.1014L44.0252 146.59L54.5777 123.924L56.0867 118.873H3.63999Z" fill="#9B8E99"/>
<path d="M134.266 119.713V88.6251L127.898 82.4454C127.898 82.4454 125.292 73.6318 125.292 73.6318C120.066 65.1195 117.236 55.2631 117.236 45.1185V34.4213L118.141 2.03003H101.274L95.4171 8.45914L86.4567 20.2874C77.1193 32.6104 58.5927 32.6104 49.2554 20.2874L40.295 8.45914L37.6628 4.34586H18.813V34.4213V45.1185C18.813 55.2624 15.9832 65.1181 10.7578 73.6304L10.7581 73.6321L7.81722 88.3326L3.63965 91.4556L5.31997 123.924H136.048V119.777C135.015 119.744 134.266 119.713 134.266 119.713Z" fill="#BAAFB9"/>
<path d="M30.1787 66.5034H105.871V118.965H30.1787V66.5034Z" fill="#9B8E99"/>
<path d="M136.049 123.924V146.59H35.3608C29.1033 146.59 24.0273 141.514 24.0273 135.257C24.0273 132.127 25.2963 129.292 27.3462 127.242C29.3995 125.193 32.2303 123.924 35.3608 123.924H136.049Z" fill="#F9F7F8"/>
<path d="M131.162 123.924L120.609 146.59H106.657L117.21 123.924H131.162Z" fill="#EFEDEF"/>
<path d="M99.8479 123.924L89.2954 146.59H75.3398L85.8923 123.924H99.8479Z" fill="#EFEDEF"/>
<path d="M68.5301 123.924L57.9776 146.59H44.0254L54.5779 123.924H68.5301Z" fill="#EFEDEF"/>
<path d="M47.0277 31.4723V17.3454L40.2956 8.45874L37.8539 4.64335L37.6634 4.34546H32.9207H18.8137V34.4209V45.1181C18.8137 55.262 15.9838 65.1177 10.7584 73.6301L7.8182 88.3322L3.64062 91.4552L5.32095 123.924H17.8681V114.127V91.568C17.8681 88.5618 19.0436 85.6747 21.1433 83.5231L21.1568 83.5093C24.0179 80.5809 26.5188 77.3663 28.626 73.9296L28.6256 73.928C33.851 65.4159 36.6809 55.5602 36.6809 45.416L36.6768 45.1222C36.6459 42.8373 37.863 40.7245 39.8449 39.5871C42.8999 37.8327 47.0277 34.84 47.0277 31.4723Z" fill="#AA9EA9"/>
<path d="M105.192 51.968H30.5204C29.1707 51.968 28.0801 53.062 28.0801 54.4084V62.0695L38.1421 67.9614C38.1421 67.9614 101.904 69.5047 101.904 67.9614C101.904 66.418 107.633 62.0695 107.633 62.0695V54.4084C107.633 53.062 106.542 51.968 105.192 51.968Z" fill="#9B8E99"/>
<path d="M104.072 62.0693L96.175 79.1788H83.4648V79.0307L91.3615 62.0693H104.072Z" fill="#F9F7F8"/>
<path d="M77.8232 62.0693L69.9265 79.1788H57.2197L65.1131 62.0693H77.8232Z" fill="#F9F7F8"/>
<path d="M51.5757 62.0693L43.6824 79.1788H36.9604C34.9913 79.1788 33.1736 78.5393 31.7061 77.4554L38.869 62.0693H51.5757Z" fill="#F9F7F8"/>
<path d="M107.633 62.0693V70.2959C107.633 75.2019 103.656 79.1788 98.7498 79.1788H96.1748L104.072 62.0693H107.633Z" fill="#EFEDEF"/>
<path d="M91.3616 62.0693L83.4649 79.1788H69.9268L77.8235 62.0693H91.3616Z" fill="#EFEDEF"/>
<path d="M65.1131 62.0693L57.2198 79.1788H43.6816L51.575 62.0693H65.1131Z" fill="#EFEDEF"/>
<path d="M38.8682 62.0693L31.7053 77.4554C29.5073 75.8398 28.0801 73.2344 28.0801 70.2959V62.0693H38.8682Z" fill="#EFEDEF"/>
<path d="M136.05 87.1942V115.512H125.168L125.293 73.6318C127.4 77.0685 129.901 80.2831 132.762 83.2116L135.622 86.142C135.896 86.4234 136.05 86.8011 136.05 87.1942Z" fill="#F9F7F8"/>
<path d="M10.7582 73.6284C8.65102 77.0651 6.15007 80.2797 3.28894 83.2081L0.871128 85.6852C0.312704 86.2574 0 87.0252 0 87.8246V113.825L3.63935 118.873H8.8688L10.8824 113.825L10.7582 73.6284Z" fill="#EFEDEF"/>
<path d="M136.049 113.829V123.924H0.000976562V113.829H10.8833H125.167H136.049Z" fill="#AA9EA9"/>
<path d="M98.7022 41.1531H117.236V34.4211L118.141 2.02979H101.274L95.4169 8.45889L89.0215 16.9012V31.4724C89.0218 36.8103 93.3643 41.1531 98.7022 41.1531Z" fill="#AA9EA9"/>
<path d="M120.188 2.94864V31.4723C120.188 33.1015 118.865 34.421 117.236 34.421H98.7025C97.0734 34.421 95.7539 33.1015 95.7539 31.4723V2.94864C95.7539 1.31948 97.0734 0 98.7025 0H117.236C118.865 0 120.188 1.31948 120.188 2.94864Z" fill="#9B8E99"/>
<path d="M40.2953 2.94864V31.4723C40.2953 33.1015 38.9758 34.421 37.3467 34.421H18.8133C17.1842 34.421 15.8613 33.1015 15.8613 31.4723V2.94864C15.8613 1.31948 17.1842 0 18.8133 0H37.3467C38.9758 0 40.2953 1.31948 40.2953 2.94864Z" fill="#9B8E99"/>
<path d="M113.348 27.975C108.326 27.975 104.254 23.9035 104.254 18.8811V0H98.7025C97.0741 0 95.7539 1.32016 95.7539 2.94864V31.4723C95.7539 33.1008 97.0741 34.421 98.7025 34.421H117.236C118.866 34.421 120.188 33.0995 120.188 31.469V27.975H113.348Z" fill="#8B8089"/>
<path d="M31.6167 27.975C27.6101 27.975 24.3619 24.7272 24.3619 20.7202V0H18.8133C17.1828 0 15.8613 1.3215 15.8613 2.95201V31.469C15.8613 33.0995 17.1828 34.421 18.8133 34.421H37.3467C38.9752 34.421 40.2953 33.1008 40.2953 31.4723V27.975H31.6167Z" fill="#8B8089"/>
<path d="M17.9789 118.873H3.63999L0.000976562 123.924V146.59L5.44182 151.636H17.9789V118.873Z" fill="#8B8089"/>
<path d="M136.049 146.59V154.824C136.049 155.85 135.218 156.682 134.191 156.682H1.85902C0.832385 156.682 0.000976562 155.85 0.000976562 154.824V146.59H136.049Z" fill="#AA9EA9"/>
<path d="M17.9789 156.682V146.59H0.000976562V154.824C0.000976562 155.85 0.832385 156.682 1.85902 156.682H134.191H134.191H17.9789Z" fill="#9B8E99"/>
<path d="M17.9789 113.829H10.8833H0.000976562V123.924H17.9789V113.829Z" fill="#9B8E99"/>
</svg>
