<svg width="25" height="24" viewBox="0 0 25 24" fill="none" xmlns="http://www.w3.org/2000/svg">
<g clip-path="url(#clip0)">
<path d="M23.9674 19.0132L16.7957 11.8272L16.9666 11.6559C17.105 11.5173 17.1648 11.3175 17.1255 11.1251C17.0862 10.9328 16.9529 10.7731 16.7706 10.7L15.9281 10.3622L16.7267 9.562C17.3595 8.92792 17.7223 8.05008 17.7223 7.15348C17.7223 6.25688 17.3595 5.37915 16.7267 4.74502L13.1269 1.13801C11.8613 -0.130089 9.58519 -0.130089 8.31955 1.13801L1.80349 7.6672C1.17072 8.30128 0.807861 9.17901 0.807861 10.0756C0.807861 10.9722 1.17067 11.8501 1.80349 12.4841L5.40327 16.0911C6.03609 16.7252 6.91213 17.0887 7.80692 17.0887C8.70172 17.0887 9.57775 16.7252 10.2106 16.0911L11.0092 15.2909L11.3463 16.135C11.4192 16.3177 11.5787 16.4513 11.7706 16.4906C11.9654 16.5283 12.1614 16.4701 12.3004 16.3315L12.4712 16.1602L15.5601 19.2553C15.6695 19.3649 15.8176 19.4264 15.9725 19.4264H16.5559C16.5559 19.7495 16.8168 20.0109 17.1391 20.0109H18.3057V21.1797C18.3057 21.5028 18.5665 21.7642 18.8889 21.7642V22.3486C18.8889 22.5039 18.9504 22.6523 19.0598 22.7618L19.6431 23.3463C19.7524 23.4558 19.9005 23.5175 20.0555 23.5175H23.555C23.8774 23.5175 24.1383 23.2561 24.1383 22.933V19.4265C24.1383 19.2711 24.0767 19.1228 23.9674 19.0132ZM11.1858 6.48206L7.10296 10.5649C6.85575 10.8121 6.42514 10.8121 6.17793 10.5649C6.05435 10.4413 5.98655 10.2773 5.98655 10.1024C5.98655 9.92754 6.05435 9.76349 6.17793 9.63992L10.2608 5.55708C10.3843 5.4335 10.5484 5.3657 10.7233 5.3657C10.8981 5.3657 11.0622 5.4335 11.1857 5.55708C11.3093 5.68066 11.3771 5.8447 11.3771 6.01957C11.3772 6.19444 11.3094 6.35848 11.1858 6.48206Z" fill="#303C42"/>
<path d="M22.9717 22.3511H20.2969L20.0555 22.1096V21.1845C20.0555 20.8621 19.7946 20.6012 19.4722 20.6012V19.4347C19.4722 19.1123 19.2113 18.8515 18.8889 18.8515H17.7224C17.7224 18.5291 17.4615 18.2682 17.1391 18.2682H16.2141L12.8838 14.9378C12.6696 14.7231 12.3301 14.7106 12.1023 14.8985L11.9067 14.4099L15.0306 11.286L15.5192 11.4816C15.3312 11.7106 15.3443 12.0494 15.5585 12.2631L22.9717 19.6763V22.3511Z" fill="#CCCCCC"/>
<path d="M15.9019 5.60739L12.3022 2.0076C11.8864 1.59181 11.3111 1.35373 10.7233 1.35373C10.1354 1.35373 9.56015 1.59181 9.14436 2.0076L2.62824 8.52372C2.21244 8.93951 1.97437 9.51481 1.97437 10.1026C1.97437 10.6904 2.21244 11.2657 2.62824 11.6815L6.22802 15.2813C7.0596 16.1129 8.55424 16.1129 9.38583 15.2813L15.9019 8.76519C16.3177 8.3494 16.5558 7.77411 16.5558 7.18629C16.5558 6.59847 16.3177 6.02318 15.9019 5.60739ZM11.1857 6.48228L7.10291 10.5651C6.8557 10.8123 6.42509 10.8123 6.17788 10.5651C6.0543 10.4415 5.9865 10.2775 5.9865 10.1026C5.9865 9.92775 6.0543 9.76371 6.17788 9.64013L10.2607 5.5573C10.3843 5.43372 10.5483 5.36592 10.7232 5.36592C10.8981 5.36592 11.0621 5.43372 11.1857 5.5573C11.3093 5.68088 11.3771 5.84492 11.3771 6.01979C11.3771 6.19466 11.3093 6.3587 11.1857 6.48228Z" fill="#495966"/>
<path opacity="0.1" d="M15.9019 7.01541L9.38583 13.5315C8.55424 14.3631 7.0596 14.3631 6.22802 13.5315L2.62824 9.93175C2.42597 9.72949 2.26778 9.48856 2.15656 9.22774C2.03916 9.50311 1.97437 9.80073 1.97437 10.1026C1.97437 10.6904 2.21244 11.2657 2.62824 11.6815L6.22802 15.2813C7.0596 16.1129 8.55424 16.1129 9.38583 15.2813L15.9019 8.76519C16.3177 8.3494 16.5558 7.77411 16.5558 7.18629C16.5558 6.8844 16.491 6.58677 16.3736 6.3114C16.2624 6.57223 16.1042 6.81315 15.9019 7.01541Z" fill="#010101"/>
<path d="M12.0104 4.7325C11.3007 4.0228 10.1456 4.0228 9.43591 4.7325L5.35307 8.81534C4.64338 9.52504 4.64338 10.6802 5.35307 11.3899C5.70795 11.7447 6.17443 11.9225 6.64036 11.9225C7.1063 11.9225 7.57278 11.7447 7.92765 11.3899L12.0105 7.30703C12.7201 6.59733 12.7201 5.4422 12.0104 4.7325ZM11.1857 6.48228L7.10285 10.5651C6.85564 10.8123 6.42503 10.8123 6.17782 10.5651C6.05424 10.4415 5.98644 10.2775 5.98644 10.1026C5.98644 9.92776 6.05424 9.76372 6.17782 9.64014L10.2607 5.5573C10.3842 5.43372 10.5483 5.36592 10.7231 5.36592C10.898 5.36592 11.0621 5.43372 11.1856 5.5573C11.3092 5.68088 11.377 5.84492 11.377 6.01979C11.3771 6.19466 11.3093 6.3587 11.1857 6.48228Z" fill="#303C42"/>
<path opacity="0.1" d="M11.9067 14.41L12.1023 14.8985C12.3301 14.7106 12.6696 14.7231 12.8838 14.9379L16.2141 18.2682H17.1392C17.4616 18.2682 17.7225 18.5291 17.7225 18.8515H18.889C19.2114 18.8515 19.4722 19.1124 19.4722 19.4348V20.6013C19.7946 20.6013 20.0555 20.8622 20.0555 21.1846V22.1096L20.297 22.3511H22.9719L13.4687 12.848L11.9067 14.41Z" fill="#010101"/>
<path d="M23.9674 19.0132L16.7957 11.8272L16.9666 11.6559C17.105 11.5173 17.1648 11.3175 17.1255 11.1251C17.0862 10.9328 16.9529 10.7731 16.7706 10.7L15.9281 10.3622L16.7267 9.562C17.3595 8.92792 17.7223 8.05008 17.7223 7.15348C17.7223 6.25688 17.3595 5.37915 16.7267 4.74502L13.1269 1.13801C11.8613 -0.130089 9.58519 -0.130089 8.31955 1.13801L1.80349 7.6672C1.17072 8.30128 0.807861 9.17901 0.807861 10.0756C0.807861 10.9722 1.17067 11.8501 1.80349 12.4841L5.40327 16.0911C6.03609 16.7252 6.91213 17.0887 7.80692 17.0887C8.70172 17.0887 9.57775 16.7252 10.2106 16.0911L11.0092 15.2909L11.3463 16.135C11.4192 16.3177 11.5787 16.4513 11.7706 16.4906C11.9654 16.5283 12.1614 16.4701 12.3004 16.3315L12.4712 16.1602L15.5601 19.2553C15.6695 19.3649 15.8176 19.4264 15.9725 19.4264H16.5559C16.5559 19.7495 16.8168 20.0109 17.1391 20.0109H18.3057V21.1797C18.3057 21.5028 18.5665 21.7642 18.8889 21.7642V22.3486C18.8889 22.5039 18.9504 22.6523 19.0598 22.7618L19.6431 23.3463C19.7524 23.4558 19.9005 23.5175 20.0555 23.5175H23.555C23.8774 23.5175 24.1383 23.2561 24.1383 22.933V19.4265C24.1383 19.2711 24.0767 19.1228 23.9674 19.0132ZM11.1858 6.48206L7.10296 10.5649C6.85575 10.8121 6.42514 10.8121 6.17793 10.5649C6.05435 10.4413 5.98655 10.2773 5.98655 10.1024C5.98655 9.92754 6.05435 9.76349 6.17793 9.63992L10.2608 5.55708C10.3843 5.4335 10.5484 5.3657 10.7233 5.3657C10.8981 5.3657 11.0622 5.4335 11.1857 5.55708C11.3093 5.68066 11.3771 5.8447 11.3771 6.01957C11.3772 6.19444 11.3094 6.35848 11.1858 6.48206Z" fill="url(#paint0_linear)"/>
</g>
<defs>
<linearGradient id="paint0_linear" x1="2.5043" y1="5.68715" x2="26.9302" y2="17.0771" gradientUnits="userSpaceOnUse">
<stop stop-color="white" stop-opacity="0.2"/>
<stop offset="1" stop-color="white" stop-opacity="0"/>
</linearGradient>
<clipPath id="clip0">
<rect width="23.3304" height="23.3304" fill="white" transform="translate(0.807861 0.18718)"/>
</clipPath>
</defs>
</svg>
