<svg width="121" height="121" viewBox="0 0 121 121" fill="none" xmlns="http://www.w3.org/2000/svg">
<path d="M121 11.5238V23.0476V109.476C121 115.841 116.075 121 110 121H22.0001C15.9248 121 11.0001 115.841 11.0001 109.476V74.9048C11.0001 74.1407 10.7102 73.4078 10.1945 72.8673L1.61103 63.8747C0.579651 62.7944 0 61.3286 0 59.8005V34.5714C0 28.2068 4.9247 23.0476 11.0001 23.0476H11.5238V11.5238C11.5238 5.15921 16.683 0 23.0476 0H109.476C115.841 0 121 5.15921 121 11.5238Z" fill="#9CA09E"/>
<path d="M23.0472 0H109.476C115.84 0 121 5.15921 121 11.5238V23.0476H11.5234V11.5238C11.5234 5.15921 16.6826 0 23.0472 0Z" fill="#F7C843"/>
<path d="M92.1903 97.9524H40.3332C37.1509 97.9524 34.5713 95.3728 34.5713 92.1905V51.8571C34.5713 48.6748 37.1509 46.0952 40.3332 46.0952H92.1903C95.3726 46.0952 97.9522 48.6748 97.9522 51.8571V92.1905C97.9522 95.3728 95.3726 97.9524 92.1903 97.9524Z" fill="#F2F2F2"/>
<path d="M92.1902 72.0238V89.3095C92.1902 90.9004 90.9001 92.1904 89.3092 92.1904H43.214C41.6231 92.1904 40.333 90.9004 40.333 89.3095V72.0238C40.333 70.4329 41.6231 69.1428 43.214 69.1428H89.3092C90.9001 69.1428 92.1902 70.4329 92.1902 72.0238Z" fill="#F7C843"/>
<path d="M92.1904 54.7381C92.1904 56.329 90.9003 57.6191 89.3094 57.6191H66.2618C64.6709 57.6191 63.3809 56.329 63.3809 54.7381C63.3809 53.1473 64.6709 51.8572 66.2618 51.8572H89.3094C90.9003 51.8572 92.1904 53.1473 92.1904 54.7381Z" fill="#D2D6D5"/>
<path d="M51.8568 57.6191C51.8568 60.8014 49.2772 63.381 46.0949 63.381C42.9126 63.381 40.333 60.8014 40.333 57.6191C40.333 54.4368 42.9126 51.8572 46.0949 51.8572C49.2772 51.8572 51.8568 54.4368 51.8568 57.6191Z" fill="#F7C843"/>
</svg>
