<svg width="143" height="143" viewBox="0 0 143 143" fill="none" xmlns="http://www.w3.org/2000/svg">
<g clip-path="url(#clip0)">
<path d="M38.491 28.588C37.6522 28.5869 36.8177 28.4768 36.0084 28.2586C32.2855 27.2606 29.5302 24.1191 29.0274 20.297C28.5235 16.476 30.3712 12.7281 33.709 10.7996L37.8354 8.41738C42.3905 5.82787 48.1814 7.39968 50.8015 11.9373C53.4204 16.475 51.8868 22.2757 47.3677 24.9252L43.2402 27.3086C41.7971 28.1441 40.1588 28.5859 38.491 28.588ZM36.0913 14.925C34.6045 15.7703 33.685 17.3465 33.6817 19.0568C33.6774 20.7672 34.5904 22.3477 36.0738 23.1996C37.5562 24.0515 39.3821 24.0439 40.8569 23.1789L44.9844 20.7955C46.4711 19.9502 47.3906 18.374 47.395 16.6637C47.3983 14.9533 46.4853 13.3728 45.0029 12.5209C43.5195 11.669 41.6935 11.6766 40.2188 12.5416L36.0913 14.925Z" fill="#F0C419"/>
<path d="M26.021 38.9223C22.1672 38.9212 18.692 36.5989 17.2173 33.0386C15.7426 29.4772 16.5574 25.3781 19.2832 22.6523L22.6526 19.2828C25.0447 16.8057 28.5887 15.812 31.921 16.6835C35.2544 17.5561 37.8559 20.1587 38.7285 23.4911C39.6012 26.8234 38.6075 30.3673 36.1292 32.7605L32.7598 36.1321C30.9764 37.9242 28.5505 38.9288 26.021 38.9223ZM29.3904 21.2561C28.1262 21.2528 26.9132 21.7556 26.021 22.6523L22.6526 26.0217C21.7582 26.915 21.2554 28.128 21.2554 29.3922C21.2554 30.6564 21.7582 31.8693 22.6526 32.7627C24.5386 34.5614 27.5044 34.5614 29.3904 32.7627L32.7598 29.3911C34.1222 28.0276 34.5301 25.9791 33.7928 24.1979C33.0554 22.4177 31.3178 21.2561 29.3904 21.2561Z" fill="#F29C1F"/>
<path d="M16.6544 52.1381C13.2523 52.1315 10.1109 50.3121 8.41253 47.3648C6.71419 44.4165 6.71637 40.7875 8.41689 37.8402L10.8002 33.7138C12.4724 30.7054 15.6378 28.8325 19.0792 28.8151C22.5206 28.7965 25.7057 30.6356 27.4095 33.6254C29.1144 36.6152 29.0751 40.2922 27.3059 43.245L24.9225 47.3714C23.2111 50.3187 20.062 52.1337 16.6544 52.1381ZM19.0585 33.7061C18.6407 33.7072 18.2241 33.7618 17.8194 33.8708C16.5977 34.1948 15.5549 34.9943 14.9267 36.0917L12.5444 40.2181C11.6478 41.695 11.6205 43.5417 12.4735 45.0437C13.3254 46.5457 14.9245 47.4696 16.6523 47.4576C18.379 47.4445 19.965 46.4988 20.7961 44.9848L23.1784 40.8573C24.0292 39.3836 24.0303 37.5686 23.1806 36.0949C22.3308 34.6202 20.7601 33.7116 19.0585 33.7083V33.7061Z" fill="#F0C419"/>
<path d="M11.0722 67.3162C8.10642 67.3162 5.30966 65.9386 3.50224 63.5869C1.69592 61.2351 1.08508 58.1766 1.85081 55.3111L3.0823 50.7102C4.08036 46.9874 7.22289 44.2321 11.0439 43.7293C14.8649 43.2264 18.6128 45.0731 20.5413 48.4109C21.8131 50.5968 22.1567 53.2016 21.4946 55.6427L20.2599 60.2491C19.1462 64.4104 15.3797 67.3075 11.0722 67.3162ZM6.46371 56.5481C5.78306 59.0896 7.29161 61.702 9.83312 62.3837C11.0537 62.711 12.355 62.5408 13.4501 61.9081C14.5442 61.2766 15.3437 60.236 15.671 59.0143L16.9046 54.4112C17.5864 51.8686 16.0767 49.2551 13.5341 48.5745C10.9915 47.8928 8.37911 49.4024 7.69737 51.945L6.46371 56.5481Z" fill="#F29C1F"/>
<path d="M9.56149 83.4292C4.29739 83.4292 0.0302734 79.1621 0.0302734 73.898V69.1324C0.0302734 63.8683 4.29739 59.6001 9.56149 59.6001C14.8256 59.6001 19.0927 63.8683 19.0927 69.1324V73.898C19.0927 79.1621 14.8256 83.4292 9.56149 83.4292ZM9.56149 64.3668C6.92944 64.3668 4.79588 66.5004 4.79588 69.1324V73.898C4.79588 76.53 6.92944 78.6636 9.56149 78.6636C12.1935 78.6636 14.3271 76.53 14.3271 73.898V69.1324C14.3271 66.5004 12.1935 64.3668 9.56149 64.3668Z" fill="#F0C419"/>
<path d="M12.2728 99.3939C7.96098 99.3851 4.19235 96.4837 3.08194 92.3169L1.85045 87.7182C0.906926 84.4088 1.81991 80.8485 4.24034 78.4019C6.65969 75.9563 10.2102 75.0041 13.5294 75.9105C16.8486 76.818 19.4207 79.4435 20.2595 82.7813L21.4964 87.3844C22.1509 89.8267 21.8095 92.4293 20.5453 94.6195C19.2811 96.8087 17.1977 98.4067 14.7554 99.0601C13.9461 99.2793 13.1116 99.3917 12.2728 99.3939ZM11.0642 80.4885C9.58406 80.4896 8.18896 81.1779 7.28797 82.3516C6.38699 83.5252 6.08157 85.0512 6.46335 86.4812L7.69702 91.0854C8.37875 93.628 10.9912 95.1366 13.5338 94.4559C16.0764 93.7742 17.586 91.1618 16.9043 88.6192L15.6706 84.015C15.1132 81.9349 13.2305 80.4863 11.0762 80.482L11.0642 80.4885Z" fill="#F29C1F"/>
<path d="M19.0683 114.091C15.6607 114.088 12.5117 112.273 10.8002 109.325L8.41689 105.199C5.88738 100.65 7.47446 94.9139 11.9805 92.3124C16.4876 89.7098 22.2479 91.2031 24.9225 95.6676L27.3059 99.794C29.0064 102.74 29.0086 106.37 27.3102 109.319C25.6119 112.266 22.4705 114.085 19.0683 114.091ZM14.9266 106.943C15.7578 108.457 17.3438 109.404 19.0705 109.416C20.7983 109.428 22.3974 108.505 23.2493 107.002C24.1023 105.5 24.075 103.653 23.1784 102.177L20.7961 98.0477C19.9649 96.5337 18.379 95.5869 16.6523 95.5749C14.9245 95.5629 13.3254 96.4857 12.4735 97.9877C11.6205 99.4908 11.6478 101.336 12.5444 102.813L14.9266 106.943Z" fill="#F0C419"/>
<path d="M29.3907 126.539C26.8623 126.545 24.4353 125.54 22.653 123.746L19.2836 120.377C15.6317 116.643 15.6644 110.667 19.3567 106.974C23.049 103.28 29.0264 103.246 32.7602 106.897L36.1296 110.269C38.8554 112.995 39.6702 117.094 38.1955 120.655C36.7197 124.217 33.2455 126.539 29.3907 126.539ZM26.0213 120.377C27.9084 122.176 30.8742 122.176 32.7602 120.377C34.621 118.516 34.621 115.499 32.7602 113.638L29.3907 110.267C27.5048 108.468 24.539 108.468 22.653 110.267C21.7586 111.161 21.2557 112.373 21.2557 113.637C21.2557 114.901 21.7586 116.114 22.653 117.008L26.0213 120.377Z" fill="#F29C1F"/>
<path d="M42.5847 135.897C40.9169 135.896 39.2786 135.453 37.8355 134.615L33.7091 132.232C30.7596 130.529 28.9424 127.382 28.9424 123.977C28.9424 120.571 30.7585 117.424 33.708 115.722C36.6574 114.019 40.2908 114.019 43.2403 115.722L47.3678 118.104C51.1135 120.259 52.9406 124.666 51.8182 128.839C50.6968 133.014 46.9064 135.91 42.5847 135.897ZM38.4812 119.216C38.0624 119.218 37.6446 119.273 37.2399 119.381C35.378 119.881 34.0003 121.451 33.7494 123.362C33.4975 125.274 34.4224 127.149 36.0913 128.112L40.2188 130.495C41.6936 131.346 43.5108 131.346 44.9855 130.494C46.4603 129.642 47.3689 128.069 47.3678 126.366C47.3678 124.663 46.4592 123.09 44.9844 122.238L40.8569 119.856C40.137 119.434 39.3168 119.211 38.4812 119.21V119.216Z" fill="#F0C419"/>
<path d="M57.7967 141.511C56.9579 141.51 56.1234 141.398 55.3141 141.179L50.7132 139.948C47.3885 139.098 44.7771 136.527 43.8751 133.215C42.9741 129.905 43.9231 126.364 46.3588 123.947C48.7945 121.53 52.3406 120.609 55.6457 121.535L60.2466 122.767C64.8736 123.996 67.8711 128.467 67.2515 133.214C66.6309 137.961 62.5852 141.512 57.7967 141.511ZM53.1816 125.975C50.7884 125.973 48.765 127.744 48.452 130.117C48.1389 132.489 49.6333 134.725 51.9446 135.344L56.5488 136.578C58.1926 137.019 59.9477 136.549 61.1519 135.345C62.3561 134.14 62.8252 132.385 62.3845 130.741C61.9438 129.096 60.6589 127.812 59.0151 127.371L54.4109 126.136C54.0095 126.029 53.5961 125.975 53.1816 125.975Z" fill="#F29C1F"/>
<path d="M73.8974 143H69.1318C63.8677 143 59.6006 138.733 59.6006 133.469C59.6006 128.205 63.8677 123.938 69.1318 123.938H73.8974C79.1615 123.938 83.4286 128.205 83.4286 133.469C83.4286 138.733 79.1615 143 73.8974 143ZM69.1318 128.703C66.4998 128.703 64.3662 130.837 64.3662 133.469C64.3662 136.101 66.4998 138.234 69.1318 138.234H73.8974C76.5294 138.234 78.663 136.101 78.663 133.469C78.663 130.837 76.5294 128.703 73.8974 128.703H69.1318Z" fill="#F0C419"/>
<path d="M85.2327 141.511C80.4453 141.512 76.3985 137.961 75.7789 133.214C75.1583 128.467 78.1557 123.996 82.7828 122.767L87.3848 121.535C90.6887 120.609 94.2359 121.53 96.6706 123.947C99.1063 126.364 100.055 129.905 99.1543 133.215C98.2533 136.527 95.642 139.098 92.3173 139.948L87.7153 141.179C86.9059 141.398 86.0715 141.51 85.2327 141.511ZM89.8477 125.975C89.4333 125.975 89.0198 126.029 88.6184 126.136L84.0154 127.371C82.3705 127.812 81.0855 129.096 80.6449 130.741C80.2042 132.385 80.6743 134.14 81.8774 135.345C83.0817 136.549 84.8367 137.019 86.4816 136.578L91.0847 135.344C93.396 134.725 94.8904 132.489 94.5774 130.117C94.2643 127.744 92.2409 125.973 89.8477 125.975Z" fill="#F29C1F"/>
<path d="M100.445 135.897C96.1242 135.908 92.337 133.012 91.2157 128.839C90.0944 124.668 91.9193 120.263 95.6628 118.106L99.7892 115.724C104.344 113.134 110.135 114.706 112.755 119.244C115.374 123.781 113.841 129.582 109.32 132.232L105.194 134.615C103.751 135.453 102.113 135.896 100.445 135.897ZM104.548 119.216C103.711 119.215 102.888 119.437 102.165 119.858L98.0385 122.24C96.5518 123.085 95.6312 124.663 95.6279 126.373C95.6246 128.083 96.5365 129.664 98.02 130.516C99.5024 131.368 101.328 131.36 102.804 130.495L106.931 128.112C108.601 127.149 109.524 125.274 109.274 123.362C109.023 121.451 107.644 119.881 105.782 119.381C105.381 119.271 104.965 119.213 104.548 119.21V119.216Z" fill="#F0C419"/>
<path d="M113.639 126.539C109.784 126.539 106.31 124.217 104.835 120.655C103.359 117.094 104.175 112.995 106.9 110.269L110.269 106.897C112.668 104.445 116.2 103.471 119.517 104.347C122.834 105.222 125.423 107.814 126.299 111.131C127.174 114.448 126.199 117.979 123.747 120.377L120.377 123.747C118.594 125.54 116.167 126.546 113.639 126.539ZM117.008 108.873C115.744 108.871 114.531 109.372 113.639 110.267L110.269 113.638C108.408 115.499 108.408 118.516 110.269 120.377C112.155 122.176 115.121 122.176 117.008 120.377L120.377 117.008C121.74 115.645 122.147 113.596 121.409 111.815C120.672 110.034 118.935 108.874 117.008 108.873Z" fill="#F29C1F"/>
<path d="M123.961 114.091C120.559 114.086 117.418 112.266 115.719 109.319C114.021 106.371 114.023 102.74 115.724 99.7943L118.107 95.6679C119.779 92.6595 122.944 90.7866 126.386 90.7692C129.827 90.7506 133.012 92.5897 134.717 95.5795C136.421 98.5693 136.382 102.246 134.613 105.199L132.229 109.325C130.518 112.273 127.369 114.088 123.961 114.091ZM126.368 95.6602C125.948 95.6613 125.532 95.7159 125.126 95.8249C123.904 96.1478 122.862 96.9484 122.233 98.0458L119.851 102.172C118.954 103.649 118.927 105.496 119.78 106.998C120.632 108.5 122.231 109.424 123.959 109.411C125.686 109.399 127.272 108.453 128.103 106.938L130.485 102.811C131.336 101.338 131.337 99.5238 130.488 98.0501C129.639 96.5754 128.069 95.6657 126.368 95.6624V95.6602Z" fill="#F0C419"/>
<path d="M130.757 99.3937C129.919 99.3926 129.084 99.2825 128.274 99.0654C125.832 98.4109 123.749 96.813 122.485 94.6238C121.221 92.4335 120.878 89.832 121.533 87.3897L122.77 82.7856C123.598 79.4369 126.17 76.7972 129.496 75.8831C132.821 74.969 136.382 75.9224 138.805 78.3777C141.229 80.832 142.137 84.4043 141.18 87.7181L139.947 92.3189C138.837 96.4846 135.068 99.385 130.757 99.3937ZM131.965 80.4884C129.811 80.4927 127.928 81.9413 127.371 84.0225L126.137 88.6256C125.696 90.2705 126.167 92.0255 127.371 93.2297C128.575 94.4329 130.33 94.903 131.974 94.4623C133.619 94.0217 134.904 92.7367 135.344 91.0918L136.578 86.4887C137.259 83.9461 135.75 81.3348 133.209 80.6531C132.804 80.5418 132.385 80.484 131.965 80.4818V80.4884Z" fill="#F29C1F"/>
<path d="M133.468 83.4292C128.205 83.4292 123.937 79.1621 123.937 73.898V69.1324C123.937 63.8683 128.205 59.6001 133.468 59.6001C138.732 59.6001 143.001 63.8683 143.001 69.1324V73.898C143.001 79.1621 138.732 83.4292 133.468 83.4292ZM133.468 64.3668C130.836 64.3668 128.703 66.5004 128.703 69.1324V73.898C128.703 76.53 130.836 78.6636 133.468 78.6636C136.1 78.6636 138.235 76.53 138.235 73.898V69.1324C138.235 66.5004 136.1 64.3668 133.468 64.3668Z" fill="#F0C419"/>
<path d="M131.957 67.3162C127.65 67.3074 123.883 64.4103 122.77 60.249L121.533 55.6449C120.17 50.5596 123.188 45.3337 128.274 43.9714C133.359 42.609 138.585 45.6272 139.947 50.7124L141.18 55.3143C141.943 58.1787 141.332 61.2362 139.526 63.5868C137.72 65.9385 134.923 67.3162 131.957 67.3162ZM130.75 48.401C130.331 48.4021 129.913 48.4566 129.508 48.5657C126.966 49.2464 125.456 51.8588 126.137 54.4014L127.37 59.0044C128.052 61.547 130.665 63.0567 133.207 62.3749C135.75 61.6943 137.259 59.0808 136.578 56.5382L135.344 51.9351C134.787 49.8539 132.904 48.4054 130.75 48.401Z" fill="#F29C1F"/>
<path d="M126.375 52.1381C122.967 52.1337 119.818 50.3187 118.107 47.3714L115.724 43.245C113.194 38.6965 114.781 32.9611 119.287 30.3585C123.794 27.756 129.555 29.2492 132.229 33.7138L134.613 37.8402C136.314 40.7875 136.315 44.4165 134.617 47.3649C132.919 50.3121 129.777 52.1316 126.375 52.1381ZM123.971 33.7061C122.269 33.7094 120.699 34.618 119.849 36.0928C118.999 37.5664 119 39.3815 119.851 40.8551L122.233 44.9848C123.064 46.4988 124.65 47.4445 126.377 47.4576C128.105 47.4696 129.704 46.5457 130.556 45.0437C131.409 43.5417 131.382 41.695 130.485 40.2181L128.103 36.0895C127.474 34.9922 126.433 34.1915 125.21 33.8687C124.805 33.7607 124.389 33.7061 123.971 33.7061Z" fill="#F0C419"/>
<path d="M117.008 38.9223C114.479 38.9288 112.053 37.9242 110.27 36.1321L106.9 32.7605C104.422 30.3673 103.428 26.8234 104.301 23.4911C105.173 20.1587 107.776 17.5561 111.108 16.6835C114.441 15.812 117.985 16.8057 120.378 19.2828L123.747 22.6523C126.472 25.3781 127.287 29.4772 125.812 33.0386C124.337 36.5989 120.862 38.9212 117.008 38.9223ZM113.639 21.2561C111.712 21.2561 109.974 22.4177 109.237 24.1979C108.499 25.9791 108.907 28.0276 110.27 29.3911L113.639 32.7627C115.525 34.5614 118.491 34.5614 120.378 32.7627C121.271 31.8693 121.774 30.6564 121.774 29.3922C121.774 28.128 121.271 26.915 120.378 26.0217L117.008 22.6523C116.116 21.7556 114.903 21.2528 113.639 21.2561Z" fill="#F29C1F"/>
<path d="M104.538 28.5881C102.871 28.5859 101.232 28.1452 99.7892 27.3086L95.6628 24.9253C91.1033 22.2932 89.5403 16.4641 92.1723 11.9047C94.8044 7.34521 100.635 5.78321 105.194 8.41526L109.32 10.7975C112.659 12.7249 114.508 16.4739 114.005 20.2971C113.502 24.1192 110.745 27.2617 107.021 28.2587C106.212 28.4768 105.377 28.587 104.538 28.5881ZM100.435 11.9079C100.016 11.909 99.5983 11.9636 99.1936 12.0726C97.3306 12.57 95.9508 14.1429 95.6999 16.0551C95.4479 17.9672 96.374 19.8422 98.045 20.8054L102.173 23.1887C103.647 24.0537 105.473 24.0614 106.957 23.2095C108.439 22.3576 109.352 20.777 109.348 19.0667C109.344 17.3564 108.425 15.7791 106.938 14.9337L102.811 12.5515C102.09 12.1294 101.27 11.9047 100.435 11.9003V11.9079Z" fill="#F0C419"/>
<path d="M61.9827 19.0918C60.9585 19.0918 60.0488 18.4351 59.7248 17.4622C59.4336 16.5928 56.9935 8.81774 60.6007 3.81107C62.6263 1.1943 65.8332 -0.226983 69.1317 0.0293494C72.1422 -0.196442 75.0786 1.03068 77.0333 3.33222C78.4022 5.216 79.0752 7.51536 78.94 9.8398L98.0024 11.9581C98.8488 12.0519 99.5808 12.5897 99.9222 13.3696C100.265 14.1495 100.164 15.0515 99.6604 15.7376C99.1564 16.4237 98.3242 16.7891 97.4777 16.6953L76.032 14.312C75.3491 14.2367 74.7307 13.8691 74.338 13.3041C73.9453 12.7391 73.8155 12.0323 73.9835 11.3647C74.4242 9.63474 74.1733 7.80114 73.2821 6.25333C72.1968 5.15491 70.6664 4.61716 69.1317 4.79496C67.3745 4.58553 65.6281 5.26072 64.4686 6.59692C62.6023 9.18643 63.7105 14.3502 64.2417 15.9569C64.4839 16.6822 64.3628 17.4807 63.9145 18.1024C63.4673 18.7231 62.7485 19.0918 61.9827 19.0918Z" fill="#F29C1F"/>
<path d="M45.3039 16.7097C44.1346 16.7108 43.1365 15.8621 42.95 14.7081C42.7624 13.5541 43.4409 12.4338 44.5502 12.0651C45.149 11.8677 59.3008 7.17847 66.7497 7.17847C68.0652 7.17847 69.1319 8.24525 69.1319 9.56072C69.1319 10.8773 68.0652 11.9441 66.7497 11.9441C60.0632 11.9441 46.1972 16.5406 46.0565 16.5875C45.8133 16.6682 45.5591 16.7097 45.3039 16.7097Z" fill="#E57E25"/>
</g>
<defs>
<clipPath id="clip0">
<rect width="143" height="143" fill="white"/>
</clipPath>
</defs>
</svg>
