<svg width="112" height="185" viewBox="0 0 112 185" fill="none" xmlns="http://www.w3.org/2000/svg">
<path d="M104.832 30.832H6.16797V62.2224H104.832V30.832Z" fill="#D0E2ED"/>
<path d="M30.8348 46.2508H43.9387H88.6469L104.834 30.8337V20.7339C104.834 19.5003 103.834 18.5005 102.601 18.5005H43.168L30.8351 18.5008H8.40134C7.16776 18.5008 6.16797 19.5006 6.16797 20.7342V30.8323L22.3562 46.2512H30.8348" fill="#9A5F5B"/>
<path d="M21.2922 18.5005V61.7294C21.2922 63.2712 20.0428 64.521 18.5006 64.521C16.9585 64.521 15.709 63.2712 15.709 61.7294V18.5005H21.2922Z" fill="#804C49"/>
<path d="M58.2913 18.5005V55.5001C58.2913 57.0419 57.0418 58.2917 55.4996 58.2917C53.9575 58.2917 52.708 57.0419 52.708 55.5001V18.5005H58.2913Z" fill="#804C49"/>
<path d="M70.6252 18.5005V55.5001C70.6252 57.0419 69.3758 58.2917 67.8336 58.2917C66.2915 58.2917 65.042 57.0419 65.042 55.5001V18.5005H70.6252Z" fill="#804C49"/>
<path d="M82.9592 18.5005V55.5001C82.9592 57.0419 81.7097 58.2917 80.1676 58.2917C78.6255 58.2917 77.376 57.0419 77.376 55.5001V18.5005H82.9592Z" fill="#804C49"/>
<path d="M95.2932 18.5005V61.233C95.2932 62.7747 94.0437 64.0246 92.5016 64.0246C90.9594 64.0246 89.71 62.7747 89.71 61.233V18.5005H95.2932Z" fill="#804C49"/>
<path d="M58.2926 46.25H52.709V62.2247H58.2926V46.25Z" fill="#7D8F9E"/>
<path d="M70.6246 46.25H65.041V62.2247H70.6246V46.25Z" fill="#7D8F9E"/>
<path d="M82.9606 46.25H77.377V62.2247H82.9606V46.25Z" fill="#7D8F9E"/>
<path d="M43.1642 27.5493H30.832V57.3614H43.1642V27.5493Z" fill="#D0E2ED"/>
<path d="M41.5351 0H32.4661C31.5646 0 30.834 0.730606 30.834 1.63212V27.7504H43.1676V1.63212C43.1672 0.730606 42.4362 0 41.5351 0Z" fill="#9A5F5B"/>
<path d="M43.1674 24.959H30.8346C29.2924 24.959 28.043 26.2088 28.043 27.7506C28.043 29.2924 29.2924 30.5422 30.8346 30.5422H43.1674C44.7096 30.5422 45.9591 29.2924 45.9591 27.7506C45.9591 26.2088 44.7092 24.959 43.1674 24.959Z" fill="#FDBE40"/>
<path d="M111.001 83.5679V33.0658C111.001 31.8322 110.001 30.8324 108.767 30.8324L94.2449 30.8338C93.2201 30.8338 92.3269 31.5316 92.0783 32.5256L86.7574 53.8096C86.5088 54.804 85.6153 55.5014 84.5905 55.5014H26.4109C25.3862 55.5014 24.4926 54.8036 24.244 53.8096L18.9231 32.5241C18.6745 31.5298 17.781 30.8324 16.7562 30.8324H2.23337C0.999795 30.8324 0 31.8322 0 33.0658V83.5679H111.001Z" fill="#FDBE40"/>
<path d="M11.4794 32.5233L16.8003 53.8088C17.0489 54.8031 17.9425 55.5005 18.9672 55.5005H26.412C25.3873 55.5005 24.4937 54.8028 24.2451 53.8088L18.9238 32.5233C18.6752 31.5289 17.7817 30.8315 16.7569 30.8315H9.3125C10.3372 30.8319 11.2304 31.5289 11.4794 32.5233Z" fill="#FFA912"/>
<path d="M108.768 30.8319L101.338 30.8326C102.565 30.8406 103.557 31.8364 103.557 33.0653V83.5674H111.002V33.0653C111.002 31.8317 110.001 30.8319 108.768 30.8319Z" fill="#FFA912"/>
<path d="M111.001 178.833V74.0005H0V178.833C0 182.239 2.76127 185 6.16715 185H104.834C108.24 185 111.001 182.239 111.001 178.833Z" fill="#D0E2ED"/>
<path d="M55.5001 135.668C62.3109 135.668 67.8322 130.146 67.8322 123.336C67.8322 116.525 62.3109 111.003 55.5001 111.003C48.6893 111.003 43.168 116.525 43.168 123.336C43.168 130.146 48.6893 135.668 55.5001 135.668Z" fill="#87D0ED"/>
<path d="M80.8095 145.209H30.191C28.6489 145.209 27.3994 146.459 27.3994 148.001V160.334C27.3994 161.876 28.6489 163.126 30.191 163.126H80.8095C82.3513 163.126 83.6011 161.876 83.6011 160.334V148.001C83.6011 146.459 82.3516 145.209 80.8095 145.209ZM78.0179 157.543H32.9827V150.793H78.0175V157.543H78.0179Z" fill="#394D5C"/>
<path d="M86.3338 169.877H24.6666C23.1245 169.877 21.875 171.127 21.875 172.669C21.875 174.21 23.1245 175.46 24.6666 175.46H86.3338C87.8759 175.46 89.1254 174.21 89.1254 172.669C89.1254 171.127 87.8759 169.877 86.3338 169.877Z" fill="#394D5C"/>
<path d="M103.556 74.0005V178.833C103.556 182.239 100.795 185 97.3887 185H104.833C108.239 185 111.001 182.239 111.001 178.833V74.0005H103.556Z" fill="#AABFCF"/>
<path d="M111.001 129.501L56.872 87.4007C56.0655 86.7734 54.936 86.7734 54.1298 87.4007L0 129.501L0.00036113 74.0005H111.001V129.501Z" fill="#DC1C4A"/>
<path d="M111.001 129.501V74.0005H103.557V123.711L111.001 129.501Z" fill="#B31E48"/>
</svg>
