<?xml version="1.0" encoding="utf-8"?>
<!-- Generator: Adobe Illustrator 24.2.1, SVG Export Plug-In . SVG Version: 6.00 Build 0)  -->
<svg version="1.1" id="Layer_1" xmlns="http://www.w3.org/2000/svg" xmlns:xlink="http://www.w3.org/1999/xlink" x="0px" y="0px"
	 viewBox="0 0 149 173" style="enable-background:new 0 0 149 173;" xml:space="preserve">
<style type="text/css">
	.st0{fill:#2C3E50;}
	.st1{fill:#E64C3C;}
	.st2{fill:#FFF6E9;}
	.st3{fill:none;stroke:#CD8322;stroke-width:2;stroke-miterlimit:10;}
	.st4{fill:#00001A;}
	.st5{fill:url(#SVGID_1_);}
	.st6{fill:url(#SVGID_2_);}
	.st7{fill:url(#SVGID_3_);}
	.st8{fill:url(#SVGID_4_);}
	.st9{fill:url(#SVGID_5_);}
	.st10{fill:url(#SVGID_6_);}
	.st11{fill:url(#SVGID_7_);}
	.st12{fill:url(#SVGID_8_);}
	.st13{fill:url(#SVGID_9_);}
	.st14{fill:url(#SVGID_10_);}
	.st15{fill:url(#SVGID_11_);}
	.st16{fill:url(#SVGID_12_);}
	.st17{fill:url(#SVGID_13_);}
	.st18{fill:url(#SVGID_14_);}
	.st19{fill:url(#SVGID_15_);}
	.st20{fill:url(#SVGID_16_);}
	.st21{fill:url(#SVGID_17_);}
	.st22{fill:url(#SVGID_18_);}
	.st23{fill:none;stroke:#D4000B;stroke-width:2;stroke-miterlimit:10;}
	.st24{fill:none;stroke:#D4000B;stroke-miterlimit:10;}
	.st25{fill:none;stroke:#00E9D9;stroke-width:1.5;stroke-miterlimit:10;}
	.st26{fill:#00E9D9;}
	.st27{fill:none;stroke:#33FF00;stroke-linecap:round;stroke-linejoin:round;stroke-miterlimit:10;}
	.st28{fill:#D4000B;}
	.st29{fill:none;stroke:#D4000B;stroke-width:1.5;stroke-miterlimit:10;}
	.st30{fill:none;stroke:#D4000B;stroke-width:1.5;stroke-linecap:round;stroke-linejoin:round;stroke-miterlimit:10;}
	.st31{fill:none;stroke:#00E9D9;stroke-width:1.5;stroke-linecap:round;stroke-linejoin:round;stroke-miterlimit:10;}
	.st32{fill:none;stroke:#00E9D9;stroke-linecap:round;stroke-miterlimit:10;}
	.st33{fill:none;stroke:#D4000B;stroke-linecap:round;stroke-miterlimit:10;}
	.st34{fill:none;stroke:#D4000B;stroke-linecap:round;stroke-linejoin:round;stroke-miterlimit:10;}
	.st35{fill:none;stroke:#00E9D9;stroke-miterlimit:10;}
	.st36{fill:none;stroke:#D4000B;stroke-linejoin:round;stroke-miterlimit:10;}
	.st37{fill:#D71920;}
	.st38{fill:#ED1C24;}
	.st39{fill:#CB2027;}
	.st40{fill:#F48072;}
	.st41{fill:#333333;}
	.st42{fill:#4D4D4D;}
	.st43{fill:#F15A24;}
	.st44{fill:#FBB03B;}
	.st45{fill:#999999;}
	.st46{fill:#B3B3B3;}
	.st47{fill:#D90033;}
	.st48{opacity:0.75;fill:#353535;}
	.st49{fill:#00823D;}
	.st50{fill:#FF7A00;}
	.st51{opacity:0.25;fill:#FFFFFF;}
	.st52{fill:#BB1997;}
	.st53{opacity:0.75;}
	.st54{fill:#353535;}
	.st55{fill:#00713A;}
	.st56{fill:#00A992;}
	.st57{fill:#729600;}
	.st58{fill:#C69C6D;}
	.st59{fill:none;stroke:#4F342D;stroke-width:5;stroke-miterlimit:10;}
	.st60{fill:#4F342D;}
</style>
<g>
	<g>
		<path class="st58" d="M148.5,113.2c-1.1,0-2-0.9-2-2c0-1.1,0.9-2,2-2c0.1,0,0.2,0,0.3,0v-1.6c-0.1,0-0.2,0-0.3,0c-1.1,0-2-0.9-2-2
			c0-1.1,0.9-2,2-2c0.1,0,0.2,0,0.3,0v-1.6c-0.1,0-0.2,0-0.3,0c-1.1,0-2-0.9-2-2c0-1.1,0.9-2,2-2c0.1,0,0.2,0,0.3,0v-1.6
			c-0.1,0-0.2,0-0.3,0c-1.1,0-2-0.9-2-2c0-1.1,0.9-2,2-2c0.1,0,0.2,0,0.3,0v-1.6c-0.1,0-0.2,0-0.3,0c-1.1,0-2-0.9-2-2
			c0-1.1,0.9-2,2-2c0.1,0,0.2,0,0.3,0v-1.6c-0.1,0-0.2,0-0.3,0c-1.1,0-2-0.9-2-2c0-1.1,0.9-2,2-2c0.1,0,0.2,0,0.3,0v-1.6
			c-0.1,0-0.2,0-0.3,0c-1.1,0-2-0.9-2-2c0-1.1,0.9-2,2-2c0.1,0,0.2,0,0.3,0v-1.6c-0.1,0-0.2,0-0.3,0c-1.1,0-2-0.9-2-2
			c0-1.1,0.9-2,2-2c0.1,0,0.2,0,0.3,0v-1.6c-0.1,0-0.2,0-0.3,0c-1.1,0-2-0.9-2-2c0-1.1,0.9-2,2-2c0.1,0,0.2,0,0.3,0v-1.6
			c-0.1,0-0.2,0-0.3,0c-1.1,0-2-0.9-2-2c0-1.1,0.9-2,2-2c0.1,0,0.2,0,0.3,0V58c-5.2,0-9.4-4.2-9.4-9.4H9.7c0,5.2-4.2,9.4-9.4,9.4
			v1.9c0.1,0,0.2,0,0.4,0c1.1,0,2,0.9,2,2c0,1.1-0.9,2-2,2c-0.1,0-0.3,0-0.4,0v1.6c0.1,0,0.2,0,0.4,0c1.1,0,2,0.9,2,2
			c0,1.1-0.9,2-2,2c-0.1,0-0.3,0-0.4,0v1.6c0.1,0,0.2,0,0.4,0c1.1,0,2,0.9,2,2c0,1.1-0.9,2-2,2c-0.1,0-0.3,0-0.4,0v1.6
			c0.1,0,0.2,0,0.4,0c1.1,0,2,0.9,2,2c0,1.1-0.9,2-2,2c-0.1,0-0.3,0-0.4,0v1.6c0.1,0,0.2,0,0.4,0c1.1,0,2,0.9,2,2c0,1.1-0.9,2-2,2
			c-0.1,0-0.3,0-0.4,0v1.6c0.1,0,0.2,0,0.4,0c1.1,0,2,0.9,2,2c0,1.1-0.9,2-2,2c-0.1,0-0.3,0-0.4,0v1.6c0.1,0,0.2,0,0.4,0
			c1.1,0,2,0.9,2,2c0,1.1-0.9,2-2,2c-0.1,0-0.3,0-0.4,0v1.6c0.1,0,0.2,0,0.4,0c1.1,0,2,0.9,2,2c0,1.1-0.9,2-2,2c-0.1,0-0.3,0-0.4,0
			v1.6c0.1,0,0.2,0,0.4,0c1.1,0,2,0.9,2,2c0,1.1-0.9,2-2,2c-0.1,0-0.3,0-0.4,0v1.6c0.1,0,0.2,0,0.4,0c1.1,0,2,0.9,2,2
			c0,1.1-0.9,2-2,2c-0.1,0-0.3,0-0.4,0v1.9c5.2,0,9.4,4.2,9.4,9.4h129.6c0-5.2,4.2-9.4,9.4-9.4v-1.9
			C148.6,113.2,148.5,113.2,148.5,113.2z"/>
	</g>
	<path class="st59" d="M143.1,60.5c-3.4-1.6-6-4.6-7-8.2H12.4c-1.1,3.5-3.6,6.5-6.9,8.1v52.2c3.3,1.6,5.8,4.5,6.9,8.1H136
		c1.1-3.6,3.7-6.6,7-8.2V60.5z"/>
	<line class="st59" x1="5.6" y1="66.6" x2="143.1" y2="66.6"/>
	<g>
		<g>
			<path class="st60" d="M49.4,61.9l-0.7-1.6h-2.8l-0.7,1.6h-1.1l3.2-6.9l3.1,6.9H49.4z M46.3,59.4h2l-1-2.2L46.3,59.4z"/>
			<path class="st60" d="M53,57.8h1.6c0.4,0,0.7,0.1,0.9,0.2c0.3,0.2,0.4,0.5,0.4,0.8c0,0.4-0.2,0.6-0.5,0.8c0.2,0,0.4,0.1,0.6,0.3
				c0.2,0.2,0.3,0.5,0.3,0.8c0,0.4-0.1,0.7-0.4,0.9c-0.2,0.2-0.6,0.3-0.9,0.3H53V57.8z M54,59.4h0.5c0.2,0,0.3,0,0.4-0.1
				c0.1-0.1,0.2-0.2,0.2-0.3c0-0.1-0.1-0.2-0.2-0.3c-0.1-0.1-0.2-0.1-0.4-0.1H54V59.4z M54,61.1h0.7c0.2,0,0.4,0,0.5-0.1
				c0.1-0.1,0.2-0.2,0.2-0.4c0-0.2-0.1-0.3-0.2-0.4c-0.1-0.1-0.3-0.1-0.5-0.1H54V61.1z"/>
			<path class="st60" d="M62.1,58.6h-1.2v3.2h-1v-3.2h-1.2v-0.9h3.4V58.6z"/>
			<path class="st60" d="M65,58.3c0.4-0.4,0.9-0.6,1.6-0.6c0.6,0,1.1,0.2,1.6,0.6c0.4,0.4,0.6,0.9,0.6,1.6c0,0.6-0.2,1.1-0.6,1.6
				c-0.4,0.4-0.9,0.6-1.6,0.6c-0.6,0-1.1-0.2-1.6-0.6c-0.4-0.4-0.6-0.9-0.6-1.6C64.4,59.2,64.6,58.7,65,58.3z M65.7,60.8
				c0.2,0.2,0.5,0.4,0.9,0.4c0.4,0,0.7-0.1,0.9-0.4s0.3-0.6,0.3-1c0-0.4-0.1-0.8-0.4-1c-0.2-0.2-0.5-0.3-0.9-0.3s-0.6,0.1-0.9,0.3
				s-0.4,0.5-0.4,1C65.4,60.2,65.5,60.5,65.7,60.8z"/>
			<path class="st60" d="M71.7,57.8h1v1.5l1.4-1.5h1.3l-1.8,1.8l1.9,2.3h-1.2l-1.4-1.7l-0.2,0.2v1.5h-1V57.8z"/>
			<path class="st60" d="M77.7,64.1l1.5-2.9l-1.8-3.5h1.1l1.2,2.4l1.2-2.4H82l-3.3,6.3H77.7z"/>
			<path class="st60" d="M84.6,57.8h3.6v4.1h-1v-3.2h-1.7v3.2h-1V57.8z"/>
			<path class="st60" d="M91.8,58.3c0.4-0.4,0.9-0.6,1.6-0.6c0.6,0,1.1,0.2,1.6,0.6c0.4,0.4,0.6,0.9,0.6,1.6c0,0.6-0.2,1.1-0.6,1.6
				C94.5,61.8,94,62,93.3,62c-0.6,0-1.1-0.2-1.6-0.6c-0.4-0.4-0.6-0.9-0.6-1.6C91.2,59.2,91.4,58.7,91.8,58.3z M92.5,60.8
				c0.2,0.2,0.5,0.4,0.9,0.4s0.7-0.1,0.9-0.4s0.3-0.6,0.3-1c0-0.4-0.1-0.8-0.4-1s-0.5-0.3-0.9-0.3s-0.6,0.1-0.9,0.3s-0.4,0.5-0.4,1
				C92.1,60.2,92.2,60.5,92.5,60.8z"/>
			<path class="st60" d="M98.5,61.9v-4.1h1v1.5h1.7v-1.5h1v4.1h-1v-1.7h-1.7v1.7H98.5z"/>
		</g>
	</g>
	<g id="XMLID_127_">
		<g id="XMLID_444_">
			<path id="XMLID_447_" class="st60" d="M122.7,103.9c0,0,1.1-7.4-3-11.7c-3.6-3.8-6.8-4.7-13.4-5c-6.1-0.3-8.9,0-13,0
				c-2.6,0-31.7,2.1-42.5,0c0,0,6.7,3.1,22.4,3c13-0.1,24,0.1,27.4,0.1c0.6,0,1.2,0,1.8-0.1c2-0.1,7.6-0.3,12.2,1.5
				C120.5,93.9,122.2,100,122.7,103.9z"/>
		</g>
		
			<ellipse id="XMLID_121_" transform="matrix(0.1602 -0.9871 0.9871 0.1602 -9.9297 193.4616)" class="st60" cx="108.7" cy="102.6" rx="7.9" ry="7.9"/>
		
			<ellipse id="XMLID_123_" transform="matrix(0.1602 -0.9871 0.9871 0.1602 -64.3723 129.472)" class="st60" cx="43.9" cy="102.6" rx="7.9" ry="7.9"/>
		<path id="XMLID_125_" class="st60" d="M107.3,92.4c0,0-9.3-2.6-12.2,9.1H57.6c0,0-2.5-7.7-8.6-8.2c0,0,0.1,0.1,0.3,0.4
			c3,1.8,5,5.1,5,8.9c0,0.4,0,0.9-0.1,1.3h44.4C98.7,103.9,97.7,93.4,107.3,92.4z"/>
		<path id="XMLID_126_" class="st60" d="M67.1,80.3c12.7,0.6,23,5.1,23,5.1S88,83.3,81,80.6c-7-2.7-14.8-4.8-26.3-1.9
			C44,81.4,46,86.4,27,85.5c-0.6,0-1,0.6-0.7,1.2c0.8,1.4,1.6,3.7,0,6.2c-2.6,3.9-0.1,9.7-0.1,9.7h7.2c0-5.6,4.4-10.2,10-10.5
			c-1.8-0.3-4.5-0.1-8.5,1.6h-6.4c0,0,2.1-2.7,1.4-4.9c0,0,7.3-2.3,14.4,0.1c7.1,2.4,22.8,4,33.1,3c0,0-24.7-1.2-32.2-6.4
			C45.2,85.4,52.4,79.6,67.1,80.3z"/>
	</g>
</g>
</svg>
