<svg width="191" height="179" viewBox="0 0 191 179" fill="none" xmlns="http://www.w3.org/2000/svg">
<path d="M188.502 21.9866C189.66 24.4275 190.449 26.4097 190.449 29.1304C190.449 32.0662 189.283 34.8817 187.207 36.9576C185.131 39.0335 182.316 40.1998 179.38 40.1998C176.444 40.1998 173.629 39.0335 171.553 36.9576C169.477 34.8817 168.311 32.0662 168.311 29.1304C168.311 26.4097 169.243 24.1399 170.254 21.9866C172.042 18.1893 179.38 7.37256 179.38 7.37256C179.38 7.37256 186.691 18.1621 188.502 21.9866Z" fill="#75D2FC"/>
<path d="M28.8081 170.436L8.26675 149.894C7.35859 148.986 6.12687 148.476 4.84255 148.476C3.55822 148.476 2.3265 148.986 1.41835 149.894C0.510196 150.803 0 152.034 0 153.319C0 154.603 0.510196 155.835 1.41835 156.743L21.9597 177.284C22.8678 178.192 24.0995 178.702 25.3839 178.702C26.6682 178.702 27.8999 178.192 28.8081 177.284C29.7162 176.376 30.2264 175.144 30.2264 173.86C30.2264 172.576 29.7162 171.344 28.8081 170.436Z" fill="#B0B5CA"/>
<path d="M40.7365 144.815L21.9597 163.588L15.1152 156.743L33.8881 137.966L40.7365 144.815Z" fill="#D4E1F4"/>
<path d="M137.376 51.5991L137.489 51.7118C137.924 52.1461 138.269 52.6619 138.505 53.2298C138.74 53.7977 138.862 54.4065 138.862 55.0213C138.862 55.6362 138.74 56.245 138.505 56.8129C138.269 57.3808 137.924 57.8966 137.489 58.3309L127.092 68.7279L109.975 51.6069L120.372 41.2138C120.806 40.7786 121.322 40.4333 121.89 40.1977C122.458 39.9621 123.066 39.8408 123.681 39.8408C124.296 39.8408 124.905 39.9621 125.473 40.1977C126.041 40.4333 126.556 40.7786 126.991 41.2138L127.103 41.3265L137.376 51.5991Z" fill="#B7FF8D"/>
<path d="M127.885 78.2078C129.036 77.055 129.683 75.492 129.683 73.8625C129.683 72.2329 129.036 70.67 127.885 69.5171L109.182 50.8181C108.03 49.6665 106.467 49.0195 104.838 49.0195C103.209 49.0195 101.647 49.6665 100.495 50.8181L31.1016 120.212V120.215L58.4913 147.605V147.601L127.885 78.2078ZM104.253 59.0774C104.217 59.113 104.168 59.133 104.117 59.133C104.067 59.133 104.018 59.113 103.981 59.0774C103.963 59.0593 103.949 59.0378 103.939 59.0142C103.929 58.9905 103.924 58.9651 103.924 58.9394C103.924 58.9138 103.929 58.8884 103.939 58.8647C103.949 58.841 103.963 58.8195 103.981 58.8014C104.018 58.7658 104.067 58.7459 104.117 58.7459C104.168 58.7459 104.217 58.7658 104.253 58.8014C104.272 58.8195 104.286 58.841 104.296 58.8647C104.306 58.8884 104.311 58.9138 104.311 58.9394C104.311 58.9651 104.306 58.9905 104.296 59.0142C104.286 59.0378 104.272 59.0593 104.253 59.0774Z" fill="#A0EAEA"/>
<path d="M175.695 27.8164C177.118 24.7925 182.054 17.33 184.01 14.408C181.674 10.758 179.38 7.37305 179.38 7.37305C179.38 7.37305 172.042 18.1898 170.254 21.9871C169.243 24.1404 168.311 26.4102 168.311 29.1309C168.311 31.2095 168.896 33.2461 170 35.0073C171.104 36.7686 172.682 38.1833 174.553 39.0894C174.023 37.7771 173.752 36.3752 173.753 34.9602C173.752 32.2395 174.685 29.9697 175.695 27.8164Z" fill="#5EBAD3"/>
<path d="M127.103 41.3265L126.991 41.2138C126.556 40.7786 126.041 40.4333 125.473 40.1977C124.905 39.9621 124.296 39.8408 123.681 39.8408C123.066 39.8408 122.458 39.9621 121.89 40.1977C121.322 40.4333 120.806 40.7786 120.372 41.2138L109.975 51.6069L115.61 57.2426L125.813 47.0439C126.247 46.6086 126.763 46.2634 127.331 46.0278C127.899 45.7922 128.508 45.6709 129.123 45.6709C129.737 45.6709 130.346 45.7922 130.914 46.0278C131.482 46.2634 131.998 46.6086 132.432 47.0439L132.545 47.1566L127.103 41.3265Z" fill="#9FDD76"/>
<path d="M109.182 50.8181C108.03 49.6665 106.467 49.0195 104.838 49.0195C103.209 49.0195 101.647 49.6665 100.495 50.8181L31.1016 120.212V120.215L36.7373 125.849L105.936 56.6482C107.089 55.4966 108.651 54.8496 110.28 54.8496C111.909 54.8496 113.471 55.4966 114.623 56.6482L109.182 50.8181Z" fill="#83CCC8"/>
<path d="M104.117 59.1324C104.224 59.1324 104.31 59.046 104.31 58.9393C104.31 58.8326 104.224 58.7461 104.117 58.7461C104.01 58.7461 103.924 58.8326 103.924 58.9393C103.924 59.046 104.01 59.1324 104.117 59.1324Z" fill="#A0EAEA"/>
<path d="M149.994 31.0396C149.533 31.0396 149.082 30.9029 148.699 30.6467C148.315 30.3904 148.016 30.0262 147.84 29.6C147.663 29.1739 147.617 28.7049 147.707 28.2525C147.797 27.8001 148.019 27.3846 148.345 27.0584L174.721 0.683152C174.937 0.466584 175.194 0.294788 175.477 0.177573C175.76 0.0603577 176.063 1.80627e-05 176.37 4.0547e-09C176.676 -1.80546e-05 176.979 0.0602858 177.262 0.177468C177.545 0.29465 177.802 0.466415 178.019 0.682957C178.235 0.899499 178.407 1.15658 178.524 1.43951C178.641 1.72245 178.702 2.0257 178.702 2.33195C178.702 2.63821 178.642 2.94147 178.524 3.22442C178.407 3.50737 178.235 3.76446 178.019 3.98103L151.643 30.3567C151.427 30.5735 151.17 30.7454 150.887 30.8626C150.604 30.9798 150.301 31.04 149.994 31.0396Z" fill="#D4E1F4"/>
<path d="M111.543 74.006C111.103 73.5833 110.515 73.35 109.905 73.3561C109.294 73.3621 108.711 73.6071 108.279 74.0385C107.848 74.4699 107.602 75.0532 107.596 75.6634C107.589 76.2736 107.822 76.862 108.245 77.3024L118.516 87.5738L121.814 84.2755L111.543 74.006Z" fill="#55D8D8"/>
<path d="M94.8814 90.6681C94.6649 90.4515 94.4078 90.2798 94.1248 90.1626C93.8419 90.0454 93.5386 89.9851 93.2323 89.9851C92.9261 89.9851 92.6228 90.0455 92.3399 90.1627C92.057 90.2799 91.7999 90.4517 91.5833 90.6683C91.3668 90.8848 91.195 91.1419 91.0779 91.4249C90.9607 91.7078 90.9004 92.0111 90.9004 92.3173C90.9004 92.6236 90.9608 92.9268 91.078 93.2098C91.1952 93.4927 91.367 93.7498 91.5835 93.9663L101.855 104.237L105.152 100.939L94.8814 90.6681Z" fill="#55D8D8"/>
<path d="M108.348 87.4727C108.132 87.2561 107.875 87.0843 107.592 86.9671C107.309 86.8499 107.006 86.7896 106.699 86.7896C106.393 86.7895 106.09 86.8498 105.807 86.967C105.524 87.0842 105.267 87.256 105.05 87.4725C104.834 87.6891 104.662 87.9461 104.545 88.2291C104.428 88.512 104.367 88.8153 104.367 89.1215C104.367 89.4278 104.427 89.731 104.545 90.014C104.662 90.2969 104.834 90.554 105.05 90.7706L110.186 95.9061L113.484 92.6082L108.348 87.4727Z" fill="#55D8D8"/>
<path d="M78.2196 107.33C77.7823 106.893 77.1891 106.647 76.5705 106.647C75.952 106.647 75.3588 106.893 74.9214 107.33C74.484 107.767 74.2383 108.361 74.2383 108.979C74.2383 109.598 74.484 110.191 74.9214 110.628L85.1924 120.899L88.4907 117.602L78.2196 107.33Z" fill="#55D8D8"/>
<path d="M91.6882 104.135C91.2509 103.697 90.6578 103.452 90.0393 103.452C89.4207 103.452 88.8276 103.697 88.3902 104.135C87.9528 104.572 87.7071 105.165 87.707 105.784C87.707 106.402 87.9527 106.995 88.39 107.433L93.5255 112.568L96.8238 109.27L91.6882 104.135Z" fill="#55D8D8"/>
<path d="M61.5572 123.992C61.3406 123.775 61.0835 123.604 60.8006 123.486C60.5176 123.369 60.2144 123.309 59.9081 123.309C59.2896 123.309 58.6965 123.555 58.2591 123.992C57.8218 124.429 57.5761 125.023 57.5762 125.641C57.5762 126.26 57.8219 126.853 58.2593 127.29L68.5304 137.561L71.8286 134.263L61.5572 123.992Z" fill="#55D8D8"/>
<path d="M75.024 120.797C74.5866 120.359 73.9934 120.114 73.3749 120.114C72.7564 120.114 72.1633 120.36 71.7259 120.797C71.2886 121.234 71.0429 121.827 71.043 122.446C71.043 123.065 71.2887 123.658 71.7261 124.095L76.8616 129.229L80.1595 125.931L75.024 120.797Z" fill="#55D8D8"/>
<path d="M104.116 61.4653C103.617 61.4654 103.129 61.3173 102.713 61.0399C102.298 60.7625 101.974 60.3681 101.783 59.9067C101.591 59.4452 101.541 58.9374 101.638 58.4474C101.735 57.9574 101.976 57.5073 102.329 57.1538C102.622 56.8598 102.984 56.6427 103.381 56.5218C103.779 56.401 104.2 56.38 104.608 56.4609C105.015 56.5417 105.397 56.7218 105.718 56.9853C106.039 57.2488 106.291 57.5874 106.45 57.9712C106.609 58.3551 106.671 58.7722 106.63 59.1858C106.59 59.5993 106.448 59.9965 106.217 60.342C105.986 60.6876 105.674 60.9709 105.308 61.1668C104.941 61.3628 104.532 61.4653 104.116 61.4653Z" fill="#F4F8FC"/>
<path d="M72.5716 93.0913C72.1103 93.0913 71.6594 92.9546 71.2758 92.6984C70.8923 92.4421 70.5933 92.0779 70.4168 91.6517C70.2403 91.2256 70.1941 90.7566 70.2841 90.3042C70.3741 89.8518 70.5962 89.4363 70.9224 89.1101L97.7956 62.2374C98.2329 61.8 98.8261 61.5542 99.4446 61.5542C100.063 61.5542 100.656 61.7998 101.094 62.2372C101.531 62.6745 101.777 63.2676 101.777 63.8862C101.777 64.5047 101.531 65.0979 101.094 65.5352L74.2207 92.4084C74.0043 92.6252 73.7472 92.7971 73.4642 92.9143C73.1812 93.0315 72.8779 93.0916 72.5716 93.0913Z" fill="#F4F8FC"/>
<path d="M149.992 28.7066C151.354 30.0694 152.118 31.9168 152.118 33.8429C152.118 35.769 151.354 37.6164 149.992 38.9792L137.376 51.5955V51.5994L127.104 41.3268L139.724 28.7066C141.086 27.3459 142.933 26.5815 144.858 26.5815C146.783 26.5815 148.63 27.3459 149.992 28.7066Z" fill="#B1E862"/>
<path d="M152.01 32.6235C151.788 31.31 151.209 30.0829 150.336 29.0768C149.463 28.0707 148.33 27.3244 147.061 26.9198C145.792 26.5152 144.435 26.4679 143.141 26.7832C141.847 27.0984 140.665 27.764 139.724 28.7069L127.104 41.327L132.739 46.9628L145.165 34.5369C146.046 33.6578 147.138 33.02 148.337 32.6849C149.536 32.3498 150.8 32.3287 152.01 32.6235Z" fill="#9EC94C"/>
<path d="M60.9817 150.096L28.6053 117.72C27.6113 116.737 26.2685 116.187 24.8702 116.19C23.472 116.194 22.132 116.751 21.1433 117.74C20.1546 118.729 19.5975 120.069 19.5938 121.467C19.59 122.865 20.14 124.208 21.1234 125.202L53.4998 157.578C54.4937 158.562 55.8366 159.112 57.2349 159.108C58.6331 159.104 59.973 158.547 60.9617 157.558C61.9505 156.57 62.5076 155.23 62.5113 153.832C62.515 152.433 61.9651 151.09 60.9817 150.096Z" fill="#B0B5CA"/>
</svg>
