<svg width="159" height="159" viewBox="0 0 159 159" fill="none" xmlns="http://www.w3.org/2000/svg">
<path d="M38.3802 30.155C36.8663 30.155 35.6387 31.3823 35.6387 32.8965V60.3104C35.6387 61.8243 36.866 63.0519 38.3802 63.0519C39.8941 63.0519 41.1217 61.8246 41.1217 60.3104V32.8965C41.1214 31.3826 39.8941 30.155 38.3802 30.155Z" fill="#D1D4D1"/>
<path d="M120.621 30.155C119.107 30.155 117.88 31.3823 117.88 32.8965V60.3104C117.88 61.8243 119.107 63.0519 120.621 63.0519C122.136 63.0519 123.363 61.8246 123.363 60.3104V32.8965C123.363 31.3826 122.136 30.155 120.621 30.155Z" fill="#D1D4D1"/>
<path d="M41.4502 70.6728C45.1045 69.202 47.2031 65.3469 46.4541 61.4796C45.7051 57.6124 42.3192 54.8193 38.3799 54.8193C34.4406 54.8193 31.0547 57.6124 30.3056 61.4796C29.5566 65.3469 31.655 69.2023 35.3095 70.6728H41.4502Z" fill="#BDC3C7"/>
<path d="M123.691 70.6728C127.346 69.202 129.444 65.3469 128.695 61.4796C127.946 57.6124 124.56 54.8193 120.621 54.8193C116.682 54.8193 113.296 57.6124 112.547 61.4796C111.798 65.3469 113.896 69.2023 117.551 70.6728H123.691Z" fill="#BDC3C7"/>
<path d="M40.6993 69.4692C40.1971 68.6727 39.3217 68.1895 38.3801 68.1895C37.4385 68.1895 36.5628 68.6727 36.0609 69.4692L8.99521 112.396C-1.91834 131.545 13.9571 159 38.3801 159C62.8003 159 78.6785 131.545 67.7622 112.396L40.6993 69.4692Z" fill="#D1D4D1"/>
<path d="M33.3879 94.2678L38.38 86.3535L43.372 94.2678L48.3613 102.182L53.3533 110.096L58.3425 118.011C59.086 119.361 59.6264 120.813 59.9462 122.32C60.2714 123.86 60.3878 125.437 60.2915 127.008C60.1903 128.659 59.8866 130.291 59.3869 131.868C58.8565 133.552 58.1391 135.171 57.2485 136.696C56.2457 138.424 55.034 140.023 53.6409 141.455C52.3027 142.83 50.7938 144.028 49.1504 145.019C47.5383 145.989 45.8042 146.741 43.9937 147.253C40.3228 148.283 36.4387 148.283 32.7678 147.253C30.9564 146.74 29.2213 145.989 27.6083 145.019C25.9646 144.029 24.4554 142.831 23.1178 141.455C21.7229 140.021 20.5108 138.42 19.5102 136.688C18.6193 135.164 17.9019 133.546 17.3718 131.863C16.8749 130.284 16.5709 128.651 16.4672 126.999C16.3712 125.429 16.4874 123.854 16.8125 122.315C17.1324 120.807 17.6727 119.355 18.4162 118.005L23.4054 110.091L28.3974 102.177L33.3879 94.2678Z" fill="#FF5364"/>
<path d="M38.3801 142.552C33.7526 142.555 29.304 140.763 25.97 137.554C24.8489 136.48 23.8679 135.269 23.0505 133.949C22.3285 132.792 21.7425 131.554 21.3043 130.262C20.886 129.021 20.6317 127.731 20.5479 126.424C20.4671 125.149 20.5687 123.868 20.8494 122.622C21.1339 121.368 21.6112 120.166 22.2639 119.058L36.105 98.5112C36.6531 97.6991 37.5925 97.2414 38.5695 97.31C39.5465 97.3786 40.4129 97.9634 40.8421 98.8438C41.2713 99.7242 41.198 100.767 40.6502 101.579L26.8995 121.991C26.5796 122.574 26.3436 123.198 26.1976 123.847C26.0324 124.581 25.9734 125.335 26.0222 126.087C26.079 126.918 26.243 127.737 26.51 128.526C26.8119 129.413 27.2147 130.262 27.7106 131.057C28.2882 131.984 28.978 132.837 29.764 133.595C30.5291 134.327 31.3828 134.959 32.3052 135.479C34.1582 136.526 36.2516 137.074 38.3801 137.069C39.894 137.069 41.1216 138.296 41.1216 139.81C41.1213 141.324 39.894 142.552 38.3801 142.552Z" fill="#FB7B76"/>
<path d="M122.941 69.4692C122.439 68.6727 121.563 68.1895 120.622 68.1895C119.68 68.1895 118.805 68.6727 118.303 69.4692L91.2369 112.396C80.3234 131.545 96.1986 159 120.622 159C145.042 159 160.92 131.545 150.004 112.396L122.941 69.4692Z" fill="#D1D4D1"/>
<path d="M115.629 94.2678L120.621 86.3535L125.613 94.2678L130.603 102.182L135.595 110.096L140.584 118.011C141.327 119.361 141.868 120.813 142.188 122.32C142.513 123.86 142.629 125.437 142.533 127.008C142.432 128.659 142.128 130.291 141.628 131.868C141.098 133.552 140.381 135.171 139.49 136.696C138.487 138.424 137.276 140.023 135.883 141.455C134.544 142.83 133.035 144.028 131.392 145.019C129.78 145.989 128.046 146.741 126.235 147.253C122.564 148.283 118.68 148.283 115.009 147.253C113.198 146.74 111.463 145.989 109.85 145.019C108.206 144.029 106.697 142.831 105.36 141.455C103.965 140.021 102.752 138.42 101.752 136.688C100.861 135.164 100.144 133.546 99.6135 131.863C99.1166 130.284 98.8126 128.651 98.7089 126.999C98.6129 125.429 98.7291 123.854 99.0542 122.315C99.3741 120.807 99.9144 119.355 100.658 118.005L105.647 110.091L110.639 102.177L115.629 94.2678Z" fill="#FF5364"/>
<path d="M38.3801 38.3792C48.9782 38.3792 57.5697 29.7878 57.5697 19.1896C57.5697 8.59149 48.9782 0 38.3801 0C27.7819 0 19.1904 8.59149 19.1904 19.1896C19.1904 29.7878 27.7819 38.3792 38.3801 38.3792Z" fill="#FF5364"/>
<path d="M120.621 38.3792C131.219 38.3792 139.811 29.7878 139.811 19.1896C139.811 8.59149 131.219 0 120.621 0C110.023 0 101.432 8.59149 101.432 19.1896C101.432 29.7878 110.023 38.3792 120.621 38.3792Z" fill="#FF5364"/>
<path d="M38.3803 24.6725C35.3521 24.6725 32.8976 22.2179 32.8976 19.1897C32.8976 17.6758 31.6703 16.4482 30.1561 16.4482C28.6418 16.4482 27.4146 17.6755 27.4146 19.1897C27.4146 25.2457 32.324 30.1552 38.38 30.1552C39.8939 30.1552 41.1215 28.9279 41.1215 27.4137C41.1215 25.9 39.8942 24.6725 38.3803 24.6725Z" fill="#FB7B76"/>
<path d="M38.3802 8.22437C36.8663 8.22437 35.6387 9.45165 35.6387 10.9659C35.6387 12.4801 36.866 13.7074 38.3802 13.7074C41.4083 13.7074 43.8629 16.1619 43.8629 19.1901C43.8629 20.704 45.0902 21.9316 46.6044 21.9316C48.1186 21.9316 49.3459 20.7043 49.3459 19.1901C49.3456 13.1338 44.4362 8.22437 38.3802 8.22437Z" fill="#FB7B76"/>
<path d="M120.621 24.6725C117.593 24.6725 115.139 22.2179 115.139 19.1897C115.139 17.6758 113.911 16.4482 112.397 16.4482C110.883 16.4482 109.656 17.6755 109.656 19.1897C109.656 25.2457 114.565 30.1552 120.621 30.1552C122.135 30.1552 123.363 28.9279 123.363 27.4137C123.363 25.9 122.136 24.6725 120.621 24.6725Z" fill="#FB7B76"/>
<path d="M120.621 8.22437C119.107 8.22437 117.88 9.45165 117.88 10.9659C117.88 12.4801 119.107 13.7074 120.621 13.7074C123.65 13.7074 126.104 16.1619 126.104 19.1901C126.104 20.704 127.331 21.9316 128.846 21.9316C130.36 21.9316 131.587 20.7043 131.587 19.1901C131.587 13.1338 126.678 8.22437 120.621 8.22437Z" fill="#FB7B76"/>
<path d="M122.033 142.552C118.961 142.558 115.939 141.769 113.261 140.263C111.937 139.515 110.713 138.605 109.615 137.554C108.495 136.48 107.515 135.268 106.698 133.949C105.974 132.793 105.387 131.555 104.952 130.262C104.533 129.021 104.279 127.731 104.195 126.424C104.113 125.149 104.214 123.868 104.497 122.622C104.78 121.367 105.257 120.165 105.911 119.058L119.752 98.5112C120.3 97.6991 121.24 97.2414 122.217 97.31C123.194 97.3786 124.06 97.9634 124.489 98.8438C124.919 99.7242 124.845 100.767 124.297 101.579L110.55 121.991C110.23 122.574 109.993 123.199 109.845 123.847C109.681 124.581 109.623 125.336 109.672 126.086C109.728 126.918 109.892 127.738 110.16 128.526C110.462 129.413 110.865 130.262 111.361 131.057C111.938 131.984 112.628 132.837 113.414 133.595C114.179 134.327 115.033 134.96 115.955 135.479C116.87 135.994 117.846 136.39 118.861 136.66C119.897 136.931 120.963 137.068 122.033 137.069C123.547 137.069 124.774 138.296 124.774 139.81C124.774 141.324 123.547 142.552 122.033 142.552Z" fill="#FB7B76"/>
</svg>
