<svg width="256" height="256" viewBox="0 0 256 256" fill="none" xmlns="http://www.w3.org/2000/svg">
<path d="M89.8394 97.0292L86.2887 103.613L82.4417 107.312L67.9429 107.312L64.0959 103.613L60.5452 97.0292C57.8819 90.2977 58.3995 82.8261 61.9509 76.5379C63.3565 74.0971 64.0961 71.286 64.0961 68.4749L64.0346 60.0964C64.0346 53.9567 68.9908 49.0002 75.1309 49C81.2709 49 86.2273 53.9567 86.2273 60.0964L86.2888 68.4749C86.2888 71.286 87.0285 74.0971 88.434 76.5379C92.059 82.8261 92.5763 90.2977 89.8394 97.0292Z" fill="#B7E0F6"/>
<path d="M89.8403 97.0292L86.2896 103.613L82.4426 107.312H75.193L75.1318 49C81.2718 49 86.2282 53.9567 86.2282 60.0964L86.2898 68.4749C86.2898 71.286 87.0294 74.0971 88.4349 76.5379C92.0599 82.8261 92.5772 90.2977 89.8403 97.0292Z" fill="#A4D9F5"/>
<path d="M97.3853 127.433V135.348L87.8425 147.998C81.4804 147.998 76.6722 143.856 76.0802 143.338C76.0802 143.338 75.7845 143.042 75.1925 142.672C74.0092 141.858 71.7894 140.601 69.3486 140.601C65.7233 140.601 62.5426 143.338 62.5426 143.338L53 141.932V127.433C53 121.811 54.8493 116.337 58.1784 111.898L64.0964 103.613L86.2891 103.613L92.2071 111.898C95.5358 116.337 97.3853 121.811 97.3853 127.433Z" fill="#CAE8F9"/>
<path d="M97.3856 127.433V135.348L87.8428 147.998C81.4807 147.998 76.6725 143.856 76.0805 143.338C76.0805 143.338 75.7848 143.042 75.1929 142.672L75.1929 103.613L86.2892 103.613L92.2072 111.898C95.5361 116.337 97.3856 121.811 97.3856 127.433Z" fill="#B7E0F6"/>
<path d="M97.3853 135.348L97.3855 196.082C97.3855 202.222 92.4292 207.178 86.2891 207.179H64.0964C57.9564 207.179 53 202.222 53 196.082L53 141.932L57.5864 137.864C58.1784 137.346 62.9866 133.203 69.3487 133.203C71.4936 133.203 73.4911 133.721 75.1925 134.387C78.4475 135.644 80.6666 137.494 81.0364 137.864C81.0364 137.864 84.2173 140.601 87.8425 140.601C91.3932 140.601 94.574 137.864 94.6481 137.864L97.3853 135.348Z" fill="#19DEC1"/>
<path d="M97.3854 135.348L97.3856 196.082C97.3856 202.222 92.4294 207.178 86.2892 207.178H75.1929L75.193 134.386C78.448 135.644 80.6671 137.493 81.0369 137.864C81.0369 137.864 84.2178 140.601 87.843 140.601C91.3937 140.601 94.5745 137.864 94.6486 137.864L97.3854 135.348Z" fill="#17CEB4"/>
<path d="M74.1111 161.711C75.5555 160.267 75.5555 157.925 74.1111 156.481C72.6666 155.036 70.3247 155.036 68.8802 156.481C67.4358 157.925 67.4358 160.267 68.8802 161.711C70.3247 163.156 72.6666 163.156 74.1111 161.711Z" fill="#CAE8F9"/>
<path d="M81.5071 183.904C82.9515 182.459 82.9515 180.118 81.5071 178.673C80.0626 177.229 77.7207 177.229 76.2762 178.673C74.8318 180.118 74.8318 182.459 76.2762 183.904C77.7207 185.348 80.0626 185.348 81.5071 183.904Z" fill="#B7E0F6"/>
<path d="M142.759 97.0292L139.209 103.613L135.362 107.312L120.863 107.312L117.016 103.613L113.465 97.0292C110.802 90.2977 111.319 82.8261 114.871 76.5379C116.276 74.0971 117.016 71.286 117.016 68.4749L116.954 60.0964C116.954 53.9567 121.911 49.0002 128.051 49C134.191 49 139.147 53.9567 139.147 60.0964L139.209 68.4749C139.209 71.286 139.948 74.0971 141.354 76.5379C144.979 82.8261 145.496 90.2977 142.759 97.0292Z" fill="#B7E0F6"/>
<path d="M142.76 97.0292L139.209 103.613L135.363 107.312H128.113L128.052 49C134.192 49 139.148 53.9567 139.148 60.0964L139.21 68.4749C139.21 71.286 139.949 74.0971 141.355 76.5379C144.98 82.8261 145.497 90.2977 142.76 97.0292Z" fill="#A4D9F5"/>
<path d="M150.305 127.433V135.348L140.762 147.998C134.4 147.998 129.592 143.856 129 143.338C129 143.338 128.704 143.042 128.112 142.672C126.929 141.858 124.709 140.601 122.269 140.601C118.643 140.601 115.463 143.338 115.463 143.338L105.92 141.932V127.433C105.92 121.811 107.769 116.337 111.098 111.898L117.016 103.613L139.209 103.613L145.127 111.898C148.456 116.337 150.305 121.811 150.305 127.433Z" fill="#CAE8F9"/>
<path d="M150.306 127.433V135.348L140.763 147.998C134.401 147.998 129.592 143.856 129 143.338C129 143.338 128.705 143.042 128.113 142.672L128.113 103.613L139.209 103.613L145.127 111.898C148.456 116.337 150.306 121.811 150.306 127.433Z" fill="#B7E0F6"/>
<path d="M150.305 135.348L150.305 196.082C150.305 202.222 145.349 207.178 139.209 207.179H117.016C110.876 207.179 105.92 202.222 105.92 196.082L105.92 141.932L110.506 137.864C111.098 137.346 115.906 133.203 122.269 133.203C124.414 133.203 126.411 133.721 128.112 134.387C131.367 135.644 133.587 137.494 133.956 137.864C133.956 137.864 137.137 140.601 140.762 140.601C144.313 140.601 147.494 137.864 147.568 137.864L150.305 135.348Z" fill="#19DEC1"/>
<path d="M150.305 135.348L150.306 196.082C150.306 202.222 145.349 207.178 139.209 207.178H128.113L128.113 134.386C131.368 135.644 133.587 137.493 133.957 137.864C133.957 137.864 137.138 140.601 140.763 140.601C144.314 140.601 147.494 137.864 147.569 137.864L150.305 135.348Z" fill="#17CEB4"/>
<path d="M127.031 161.711C128.475 160.267 128.475 157.925 127.031 156.481C125.587 155.036 123.245 155.036 121.8 156.481C120.356 157.925 120.356 160.267 121.8 161.711C123.245 163.156 125.587 163.156 127.031 161.711Z" fill="#CAE8F9"/>
<path d="M134.427 183.904C135.871 182.459 135.871 180.118 134.427 178.673C132.983 177.229 130.641 177.229 129.196 178.673C127.752 180.118 127.752 182.459 129.196 183.904C130.641 185.348 132.983 185.348 134.427 183.904Z" fill="#B7E0F6"/>
<path d="M195.759 97.0292L192.209 103.613L188.362 107.312L173.863 107.312L170.016 103.613L166.465 97.0292C163.802 90.2977 164.319 82.8261 167.871 76.5379C169.276 74.0971 170.016 71.286 170.016 68.4749L169.954 60.0964C169.954 53.9567 174.911 49.0002 181.051 49C187.191 49 192.147 53.9567 192.147 60.0964L192.209 68.4749C192.209 71.286 192.948 74.0971 194.354 76.5379C197.979 82.8261 198.496 90.2977 195.759 97.0292Z" fill="#B7E0F6"/>
<path d="M195.76 97.0292L192.209 103.613L188.363 107.312H181.113L181.052 49C187.192 49 192.148 53.9567 192.148 60.0964L192.21 68.4749C192.21 71.286 192.949 74.0971 194.355 76.5379C197.98 82.8261 198.497 90.2977 195.76 97.0292Z" fill="#A4D9F5"/>
<path d="M203.305 127.433V135.348L193.762 147.998C187.4 147.998 182.592 143.856 182 143.338C182 143.338 181.704 143.042 181.112 142.672C179.929 141.858 177.709 140.601 175.269 140.601C171.643 140.601 168.463 143.338 168.463 143.338L158.92 141.932V127.433C158.92 121.811 160.769 116.337 164.098 111.898L170.016 103.613L192.209 103.613L198.127 111.898C201.456 116.337 203.305 121.811 203.305 127.433Z" fill="#CAE8F9"/>
<path d="M203.306 127.433V135.348L193.763 147.998C187.401 147.998 182.592 143.856 182 143.338C182 143.338 181.705 143.042 181.113 142.672L181.113 103.613L192.209 103.613L198.127 111.898C201.456 116.337 203.306 121.811 203.306 127.433Z" fill="#B7E0F6"/>
<path d="M203.305 135.348L203.305 196.082C203.305 202.222 198.349 207.178 192.209 207.179H170.016C163.876 207.179 158.92 202.222 158.92 196.082L158.92 141.932L163.506 137.864C164.098 137.346 168.906 133.203 175.269 133.203C177.414 133.203 179.411 133.721 181.112 134.387C184.367 135.644 186.587 137.494 186.956 137.864C186.956 137.864 190.137 140.601 193.762 140.601C197.313 140.601 200.494 137.864 200.568 137.864L203.305 135.348Z" fill="#19DEC1"/>
<path d="M203.305 135.348L203.306 196.082C203.306 202.222 198.349 207.178 192.209 207.178H181.113L181.113 134.386C184.368 135.644 186.587 137.493 186.957 137.864C186.957 137.864 190.138 140.601 193.763 140.601C197.314 140.601 200.494 137.864 200.569 137.864L203.305 135.348Z" fill="#17CEB4"/>
<path d="M180.031 161.711C181.475 160.267 181.475 157.925 180.031 156.481C178.587 155.036 176.245 155.036 174.8 156.481C173.356 157.925 173.356 160.267 174.8 161.711C176.245 163.156 178.587 163.156 180.031 161.711Z" fill="#CAE8F9"/>
<path d="M187.427 183.904C188.871 182.459 188.871 180.118 187.427 178.673C185.983 177.229 183.641 177.229 182.196 178.673C180.752 180.118 180.752 182.459 182.196 183.904C183.641 185.348 185.983 185.348 187.427 183.904Z" fill="#B7E0F6"/>
</svg>
