<svg width="151" height="187" viewBox="0 0 151 187" fill="none" xmlns="http://www.w3.org/2000/svg">
<path d="M136.351 13.1909H12.415V172.56C12.415 180.535 18.8804 187 26.8553 187H136.351C144.327 187 150.792 180.535 150.792 172.56V27.6312C150.792 19.6563 144.327 13.1909 136.351 13.1909Z" fill="#EFEDEE"/>
<path d="M27.4653 172.56V13.1909H12.415V172.56C12.415 180.535 18.8804 187 26.8553 187H41.9055C33.9306 187 27.4653 180.535 27.4653 172.56Z" fill="#D2D2D2"/>
<path d="M123.937 0H0V159.369C0 167.344 6.46538 173.809 14.4403 173.809H123.936C131.912 173.809 138.377 167.344 138.377 159.369V14.4403C138.377 6.46538 131.912 0 123.937 0Z" fill="#828282"/>
<path d="M15.0502 159.369V0H0V159.369C0 167.344 6.46538 173.809 14.4403 173.809H29.4905C21.5156 173.809 15.0502 167.344 15.0502 159.369Z" fill="#333333"/>
<path d="M38.022 20.025H100.355C101.914 20.025 103.177 18.762 103.177 17.2031C103.177 15.6447 101.914 14.3813 100.355 14.3813H38.022C36.4632 14.3813 35.2002 15.6447 35.2002 17.2031C35.2002 18.7616 36.4632 20.025 38.022 20.025Z" fill="#EFEDEE"/>
<path d="M100.355 138.269H38.022C36.4632 138.269 35.2002 139.532 35.2002 141.09C35.2002 142.649 36.4632 143.912 38.022 143.912H100.355C101.914 143.912 103.177 142.649 103.177 141.09C103.177 139.532 101.914 138.269 100.355 138.269Z" fill="#EFEDEE"/>
<path d="M100.355 151.718H38.022C36.4632 151.718 35.2002 152.982 35.2002 154.54C35.2002 156.099 36.4632 157.362 38.022 157.362H100.355C101.914 157.362 103.177 156.099 103.177 154.54C103.177 152.981 101.914 151.718 100.355 151.718Z" fill="#EFEDEE"/>
<path d="M56.9155 84.3724H42.9212V74.4394H56.9155C58.5303 74.4394 59.8514 73.1182 59.8514 71.5035C59.8514 69.8888 58.5303 68.5676 56.9155 68.5676H39.9853C38.3706 68.5676 37.0984 69.8888 37.0984 71.5035V102.819C37.0984 104.434 38.3706 105.706 39.9853 105.706C41.6001 105.706 42.9212 104.434 42.9212 102.819V90.1952H56.9155C58.5303 90.1952 59.8514 88.923 59.8514 87.3083C59.8514 85.6446 58.5303 84.3724 56.9155 84.3724ZM67.2102 105.951C65.5955 105.951 64.2743 104.63 64.2743 102.966V71.7971C64.2743 70.1334 65.5955 68.8123 67.2102 68.8123C68.8739 68.8123 70.195 70.1334 70.195 71.7971V102.966C70.195 104.63 68.8739 105.951 67.2102 105.951ZM95.3204 85.8403C96.6905 84.0299 97.5223 81.779 97.5223 79.3814C97.5223 73.5097 92.8249 68.9591 86.8064 68.9591H78.9774V69.1548C77.4116 69.1548 76.0904 70.427 76.0904 72.0417V102.917C76.0904 104.434 77.3137 105.706 78.8306 105.804V106.098H89.938C95.7608 106.098 100.654 100.96 100.654 94.8926C100.654 91.1249 98.5009 87.7487 95.3204 85.8403ZM91.7484 79.3814C91.7484 81.8769 89.8401 83.932 87.4425 84.2745H81.8643V74.733H86.8064C89.6444 74.733 91.7484 76.7391 91.7484 79.3814ZM89.938 100.324H81.8643V90.0484H86.8064H87.7361H89.5465C92.3845 90.0484 94.88 92.2993 94.88 94.8926C94.88 97.7306 92.5313 100.324 89.938 100.324Z" fill="#EFEDEE"/>
</svg>
