<svg width="194" height="104" viewBox="0 0 194 104" fill="none" xmlns="http://www.w3.org/2000/svg">
<path d="M194 40.2494V17.1429C194 16.1119 193.254 15.2109 192.232 15.0722C185.871 14.209 180.967 8.75545 180.967 2.15831C180.967 2.15111 180.967 2.14353 180.967 2.13633C180.969 0.964373 180.049 0.00195312 178.877 0.00195312H15.1233C13.9513 0.00195312 13.031 0.964373 13.0329 2.13633C13.0329 2.14353 13.0329 2.15111 13.0329 2.15831C13.0329 8.75545 8.12906 14.209 1.76836 15.0722C0.746445 15.2109 0 16.1115 0 17.1429V40.2494C0 41.2626 0.727121 42.1287 1.72478 42.3053C6.33228 43.1203 9.83262 47.1451 9.83262 51.9867C9.83262 56.8284 6.33266 60.8532 1.72478 61.6686C0.727121 61.8451 0 62.7109 0 63.7241V86.8306C0 87.8616 0.746445 88.7626 1.76836 88.9013C8.12906 89.7645 13.0329 95.2181 13.0329 101.815C13.0329 101.822 13.0329 101.83 13.0329 101.837C13.031 103.009 13.9513 103.972 15.1233 103.972H178.877C180.049 103.972 180.969 103.009 180.967 101.837C180.967 101.83 180.967 101.822 180.967 101.815C180.967 95.2181 185.871 89.7645 192.232 88.9013C193.254 88.7626 194 87.862 194 86.8306V63.7241C194 62.7109 193.273 61.8447 192.275 61.6682C187.667 60.8531 184.167 56.8284 184.167 51.9867C184.167 47.1451 187.667 43.1203 192.275 42.3049C193.273 42.1284 194 41.2626 194 40.2494Z" fill="#828282"/>
<path d="M184.165 51.9867C184.165 56.8276 187.667 60.8527 192.274 61.6689C193.274 61.8447 194 62.7112 194 63.7225V86.8305C194 87.8612 193.254 88.7629 192.231 88.8997C185.871 89.7663 180.968 95.2165 180.968 101.814V101.838C180.968 103.009 180.046 103.973 178.875 103.973H169.08C169.346 97.2663 173.15 87.1988 179.678 86.3129C180.755 86.1686 181.54 85.216 181.54 84.1304V21.0145C181.54 19.9293 180.755 18.9768 179.678 18.832C173.15 17.9458 169.346 6.7074 169.08 0H178.875C180.046 0 180.968 0.964317 180.968 2.13552V2.15901C180.968 8.7569 185.871 14.2071 192.231 15.0736C193.254 15.2104 194 16.1122 194 17.1429V40.2508C194 41.2621 193.274 42.1287 192.274 42.3045C187.667 43.1207 184.165 47.1458 184.165 51.9867Z" fill="#333333"/>
<path d="M163.575 90.0022H30.4248C29.3468 90.0022 28.4727 89.1281 28.4727 88.0501V15.9238C28.4727 14.8458 29.3468 13.9717 30.4248 13.9717H163.575C164.653 13.9717 165.527 14.8458 165.527 15.9238V88.0501C165.526 89.1281 164.653 90.0022 163.575 90.0022Z" fill="#E2EEFD"/>
<path d="M163.575 90.0022H154.39V13.9717H163.575C164.653 13.9717 165.527 14.8458 165.527 15.9238V88.0501C165.527 89.1281 164.653 90.0022 163.575 90.0022Z" fill="#C7DCF2"/>
<path d="M87.4857 50.812H76.3726V42.924H87.4857C88.768 42.924 89.8171 41.8748 89.8171 40.5925C89.8171 39.3102 88.768 38.2611 87.4857 38.2611H74.0411C72.7589 38.2611 71.7486 39.3102 71.7486 40.5925V65.4611C71.7486 66.7434 72.7589 67.7537 74.0411 67.7537C75.3234 67.7537 76.3726 66.7434 76.3726 65.4611V55.436H87.4857C88.768 55.436 89.8171 54.4257 89.8171 53.1434C89.8171 51.8222 88.768 50.812 87.4857 50.812ZM95.6609 67.948C94.3786 67.948 93.3295 66.8988 93.3295 65.5777V40.8257C93.3295 39.5045 94.3786 38.4554 95.6609 38.4554C96.982 38.4554 98.0312 39.5045 98.0312 40.8257V65.5777C98.0312 66.8988 96.982 67.948 95.6609 67.948ZM117.984 51.9777C119.072 50.54 119.732 48.7525 119.732 46.8485C119.732 42.1857 116.002 38.572 111.223 38.572H105.005V38.7274C103.762 38.7274 102.713 39.7377 102.713 41.02V65.5388C102.713 66.7434 103.684 67.7537 104.889 67.8314V68.0645H113.709C118.333 68.0645 122.219 63.9845 122.219 59.1662C122.219 56.1742 120.509 53.4931 117.984 51.9777ZM115.147 46.8485C115.147 48.8302 113.632 50.4622 111.728 50.7342H107.298V43.1571H111.223C113.476 43.1571 115.147 44.7502 115.147 46.8485ZM113.709 63.4794H107.298V55.3194H111.223H111.961H113.399C115.652 55.3194 117.634 57.1068 117.634 59.1662C117.634 61.42 115.769 63.4794 113.709 63.4794Z" fill="#92B3D6"/>
</svg>
