<svg width="170" height="170" viewBox="0 0 170 170" fill="none" xmlns="http://www.w3.org/2000/svg">
<path d="M51 47.8985C49.5828 47.8985 48.4346 46.7503 48.4346 45.3332V11.3335C48.4346 6.79411 52.1277 3.10132 56.6667 3.10132H62.3332C63.7503 3.10132 64.8986 4.24959 64.8986 5.66671C64.8986 7.08383 63.7503 8.2321 62.3332 8.2321H56.6667C54.9565 8.2321 53.5654 9.62323 53.5654 11.3335V45.3332C53.5654 46.7503 52.4167 47.8985 51 47.8985Z" fill="#394D5C"/>
<path d="M119 47.8985C117.583 47.8985 116.435 46.7503 116.435 45.3332V11.3335C116.435 9.62323 115.044 8.2321 113.333 8.2321H107.667C106.25 8.2321 105.102 7.08383 105.102 5.66671C105.102 4.24959 106.25 3.10132 107.667 3.10132H113.333C117.872 3.10132 121.566 6.79446 121.566 11.3335V45.3332C121.566 46.7503 120.417 47.8985 119 47.8985Z" fill="#394D5C"/>
<path d="M164.527 56.6667H5.47284C2.45012 56.6667 0 59.1172 0 62.1396V158.861C0 161.883 2.45012 164.334 5.47284 164.334H164.527C167.55 164.334 170 161.883 170 158.861V62.1396C170 59.1169 167.55 56.6667 164.527 56.6667Z" fill="#D0E2ED"/>
<path d="M164.527 56.6667H156.66C159.683 56.6667 162.133 59.1172 162.133 62.1396V158.861C162.133 161.883 159.683 164.334 156.66 164.334H164.527C167.55 164.334 170 161.883 170 158.861V62.1396C170 59.1169 167.55 56.6667 164.527 56.6667Z" fill="#AABFCF"/>
<path d="M38.1387 45.3333H131.861V164.333H38.1387V45.3333Z" fill="#D0E2ED"/>
<path d="M99.7998 74.3337H107.667V108.539H99.7998V74.3337Z" fill="#D0E2ED"/>
<path d="M104.931 11.3332H65.0699C63.5587 11.3332 62.3335 10.108 62.3335 8.5968V2.73642C62.3335 1.22523 63.5587 0 65.0699 0H104.93C106.441 0 107.667 1.22523 107.667 2.73642V8.5968C107.667 10.1083 106.442 11.3332 104.931 11.3332Z" fill="#FF4B68"/>
<path d="M105.615 96.3333H95.5526C94.419 96.3333 93.5003 95.4145 93.5003 94.281V84.2188C93.5003 83.0853 92.5815 82.1665 91.448 82.1665H78.5526C77.419 82.1665 76.5003 83.0853 76.5003 84.2188V94.281C76.5003 95.4145 75.5815 96.3333 74.448 96.3333H64.3858C63.2522 96.3333 62.3335 97.252 62.3335 98.3856V111.281C62.3335 112.415 63.2522 113.333 64.3858 113.333H74.448C75.5815 113.333 76.5003 114.252 76.5003 115.386V125.448C76.5003 126.581 77.419 127.5 78.5526 127.5H91.448C92.5815 127.5 93.5003 126.581 93.5003 125.448V115.386C93.5003 114.252 94.419 113.333 95.5526 113.333H105.615C106.748 113.333 107.667 112.415 107.667 111.281V98.3856C107.667 97.2524 106.748 96.3333 105.615 96.3333Z" fill="#FF4B68"/>
<path d="M85.6329 84.2192V94.2813C85.6329 95.4149 86.5516 96.3336 87.6852 96.3336H95.5524C94.4188 96.3336 93.5001 95.4149 93.5001 94.2813V84.2192C93.5001 83.0856 92.5813 82.1669 91.4478 82.1669H83.5806C84.7141 82.1669 85.6329 83.0856 85.6329 84.2192Z" fill="#F73152"/>
<path d="M105.615 96.3333H97.7476C98.8811 96.3333 99.7999 97.252 99.7999 98.3856V111.281C99.7999 112.414 98.8811 113.333 97.7476 113.333H105.615C106.748 113.333 107.667 112.414 107.667 111.281V98.3856C107.667 97.2523 106.748 96.3333 105.615 96.3333Z" fill="#F73152"/>
<path d="M85.6329 115.386V125.448C85.6329 126.581 84.7141 127.5 83.5806 127.5H91.4478C92.5813 127.5 93.5001 126.581 93.5001 125.448V115.386C93.5001 114.252 94.4188 113.333 95.5524 113.333H87.6852C86.5516 113.333 85.6329 114.252 85.6329 115.386Z" fill="#F73152"/>
<path d="M122.466 45.3333H131.861V164.333H122.466V45.3333Z" fill="#AABFCF"/>
<path d="M38.1387 45.3333H47.5338V164.333H38.1387V45.3333Z" fill="#AABFCF"/>
<path d="M9.13281 56.6669H17V164.333H9.13281V56.6669Z" fill="#AABFCF"/>
<path d="M104.93 0H97.063C98.5742 0 99.7994 1.22523 99.7994 2.73642V8.5968C99.7994 10.108 98.5742 11.3332 97.063 11.3332H104.93C106.441 11.3332 107.667 10.108 107.667 8.5968V2.73642C107.667 1.22523 106.441 0 104.93 0V0Z" fill="#F73152"/>
<path d="M130.333 144.232H39.667C38.2498 144.232 37.1016 143.084 37.1016 141.667C37.1016 140.25 38.2498 139.101 39.667 139.101H130.333C131.751 139.101 132.899 140.25 132.899 141.667C132.899 143.084 131.751 144.232 130.333 144.232Z" fill="#394D5C"/>
<path d="M130.333 70.5653H39.667C38.2498 70.5653 37.1016 69.4171 37.1016 68C37.1016 66.5828 38.2498 65.4346 39.667 65.4346H130.333C131.751 65.4346 132.899 66.5828 132.899 68C132.899 69.4167 131.751 70.5653 130.333 70.5653Z" fill="#394D5C"/>
<path d="M36.9304 170H19.7364C18.2252 170 17 168.775 17 167.264V42.4032C17 40.892 18.2252 39.6667 19.7364 39.6667H36.9304C38.4415 39.6667 39.6668 40.892 39.6668 42.4032V167.264C39.6668 168.775 38.4415 170 36.9304 170Z" fill="#FF4B68"/>
<path d="M133.069 170H150.263C151.775 170 153 168.775 153 167.264V42.4032C153 40.892 151.775 39.6667 150.263 39.6667H133.069C131.558 39.6667 130.333 40.892 130.333 42.4032V167.264C130.333 168.775 131.558 170 133.069 170Z" fill="#FF4B68"/>
<path d="M150.264 39.6667H142.396C143.908 39.6667 145.133 40.892 145.133 42.4032V167.264C145.133 168.775 143.908 170 142.396 170H150.264C151.775 170 153 168.775 153 167.264V42.4032C153 40.8916 151.775 39.6667 150.264 39.6667Z" fill="#F73152"/>
<path d="M36.9302 39.6667H29.063C30.5742 39.6667 31.7994 40.892 31.7994 42.4032V167.264C31.7994 168.775 30.5742 170 29.063 170H36.9302C38.4414 170 39.6666 168.775 39.6666 167.264V42.4032C39.6666 40.8916 38.4414 39.6667 36.9302 39.6667Z" fill="#F73152"/>
<path d="M143.083 76.7682H140.25C138.833 76.7682 137.685 77.9165 137.685 79.3336C137.685 80.7507 138.833 81.899 140.25 81.899H143.083C144.5 81.899 145.649 80.7507 145.649 79.3336C145.649 77.9165 144.5 76.7682 143.083 76.7682Z" fill="#394D5C"/>
<path d="M29.7497 150.435H26.9165C25.4993 150.435 24.3511 151.583 24.3511 153C24.3511 154.417 25.4993 155.565 26.9165 155.565H29.7497C31.1668 155.565 32.3151 154.417 32.3151 153C32.3151 151.583 31.1665 150.435 29.7497 150.435Z" fill="#394D5C"/>
<path d="M29.7497 139.101H26.9165C25.4993 139.101 24.3511 140.25 24.3511 141.667C24.3511 143.084 25.4993 144.232 26.9165 144.232H29.7497C31.1668 144.232 32.3151 143.084 32.3151 141.667C32.3151 140.25 31.1665 139.101 29.7497 139.101Z" fill="#394D5C"/>
<path d="M29.7497 127.768H26.9165C25.4993 127.768 24.3511 128.916 24.3511 130.333C24.3511 131.75 25.4993 132.899 26.9165 132.899H29.7497C31.1668 132.899 32.3151 131.75 32.3151 130.333C32.3151 128.916 31.1665 127.768 29.7497 127.768Z" fill="#394D5C"/>
<path d="M29.7497 76.7682H26.9165C25.4993 76.7682 24.3511 77.9165 24.3511 79.3336C24.3511 80.7507 25.4993 81.899 26.9165 81.899H29.7497C31.1668 81.899 32.3151 80.7507 32.3151 79.3336C32.3151 77.9165 31.1665 76.7682 29.7497 76.7682Z" fill="#394D5C"/>
<path d="M29.7497 65.4346H26.9165C25.4993 65.4346 24.3511 66.5828 24.3511 68C24.3511 69.4171 25.4993 70.5654 26.9165 70.5654H29.7497C31.1668 70.5654 32.3151 69.4171 32.3151 68C32.3151 66.5828 31.1665 65.4346 29.7497 65.4346Z" fill="#394D5C"/>
<path d="M29.7497 54.1014H26.9165C25.4993 54.1014 24.3511 55.2497 24.3511 56.6668C24.3511 58.084 25.4993 59.2322 26.9165 59.2322H29.7497C31.1668 59.2322 32.3151 58.084 32.3151 56.6668C32.3151 55.2497 31.1665 54.1014 29.7497 54.1014Z" fill="#394D5C"/>
<path d="M143.083 65.4346H140.25C138.833 65.4346 137.685 66.5828 137.685 68C137.685 69.4171 138.833 70.5654 140.25 70.5654H143.083C144.5 70.5654 145.649 69.4171 145.649 68C145.649 66.5828 144.5 65.4346 143.083 65.4346Z" fill="#394D5C"/>
<path d="M140.249 59.2322H143.083C144.5 59.2322 145.648 58.084 145.648 56.6668C145.648 55.2497 144.5 54.1014 143.083 54.1014H140.249C138.832 54.1014 137.684 55.2497 137.684 56.6668C137.684 58.084 138.833 59.2322 140.249 59.2322Z" fill="#394D5C"/>
<path d="M143.083 150.435H140.25C138.833 150.435 137.685 151.583 137.685 153C137.685 154.417 138.833 155.565 140.25 155.565H143.083C144.5 155.565 145.649 154.417 145.649 153C145.649 151.583 144.5 150.435 143.083 150.435Z" fill="#394D5C"/>
<path d="M143.083 139.101H140.25C138.833 139.101 137.685 140.25 137.685 141.667C137.685 143.084 138.833 144.232 140.25 144.232H143.083C144.5 144.232 145.649 143.084 145.649 141.667C145.649 140.25 144.5 139.101 143.083 139.101Z" fill="#394D5C"/>
<path d="M143.083 127.768H140.25C138.833 127.768 137.685 128.916 137.685 130.333C137.685 131.75 138.833 132.899 140.25 132.899H143.083C144.5 132.899 145.649 131.75 145.649 130.333C145.649 128.916 144.5 127.768 143.083 127.768Z" fill="#394D5C"/>
</svg>
