<svg width="146" height="146" viewBox="0 0 146 146" fill="none" xmlns="http://www.w3.org/2000/svg">
<path d="M92.4454 24.6319C86.6413 11.7157 75.7164 2.21467 61.4498 0.345644C54.131 -0.612956 46.0651 0.424601 37.4756 3.43038C35.6733 4.06118 34.5075 5.81078 34.6192 7.71715C34.7315 9.62352 36.0943 11.2243 37.9582 11.6396C52.8486 14.9558 55.0728 24.3793 57.3728 28.5604C58.1287 29.9514 59.5796 30.7945 61.1282 30.7945C62.2365 30.7945 73.8699 28.3127 87.8536 30.6041C91.2051 31.152 93.8441 27.7451 92.4454 24.6319Z" fill="#6AA6FB"/>
<path d="M52.7863 139.598C47.5643 145.746 40.042 146 38.8448 146C38.0062 146 37.254 145.779 36.6072 145.39C35.6295 144.806 16.1183 132.905 6.07053 113.283C4.1807 109.591 2.62436 105.626 1.58965 101.413V101.411C1.5868 101.402 1.5868 101.396 1.58395 101.388C1.32171 100.296 1.50699 99.1901 2.03147 98.2751C3.65593 95.4002 7.89794 95.3751 9.50815 98.3663C15.1018 108.761 23.4958 114.777 34.9454 115.207C43.5993 115.532 50.6941 112.473 50.7653 112.445C53.2882 111.338 56.1749 112.872 56.6885 115.549C58.7123 126.07 57.4011 134.162 52.7863 139.598Z" fill="#4880FA"/>
<path d="M143.516 90.5846C128.488 97.5995 107.891 98.5687 82.2968 93.4693C63.7433 89.7722 49.5538 84.2111 48.6531 83.8519C38.0552 79.7843 28.3751 81.4803 19.8808 88.8943C13.1567 94.7605 9.65064 102.129 9.61644 102.203C8.85537 103.823 7.14967 104.826 5.32084 104.643C3.51936 104.463 2.02288 103.172 1.58962 101.411C-4.0206 78.5521 4.78837 51.5223 34.9083 31.6434C38.4229 29.3203 41.5555 27.6471 44.7651 26.3758C49.0636 24.6769 54.6362 23.226 60.4539 22.2968C83.3295 18.6183 107.399 22.8478 124.175 39.2369C136.866 51.634 143.184 68.6611 145.933 86.0439C146.229 87.928 145.243 89.7779 143.516 90.5846Z" fill="#F9F9F9"/>
<path d="M145.933 86.0438C144.354 76.0588 141.751 67.1426 138.14 59.3467H7.85489C-1.65216 76.1725 -2.83281 95.8918 6.07052 113.283C7.11805 107.515 9.59052 102.282 9.61646 102.203C11.8871 97.6653 15.6417 92.591 19.8809 88.8943C28.3751 81.4803 38.0552 79.7843 48.6531 83.8518C49.5539 84.211 63.7433 89.7722 82.2968 93.4692C107.891 98.5686 128.488 97.5995 143.516 90.5846C145.243 89.7779 146.229 87.928 145.933 86.0438Z" fill="#E7F1F9"/>
<path d="M143.515 90.5845C127.85 97.8996 108.226 97.5578 91.2127 95.0255C89.9214 94.8317 88.7869 94.0592 88.137 92.9276C84.8163 87.1555 78.1748 73.6672 78.9843 59.3466C79.8072 44.5962 88.2046 33.8712 101.181 26.8375L101.226 26.8147C102.369 26.1705 103.746 26.0907 104.957 26.5952C124.596 34.7645 140.684 52.8078 145.932 86.0438C146.229 87.9279 145.243 89.7779 143.515 90.5845Z" fill="#93C5EC"/>
<path d="M143.515 90.5846C127.85 97.8996 108.226 97.5579 91.2127 95.0255C89.9214 94.8317 88.7869 94.0593 88.137 92.9276C84.8163 87.1555 78.1748 73.6673 78.9843 59.3467H138.139C141.748 67.1483 144.359 76.0787 145.932 86.0438C146.229 87.928 145.243 89.7779 143.515 90.5846Z" fill="#6AA6FB"/>
<path d="M118.372 59.3467C118.372 61.6513 116.526 63.6223 114.059 63.6223C111.699 63.6223 109.784 61.7068 109.784 59.3467C109.784 56.9865 111.699 55.071 114.059 55.071C116.522 55.071 118.372 57.0373 118.372 59.3467Z" fill="#25429A"/>
<path d="M118.372 59.3467C118.372 61.6513 116.526 63.6223 114.059 63.6223C111.699 63.6223 109.784 61.7068 109.784 59.3467H118.372Z" fill="#152659"/>
</svg>
