<svg width="209" height="209" viewBox="0 0 209 209" fill="none" xmlns="http://www.w3.org/2000/svg">
<g clip-path="url(#clip0)">
<path d="M160.897 53.0794H136.016V179.143H185.778V53.0794H160.897Z" fill="#656D78"/>
<path d="M126.063 63.0318H9.95238V169.19H126.063V63.0318ZM136.016 53.0794V179.143H0V53.0794H136.016Z" fill="#FFD2A6"/>
<path d="M124.405 63.0317C125.317 63.0317 126.063 63.7785 126.063 64.6905V167.532C126.063 168.444 125.317 169.19 124.405 169.19H11.6109C10.6989 169.19 9.95215 168.444 9.95215 167.532V64.6905C9.95215 63.7785 10.6989 63.0317 11.6109 63.0317H124.405Z" fill="#ED5565"/>
<path d="M23.2222 29.8571H159.238L136.016 53.0794H0L23.2222 29.8571Z" fill="#F2C397"/>
<path d="M185.778 53.0794H175.825L199.047 29.8571H209L185.778 53.0794Z" fill="#CCD1D9"/>
<path d="M199.047 29.8571L175.825 53.0794H136.016L159.238 29.8571H199.047Z" fill="#CCD1D9"/>
<path d="M209 29.8571V155.921L185.777 179.143V53.0794L209 29.8571Z" fill="#E6E9ED"/>
<path d="M114.452 72.9841C115.364 72.9841 116.111 73.7309 116.111 74.6429V84.5952C116.111 85.5072 115.364 86.254 114.452 86.254H21.563C20.651 86.254 19.9043 85.5072 19.9043 84.5952V74.6429C19.9043 73.7309 20.651 72.9841 21.563 72.9841H114.452Z" fill="#656D78"/>
<path d="M39.15 117.066H31.428V111.585H39.15C40.041 111.585 40.77 110.856 40.77 109.965C40.77 109.074 40.041 108.345 39.15 108.345H29.808C28.917 108.345 28.215 109.074 28.215 109.965V127.245C28.215 128.136 28.917 128.838 29.808 128.838C30.699 128.838 31.428 128.136 31.428 127.245V120.279H39.15C40.041 120.279 40.77 119.577 40.77 118.686C40.77 117.768 40.041 117.066 39.15 117.066ZM43.9935 129.081C43.5885 129.081 43.1835 128.919 42.8865 128.622C42.5895 128.325 42.4005 127.92 42.4005 127.488V110.181C42.4005 109.29 43.1295 108.588 43.9935 108.588C44.8845 108.588 45.5865 109.29 45.5865 110.181V125.868L53.5245 125.787H53.5515C54.4155 125.787 55.1175 126.489 55.1445 127.353C55.1445 128.244 54.4425 128.973 53.5515 128.973L44.0205 129.081H43.9935ZM76.5013 126.759L67.9963 109.722C67.6993 109.182 67.1593 108.831 66.5383 108.831H66.5113C65.8903 108.858 65.3503 109.209 65.0803 109.776L57.1963 126.813C56.8183 127.623 57.1693 128.568 57.9793 128.946C58.1953 129.054 58.4113 129.108 58.6543 129.108C59.2483 129.108 59.8423 128.757 60.1123 128.163L62.0563 123.978C62.1103 124.005 62.1643 124.005 62.2453 124.005H71.4793H71.5063L73.6123 128.217C74.0173 129 74.9893 129.324 75.7723 128.919C76.5823 128.541 76.9063 127.569 76.5013 126.759ZM63.5413 120.765L66.5923 114.177L69.8863 120.765H63.5413ZM92.3645 126.651L88.8815 120.063C91.0145 119.145 92.5265 117.066 92.5265 114.717C92.5265 111.342 89.8265 108.507 86.6135 108.507H80.4575V108.669C79.6205 108.723 78.9455 109.425 78.9455 110.262V127.38C78.9455 128.271 79.6475 128.973 80.5385 128.973C81.4295 128.973 82.1315 128.271 82.1315 127.38V120.603H85.5605L89.5295 128.136C89.7995 128.703 90.3665 129 90.9335 129C91.2035 129 91.4465 128.946 91.6895 128.811C92.4725 128.406 92.7695 127.434 92.3645 126.651ZM82.1315 111.72H86.6135C88.0445 111.72 89.3405 113.124 89.3405 114.717C89.3405 116.148 87.9635 117.417 86.3975 117.417H82.1315V111.72ZM105.912 120.441C106.803 120.441 107.532 119.739 107.532 118.848C107.532 117.93 106.803 117.228 105.912 117.228H98.1897V111.747H105.912C106.803 111.747 107.532 111.018 107.532 110.127C107.532 109.236 106.803 108.507 105.912 108.507H96.5697C95.6787 108.507 94.9767 109.236 94.9767 110.127V127.407C94.9767 128.298 95.6787 129 96.5697 129H105.912C106.803 129 107.532 128.298 107.532 127.407C107.532 126.516 106.803 125.787 105.912 125.787H98.1897V120.441H105.912Z" fill="#FFEFF1"/>
<path d="M99.5174 81.2778H36.4986C35.5834 81.2778 34.8398 80.5343 34.8398 79.6191C34.8398 78.7038 35.5834 77.9603 36.4986 77.9603H99.5174C100.433 77.9603 101.176 78.7038 101.176 79.6191C101.176 80.5343 100.433 81.2778 99.5174 81.2778Z" fill="#545C66"/>
<path d="M106.159 154.262H29.857C28.9418 154.262 28.1982 153.518 28.1982 152.603C28.1982 151.688 28.9418 150.944 29.857 150.944H106.159C107.074 150.944 107.817 151.688 107.817 152.603C107.817 153.518 107.074 154.262 106.159 154.262Z" fill="#FFEFF1"/>
<path d="M82.9368 160.897H53.0796C52.1644 160.897 51.4209 160.153 51.4209 159.238C51.4209 158.323 52.1644 157.579 53.0796 157.579H82.9368C83.852 157.579 84.5955 158.323 84.5955 159.238C84.5955 160.153 83.852 160.897 82.9368 160.897Z" fill="#FFEFF1"/>
<path d="M127.723 46.4444H24.8814C23.9662 46.4444 23.2227 45.7009 23.2227 44.7857C23.2227 43.8705 23.9662 43.127 24.8814 43.127H127.723C128.638 43.127 129.381 43.8705 129.381 44.7857C129.381 45.7009 128.638 46.4444 127.723 46.4444Z" fill="#FFD2A6"/>
<path d="M134.357 39.8095H31.5162C30.6009 39.8095 29.8574 39.066 29.8574 38.1508C29.8574 37.2356 30.6009 36.4921 31.5162 36.4921H134.357C135.273 36.4921 136.016 37.2356 136.016 38.1508C136.016 39.066 135.273 39.8095 134.357 39.8095Z" fill="#FFD2A6"/>
<path d="M154.354 90.8388L142.075 90.8373C139.806 90.8388 137.98 92.665 137.979 94.9337L137.979 135.869C137.983 138.135 139.809 139.961 142.075 139.965C144.339 139.965 146.17 138.135 146.168 135.872L150.254 135.869C150.252 138.126 152.08 139.965 154.346 139.961C156.613 139.964 158.439 138.138 158.439 135.868L158.448 94.9323C158.45 92.6763 156.619 90.8388 154.354 90.8388Z" fill="#ED5565"/>
<rect x="137.789" y="131" width="21" height="14" rx="2" fill="#F4DB90"/>
<rect x="137.789" y="145" width="21" height="2" rx="1" fill="#F4DB90"/>
<path d="M140.792 99.3362C141.261 99.3362 141.643 99.7174 141.643 100.187L141.643 122.846C141.643 123.315 141.261 123.697 140.792 123.697C140.323 123.697 139.942 123.315 139.942 122.846L139.942 100.187C139.942 99.7174 140.323 99.3362 140.792 99.3362Z" fill="#F77381"/>
<rect x="139.788" y="133" width="2" height="10" rx="1" fill="#FDEBB5"/>
<path d="M179.354 90.8388L167.075 90.8373C164.806 90.8388 162.98 92.665 162.979 94.9337L162.979 135.869C162.983 138.135 164.809 139.961 167.075 139.965C169.339 139.965 171.17 138.135 171.168 135.872L175.254 135.869C175.252 138.126 177.08 139.965 179.346 139.961C181.613 139.964 183.439 138.138 183.439 135.868L183.448 94.9323C183.45 92.6763 181.619 90.8388 179.354 90.8388Z" fill="#ED5565"/>
<rect x="162.789" y="131" width="21" height="14" rx="2" fill="#F4DB90"/>
<rect x="162.789" y="145" width="21" height="2" rx="1" fill="#F4DB90"/>
<path d="M165.792 99.3362C166.261 99.3362 166.643 99.7174 166.643 100.187L166.643 122.846C166.643 123.315 166.261 123.697 165.792 123.697C165.323 123.697 164.942 123.315 164.942 122.846L164.942 100.187C164.942 99.7174 165.323 99.3362 165.792 99.3362Z" fill="#F77381"/>
<rect x="164.788" y="133" width="2" height="10" rx="1" fill="#FDEBB5"/>
</g>
<defs>
<clipPath id="clip0">
<rect width="209" height="209" fill="white"/>
</clipPath>
</defs>
</svg>
