<svg width="160" height="160" viewBox="0 0 160 160" fill="none" xmlns="http://www.w3.org/2000/svg">
<g clip-path="url(#clip0)">
<path d="M118.571 85.1138L74.8867 41.4294L95.7242 20.5919C97.0645 19.2516 99.2377 19.2516 100.578 20.5919L139.409 59.4225C140.749 60.7628 140.749 62.936 139.409 64.2763L118.571 85.1138Z" fill="#F7E782"/>
<path d="M139.408 59.4222L100.578 20.5916C99.2535 19.2675 97.1182 19.2541 95.7744 20.5457L129.894 54.665C131.234 56.0053 131.234 58.1785 129.894 59.5188L111.435 77.9779L118.57 85.1135L139.408 64.276C140.748 62.936 140.748 60.7629 139.408 59.4222Z" fill="#FFD064"/>
<path d="M91.6661 97.4573L62.543 68.3341L74.8864 41.4294L118.571 85.1138L91.6661 97.4573Z" fill="#655E67"/>
<path d="M74.8857 41.4294L111.415 77.9585L84.5104 90.3023L91.6654 97.4573L118.57 85.1138L74.8857 41.4294Z" fill="#544F56"/>
<path d="M3.01594 142.423L17.5775 156.984C21.5984 161.005 28.1178 161.005 32.1391 156.984L91.6663 97.4572L62.5431 68.3341L3.01594 127.861C-1.00531 131.883 -1.00531 138.402 3.01594 142.423Z" fill="#F7E782"/>
<path d="M84.3856 90.1766L30.5093 144.053C26.4884 148.074 19.969 148.074 15.9478 144.053L1.57152 129.677C-0.924108 133.653 -0.444421 138.963 3.01589 142.423L17.5775 156.984C21.5984 161.006 28.1178 161.006 32.139 156.984L91.6662 97.4573L84.3856 90.1766Z" fill="#FFD064"/>
<path d="M50.9816 116.3L43.701 109.019C43.0307 108.349 43.0307 107.262 43.701 106.592L48.5547 101.738C49.225 101.068 50.3116 101.068 50.9816 101.738L58.2622 109.019C58.9325 109.689 58.9325 110.776 58.2622 111.446L53.4085 116.3C52.7382 116.97 51.6516 116.97 50.9816 116.3Z" fill="#E5979D"/>
<path d="M36.4201 130.861L29.1395 123.581C28.4691 122.91 28.4691 121.824 29.1395 121.154L33.9932 116.3C34.6635 115.63 35.7501 115.63 36.4201 116.3L43.7007 123.581C44.371 124.251 44.371 125.337 43.7007 126.007L38.8469 130.861C38.1769 131.531 37.0904 131.531 36.4201 130.861Z" fill="#B3E59F"/>
<path d="M130.915 31.4647C130.306 31.4647 129.697 31.2325 129.233 30.7682C128.304 29.8391 128.304 28.3332 129.233 27.4041L141.379 15.2585C142.307 14.33 143.814 14.33 144.742 15.2585C145.671 16.1875 145.671 17.6935 144.742 18.6225L132.597 30.7682C132.132 31.2322 131.524 31.4647 130.915 31.4647Z" fill="#F7E782"/>
<path d="M119.991 20.5435C119.61 20.5435 119.224 20.4519 118.865 20.2585C117.708 19.6353 117.276 18.1925 117.899 17.0363L126.405 1.25065C127.028 0.094399 128.471 -0.337476 129.627 0.285024C130.783 0.908149 131.216 2.35065 130.592 3.50721L122.087 19.2928C121.658 20.0903 120.838 20.5435 119.991 20.5435Z" fill="#F7E782"/>
<path d="M141.837 42.386C140.99 42.386 140.171 41.9328 139.741 41.1353C139.118 39.9788 139.55 38.5363 140.707 37.9132L156.493 29.4078C157.649 28.785 159.092 29.2172 159.715 30.3735C160.338 31.53 159.906 32.9725 158.749 33.5957L142.963 42.101C142.604 42.2944 142.218 42.386 141.837 42.386Z" fill="#F7E782"/>
<path d="M140.064 66.8056L93.1951 19.9362C92.3282 19.0693 92.3282 17.6637 93.1951 16.7965L96.7832 13.2084C97.6501 12.3415 99.0557 12.3415 99.9229 13.2084L146.792 60.0778C147.659 60.9446 147.659 62.3503 146.792 63.2174L143.204 66.8056C142.337 67.6724 140.931 67.6724 140.064 66.8056Z" fill="#655E67"/>
<path d="M146.792 60.0778L140.154 53.44C141.021 54.3069 141.021 55.7125 140.153 56.5794L136.565 60.1675C135.698 61.0347 134.293 61.0347 133.426 60.1675L93.1943 19.9363L140.064 66.8057C140.931 67.6725 142.336 67.6725 143.203 66.8057L146.792 63.2175C147.659 62.3503 147.659 60.9447 146.792 60.0778Z" fill="#544F56"/>
</g>
<defs>
<clipPath id="clip0">
<rect width="160" height="160" fill="white"/>
</clipPath>
</defs>
</svg>
