<svg width="149" height="180" viewBox="0 0 149 180" fill="none" xmlns="http://www.w3.org/2000/svg">
<path d="M137.66 0H79.6181C73.4372 0 68.6367 5.00977 68.6367 11.1863V25.8281H52.8281C49.9325 25.8115 47.1441 26.9222 45.053 28.9253L38.905 34.8849L31.031 26.5981L30.8573 26.411L26.2875 30.6513L16.8736 40.3983C16.8398 40.3627 16.8055 40.3244 16.7703 40.2901L16.7658 40.2843L14.5464 42.5634L12.314 44.6448L20.1288 53.0251C20.1422 53.0394 20.1582 53.0554 20.1734 53.0697L12.3937 60.6204C11.3121 61.6634 10.4512 62.9132 9.86213 64.2956C9.27309 65.6779 8.96795 67.1646 8.96484 68.6672V156.639C8.97075 162.576 11.3339 168.269 15.5349 172.464C19.7359 176.66 25.431 179.017 31.3685 179.016H126.474C129.409 179.014 132.316 178.434 135.027 177.309C137.738 176.183 140.2 174.534 142.273 172.455C144.347 170.377 145.989 167.91 147.108 165.196C148.227 162.482 148.799 159.574 148.793 156.639V11.1863C148.799 9.72004 148.516 8.26705 147.959 6.9106C147.402 5.55416 146.583 4.32095 145.549 3.28169C144.515 2.24244 143.286 1.41758 141.932 0.854435C140.578 0.291288 139.126 0.000925111 137.66 0ZM121.362 25.6589C119.741 27.2749 117.817 28.5546 115.7 29.4243C113.583 30.294 111.315 30.7366 109.027 30.7266H85.1133V19.0193C85.1324 17.5187 85.7391 16.0855 86.8031 15.0273C87.8672 13.969 89.3037 13.3702 90.8044 13.3594H126.474C126.485 15.6468 126.038 17.9133 125.16 20.0255C124.282 22.1378 122.991 24.0531 121.362 25.6589Z" fill="#E48E66"/>
<path d="M28.7449 28.7181L14.5929 42.5184L11.1907 45.8359L0 34.6452L22.092 13.1055L33.2782 24.2962L28.7449 28.7181Z" fill="#F8EC7D"/>
<path d="M107.787 132.266C107.538 132.021 107.249 131.82 106.933 131.671V83.8604C107.255 83.7083 107.549 83.5023 107.801 83.2512L125.391 65.6613C125.976 65.0767 126.304 64.2838 126.304 63.4571C126.304 62.6303 125.976 61.8374 125.391 61.2528C124.806 60.6681 124.014 60.3397 123.187 60.3397C122.36 60.3397 121.567 60.6681 120.983 61.2528L103.393 78.8426C103.142 79.0952 102.936 79.3889 102.783 79.711H54.9725C54.8239 79.3947 54.6227 79.1059 54.3776 78.8568L37.0104 61.267C36.7236 60.9721 36.3813 60.7368 36.0032 60.5747C35.6251 60.4127 35.2186 60.3271 34.8073 60.3229C34.3959 60.3187 33.9878 60.396 33.6064 60.5502C33.2251 60.7045 32.878 60.9327 32.5853 61.2218C32.2925 61.5108 32.0599 61.8549 31.9008 62.2343C31.7417 62.6136 31.6592 63.0208 31.6582 63.4321C31.6572 63.8435 31.7376 64.251 31.8948 64.6312C32.052 65.0113 32.2829 65.3566 32.5742 65.6471L49.9414 83.2369C50.1966 83.4948 50.4952 83.7058 50.8235 83.8604V131.671C50.5014 131.823 50.2077 132.029 49.9552 132.28L32.588 149.647C32.0034 150.232 31.6749 151.025 31.6749 151.852C31.6749 152.678 32.0034 153.471 32.588 154.056C33.1726 154.641 33.9655 154.969 34.7923 154.969C35.6191 154.969 36.412 154.641 36.9966 154.056L54.3638 136.689C54.615 136.436 54.8211 136.143 54.973 135.82H102.784C102.938 136.149 103.149 136.447 103.407 136.702L120.997 154.07C121.288 154.361 121.633 154.592 122.013 154.749C122.393 154.906 122.801 154.987 123.212 154.986C123.624 154.985 124.031 154.902 124.41 154.743C124.789 154.584 125.133 154.351 125.423 154.059C125.712 153.766 125.94 153.419 126.094 153.037C126.248 152.656 126.326 152.248 126.321 151.837C126.317 151.425 126.232 151.019 126.07 150.641C125.908 150.263 125.672 149.92 125.377 149.633L107.787 132.266Z" fill="#F8EC7D"/>
</svg>
