<svg width="228" height="69" viewBox="0 0 228 69" fill="none" xmlns="http://www.w3.org/2000/svg">
<path d="M130.557 34.3485H130.288C128.576 34.3485 127.083 33.1805 126.673 31.5177C125.744 27.7534 120.814 24.9146 115.208 24.9146H113.29C107.683 24.9146 102.753 27.7534 101.824 31.5177C101.413 33.1805 99.9221 34.3485 98.2089 34.3485H97.94C95.8835 34.3485 94.2163 32.6817 94.2163 30.6248V11.4675C94.2163 10.1943 92.085 8.71499 89.337 8.71499C87.2805 8.71499 85.6133 7.04818 85.6133 4.99128C85.6133 2.93438 87.2805 1.26758 89.337 1.26758H139.16C141.217 1.26758 142.884 2.93438 142.884 4.99128C142.884 7.04818 141.217 8.71499 139.16 8.71499C136.413 8.71499 134.281 10.1943 134.281 11.4675V30.6248C134.281 32.6813 132.613 34.3485 130.557 34.3485ZM113.29 17.4672H115.208C119.536 17.4672 123.588 18.6397 126.834 20.6378V11.4675C126.834 10.51 126.985 9.5878 127.27 8.71499H101.226C101.511 9.5878 101.663 10.51 101.663 11.4675V20.6373C104.909 18.6392 108.961 17.4672 113.29 17.4672Z" fill="#527A84"/>
<path d="M207.224 0.000488281H196.606H183.945H132.753C129.177 0.000488281 126.277 2.90036 126.277 6.47667V16.9998V27.7924V34.2682C126.277 53.194 145.848 68.5359 169.989 68.5359C194.13 68.5359 213.701 53.194 213.701 34.2682V27.792V16.9994V6.47622C213.701 2.90036 210.801 0.000488281 207.224 0.000488281Z" fill="#B7DFF7"/>
<path d="M95.2479 0.000488281H20.7765C17.2002 0.000488281 14.3008 2.90036 14.3008 6.47667V16.9998V27.7924V34.2682C14.3008 53.194 33.8714 68.5359 58.0118 68.5359C82.153 68.5359 101.724 53.194 101.724 34.2682V27.792V16.9994V6.47622C101.724 2.90036 98.8238 0.000488281 95.2479 0.000488281Z" fill="#B7DFF7"/>
<path d="M34.1898 34.2686V27.7924V16.9998V6.47618C34.1898 2.89987 37.0892 0 40.6655 0H20.7765C17.2002 0 14.3008 2.89987 14.3008 6.47618V16.9994V27.792V34.2681C14.3008 53.1939 33.8714 68.5358 58.0118 68.5358C61.4331 68.5358 64.7618 68.2272 67.956 67.6443C48.6068 64.1156 34.1898 50.5118 34.1898 34.2686Z" fill="#9ACEE8"/>
<path d="M146.166 34.2686V27.7924V16.9998V6.47618C146.166 2.89987 149.066 0 152.642 0H132.753C129.177 0 126.277 2.89987 126.277 6.47618V16.9994V27.792V34.2681C126.277 53.1939 145.848 68.5358 169.989 68.5358C173.41 68.5358 176.739 68.2272 179.933 67.6443C160.584 64.1156 146.166 50.5118 146.166 34.2686Z" fill="#9ACEE8"/>
<path d="M6.47618 7.37598C2.89898 7.37598 0 10.2754 0 13.8517V16.5499V21.0475V23.7452C0 27.322 2.89898 30.2214 6.47618 30.2214H14.3008V27.5237V10.075V7.37598H6.47618Z" fill="#527A84"/>
<path d="M221.524 7.37598C225.1 7.37598 228 10.2754 228 13.8522V16.5503V21.048V23.7457C228 27.3224 225.1 30.2218 221.524 30.2218H213.699V27.5241V10.0755V7.37643H221.524V7.37598Z" fill="#527A84"/>
<path d="M169.988 57.5089C167.931 57.5089 166.265 55.8421 166.265 53.7852C166.265 51.7283 167.931 50.0615 169.988 50.0615C181.726 50.0615 192.187 43.8049 194.861 35.1854C195.471 33.2211 197.557 32.1248 199.521 32.7326C201.484 33.3418 202.583 35.4285 201.974 37.3924C198.298 49.2372 185.146 57.5089 169.988 57.5089Z" fill="#DBF1FC"/>
<path d="M56.9327 57.5089C54.8762 57.5089 53.209 55.8421 53.209 53.7852C53.209 51.7283 54.8762 50.0615 56.9327 50.0615C68.6707 50.0615 79.1306 43.8053 81.8052 35.1854C82.4144 33.2211 84.5011 32.1248 86.4645 32.7326C88.4292 33.3418 89.5273 35.4285 88.9177 37.3924C85.243 49.2372 72.0907 57.5089 56.9327 57.5089Z" fill="#DBF1FC"/>
<path d="M45.4688 55.3942C44.4909 55.3942 43.5326 54.997 42.8375 54.3018C42.1423 53.6067 41.7451 52.6484 41.7451 51.6705C41.7451 50.6877 42.1423 49.7294 42.8375 49.0342C43.5326 48.344 44.4909 47.9468 45.4688 47.9468C46.4467 47.9468 47.4099 48.344 48.1051 49.0342C48.7953 49.7294 49.1925 50.6877 49.1925 51.6705C49.1925 52.6484 48.7953 53.6063 48.1051 54.3018C47.4099 54.9974 46.4472 55.3942 45.4688 55.3942Z" fill="#DBF1FC"/>
<path d="M158.502 55.3942C157.519 55.3942 156.561 54.997 155.871 54.3018C155.176 53.6067 154.778 52.6484 154.778 51.6705C154.778 50.6877 155.176 49.7294 155.871 49.0342C156.561 48.344 157.518 47.9468 158.502 47.9468C159.48 47.9468 160.438 48.344 161.133 49.0342C161.829 49.7294 162.226 50.6877 162.226 51.6705C162.226 52.6484 161.829 53.6063 161.133 54.3018C160.438 54.9974 159.48 55.3942 158.502 55.3942Z" fill="#DBF1FC"/>
</svg>
