<svg width="176" height="178" viewBox="0 0 176 178" fill="none" xmlns="http://www.w3.org/2000/svg">
<path d="M73.3905 149.907H135.871C139.205 149.907 141.908 152.61 141.908 155.943V170.694C141.908 174.028 139.205 176.731 135.871 176.731H73.3905C71.7234 176.731 70.3721 175.38 70.3721 173.713V152.925C70.3721 151.258 71.7234 149.907 73.3905 149.907Z" fill="#3D324C"/>
<path d="M135.959 149.907V133.034L168.657 100.338C173.315 95.679 173.314 88.1257 168.655 83.4674C163.996 78.809 156.443 78.8097 151.784 83.4688L141.048 94.2081C140.194 95.0603 138.911 95.3142 137.797 94.8516C136.683 94.389 135.958 93.3013 135.959 92.0951V24.722C135.956 22.2378 134.921 19.8664 133.101 18.1749C131.282 16.4835 128.841 15.6243 126.363 15.8028C121.57 16.3141 117.965 20.4069 118.063 25.2263V13.1524C118.122 9.91866 116.431 6.90478 113.64 5.27037C110.849 3.63595 107.393 3.63595 104.602 5.27037C101.811 6.90478 100.119 9.91866 100.179 13.1524V24.722C100.238 21.4883 98.5473 18.4744 95.7561 16.84C92.9648 15.2056 89.5088 15.2056 86.7179 16.84C83.927 18.4744 82.2355 21.4883 82.295 24.722V45.585C82.2915 43.1012 81.2561 40.7305 79.4366 39.0401C77.6171 37.3493 75.1768 36.4905 72.6996 36.669C67.9108 37.1907 64.3164 41.2884 64.4232 46.1043V103.988C64.425 108.743 65.1369 113.47 66.5362 118.014L76.3459 149.907H135.959Z" fill="#DF4D60"/>
<path d="M81.2749 164.67C79.8972 164.169 79.0777 162.752 79.3323 161.308C79.5869 159.865 80.8415 158.813 82.3072 158.814H127.019C130.328 158.822 133.008 161.503 133.016 164.811V167.794C133.016 169.461 131.665 170.812 129.998 170.812C128.331 170.812 126.979 169.461 126.979 167.794V164.811L82.3072 164.848C81.9552 164.849 81.606 164.789 81.2749 164.67Z" fill="#DF4D60"/>
<path d="M97.2175 149.916L76.3455 149.898L66.5237 118.026C65.1226 113.482 64.4173 108.752 64.4319 103.997V96.3212C71.125 96.2652 77.6734 98.2673 83.1913 102.056C99.629 113.372 97.133 132.412 97.2175 149.916Z" fill="#802D40"/>
<path d="M75.3132 152.744C74.4238 152.42 73.7379 151.699 73.46 150.794L63.6472 118.902C62.16 114.071 61.4038 109.045 61.4045 103.991V46.104C61.2859 39.6999 66.1102 34.2802 72.485 33.6562C74.853 33.4875 77.2175 34.0252 79.2794 35.2016V24.7217C79.2804 20.4612 81.5472 16.5228 85.2306 14.382C88.9141 12.2411 93.458 12.221 97.1606 14.3291V13.1549C97.1606 6.55007 102.515 1.19604 109.119 1.19604C115.724 1.19604 121.078 6.55007 121.078 13.1549V14.3865C122.615 13.4651 124.347 12.9183 126.134 12.7896C129.447 12.5528 132.709 13.702 135.142 15.9632C137.575 18.2244 138.959 21.3941 138.965 24.7154V92.1011L149.641 81.3349C153.415 77.5569 158.918 76.0793 164.077 77.4588C169.236 78.8383 173.268 82.8654 174.652 88.0232C176.037 93.1811 174.565 98.6853 170.791 102.463L138.889 134.374C138.977 136.837 138.977 141.34 138.977 149.909C138.977 151.577 137.626 152.928 135.959 152.928H76.3455C75.9932 152.929 75.6433 152.866 75.3132 152.744ZM75.3824 40.0192C74.5974 39.7351 73.7612 39.6189 72.9285 39.678C69.723 40.0975 67.3533 42.8724 67.4409 46.104V103.988C67.4427 108.441 68.1091 112.87 69.418 117.127L78.5726 146.888H132.94V133.07C132.93 132.257 133.247 131.475 133.821 130.9L166.519 98.2047C168.811 95.9616 169.721 92.6597 168.901 89.5595C168.081 86.4591 165.659 84.0382 162.558 83.2208C159.457 82.4034 156.156 83.3154 153.914 85.609L143.178 96.3424C141.482 98.0965 138.877 98.614 136.64 97.6405C134.396 96.7177 132.934 94.5278 132.942 92.1018V24.722C132.938 23.0758 132.25 21.5054 131.043 20.3857C129.836 19.2661 128.219 18.6971 126.577 18.815C123.373 19.2296 121.001 21.9968 121.08 25.226V69.4304C121.08 71.0975 119.729 72.4488 118.062 72.4488C116.394 72.4488 115.043 71.0975 115.043 69.4304V13.1556C115.038 11.5904 114.418 10.0902 113.317 8.97822C112.21 7.86136 110.702 7.23493 109.13 7.23945C105.862 7.24432 103.213 9.89299 103.208 13.1615V69.4304C103.208 71.0975 101.857 72.4488 100.19 72.4488C98.5227 72.4488 97.1714 71.0975 97.1714 69.4304V24.722C97.0987 21.5026 94.4681 18.9308 91.2476 18.9308C88.0271 18.9308 85.3966 21.5026 85.3239 24.722V78.3739C85.3228 78.7259 85.2616 79.0751 85.1426 79.4063C84.6425 80.784 83.2248 81.6035 81.7813 81.3489C80.3378 81.0942 79.2857 79.8396 79.2871 78.3739V45.5851C79.2749 43.0954 77.7159 40.8756 75.3782 40.0192H75.3824Z" fill="#802D40"/>
<path d="M47.5964 152.611L106.309 131.241C109.442 130.101 112.906 131.717 114.046 134.849L119.091 148.711C120.231 151.844 118.616 155.308 115.483 156.448L56.7708 177.818C55.2043 178.388 53.4725 177.58 52.902 176.013L45.7922 156.479C45.2221 154.913 46.0298 153.181 47.5964 152.611Z" fill="#3D324C"/>
<path d="M106.382 131.223L100.611 115.37L120.152 73.4594C122.014 69.5882 121.65 65.0147 119.201 61.4857C116.751 57.957 112.592 56.0179 108.314 56.4095C104.037 56.8012 100.3 59.4631 98.5309 63.3778L92.1049 77.1356C91.5943 78.227 90.4768 78.9039 89.2729 78.851C88.0691 78.7982 87.0152 78.026 86.6024 76.8942L63.5626 13.5808C62.7101 11.2459 60.9254 9.3708 58.6354 8.40385C56.3457 7.43691 53.7568 7.46543 51.489 8.48281C47.1687 10.607 45.1875 15.6803 46.9253 20.17L62.0503 61.709L46.7594 19.6962L42.8022 8.82993C41.7462 5.77988 39.1281 3.53574 35.9522 2.9587C32.7762 2.38166 29.5363 3.56113 27.4744 6.04458C25.4128 8.52803 24.8497 11.9301 26.0017 14.9453L29.9557 25.8116L45.2439 67.8365L29.9529 25.8144C28.9088 22.7512 26.2904 20.4914 23.1075 19.9063C19.9245 19.3213 16.6738 20.5018 14.6081 22.9932C12.5424 25.4847 11.9848 28.8982 13.1497 31.9177L20.2852 51.5373L31.4987 82.3459L20.2852 51.5373C19.432 49.203 17.647 47.3283 15.3576 46.3613C13.0683 45.3944 10.4798 45.4226 8.21163 46.4389C3.8889 48.5609 1.90597 53.6357 3.64473 58.126L23.4542 112.532C25.0789 116.999 27.362 121.197 30.2274 124.989L50.3569 151.605L106.382 131.223Z" fill="#E64C3C"/>
<path d="M60.0435 163.791C58.5778 163.792 57.3229 162.74 57.0686 161.297C56.814 159.853 57.6335 158.435 59.0112 157.935L101.024 142.641C104.135 141.523 107.566 143.124 108.706 146.227L109.726 149.028C110.119 150.047 109.932 151.199 109.235 152.04C108.538 152.882 107.442 153.281 106.367 153.085C105.292 152.888 104.408 152.126 104.054 151.093L103.034 148.292L61.0783 163.607C60.7472 163.728 60.3966 163.791 60.0435 163.791Z" fill="#E64C3C"/>
<path d="M69.9794 144.473L50.3598 151.597L30.2272 125.005C27.3573 121.214 25.0781 117.011 23.4659 112.539L20.8398 105.325C27.11 102.984 33.9486 102.625 40.4292 104.299C59.7469 109.309 63.9124 128.053 69.9794 144.473Z" fill="#802D40"/>
<path d="M50.3632 154.624C49.4133 154.624 48.5187 154.177 47.9486 153.417L27.8128 126.813C24.7676 122.78 22.3419 118.315 20.6171 113.565L0.816264 59.1588C-1.47588 53.1825 1.21 46.4483 6.98593 43.6894C9.15216 42.7186 11.558 42.4139 13.8982 42.8139L10.3059 32.9622C8.84991 28.9581 9.63355 24.482 12.3633 21.2107C15.093 17.9394 19.3566 16.3669 23.5565 17.0824L23.1551 15.9777C20.9478 9.78546 24.1523 2.97267 30.33 0.724346C36.5077 -1.52398 43.3413 1.63529 45.6303 7.79765L46.0529 8.9566C47.1816 7.56531 48.622 6.45889 50.2574 5.72707C53.2894 4.37056 56.7488 4.33439 59.8083 5.62724C62.8677 6.9201 65.2531 9.42581 66.3936 12.5458L89.4451 75.8654L95.7838 62.0954C99.2854 54.6277 108.163 51.3926 115.648 54.8573C123.116 58.3491 126.355 67.2216 122.892 74.7033L103.822 115.618C104.745 117.9 106.285 122.134 109.216 130.184C109.49 130.938 109.453 131.769 109.113 132.495C108.773 133.221 108.159 133.782 107.405 134.054L51.3951 154.44C51.0647 154.561 50.7151 154.623 50.3632 154.624ZM11.8725 48.6726C11.0398 48.673 10.2168 48.85 9.4579 49.1919C6.59289 50.6789 5.3136 54.0896 6.49376 57.0941L26.3033 111.5C27.8232 115.685 29.9599 119.619 32.642 123.173L51.4223 148.008L102.511 129.412C100.894 124.968 97.9323 116.825 97.7845 116.433C97.4979 115.673 97.5292 114.829 97.8722 114.093L117.416 72.183C118.796 69.2919 118.519 65.8822 116.688 63.2527C114.857 60.6235 111.756 59.1793 108.565 59.4708C105.375 59.7619 102.586 61.7438 101.262 64.6613L94.8451 78.401C93.851 80.6277 91.5804 82.0048 89.1463 81.857C86.721 81.7561 84.5979 80.1982 83.7735 77.9151L60.7282 14.6132C60.1606 13.0679 58.9773 11.8275 57.4605 11.1875C55.9436 10.5479 54.2292 10.5663 52.7266 11.2387C49.8644 12.7266 48.5875 16.1356 49.7687 19.1377L64.8847 60.6767C65.3 61.7 65.1233 62.8687 64.4239 63.7233C63.7244 64.5779 62.6138 64.9824 61.5286 64.7779C60.4434 64.5733 59.5564 63.7921 59.2163 62.7414L39.9678 9.85919C39.421 8.39278 38.3195 7.2001 36.9011 6.53889C35.4802 5.8662 33.8486 5.79316 32.3735 6.3368C29.3029 7.45888 27.7192 10.8543 28.833 13.928L32.787 24.7943V24.8093L48.0783 66.8223C48.5955 68.374 47.7834 70.0554 46.246 70.614C44.709 71.1726 43.0064 70.4056 42.4067 68.8839L27.1186 26.8437C25.9801 23.7968 22.5979 22.2375 19.5413 23.3502C16.4846 24.4628 14.8968 27.8315 15.9837 30.8976L34.3324 81.3046C34.7258 82.3237 34.5379 83.4757 33.8413 84.3171C33.1446 85.1585 32.0479 85.5578 30.9731 85.3613C29.8987 85.1647 29.0142 84.403 28.6605 83.3696L17.4502 52.5669C16.5883 50.2298 14.3632 48.6765 11.8725 48.6726Z" fill="#C03A2B"/>
</svg>
