<svg width="194" height="104" viewBox="0 0 194 104" fill="none" xmlns="http://www.w3.org/2000/svg">
<path d="M194 40.2494V17.1429C194 16.1119 193.254 15.2109 192.232 15.0722C185.871 14.209 180.967 8.75545 180.967 2.15831C180.967 2.15111 180.967 2.14353 180.967 2.13633C180.969 0.964373 180.049 0.00195312 178.877 0.00195312H15.1233C13.9513 0.00195312 13.031 0.964373 13.0329 2.13633C13.0329 2.14353 13.0329 2.15111 13.0329 2.15831C13.0329 8.75545 8.12906 14.209 1.76836 15.0722C0.746445 15.2109 0 16.1115 0 17.1429V40.2494C0 41.2626 0.727121 42.1287 1.72478 42.3053C6.33228 43.1203 9.83262 47.1451 9.83262 51.9867C9.83262 56.8284 6.33266 60.8532 1.72478 61.6686C0.727121 61.8451 0 62.7109 0 63.7241V86.8306C0 87.8616 0.746445 88.7626 1.76836 88.9013C8.12906 89.7645 13.0329 95.2181 13.0329 101.815C13.0329 101.822 13.0329 101.83 13.0329 101.837C13.031 103.009 13.9513 103.972 15.1233 103.972H178.877C180.049 103.972 180.969 103.009 180.967 101.837C180.967 101.83 180.967 101.822 180.967 101.815C180.967 95.2181 185.871 89.7645 192.232 88.9013C193.254 88.7626 194 87.862 194 86.8306V63.7241C194 62.7109 193.273 61.8447 192.275 61.6682C187.667 60.8531 184.167 56.8284 184.167 51.9867C184.167 47.1451 187.667 43.1203 192.275 42.3049C193.273 42.1284 194 41.2626 194 40.2494Z" fill="#ED3124"/>
<path d="M184.165 51.9867C184.165 56.8276 187.667 60.8527 192.274 61.6689C193.274 61.8447 194 62.7112 194 63.7225V86.8305C194 87.8612 193.254 88.7629 192.231 88.8997C185.871 89.7663 180.968 95.2165 180.968 101.814V101.838C180.968 103.009 180.046 103.973 178.875 103.973H169.08C169.346 97.2663 173.15 87.1988 179.678 86.3129C180.755 86.1686 181.54 85.216 181.54 84.1304V21.0145C181.54 19.9293 180.755 18.9768 179.678 18.832C173.15 17.9458 169.346 6.7074 169.08 0H178.875C180.046 0 180.968 0.964317 180.968 2.13552V2.15901C180.968 8.7569 185.871 14.2071 192.231 15.0736C193.254 15.2104 194 16.1122 194 17.1429V40.2508C194 41.2621 193.274 42.1287 192.274 42.3045C187.667 43.1207 184.165 47.1458 184.165 51.9867Z" fill="#D8231E"/>
<path d="M163.575 90.0022H30.4248C29.3468 90.0022 28.4727 89.1281 28.4727 88.0501V15.9238C28.4727 14.8458 29.3468 13.9717 30.4248 13.9717H163.575C164.653 13.9717 165.527 14.8458 165.527 15.9238V88.0501C165.526 89.1281 164.653 90.0022 163.575 90.0022Z" fill="#E2EEFD"/>
<path d="M163.575 90.0022H154.39V13.9717H163.575C164.653 13.9717 165.527 14.8458 165.527 15.9238V88.0501C165.527 89.1281 164.653 90.0022 163.575 90.0022Z" fill="#C7DCF2"/>
<path d="M80.6766 53.5708V53.3765C80.6766 52.0942 79.6274 51.0451 78.3063 51.0451H70.768C69.4469 51.0451 68.3977 52.0942 68.3977 53.3765C68.3977 54.6977 69.4469 55.7468 70.768 55.7468H75.8583C75.0811 60.2154 71.3897 63.2462 66.3771 63.2462C60.976 63.2462 56.7406 58.8165 56.7406 53.1822C56.7406 47.6645 61.2091 43.1571 66.7657 43.1571C69.3303 43.1571 71.7783 44.1285 73.6434 45.916C74.576 46.8097 76.0526 46.732 76.9463 45.7994C77.84 44.8668 77.8011 43.3514 76.8686 42.4577C74.1097 39.8931 70.5349 38.4554 66.7657 38.4554C58.6057 38.4554 52 45.0611 52 53.1822C52 61.4588 58.2949 67.948 66.3771 67.948C74.6926 67.948 80.7154 62.0805 80.7154 53.9982C80.7154 53.8428 80.7154 53.6874 80.6766 53.5708ZM98.1884 67.948C90.0284 67.948 83.4227 61.3422 83.4227 53.1822C83.4227 45.0611 90.0284 38.4554 98.1884 38.4554C106.31 38.4554 112.915 45.0611 112.915 53.2211C112.915 61.3422 106.31 67.948 98.1884 67.948ZM98.1884 43.1571C92.6318 43.1571 88.1244 47.6645 88.1244 53.1822C88.1244 58.7388 92.6318 63.2462 98.1884 63.2462C103.706 63.2462 108.214 58.7388 108.214 53.1822C108.214 47.6645 103.706 43.1571 98.1884 43.1571ZM140.295 39.0771C139.091 38.572 137.731 39.116 137.226 40.2817L128.755 59.8268L120.323 40.2817C119.779 39.116 118.419 38.572 117.253 39.0771C116.048 39.5822 115.504 40.9422 116.01 42.1468L126.618 66.6268C126.618 66.6657 126.618 66.6657 126.656 66.6657C126.695 66.7434 126.734 66.86 126.773 66.9377L126.812 66.9765C126.851 67.0542 126.89 67.132 126.967 67.2097C127.006 67.2097 127.006 67.2485 127.006 67.2485C127.084 67.3262 127.162 67.404 127.2 67.4428L127.239 67.4817C127.317 67.5594 127.395 67.5982 127.472 67.6371L127.55 67.7148C127.589 67.7537 127.667 67.7925 127.744 67.7925C127.783 67.8314 127.783 67.8314 127.822 67.8314V67.8702C127.939 67.9091 128.016 67.9091 128.094 67.948H128.133C128.211 67.9868 128.327 67.9868 128.405 68.0257C128.405 68.0257 128.444 68.0257 128.483 68.0257L128.755 68.0645C128.871 68.0645 128.949 68.0257 129.066 68.0257H129.143C129.221 67.9868 129.299 67.9868 129.376 67.948H129.454C129.532 67.9091 129.61 67.9091 129.687 67.8702L129.726 67.8314C129.726 67.8314 129.765 67.8314 129.765 67.7925C129.843 67.7925 129.92 67.7537 129.998 67.7148C129.998 67.676 130.037 67.676 130.076 67.6371C130.154 67.5982 130.231 67.5594 130.309 67.4817V67.4428C130.387 67.404 130.464 67.3262 130.503 67.2485C130.542 67.2485 130.542 67.2097 130.542 67.2097C130.62 67.132 130.698 67.0542 130.736 66.9765V66.9377C130.814 66.86 130.853 66.7434 130.892 66.6657V66.6268L141.5 42.1468C142.005 40.9422 141.461 39.5822 140.295 39.0771Z" fill="#92B3D6"/>
</svg>
