<svg width="162" height="94" viewBox="0 0 162 94" fill="none" xmlns="http://www.w3.org/2000/svg">
<path d="M36.7679 89.5765C24.7271 87.4537 13.5881 84.4532 3.85953 80.6595C0.741357 79.4436 -0.800488 75.9299 0.416092 72.8124C1.63172 69.6939 5.14414 68.1527 8.26327 69.3683C27.783 76.9816 53.615 81.1743 80.9999 81.1743C108.385 81.1743 134.217 76.9823 153.736 69.3686C156.855 68.1533 160.368 69.6948 161.584 72.8127C162.8 75.9305 161.258 79.4439 158.141 80.6599C137.25 88.8067 109.855 93.2933 80.9999 93.2933C68.7882 93.2933 56.8372 92.4899 45.5305 90.9449" fill="#527A84"/>
<path d="M161.22 72.0555C160.557 73.2344 159.499 74.2007 158.141 74.7304C137.25 82.8772 109.855 87.3638 81.0004 87.3638C68.7887 87.3638 56.8377 86.5605 45.531 85.0155L36.7684 83.6473C24.7276 81.5246 13.5886 78.5241 3.86003 74.7304C2.5017 74.2007 1.44332 73.2344 0.781087 72.0552C0.645665 72.2972 0.520368 72.5466 0.416904 72.8117C-0.79936 75.9296 0.742485 79.4429 3.86003 80.6589C13.5886 84.4526 24.7279 87.4531 36.7684 89.5758L45.531 90.944C56.8381 92.489 68.7887 93.2923 81.0004 93.2923C109.855 93.2923 137.251 88.8057 158.141 80.6589C161.259 79.4429 162.801 75.9293 161.584 72.8117C161.48 72.5466 161.355 72.2969 161.22 72.0555Z" fill="#3C6268"/>
<path d="M80.9999 81.5255C100.392 81.5255 119.004 79.4205 135.149 75.4898C132.398 56.0489 122.453 -3.86824 104.835 0.197259C93.8881 2.72407 87.6574 4.9193 80.9999 4.90095C74.3424 4.91962 68.1118 2.72407 57.1651 0.197259C39.547 -3.86855 29.602 56.0489 26.8506 75.4898C42.9958 79.4208 61.6074 81.5255 80.9999 81.5255Z" fill="#527A84"/>
<path d="M52.7281 39.7015C52.7281 25.386 58.3004 12.3738 67.3913 2.70857C64.4332 1.97261 61.1056 1.10693 57.1651 0.197259C39.547 -3.86855 29.602 56.0489 26.8506 75.4898C40.5892 78.8348 56.1165 80.8519 72.3883 81.3806C60.3817 71.4752 52.7281 56.4823 52.7281 39.7015Z" fill="#3C6268"/>
<path d="M108.395 62.1863C99.5733 63.139 90.3782 63.6317 81.0003 63.6317C62.719 63.6317 45.1325 61.7608 29.6508 58.2534C28.3789 65.1874 27.4464 71.2859 26.8516 75.4903C42.9968 79.421 61.6084 81.526 81.0009 81.526C100.393 81.526 119.005 79.421 135.15 75.4903C134.555 71.2859 133.624 65.1874 132.351 58.2534C127.498 59.3529 122.438 60.2917 117.215 61.0622" fill="#49BAED"/>
<path d="M57.8144 62.6015C47.9201 61.7083 38.4453 60.2455 29.6508 58.2534C28.3789 65.1874 27.4464 71.2859 26.8516 75.4903C40.5902 78.8353 56.1175 80.8524 72.3893 81.3811C66.2403 76.3082 61.2366 69.8994 57.8144 62.6015Z" fill="#37B1DB"/>
</svg>
