<svg id="Layer_3" enable-background="new 0 0 64 64" height="512" viewBox="0 0 64 64" width="512" xmlns="http://www.w3.org/2000/svg"><g><path d="m13 43 17-17 8 8-17 17" fill="#c7e2fc"/><path d="m14.074 41.926c1.846.741 3.857 1.16 5.969 1.16 7.328 0 13.495-4.918 15.414-11.629l-5.457-5.457z" fill="#ebf7fe"/><path d="m36.048 35.952-8.048 8.048-8-8 2.096-2.096h3.687c.804 0 1.601-.153 2.347-.452 2.348-.939 5.029-.389 6.817 1.399z" fill="#f2c351"/><path d="m20.379 35.843h4.243v11.314h-4.243z" fill="#606060" transform="matrix(.707 -.707 .707 .707 -22.755 28.065)"/><path d="m16.172 39.343h5.657v11.314h-5.657z" fill="#c7e2fc" transform="matrix(.707 -.707 .707 .707 -26.255 26.615)"/><path d="m16.172 42.172h5.657v5.657h-5.657z" fill="#c1c8d1" transform="matrix(.707 -.707 .707 .707 -26.255 26.615)"/><path d="m7.964 49.672h7.071v5.657h-7.071z" fill="#c1c8d1" transform="matrix(.707 -.707 .707 .707 -33.755 23.509)"/><path d="m2.707 56.707 4.586 4.586c.453.453 1.067.707 1.707.707.64 0 1.254-.254 1.707-.707l.586-.586c.453-.453.707-1.067.707-1.707 0-.64-.254-1.254-.707-1.707l-4.586-4.586c-.453-.453-1.067-.707-1.707-.707-.64 0-1.254.254-1.707.707l-.586.586c-.453.453-.707 1.067-.707 1.707 0 .64.254 1.254.707 1.707z" fill="#758190"/><path d="m13.5 43.5 7 7c.828.828.828 2.172 0 3-.828.828-2.172.828-3 0l-7-7c-.828-.828-.828-2.172 0-3 .828-.828 2.172-.828 3 0z" fill="#8892a0"/><path d="m31 27 3-3 6 6-3 3" fill="#8892a0"/><path d="m35 25 5-3 2 2-3 5" fill="#c7e2fc"/><path d="m40 22 8-8-1 5-5 5" fill="#e7e4dd"/><path d="m56 39.953c0-7.518 0-30.622 0-35.853 0-.996-.681-1.912-1.664-2.072-1.253-.204-2.336.757-2.336 1.972v35.948c0 1.337-.727 2.528-1.833 3.279-2.482 1.686-4.167 4.956-4.167 8.722 0 5.495 3.582 9.949 8 9.949s8-4.454 8-9.949c0-3.766-1.685-7.036-4.167-8.722-1.106-.752-1.833-1.937-1.833-3.274z" fill="#d5cec2"/><path d="m50.167 43.227c-2.482 1.686-4.167 4.956-4.167 8.722 0 5.073 3.055 9.25 7 9.863 3.945-.613 7-4.791 7-9.863 0-3.766-1.685-7.036-4.167-8.722-1.106-.752-1.833-1.937-1.833-3.274 0-7.518 0-30.622 0-35.853 0-.751-.388-1.456-1-1.826-.596.346-1 .987-1 1.726v35.948c0 1.337-.727 2.527-1.833 3.279z" fill="#e7e4dd"/><path d="m59 52c0-.928-.43-1.747-1.092-2.297.055-.226.092-.46.092-.703 0-1.657-1.343-3-3-3-.928 0-1.747.43-2.297 1.092-.226-.055-.46-.092-.703-.092-1.657 0-3 1.343-3 3 0 .772.3 1.468.779 2-.479.532-.779 1.228-.779 2 0 1.356.905 2.488 2.14 2.86.372 1.235 1.504 2.14 2.86 2.14 1.657 0 3-1.343 3-3 0-.395-.081-.77-.22-1.116 1.276-.345 2.22-1.499 2.22-2.884z" fill="#ebf7fe"/><path d="m31 27 4.456 4.456c.401-1.404.629-2.881.629-4.414 0-.34-.03-.673-.051-1.008l-2.034-2.034z" fill="#a8b0bc"/><path d="m28.13 33.452c-.747.299-1.543.452-2.347.452h-3.687l-2.096 2.096 5.949 5.949c3.637-1.442 6.614-4.171 8.38-7.631-1.754-1.35-4.107-1.703-6.199-.866z" fill="#f7d881"/><path d="m25.949 41.949-5.949-5.949-3 3 4.036 4.036c1.726-.106 3.377-.478 4.913-1.087z" fill="#808080"/><g><path d="m40.259 28.844 2.535-4.224 4.913-4.913c.14-.14.234-.317.273-.511l1-5c.086-.432-.12-.87-.509-1.078-.389-.207-.867-.137-1.179.174l-7.913 7.913-4.224 2.535-.448-.448c-.39-.39-1.023-.389-1.415 0l-2.292 2.293-.293-.293c-.389-.389-1.022-.39-1.415 0l-16.656 16.656c-.996-.206-2.073.073-2.844.844-1.217 1.217-1.216 3.197 0 4.414l.793.793-3.63 3.63c-1.315-.897-3.22-.778-4.37.37l-.585.586c-.645.645-1 1.502-1 2.415s.355 1.77 1 2.415l4.585 4.585c.645.645 1.502 1 2.415 1 .912 0 1.769-.355 2.414-1l.586-.586c.645-.645 1-1.502 1-2.415 0-.713-.223-1.388-.626-1.959l3.626-3.626.793.792c.589.59 1.373.915 2.207.915s1.618-.325 2.208-.914c.771-.771 1.05-1.848.844-2.844l16.656-16.656c.39-.391.39-1.024 0-1.415l-.293-.293 2.293-2.293c.39-.391.39-1.024 0-1.415zm5.82-10.338-4.079 4.079-.586-.586 4.957-4.957zm-6.234 4.752.896.896-1.939 3.232-2.189-2.189zm-9.845 4.156 6.585 6.586-.538.538-.394-.394c-2.073-2.072-5.173-2.709-7.895-1.62-.632.252-1.297.38-1.977.38h-1.273zm-12.415 13.585-2.586 2.586-.585-.585 2.586-2.586zm1.415 1.415 2.585 2.585-2.586 2.586-2.586-2.585zm4 4 .586.586-2.586 2.585-.586-.586zm-4.586-7.415 1.586-1.585 6.586 6.586-1.586 1.585zm3-3 1.095-1.095h3.273c.935 0 1.849-.176 2.719-.523 1.98-.79 4.231-.329 5.738 1.177l.394.394-6.633 6.633zm-10.829 24.001-.585.585c-.533.534-1.464.536-2 0l-4.586-4.585c-.267-.268-.414-.623-.414-1s.147-.733.414-1l.586-.586c.267-.268.622-.414 1-.414.377 0 .732.147 1 .415l4.585 4.585c.267.267.414.622.414 1 0 .377-.147.732-.414 1zm.415-4.415-2.586-2.585 3.586-3.586 2.586 2.585zm8.792-2.793c-.423.423-1.162.423-1.585 0l-7-7c-.212-.211-.328-.493-.328-.792s.117-.581.329-.793c.218-.219.505-.328.792-.328s.574.109.792.328l7 7c.212.212.328.494.328.793.001.299-.116.581-.328.792zm17.208-21.207-4.585-4.585 1.585-1.586 4.585 4.585z"/><path d="m58.394 42.399c-.886-.602-1.394-1.494-1.394-2.446v-35.854c0-1.512-1.077-2.827-2.504-3.059-.875-.139-1.767.103-2.439.673-.672.572-1.057 1.405-1.057 2.286v35.948c0 .956-.508 1.85-1.394 2.452-2.842 1.93-4.606 5.589-4.606 9.549 0 6.038 4.038 10.95 9 10.95s9-4.912 9-10.95c0-3.96-1.765-7.619-4.606-9.549zm-4.394 18.499c-3.86 0-7-4.015-7-8.95 0-3.307 1.429-6.332 3.729-7.895 1.422-.966 2.271-2.501 2.271-4.106v-35.948c0-.293.129-.571.353-.762.183-.155.407-.237.647-.237.058 0 .117.004.175.014.47.076.825.543.825 1.085v35.854c0 1.602.849 3.135 2.271 4.101 2.3 1.562 3.729 4.588 3.729 7.895 0 4.934-3.141 8.949-7 8.949z"/><path d="m58.982 49.352c.012-.12.018-.237.018-.352 0-2.206-1.794-4-4-4-.98 0-1.918.365-2.647 1.018-2.389-.224-4.353 1.659-4.353 3.982 0 .705.19 1.394.545 2-.355.606-.545 1.295-.545 2 0 1.596.931 2.999 2.363 3.637.638 1.433 2.041 2.363 3.637 2.363 2.206 0 4-1.794 4-4 0-.177-.012-.353-.036-.528 1.234-.697 2.036-2.015 2.036-3.472 0-.981-.365-1.918-1.018-2.648zm-2.463 4.567c-.276.074-.507.263-.634.519s-.139.554-.033.819c.098.243.148.493.148.742 0 1.103-.897 2-2 2-.881 0-1.646-.574-1.902-1.428-.097-.321-.348-.573-.669-.669-.855-.257-1.429-1.022-1.429-1.903 0-.621.283-1.066.521-1.331.343-.38.343-.958 0-1.339-.238-.263-.521-.708-.521-1.329 0-1.103.897-2 2-2 .139 0 .288.02.467.063.372.092.76-.039 1.004-.333.387-.464.944-.73 1.529-.73 1.103 0 2 .897 2 2 0 .139-.02.288-.063.468-.089.371.04.76.333 1.003.463.387.73.944.73 1.529 0 .894-.609 1.683-1.481 1.919z"/></g></g></svg>