<svg width="196" height="114" viewBox="0 0 196 114" fill="none" xmlns="http://www.w3.org/2000/svg">
<path d="M183.062 0H12.625C5.68125 0 0 5.68125 0 12.625V101C0 107.944 5.68125 113.625 12.625 113.625H183.062C190.006 113.625 195.688 107.944 195.688 101V12.625C195.688 5.68125 190.006 0 183.062 0Z" fill="#E6E9ED"/>
<path d="M176.753 25.25C178.489 25.25 179.91 26.6703 179.91 28.4062V34.7219C179.91 36.4578 178.489 37.8782 176.753 37.8782H110.466C108.73 37.8782 107.31 36.4578 107.31 34.7219V28.4062C107.31 26.6703 108.73 25.25 110.466 25.25H176.753Z" fill="#656D78"/>
<path d="M86.2876 25.8125C88.0235 25.8125 89.4438 27.2328 89.4438 28.9687V35.2844C89.4438 37.0203 88.0235 38.4407 86.2876 38.4407H20C18.2641 38.4407 16.8438 37.0203 16.8438 35.2844V28.9687C16.8438 27.2328 18.2641 25.8125 20 25.8125H86.2876Z" fill="#656D78"/>
<path d="M176.753 63.1692H110.469C108.723 63.1692 107.312 61.7583 107.312 60.0129C107.312 58.2675 108.723 56.8567 110.469 56.8567H176.753C178.499 56.8567 179.909 58.2675 179.909 60.0129C179.909 61.7583 178.499 63.1692 176.753 63.1692Z" fill="#CCD1D9"/>
<path d="M176.753 72.6379H110.469C108.723 72.6379 107.312 71.2271 107.312 69.4817C107.312 67.7363 108.723 66.3254 110.469 66.3254H176.753C178.499 66.3254 179.909 67.7363 179.909 69.4817C179.909 71.2271 178.499 72.6379 176.753 72.6379Z" fill="#CCD1D9"/>
<path d="M176.753 82.1067H110.469C108.723 82.1067 107.312 80.6958 107.312 78.9504C107.312 77.205 108.723 75.7942 110.469 75.7942H176.753C178.499 75.7942 179.909 77.205 179.909 78.9504C179.909 80.6958 178.499 82.1067 176.753 82.1067Z" fill="#CCD1D9"/>
<path d="M142 91.5754H110.469C108.723 91.5754 107.312 90.1646 107.312 88.4192C107.312 86.6738 108.723 85.2629 110.469 85.2629H142C143.745 85.2629 145.156 86.6738 145.156 88.4192C145.156 90.1646 143.745 91.5754 142 91.5754Z" fill="#CCD1D9"/>
<path d="M110.564 50.5032C108.818 50.5032 107.392 49.0923 107.392 47.3469C107.392 45.6015 108.787 44.1907 110.529 44.1907H110.564C112.306 44.1907 113.72 45.6015 113.72 47.3469C113.72 49.0923 112.306 50.5032 110.564 50.5032Z" fill="white"/>
<path d="M120.032 50.5032C118.287 50.5032 116.86 49.0923 116.86 47.3469C116.86 45.6015 118.255 44.1907 119.998 44.1907H120.032C121.775 44.1907 123.189 45.6015 123.189 47.3469C123.189 49.0923 121.775 50.5032 120.032 50.5032Z" fill="white"/>
<path d="M129.501 50.5032C127.756 50.5032 126.329 49.0923 126.329 47.3469C126.329 45.6015 127.724 44.1907 129.466 44.1907H129.501C131.243 44.1907 132.657 45.6015 132.657 47.3469C132.657 49.0923 131.243 50.5032 129.501 50.5032Z" fill="white"/>
<path d="M138.97 50.5032C137.224 50.5032 135.798 49.0923 135.798 47.3469C135.798 45.6015 137.193 44.1907 138.935 44.1907H138.97C140.712 44.1907 142.126 45.6015 142.126 47.3469C142.126 49.0923 140.712 50.5032 138.97 50.5032Z" fill="white"/>
<path d="M148.439 50.5032C146.693 50.5032 145.267 49.0923 145.267 47.3469C145.267 45.6015 146.662 44.1907 148.404 44.1907H148.439C150.181 44.1907 151.595 45.6015 151.595 47.3469C151.595 49.0923 150.181 50.5032 148.439 50.5032Z" fill="white"/>
<path d="M157.907 50.5032C156.162 50.5032 154.735 49.0923 154.735 47.3469C154.735 45.6015 156.13 44.1907 157.873 44.1907H157.907C159.65 44.1907 161.064 45.6015 161.064 47.3469C161.064 49.0923 159.65 50.5032 157.907 50.5032Z" fill="white"/>
<path d="M167.376 50.5032C165.631 50.5032 164.204 49.0923 164.204 47.3469C164.204 45.6015 165.599 44.1907 167.341 44.1907H167.376C169.118 44.1907 170.532 45.6015 170.532 47.3469C170.532 49.0923 169.118 50.5032 167.376 50.5032Z" fill="white"/>
<path d="M176.848 50.5032C175.102 50.5032 173.676 49.0923 173.676 47.3469C173.676 45.6015 175.071 44.1907 176.813 44.1907H176.848C178.59 44.1907 180.004 45.6015 180.004 47.3469C180.004 49.0923 178.59 50.5032 176.848 50.5032Z" fill="white"/>
<rect x="16.8438" y="43.8125" width="73" height="47" rx="3" fill="#CCD1D9"/>
</svg>
