<svg width="170" height="170" viewBox="0 0 170 170" fill="none" xmlns="http://www.w3.org/2000/svg">
<path d="M146.848 131.065H23.6439C22.0113 131.065 20.6875 132.389 20.6875 134.021V146.186C20.6875 147.471 21.5182 148.609 22.7424 149.001L35.1537 152.975C35.4449 153.068 35.749 153.115 36.0552 153.115H134.437C134.743 153.115 135.047 153.068 135.338 152.975L147.75 149.001C148.974 148.609 149.805 147.471 149.805 146.186V134.021C149.805 132.388 148.481 131.065 146.848 131.065Z" fill="#49BAED"/>
<path d="M35.1936 131.065H27.5771C27.5771 137.905 27.5771 144.52 27.5771 150.55L35.1531 152.975C35.166 152.98 35.18 152.981 35.1933 152.985C35.1936 146.091 35.1936 138.629 35.1936 131.065Z" fill="#2CA4CE"/>
<path d="M155.881 36.7813L155.877 36.7272C155.579 29.4955 148.462 22.7736 134.72 16.7479C124.515 12.2728 114.173 9.86195 114.068 9.83738L106.17 0.987789C105.609 0.359588 104.807 0 103.964 0H66.1307C65.2884 0 64.4862 0.359588 63.9247 0.987789L56.0264 9.83738C55.7455 9.90711 45.5618 12.4657 35.3021 17.1646C21.6065 23.437 14.5123 30.2778 14.2162 37.4971L14.2132 37.5506C14.2042 37.6837 14.1982 37.8189 14.1982 37.9583V133.236C14.1982 134.57 15.0927 135.739 16.3807 136.089L35.1942 141.193V144.616C35.1942 145.157 35.3399 145.665 35.5933 146.1V153.139C35.5933 155.584 37.5828 157.573 40.0282 157.573H40.4635L41.936 167.479C42.1515 168.928 43.3953 170 44.8605 170H125.233C126.698 170 127.942 168.927 128.157 167.478L129.629 157.573H130.464C132.909 157.573 134.899 155.584 134.899 153.139V141.193L153.713 136.089C155.001 135.74 155.895 134.571 155.895 133.236V37.1903C155.895 37.0506 155.889 36.9151 155.881 36.7813Z" fill="#527A84"/>
<path d="M155.788 36.7813L155.785 36.7272C155.486 29.4955 148.369 22.7736 134.627 16.7479C124.422 12.2728 114.08 9.86195 113.975 9.83738L106.077 0.987789C105.517 0.359588 104.714 0 103.872 0H66.0379C65.1956 0 64.3934 0.359588 63.8319 0.987789L55.9336 9.83738C55.6527 9.90711 45.469 12.4657 35.2093 17.1646C21.5137 23.437 14.4196 30.2778 14.1234 37.4971L14.1204 37.5506C14.1114 37.6837 14.1055 37.8189 14.1055 37.9583V133.236C14.1055 134.57 15 135.739 16.2879 136.089L35.1014 141.193V144.616C35.1014 145.157 35.2471 145.665 35.5005 146.1V153.139C35.5005 155.584 37.49 157.573 39.9354 157.573H40.3707L41.8433 167.479C42.0587 168.928 43.3025 170 44.7678 170H125.14C126.605 170 127.849 168.927 128.064 167.478L129.536 157.573H130.371C132.816 157.573 134.806 155.584 134.806 153.139V141.193L153.62 136.089C154.908 135.74 155.802 134.571 155.802 133.236V37.1903C155.803 37.0506 155.797 36.9151 155.788 36.7813Z" fill="#527A84"/>
<path d="M109.338 4.64244L106.077 0.987789C105.516 0.359588 104.714 0 103.871 0H94.2222L74.2705 19.953L84.1501 29.8322L109.338 4.64244Z" fill="#275D68"/>
<path d="M41.6897 167.478C41.9055 168.927 43.149 169.999 44.6142 169.999H84.8001H84.8008H125.356C126.821 169.999 128.065 168.927 128.28 167.478L129.752 157.573H40.2168L41.6897 167.478Z" fill="#49BAED"/>
<path d="M49.762 167.478L48.2898 157.573H40.2168L41.689 167.478C41.9048 168.927 43.1483 169.999 44.6135 169.999H52.6865C51.2219 169.999 49.9778 168.927 49.762 167.478Z" fill="#2CA4CE"/>
<path d="M114.193 157.571H56.2969V169.997H114.193V157.571Z" fill="#527A84"/>
<path d="M39.5521 112.478H39.9678H129.988H130.404C132.853 112.478 134.839 110.492 134.839 108.043V94.3644C134.839 91.9153 132.854 89.9294 130.404 89.9294H129.988H39.9678H39.5521C37.1031 89.9294 35.1172 91.915 35.1172 94.3644V108.043C35.1172 110.492 37.1034 112.478 39.5521 112.478Z" fill="#78A1A8"/>
<path d="M39.5521 67.3819H39.9678H129.988H130.404C132.853 67.3819 134.839 65.3964 134.839 62.947V49.2687C134.839 46.8196 132.854 44.8337 130.404 44.8337H129.988H39.9678H39.5521C37.1031 44.8337 35.1172 46.8193 35.1172 49.2687V62.947C35.1172 65.3964 37.1034 67.3819 39.5521 67.3819Z" fill="#78A1A8"/>
<path d="M130.786 135.025H130.37H39.9857H39.57C37.111 135.025 35.1172 137.011 35.1172 139.46V153.138C35.1172 155.587 37.111 157.573 39.57 157.573H39.9857H130.37H130.785C133.244 157.573 135.238 155.588 135.238 153.138V139.46C135.238 137.011 133.245 135.025 130.786 135.025Z" fill="#78A1A8"/>
<path d="M130.404 89.9294H129.988H39.9678H39.5521C37.1031 89.9294 35.1172 91.915 35.1172 94.3644V100.528C35.1172 102.977 37.1027 104.963 39.5521 104.963H39.9678H129.988H130.404C132.853 104.963 134.839 102.977 134.839 100.528V94.3644C134.839 91.915 132.853 89.9294 130.404 89.9294Z" fill="#88B3B7"/>
<path d="M130.404 44.834H129.988H39.9678H39.5521C37.1031 44.834 35.1172 46.8195 35.1172 49.2689V55.4324C35.1172 57.8814 37.1027 59.8673 39.5521 59.8673H39.9678H129.988H130.404C132.853 59.8673 134.839 57.8818 134.839 55.4324V49.2689C134.839 46.8195 132.853 44.834 130.404 44.834Z" fill="#88B3B7"/>
<path d="M130.786 135.025H130.37H39.9857H39.57C37.111 135.025 35.1172 137.011 35.1172 139.46V145.623C35.1172 148.072 37.111 150.058 39.57 150.058H39.9857H130.37H130.785C133.244 150.058 135.238 148.073 135.238 145.623V139.46C135.238 137.011 133.245 135.025 130.786 135.025Z" fill="#88B3B7"/>
<path d="M87.819 169.999V164.247V162.965V29.2354C87.819 27.7044 86.5785 26.4636 85.0472 26.4636C83.5162 26.4636 82.2754 27.7041 82.2754 29.2354V162.965V164.247V169.999H87.819Z" fill="#3C6268"/>
<path d="M155.877 36.7277C155.78 34.3733 154.955 32.0726 153.419 29.8328C146.724 31.1735 134.899 35.4899 134.899 49.2691C134.899 62.0128 134.899 110.185 134.899 141.193L153.713 136.089C155.001 135.74 155.895 134.57 155.895 133.236V37.1905C155.895 37.0508 155.889 36.9153 155.88 36.7818L155.877 36.7277Z" fill="#3C6268"/>
<path d="M16.381 136.089L35.1945 141.193C35.1945 110.184 35.1945 62.0124 35.1945 49.2688C35.1945 35.7365 23.7926 31.3332 17.0431 29.9094C15.5386 31.9401 14.6083 34.009 14.2656 36.1117C14.2461 36.3166 14.2255 36.5211 14.2165 36.727L14.2132 36.7811C14.2042 36.9146 14.1982 37.0504 14.1982 37.1898V133.235C14.1986 134.57 15.0931 135.739 16.381 136.089Z" fill="#3C6268"/>
<path d="M25.7988 33.1206C26.9058 35.4123 27.5772 38.1475 27.5772 41.4204C27.5772 45.3748 27.5772 52.7429 27.5772 61.9488C27.5772 82.4098 27.5772 111.958 27.5772 133.344C27.5772 135.295 27.5772 137.223 27.5772 139.126L35.1936 141.193C35.1936 110.185 35.1936 62.0129 35.1936 49.2692C35.1933 40.8383 30.7677 35.9515 25.7988 33.1206Z" fill="#335659"/>
<path d="M134.899 131.065H142.516C142.516 137.905 142.516 144.52 142.516 150.55L134.94 152.975C134.927 152.98 134.913 152.981 134.9 152.985C134.899 146.091 134.899 138.629 134.899 131.065Z" fill="#2CA4CE"/>
<path d="M144.293 33.1206C143.186 35.4123 142.515 38.1475 142.515 41.4204C142.515 45.3748 142.515 52.7429 142.515 61.9488C142.515 82.4098 142.515 111.958 142.515 133.344C142.515 135.295 142.515 137.223 142.515 139.126L134.898 141.193C134.898 110.185 134.898 62.0129 134.898 49.2692C134.899 40.8383 139.324 35.9515 144.293 33.1206Z" fill="#335659"/>
<path d="M84.9976 38.5507L87.0146 22.0744L65.0841 0.1604C64.6076 0.322763 64.175 0.604656 63.8327 0.987819L56.0127 9.74943L84.9976 38.5507Z" fill="#39AED8"/>
<path d="M113.919 9.77524L106.077 0.987731C105.772 0.645408 105.393 0.386757 104.977 0.21875L84.9541 20.0366V38.5509L113.925 9.83766L113.919 9.77524Z" fill="#49BAED"/>
</svg>
