<svg width="167" height="167" viewBox="0 0 167 167" fill="none" xmlns="http://www.w3.org/2000/svg">
<g filter="url(#filter0_d)">
<path d="M75.3167 67.7458L94.8746 87.3037L74.0026 108.176C73.1645 109.014 71.9515 109.357 70.7984 109.083C69.6453 108.809 68.4322 109.152 67.5941 109.99L57.544 120.04C57.3581 120.226 57.1453 120.383 56.9127 120.505L46.0193 126.224C45.5465 126.472 45.1615 126.859 44.916 127.334L39.6071 137.604C39.348 138.105 38.9328 138.509 38.4246 138.754L30.0591 142.789C29.617 143.002 29.244 143.336 28.9833 143.752L21.346 155.944C21.0342 156.442 20.5156 156.774 19.933 156.848L6.21026 158.604C4.93724 158.767 3.85333 157.683 4.01628 156.41L5.77211 142.687C5.84654 142.105 6.17847 141.586 6.67617 141.274L18.868 133.637C19.284 133.376 19.6183 133.003 19.8316 132.561L23.8663 124.196C24.1113 123.688 24.5153 123.272 25.0166 123.013L35.2868 117.704C35.7611 117.459 36.1486 117.074 36.3968 116.601L42.1157 105.708C42.2377 105.475 42.3946 105.262 42.58 105.076L52.6302 95.0263C53.4683 94.1882 53.8119 92.9752 53.5375 91.8221C53.2631 90.6689 53.6063 89.4559 54.4447 88.6178L75.3167 67.7458Z" fill="#E1EFFB"/>
<path d="M84.5067 76.9358L4.48633 157.948C4.53662 158.005 4.59053 158.06 4.64726 158.111C4.64927 158.113 4.65169 158.115 4.6537 158.117C4.70762 158.166 4.76435 158.211 4.82349 158.254C4.82953 158.258 4.83516 158.262 4.84119 158.266C4.89631 158.305 4.95425 158.341 5.0134 158.374C5.02386 158.38 5.03432 158.386 5.04478 158.391C5.0999 158.421 5.15703 158.447 5.21537 158.471C5.23066 158.477 5.24555 158.484 5.26124 158.49C5.31555 158.511 5.37188 158.529 5.42821 158.545C5.44833 158.551 5.46764 158.558 5.48776 158.562C5.54167 158.576 5.59719 158.585 5.65272 158.594C5.67605 158.598 5.69899 158.603 5.72233 158.606C5.77906 158.613 5.83659 158.615 5.89493 158.617C5.91786 158.617 5.94039 158.62 5.96373 158.62C6.0446 158.62 6.12708 158.615 6.20996 158.605L19.9331 156.848C20.5157 156.774 21.0343 156.442 21.3461 155.944L28.9834 143.752C29.2441 143.336 29.6171 143.002 30.0592 142.789L38.4248 138.754C38.9329 138.509 39.3481 138.106 39.6073 137.604L44.9162 127.334C45.1612 126.859 45.5466 126.472 46.0194 126.224L56.9128 120.505C57.1454 120.382 57.3582 120.226 57.5441 120.04L67.5942 109.99C68.4323 109.152 69.6454 108.809 70.7985 109.083C71.9516 109.357 73.1647 109.014 74.0027 108.176L94.8747 87.3038L84.5067 76.9358Z" fill="#CCDFED"/>
<path d="M101.579 7.03481L69.0624 49.066C63.465 56.3009 64.1176 66.5687 70.5856 73.0368L89.5839 92.035C96.0519 98.5031 106.32 99.1557 113.555 93.5583L155.586 61.0413C164.224 54.3588 165.034 41.6114 157.311 33.8892L128.731 5.30917C121.009 -2.41341 108.262 -1.60309 101.579 7.03481ZM119.766 18.3121L144.308 42.8542C146.626 45.1729 146.626 48.9316 144.308 51.2503C141.989 53.5686 138.231 53.5686 135.912 51.2503L111.37 26.7082C109.052 24.3899 109.052 20.6308 111.37 18.3121C113.689 15.9934 117.448 15.9934 119.766 18.3121Z" fill="#2C5871"/>
<path d="M157.312 33.8891L144.336 20.9139C151.01 27.588 151.306 38.0123 145.688 45.034C146.445 47.1318 145.99 49.5688 144.308 51.2502C142.388 53.1706 139.481 53.4953 137.222 52.2343L100.579 80.5826C93.3444 86.18 83.0766 85.5274 76.6085 79.0593L70.5854 73.0363C70.5859 73.0367 70.5858 73.0367 70.5862 73.0371L89.5845 92.0353C96.0525 98.5034 106.32 99.156 113.555 93.5586L155.586 61.0416C164.224 54.3587 165.034 41.6113 157.312 33.8891Z" fill="#1D4859"/>
<path d="M128.731 5.30911L134.007 10.5854L123.023 21.5694L119.766 18.312C118.654 17.1999 117.211 16.6274 115.754 16.5819L103.809 4.63679C110.817 -1.67517 121.798 -1.62407 128.731 5.30911Z" fill="#2C5871"/>
</g>
<defs>
<filter id="filter0_d" x="0" y="0" width="166.621" height="166.62" filterUnits="userSpaceOnUse" color-interpolation-filters="sRGB">
<feFlood flood-opacity="0" result="BackgroundImageFix"/>
<feColorMatrix in="SourceAlpha" type="matrix" values="0 0 0 0 0 0 0 0 0 0 0 0 0 0 0 0 0 0 127 0"/>
<feOffset dy="4"/>
<feGaussianBlur stdDeviation="2"/>
<feColorMatrix type="matrix" values="0 0 0 0 0 0 0 0 0 0 0 0 0 0 0 0 0 0 0.25 0"/>
<feBlend mode="normal" in2="BackgroundImageFix" result="effect1_dropShadow"/>
<feBlend mode="normal" in="SourceGraphic" in2="effect1_dropShadow" result="shape"/>
</filter>
</defs>
</svg>
