<svg width="157" height="157" viewBox="0 0 157 157" fill="none" xmlns="http://www.w3.org/2000/svg">
<path d="M115.732 13.5833L105.647 7.50726C105.272 7.28157 104.843 7.1626 104.407 7.1626H59.1732C58.8797 7.1626 58.5878 7.21657 58.3136 7.32174L41.664 13.702C40.6938 14.0736 40.0726 15.0267 40.1241 16.065L46.9894 154.716C47.0529 155.995 48.1087 156.999 49.3895 156.999H69.5732C70.8411 156.999 71.891 156.014 71.9711 154.748L78.3581 53.862H78.643L85.0297 154.748C85.1097 156.014 86.1599 156.999 87.4276 156.999H107.611C108.892 156.999 109.948 155.995 110.011 154.716L116.892 15.7608C116.936 14.877 116.49 14.0405 115.732 13.5833Z" fill="#49BAED"/>
<path d="M54.1418 154.716L47.618 22.9643L47.1902 14.3253V11.5842L41.663 13.7022C40.6928 14.0738 40.0716 15.0269 40.1231 16.0652L40.3564 20.7773L40.4647 22.9646L46.9885 154.716C47.0519 155.995 48.1077 157 49.3885 157H56.5418C55.261 157 54.2052 155.995 54.1418 154.716Z" fill="#2CA4CE"/>
<path d="M116.027 33.2418C94.3585 33.2418 96.3581 14.3252 96.3581 14.3252H116.963L116.027 33.2418Z" fill="#0D8AB0"/>
<path d="M40.9746 33.2418C62.6424 33.2418 60.9632 14.3252 60.9632 14.3252H40.0381L40.9746 33.2418Z" fill="#0D8AB0"/>
<path d="M85.6469 12.1489H80.5607C79.4233 12.1489 78.501 13.0713 78.501 14.2086V39.6322C78.501 40.3491 78.8735 41.0139 79.4847 41.3886C79.814 41.5904 80.1872 41.6922 80.561 41.6922C80.8814 41.6922 81.2015 41.6177 81.4965 41.4677L86.5828 38.8754C87.2727 38.524 87.7072 37.8147 87.7072 37.0401V14.2086C87.7069 13.071 86.7842 12.1489 85.6469 12.1489Z" fill="#60CEF4"/>
<path d="M112.253 0H44.7468C42.1459 0 40.0371 2.10876 40.0371 4.70968V6.37781V8.04593V14.3253H44.7468H112.253H116.962V8.04624V6.37811V4.70999C116.962 2.10876 114.854 0 112.253 0Z" fill="#9BCBDD"/>
<path d="M116.963 6.37781V4.70968C116.963 2.10876 114.854 0 112.253 0H75.7529V14.3256H112.253H116.963V8.04624V6.37781Z" fill="#B7DFF7"/>
<path d="M101.679 0H96.5293V14.3256H101.679V0Z" fill="#9BCBDD"/>
<path d="M60.4687 0H55.3193V14.3256H60.4687V0Z" fill="#86B5C4"/>
<path d="M83.0788 9.73687C82.4023 9.73687 81.7366 9.46212 81.2592 8.98499C80.779 8.50479 80.5039 7.84214 80.5039 7.16201C80.5039 6.48557 80.779 5.81985 81.2592 5.34241C81.7397 4.86191 82.4023 4.58716 83.0788 4.58716C83.7589 4.58716 84.4209 4.86191 84.8987 5.34241C85.3789 5.81954 85.6536 6.48557 85.6536 7.16201C85.6536 7.84184 85.3789 8.50418 84.8987 8.98499C84.4212 9.46243 83.7589 9.73687 83.0788 9.73687Z" fill="#FFB76D"/>
<path d="M47.1904 14.3256V8.04624V6.37811V4.70999C47.1904 2.10876 49.2992 0 51.9001 0H44.7468C42.1459 0 40.0371 2.10876 40.0371 4.70968V6.37781V8.04593V14.3253H44.7468H47.1904V14.3256Z" fill="#86B5C4"/>
<path d="M40.6065 25.8292L40.9736 33.2416C43.6969 33.2416 46.0506 32.9426 48.0864 32.4198L47.6182 22.9639L47.1904 14.325H40.0371L40.4649 22.9639L40.6065 25.8292Z" fill="#097993"/>
</svg>
