<?xml version="1.0" encoding="utf-8"?>
<!-- Generator: Adobe Illustrator 24.2.1, SVG Export Plug-In . SVG Version: 6.00 Build 0)  -->
<svg version="1.1" id="Layer_1" xmlns="http://www.w3.org/2000/svg" xmlns:xlink="http://www.w3.org/1999/xlink" x="0px" y="0px"
	 viewBox="0 0 149 173" style="enable-background:new 0 0 149 173;" xml:space="preserve">
<style type="text/css">
	.st0{fill:#2C3E50;}
	.st1{fill:#E64C3C;}
	.st2{fill:#FFF6E9;}
	.st3{fill:none;stroke:#CD8322;stroke-width:2;stroke-miterlimit:10;}
	.st4{fill:#00001A;}
	.st5{fill:url(#SVGID_1_);}
	.st6{fill:url(#SVGID_2_);}
	.st7{fill:url(#SVGID_3_);}
	.st8{fill:url(#SVGID_4_);}
	.st9{fill:url(#SVGID_5_);}
	.st10{fill:url(#SVGID_6_);}
	.st11{fill:url(#SVGID_7_);}
	.st12{fill:url(#SVGID_8_);}
	.st13{fill:url(#SVGID_9_);}
	.st14{fill:url(#SVGID_10_);}
	.st15{fill:url(#SVGID_11_);}
	.st16{fill:url(#SVGID_12_);}
	.st17{fill:url(#SVGID_13_);}
	.st18{fill:url(#SVGID_14_);}
	.st19{fill:url(#SVGID_15_);}
	.st20{fill:url(#SVGID_16_);}
	.st21{fill:url(#SVGID_17_);}
	.st22{fill:url(#SVGID_18_);}
	.st23{fill:none;stroke:#D4000B;stroke-width:2;stroke-miterlimit:10;}
	.st24{fill:none;stroke:#D4000B;stroke-miterlimit:10;}
	.st25{fill:none;stroke:#00E9D9;stroke-width:1.5;stroke-miterlimit:10;}
	.st26{fill:#00E9D9;}
	.st27{fill:none;stroke:#33FF00;stroke-linecap:round;stroke-linejoin:round;stroke-miterlimit:10;}
	.st28{fill:#D4000B;}
	.st29{fill:none;stroke:#D4000B;stroke-width:1.5;stroke-miterlimit:10;}
	.st30{fill:none;stroke:#D4000B;stroke-width:1.5;stroke-linecap:round;stroke-linejoin:round;stroke-miterlimit:10;}
	.st31{fill:none;stroke:#00E9D9;stroke-width:1.5;stroke-linecap:round;stroke-linejoin:round;stroke-miterlimit:10;}
	.st32{fill:none;stroke:#00E9D9;stroke-linecap:round;stroke-miterlimit:10;}
	.st33{fill:none;stroke:#D4000B;stroke-linecap:round;stroke-miterlimit:10;}
	.st34{fill:none;stroke:#D4000B;stroke-linecap:round;stroke-linejoin:round;stroke-miterlimit:10;}
	.st35{fill:none;stroke:#00E9D9;stroke-miterlimit:10;}
	.st36{fill:none;stroke:#D4000B;stroke-linejoin:round;stroke-miterlimit:10;}
	.st37{fill:#D71920;}
	.st38{fill:#ED1C24;}
	.st39{fill:#CB2027;}
	.st40{fill:#F48072;}
	.st41{fill:#333333;}
	.st42{fill:#4D4D4D;}
	.st43{fill:#F15A24;}
	.st44{fill:#FBB03B;}
	.st45{fill:#999999;}
	.st46{fill:#B3B3B3;}
</style>
<g>
	<g>
		<g>
			<path class="st37" d="M98.3,169.6H50.5c-0.6,0-1-0.4-1-1V44.6c0-0.6,0.4-1,1-1h47.7c0.6,0,1,0.4,1,1v123.9
				C99.3,169.1,98.8,169.6,98.3,169.6z"/>
			<path class="st38" d="M99.3,43.6H49.9c-0.8,0-1.5-0.7-1.5-1.5v-0.5c0-0.8,0.7-1.5,1.5-1.5h49.4c0.8,0,1.5,0.7,1.5,1.5v0.5
				C100.8,43,100.1,43.6,99.3,43.6z"/>
			<path class="st39" d="M99.1,173H49.7c-0.8,0-1.5-0.7-1.5-1.5V171c0-0.8,0.7-1.5,1.5-1.5h49.4c0.8,0,1.5,0.7,1.5,1.5v0.5
				C100.6,172.3,99.9,173,99.1,173z"/>
		</g>
		<path class="st38" d="M99.3,47.4H70.5c0,0-15-3.3-15,22.2s0,86.3,0,86.3s-2.9,9.9,9.4,10.6s34.3,2.1,34.3,2.1V47.4z"/>
		<path class="st40" d="M91.7,161.1H91c-1.1,0-2-0.9-2-2V54.3c0-1.1,0.9-2,2-2h0.7c1.1,0,2,0.9,2,2v104.8
			C93.8,160.2,92.8,161.1,91.7,161.1z"/>
	</g>
	<g>
		<circle class="st41" cx="70.6" cy="20.8" r="8.6"/>
		<circle class="st42" cx="70.6" cy="20.8" r="7.4"/>
		<g>
			<path class="st43" d="M91.1,23.4c0,0,2.9-3.6,3.1-5.2c0.2-1.6,0.4-2.6-0.5-4.9s-3-6.2-3-8.5s0-4.2,0.5-4.8s-4.1,2.8-4.7,3.8
				s-2.7,3.4-1.9,6.3s1.8,4.6,2.2,6.3s1.7,5.1,1.2,6.4C87.7,24.3,91.1,23.4,91.1,23.4z"/>
			<path class="st44" d="M88.9,22.3c0,0,0-3.9-0.7-6s-1-5.6-0.3-7.8c0,0,0.2,3.3,1.5,6.1c1.3,2.8,1.7,5.2,1.7,7.7
				S88.9,22.3,88.9,22.3z"/>
		</g>
		<path class="st45" d="M98.9,40.3V24.1c0,0,0.5-1.2-1-1.2S78.4,22,70.1,17.1c0,0-2.8-1.3-2.9,3c-0.1,4.3,0,20.2,0,20.2H98.9z"/>
		<circle class="st41" cx="70.6" cy="20.8" r="1.5"/>
		<polygon class="st46" points="82.3,21.1 82.3,40.3 86.6,40.3 86.6,21.8 		"/>
		<polygon class="st42" points="48.6,28.2 48.6,32.8 51.6,32.8 67.1,32.8 67.1,29.3 		"/>
		<polygon class="st42" points="51.6,40.3 51.6,34.6 67.1,34.6 67.2,40.3 		"/>
		<rect x="51.6" y="32.8" class="st41" width="15.5" height="1.8"/>
	</g>
</g>
</svg>
