<svg width="181" height="181" viewBox="0 0 181 181" fill="none" xmlns="http://www.w3.org/2000/svg">
<path d="M162.844 24.125H12.0625C5.40098 24.125 0 29.526 0 36.1875C0 42.849 5.40098 48.25 12.0625 48.25H18.0938V156.812H168.875C175.537 156.812 180.938 151.412 180.938 144.75C180.938 138.088 175.537 132.688 168.875 132.688H162.844V24.125Z" fill="#976947"/>
<path d="M142.69 156.812C144.029 150.471 144.75 143.921 144.75 137.211C144.75 81.4158 96.144 36.1875 36.1873 36.1875C23.9801 36.1875 12.2583 38.0904 1.30859 41.5463C3.28684 45.5058 7.33683 48.25 12.0623 48.25H18.0936V156.812H142.69Z" fill="#C18E59"/>
<path d="M0 36.1875V168.875C0 175.537 5.40098 180.938 12.0625 180.938H18.0938V48.25H12.0625C5.40098 48.25 0 42.849 0 36.1875Z" fill="#976947"/>
<path d="M180.938 144.75V12.0625C180.938 5.40098 175.537 0 168.875 0H162.844V132.688H168.875C175.537 132.688 180.938 138.088 180.938 144.75Z" fill="#C18E59"/>
<path d="M36.1875 42.2188L57.2969 51.2656L36.1875 60.3125" fill="#4472B2"/>
<path d="M30.1562 132.688L36.1875 126.656V111.578H45.2344L54.2812 105.547L60.3125 111.578L57.2969 123.641L69.3594 132.688L60.3125 141.734L42.2188 144.75L30.1562 132.688Z" fill="#8BD2F5"/>
<path d="M141.734 132.688L135.703 126.656L123.641 132.688L117.609 138.719L126.656 144.75H144.75L141.734 132.688Z" fill="#8BD2F5"/>
<path d="M162.844 120.625L147.766 117.609L138.719 105.547V99.5156H123.641L120.625 81.4219L108.562 66.3438L117.609 57.2969L102.531 45.2344L111.578 39.2031L114.594 24.125H162.844V120.625Z" fill="#669E4F"/>
<path d="M111.578 39.2031L102.531 45.2344L117.609 57.2969L108.562 66.3438L120.625 81.4219L122.238 91.102C140.54 84.6787 153.797 65.9065 153.797 43.7266C153.797 36.7635 152.482 30.1412 150.124 24.125H114.594L111.578 39.2031Z" fill="#78B75B"/>
<path d="M93.4844 135.703C92.9838 135.703 92.4862 135.579 92.0399 135.332C91.2257 134.892 90.6648 134.096 90.511 133.182L87.4953 115.088C87.3807 114.404 87.5074 113.701 87.8512 113.098L99.0361 93.5236L91.3493 80.7102L76.7386 73.4064L72.0553 82.7699C71.5457 83.7922 70.5023 84.4375 69.3594 84.4375H51.2656V78.4063H67.4957L72.6947 68.0114C73.4425 66.5217 75.2549 65.9186 76.7416 66.6634L94.8354 75.7103C95.348 75.9666 95.7763 76.3647 96.0718 76.8562L105.119 91.9344C105.683 92.8692 105.692 94.0332 105.152 94.9832L93.6231 115.158L95.8305 128.405L113.409 120.872C114.542 120.387 115.857 120.64 116.729 121.512L125.776 130.558L121.512 134.823L113.909 127.22L94.6755 135.462C94.2926 135.625 93.8885 135.703 93.4844 135.703Z" fill="#976947"/>
<path d="M39.2031 72.9299V33.1719H33.1719V72.9299C29.6707 74.1783 27.1406 77.4955 27.1406 81.4219C27.1406 86.4097 31.1997 90.4688 36.1875 90.4688C41.1753 90.4688 45.2344 86.4097 45.2344 81.4219C45.2344 77.4955 42.7043 74.1783 39.2031 72.9299ZM36.1875 84.4375C34.5229 84.4375 33.1719 83.0835 33.1719 81.4219C33.1719 79.7603 34.5229 78.4062 36.1875 78.4062C37.8521 78.4062 39.2031 79.7603 39.2031 81.4219C39.2031 83.0835 37.8521 84.4375 36.1875 84.4375Z" fill="#976947"/>
</svg>
