<svg width="157" height="157" viewBox="0 0 157 157" fill="none" xmlns="http://www.w3.org/2000/svg">
<path d="M152.4 64.6897H142.895C140.352 64.6897 138.295 62.6324 138.295 60.0901C138.295 57.5477 140.352 55.4905 142.895 55.4905H152.4C154.943 55.4905 157 57.5477 157 60.0901C157 62.6324 154.943 64.6897 152.4 64.6897Z" fill="#CE7937"/>
<path d="M14.1055 64.6897H4.59961C2.05725 64.6897 0 62.6324 0 60.0901C0 57.5477 2.05725 55.4905 4.59961 55.4905H14.1055C16.6478 55.4905 18.7051 57.5477 18.7051 60.0901C18.7051 62.6324 16.6478 64.6897 14.1055 64.6897Z" fill="#E6974A"/>
<path d="M145.194 0.632652C143.814 -0.195584 142.066 -0.195584 140.595 0.632652C121.46 11.5797 100.026 17.0989 78.5 17.0989C56.9735 17.0989 35.54 11.5797 16.4053 0.632652C14.9337 -0.195584 13.1859 -0.195584 11.8057 0.632652C10.3341 1.46027 9.50586 2.93246 9.50586 4.58832V66.7134C9.50586 108.202 37.3798 145.398 77.2121 156.804C77.6721 156.896 78.0403 156.989 78.5 156.989C78.9597 156.989 79.3282 156.897 79.7879 156.804C119.62 145.397 147.494 108.202 147.494 66.7134V4.58832C147.494 2.93246 146.575 1.46027 145.194 0.632652Z" fill="#FDDA41"/>
<path d="M147.494 4.58825V66.7133C147.494 108.202 119.62 145.398 79.7879 156.804C79.3279 156.896 78.9597 156.989 78.5 156.989V17.0992C100.026 17.0992 121.46 11.58 140.595 0.632896C142.066 -0.19534 143.814 -0.19534 145.194 0.632896C146.575 1.46021 147.494 2.93239 147.494 4.58825Z" fill="#FBBE29"/>
<path d="M87.6992 101.486C90.2395 101.486 92.2988 99.4265 92.2988 96.8862C92.2988 94.3459 90.2395 92.2866 87.6992 92.2866C85.1589 92.2866 83.0996 94.3459 83.0996 96.8862C83.0996 99.4265 85.1589 101.486 87.6992 101.486Z" fill="#404040"/>
<path d="M69.3008 101.486C71.8411 101.486 73.9004 99.4265 73.9004 96.8862C73.9004 94.3459 71.8411 92.2866 69.3008 92.2866C66.7605 92.2866 64.7012 94.3459 64.7012 96.8862C64.7012 99.4265 66.7605 101.486 69.3008 101.486Z" fill="#606060"/>
<path d="M96.8984 83.0881H87.6992C85.1569 83.0881 83.0996 81.0309 83.0996 78.4885C83.0996 60.7368 97.5451 46.2913 115.297 46.2913H124.496C127.038 46.2913 129.096 48.3485 129.096 50.8909C129.096 68.6423 114.65 83.0881 96.8984 83.0881Z" fill="#404040"/>
<path d="M69.3008 83.0881H60.1016C42.3498 83.0881 27.9043 68.6426 27.9043 50.8909C27.9043 48.3485 29.9615 46.2913 32.5039 46.2913H41.7031C59.4549 46.2913 73.9004 60.7368 73.9004 78.4885C73.9004 81.0309 71.8431 83.0881 69.3008 83.0881Z" fill="#606060"/>
<path d="M101.498 115.285C101.498 117.861 99.4745 119.885 96.8984 119.885H60.1016C57.5255 119.885 55.502 117.861 55.502 115.285C55.502 112.709 57.5255 110.686 60.1016 110.686H96.8984C99.4745 110.686 101.498 112.709 101.498 115.285Z" fill="#606060"/>
<path d="M101.498 115.285C101.498 117.861 99.4745 119.885 96.8984 119.885H78.5V110.686H96.8984C99.4745 110.686 101.498 112.709 101.498 115.285Z" fill="#404040"/>
</svg>
