<?xml version="1.0" encoding="utf-8"?>
<!-- Generator: Adobe Illustrator 24.2.1, SVG Export Plug-In . SVG Version: 6.00 Build 0)  -->
<svg version="1.1" id="Layer_1" xmlns="http://www.w3.org/2000/svg" xmlns:xlink="http://www.w3.org/1999/xlink" x="0px" y="0px"
	 viewBox="0 0 149 173" style="enable-background:new 0 0 149 173;" xml:space="preserve">
<style type="text/css">
	.st0{fill:#2C3E50;}
	.st1{fill:#E64C3C;}
	.st2{fill:#FFF6E9;}
	.st3{fill:none;stroke:#CD8322;stroke-width:2;stroke-miterlimit:10;}
	.st4{fill:#00001A;}
	.st5{fill:url(#SVGID_1_);}
	.st6{fill:url(#SVGID_2_);}
	.st7{fill:url(#SVGID_3_);}
	.st8{fill:url(#SVGID_4_);}
	.st9{fill:url(#SVGID_5_);}
	.st10{fill:url(#SVGID_6_);}
	.st11{fill:url(#SVGID_7_);}
	.st12{fill:url(#SVGID_8_);}
	.st13{fill:url(#SVGID_9_);}
	.st14{fill:url(#SVGID_10_);}
	.st15{fill:url(#SVGID_11_);}
	.st16{fill:url(#SVGID_12_);}
	.st17{fill:url(#SVGID_13_);}
	.st18{fill:url(#SVGID_14_);}
	.st19{fill:url(#SVGID_15_);}
	.st20{fill:url(#SVGID_16_);}
	.st21{fill:url(#SVGID_17_);}
	.st22{fill:url(#SVGID_18_);}
	.st23{fill:none;stroke:#D4000B;stroke-width:2;stroke-miterlimit:10;}
	.st24{fill:none;stroke:#D4000B;stroke-miterlimit:10;}
	.st25{fill:none;stroke:#00E9D9;stroke-width:1.5;stroke-miterlimit:10;}
	.st26{fill:#00E9D9;}
	.st27{fill:none;stroke:#33FF00;stroke-linecap:round;stroke-linejoin:round;stroke-miterlimit:10;}
	.st28{fill:#D4000B;}
	.st29{fill:none;stroke:#D4000B;stroke-width:1.5;stroke-miterlimit:10;}
	.st30{fill:none;stroke:#D4000B;stroke-width:1.5;stroke-linecap:round;stroke-linejoin:round;stroke-miterlimit:10;}
	.st31{fill:none;stroke:#00E9D9;stroke-width:1.5;stroke-linecap:round;stroke-linejoin:round;stroke-miterlimit:10;}
	.st32{fill:none;stroke:#00E9D9;stroke-linecap:round;stroke-miterlimit:10;}
	.st33{fill:none;stroke:#D4000B;stroke-linecap:round;stroke-miterlimit:10;}
	.st34{fill:none;stroke:#D4000B;stroke-linecap:round;stroke-linejoin:round;stroke-miterlimit:10;}
	.st35{fill:none;stroke:#00E9D9;stroke-miterlimit:10;}
	.st36{fill:none;stroke:#D4000B;stroke-linejoin:round;stroke-miterlimit:10;}
	.st37{fill:#D71920;}
	.st38{fill:#ED1C24;}
	.st39{fill:#CB2027;}
	.st40{fill:#F48072;}
	.st41{fill:#333333;}
	.st42{fill:#4D4D4D;}
	.st43{fill:#F15A24;}
	.st44{fill:#FBB03B;}
	.st45{fill:#999999;}
	.st46{fill:#B3B3B3;}
	.st47{fill:#D90033;}
	.st48{opacity:0.75;fill:#353535;}
	.st49{fill:#00823D;}
	.st50{fill:#FF7A00;}
	.st51{opacity:0.25;fill:#FFFFFF;}
	.st52{fill:#BB1997;}
	.st53{opacity:0.75;}
	.st54{fill:#353535;}
	.st55{fill:#00713A;}
	.st56{fill:#00A992;}
	.st57{fill:#729600;}
	.st58{fill:#C69C6D;}
	.st59{fill:none;stroke:#4F342D;stroke-width:5;stroke-miterlimit:10;}
	.st60{fill:#4F342D;}
	.st61{fill-rule:evenodd;clip-rule:evenodd;fill:#342D2A;}
	.st62{fill-rule:evenodd;clip-rule:evenodd;fill:#7D706A;}
	.st63{fill-rule:evenodd;clip-rule:evenodd;fill:#4D4441;}
	.st64{fill-rule:evenodd;clip-rule:evenodd;fill:#747A50;}
	.st65{fill-rule:evenodd;clip-rule:evenodd;fill:#878E63;}
	.st66{fill-rule:evenodd;clip-rule:evenodd;fill:#978A85;}
	.st67{fill-rule:evenodd;clip-rule:evenodd;fill:#D5CAC6;}
	.st68{fill-rule:evenodd;clip-rule:evenodd;fill:#4E4E4E;}
	.st69{fill-rule:evenodd;clip-rule:evenodd;fill:#676767;}
	.st70{fill-rule:evenodd;clip-rule:evenodd;fill:#808080;}
	.st71{fill-rule:evenodd;clip-rule:evenodd;fill:#989897;}
	.st72{fill-rule:evenodd;clip-rule:evenodd;fill:#1A1A1A;}
	.st73{fill-rule:evenodd;clip-rule:evenodd;fill:#CDCCCB;}
	.st74{fill-rule:evenodd;clip-rule:evenodd;fill:#DBDBDA;}
	.st75{fill-rule:evenodd;clip-rule:evenodd;fill:#B3B2B3;}
	.st76{fill-rule:evenodd;clip-rule:evenodd;fill:#767676;}
</style>
<g>
	<g>
		<path class="st68" d="M99,62.2l11.6,5l-7.9,18L92,80.6c-2.6-1.1-4.4-3.2-5.3-6.2c-0.8-2.7-2.5-4.7-4.9-5.9L37.3,46.8l-4.1-0.2
			c-1.1-0.1-2-0.6-2.6-1.7L30,43.9c-0.8-1.4-2.3-2-3.9-1.5l-0.6,0.2l-0.1-0.8c-0.1-0.8,0.4-1.5,1-1.8l1.5-0.6c1.6-0.6,3.2-0.1,4,1.4
			l0.3,0.5c0.8,1.3,2.1,1.9,3.6,1.5l3.6-1l47,18.2c2,0.8,3.9,1.1,6,1C94.8,60.9,96.9,61.3,99,62.2z"/>
		<path class="st69" d="M102.9,62.3l12,9.5l-12.7,16L91.1,79c-2.7-2.2-4.3-5-4.7-8.4c-0.4-3.2-1.8-5.9-4.3-8L58.4,42.3
			c-0.5-0.4-1.2-0.6-1.8-0.4l-3.5,0.8c-1,0.2-1.9-0.3-2.4-1.2l-0.3-0.8c-0.4-0.9-1.3-1.4-2.3-1.2l-0.1,0c-0.6,0.1-1.2,0-1.7-0.5
			c-0.5-0.4-0.7-1-0.7-1.7l0.1-1.6c0.1-1.1-0.8-2.1-1.9-2.2l-1-0.1c-0.8-0.1-1.5-0.6-1.8-1.4l-0.3-0.9c-0.3-0.9-1.1-1.4-2-1.4
			c-0.5,0-1-0.1-1.4-0.5c-0.5-0.4-0.7-0.9-0.8-1.5l-0.3-3.6c0-0.5,0.1-1,0.4-1.4l1.8-2.2c0.7-0.9,2-1,2.9-0.4l47.7,35.1
			c2.1,1.5,4.2,2.6,6.5,3.2C98.4,59.4,100.6,60.5,102.9,62.3z"/>
		<path class="st70" d="M105.2,62.9l9.7,11.9L99.1,87.6l-9-11c-2.2-2.7-3.1-5.8-2.8-9.2c0.3-3.2-0.5-6.1-2.5-8.8l-25.3-34
			c-2.3-3.1-5.1-5.2-8.8-6.5l-2-0.7c-1.9-0.7-3.2-2.3-3.6-4.3l-0.1-0.5L55,15c3.8,1,6.8,2.8,9.4,5.7l28.8,32.4
			c1.7,1.9,3.5,3.4,5.7,4.5C101.5,59,103.4,60.6,105.2,62.9z"/>
		<path class="st71" d="M107.2,63.8l7.2,13.5l-18,9.6l-6.7-12.5c-1.6-3.1-2-6.3-0.9-9.6c0.9-3,0.7-6.1-0.8-9.1L68.5,16
			c-1.6-3.2-4-5.4-7.3-6.5c-0.9-0.3-1.5-0.9-1.8-1.7c-0.3-0.8-0.3-1.7,0.2-2.5l0.9-1.7c0.7-1.3,1.7-2.2,3-2.9L64,0.4
			c1.4-0.8,3.2-0.3,4,1.1l29.3,50.5c1.3,2.2,2.8,4,4.7,5.5C104.2,59.3,105.8,61.2,107.2,63.8z"/>
	</g>
	<rect x="116.4" y="70" class="st72" width="2" height="7.5"/>
	<path class="st73" d="M122.4,61.8v3h-6v17.7h6v82.8c0,4.2-3.5,7.7-7.7,7.7H93.4c-4.2,0-7.7-3.5-7.7-7.7V164c0-1.7,1.4-3.1,3.1-3.1
		h15.9V93.6h-7.1c-6.5,0-11.9-5.3-11.9-11.9v-9.3c0-10.1,8.3-18.3,18.4-18.3h10.7C118.9,54.1,122.4,57.6,122.4,61.8z"/>
	<path class="st74" d="M122.4,61.8v3h-6v17.7h6v82.8c0,4.2-3.5,7.7-7.7,7.7h-0.9V54.1h0.9C118.9,54.1,122.4,57.6,122.4,61.8z"/>
	<rect x="99.3" y="93.6" class="st75" width="5.3" height="67.3"/>
	<path class="st76" d="M96.4,73.3c0,2.9,2.3,5.2,5.2,5.2c2.9,0,5.2-2.3,5.2-5.2c0-2.9-2.3-5.2-5.2-5.2
		C98.7,68.1,96.4,70.5,96.4,73.3z"/>
	<path class="st71" d="M97.4,73.3c0,2.3,1.8,4.1,4.1,4.1c2.3,0,4.1-1.8,4.1-4.1c0-2.3-1.8-4.1-4.1-4.1C99.3,69.2,97.4,71,97.4,73.3z
		"/>
	<rect x="103.7" y="93.6" class="st71" width="0.9" height="67.3"/>
	<rect x="117.5" y="67.3" class="st68" width="6" height="12.8"/>
</g>
</svg>
