<?xml version="1.0" encoding="utf-8"?>
<!-- Generator: Adobe Illustrator 24.2.1, SVG Export Plug-In . SVG Version: 6.00 Build 0)  -->
<svg version="1.1" id="Layer_1" xmlns="http://www.w3.org/2000/svg" xmlns:xlink="http://www.w3.org/1999/xlink" x="0px" y="0px"
	 viewBox="0 0 149 173" style="enable-background:new 0 0 149 173;" xml:space="preserve">
<style type="text/css">
	.st0{fill:#2C3E50;}
	.st1{fill:#E64C3C;}
	.st2{fill:#FFF6E9;}
	.st3{fill:none;stroke:#CD8322;stroke-width:2;stroke-miterlimit:10;}
	.st4{fill:#00001A;}
	.st5{fill:url(#SVGID_1_);}
	.st6{fill:url(#SVGID_2_);}
	.st7{fill:url(#SVGID_3_);}
	.st8{fill:url(#SVGID_4_);}
	.st9{fill:url(#SVGID_5_);}
	.st10{fill:url(#SVGID_6_);}
	.st11{fill:url(#SVGID_7_);}
	.st12{fill:url(#SVGID_8_);}
	.st13{fill:url(#SVGID_9_);}
	.st14{fill:url(#SVGID_10_);}
	.st15{fill:url(#SVGID_11_);}
	.st16{fill:url(#SVGID_12_);}
	.st17{fill:url(#SVGID_13_);}
	.st18{fill:url(#SVGID_14_);}
	.st19{fill:url(#SVGID_15_);}
	.st20{fill:url(#SVGID_16_);}
	.st21{fill:url(#SVGID_17_);}
	.st22{fill:url(#SVGID_18_);}
	.st23{fill:none;stroke:#D4000B;stroke-width:2;stroke-miterlimit:10;}
	.st24{fill:none;stroke:#D4000B;stroke-miterlimit:10;}
	.st25{fill:none;stroke:#00E9D9;stroke-width:1.5;stroke-miterlimit:10;}
	.st26{fill:#00E9D9;}
	.st27{fill:none;stroke:#33FF00;stroke-linecap:round;stroke-linejoin:round;stroke-miterlimit:10;}
	.st28{fill:#D4000B;}
	.st29{fill:none;stroke:#D4000B;stroke-width:1.5;stroke-miterlimit:10;}
	.st30{fill:none;stroke:#D4000B;stroke-width:1.5;stroke-linecap:round;stroke-linejoin:round;stroke-miterlimit:10;}
	.st31{fill:none;stroke:#00E9D9;stroke-width:1.5;stroke-linecap:round;stroke-linejoin:round;stroke-miterlimit:10;}
	.st32{fill:none;stroke:#00E9D9;stroke-linecap:round;stroke-miterlimit:10;}
	.st33{fill:none;stroke:#D4000B;stroke-linecap:round;stroke-miterlimit:10;}
	.st34{fill:none;stroke:#D4000B;stroke-linecap:round;stroke-linejoin:round;stroke-miterlimit:10;}
	.st35{fill:none;stroke:#00E9D9;stroke-miterlimit:10;}
	.st36{fill:none;stroke:#D4000B;stroke-linejoin:round;stroke-miterlimit:10;}
</style>
<path class="st4" d="M137.2,88.2c0-0.5-0.1-44-0.2-44.6c-0.3-2.5-0.9-6.3-1.8-11.6l0,0c-0.3-1.6-0.6-3.3-1-5.2
	c-3-14.9-11.9-17.9-17.9-17.9H95.4c-1.6,0-3-1.3-3-3v-3c0-1.6-1.3-2.9-2.9-2.9H78.3l-3.8,19.7l0,4.2l-8.9,62.6h39.1l2.8-48.1
	l7.5,14.1c0.3,0.4,0.7,0.7,1.2,0.9L116,72.8l-0.2,21.3c0.1,0.1,0.5,2.3,0.5,2.3c0.6,0.2,1.2,0.2,1.8,0.1l16.8-5.2
	C136.4,90.9,137.3,89.6,137.2,88.2z"/>
<path class="st4" d="M73.3,0H59.5c-1.6,0-2.9,1.3-2.9,2.9v3c0,1.6-1.3,3-3,3H32.7c-6,0-14.9,3-17.9,17.9c-0.4,2-0.7,3.8-1,5.4
	l-0.1,0c-1,5.3-1.5,9.1-1.8,11.6c-0.1,0.6-0.1,44.1-0.2,44.6c-0.1,1.4,0.8,2.7,2.1,3.1l16.8,5.2c0.6,0.2,1.2,0.2,1.8-0.1
	c0.1,0,0.5-2.3,0.5-2.3l-0.3-40.9c0.5-0.2,1-0.5,1.3-0.9l7.5-13.8l2.8,47.8h30.2V17.9L73.3,0z"/>
<path class="st4" d="M119.2,160.6l-3.2-14.7l0,0l-9.8-44.5l-1.1-5.1c-0.5-2.6-0.7-5.2-0.6-7.8l0.1-2H44.3l0.1,2
	c0.2,2.6,0,5.3-0.6,7.8l-1.1,5.1h0l-9.7,44.5l0,0l-3.2,14.7c-0.3,1.5,0.6,3,2.1,3.5l24.8,8.8c1.5,0.4,3-0.3,3.6-1.7l2.7-6.8l0,0
	l8.7-22.3c0.5-1.1,1.5-1.8,2.7-1.8c1.2,0,2.3,0.7,2.8,1.8l8.8,22.2l0,0l2.7,6.9c0.6,1.4,2.1,2.2,3.6,1.7l24.8-8.8
	C118.6,163.6,119.5,162.1,119.2,160.6z"/>
<path class="st23" d="M43.3,99.1c0,0,26.1,5.7,62.5,0"/>
<path class="st24" d="M42.6,102.3c0,0,27.5,5.7,63.9,0"/>
<path class="st25" d="M41.9,105.2c0,0,28.8,5.9,65.2,0.2"/>
<path class="st23" d="M41,109.5c0,0,15.8,2.6,22.8,2.6c0,0,8.3-0.4,8,4.9c-0.3,5.6-0.3,8-0.3,8s-0.4,3.1,2.9,3.1
	c3,0,3.2-2.7,3.2-2.7v-8.3c0-0.1,0-0.2,0-0.2c-0.1-1.5,0.4-4.7,4.7-4.7c3.7,0,25.2-2.6,25.6-2.8"/>
<g>
	<g>
		<path class="st27" d="M79,64.8l0.1,8.6c1.1,2.9,21.5,13.6,21.5,13.6s1.4,0.6,0.9,2.1s-2,0.4-2,0.4L78.7,77.8c-0.4,9,2,9.5,2,9.5
			l8.4,6.1c0,0,2.6,1.4,1.4,3.3s-2.8,0-2.8,0l-9.6-8.1l0,6c0,0,0.3,2.1-1,2.1s-1.1-2.1-1.1-2.1l0.5-28.9v-4.8c0,0-0.5-3.4,4,1.3
			s16,14,16,14s2,1.3,3.1-0.1c1.1-1.4-0.6-2.8-0.6-2.8L79.2,55.4c0,0-1.4-1.3-1.3-5v-5.9c0,0,0.5-2.2,2.8,0
			c2.2,2.2,15.5,14.2,15.5,14.2s1.6,1.4,2.4-0.8c0.8-2.1-0.1-2.9-0.9-3.6C97.1,53.8,84.9,43.8,79,39c-1.9-1.5-3.1-2.5-3.1-2.5V23.2"
			/>
		<path class="st27" d="M79,39v-5c0,0-0.2-1.5,2.4,0L94,41.4c0,0,5,2,1.6-2.2L78.5,28.8v-3.8l8.7,5c0,0,1.8,1,2-0.1
			c0.2-1.1-13.2-10.2-13.2-10.2"/>
	</g>
	<circle class="st28" cx="91.7" cy="31.7" r="1.1"/>
	<circle class="st28" cx="99.2" cy="41.9" r="1.5"/>
	<circle class="st28" cx="99.9" cy="51.2" r="1.4"/>
	<circle class="st28" cx="99" cy="64" r="1.9"/>
	<circle class="st28" cx="101.5" cy="84.2" r="1.5"/>
	<circle class="st28" cx="101.6" cy="76.2" r="1.2"/>
	<circle class="st28" cx="101.8" cy="93.9" r="1.5"/>
	<circle class="st26" cx="90.8" cy="27" r="1.1"/>
	<ellipse class="st26" cx="96.6" cy="45.9" rx="1.1" ry="1.3"/>
	<circle class="st26" cx="101" cy="58.7" r="1.5"/>
	<circle class="st26" cx="100.5" cy="70.1" r="1"/>
	<circle class="st26" cx="99.2" cy="79.7" r="1"/>
	<circle class="st26" cx="103.3" cy="89.9" r="1.2"/>
</g>
<g>
	<g>
		<path class="st27" d="M70.1,64.8L70,73.4C68.9,76.3,48.5,87,48.5,87s-1.4,0.6-0.9,2.1s2,0.4,2,0.4l20.7-11.7c0.4,9-2,9.5-2,9.5
			L60,93.4c0,0-2.6,1.4-1.4,3.3s2.8,0,2.8,0l9.6-8.1l0,6c0,0-0.3,2.1,1,2.1s1.1-2.1,1.1-2.1l-0.5-28.9v-4.8c0,0,0.5-3.4-4,1.3
			s-16,14-16,14s-2,1.3-3.1-0.1c-1.1-1.4,0.6-2.8,0.6-2.8l19.7-17.8c0,0,1.4-1.3,1.3-5v-5.9c0,0-0.5-2.2-2.8,0
			c-2.2,2.2-15.5,14.2-15.5,14.2s-1.6,1.4-2.4-0.8s0.1-2.9,0.9-3.6c0.6-0.5,12.8-10.6,18.7-15.4c1.9-1.5,3.1-2.5,3.1-2.5V23.2"/>
		<path class="st27" d="M70.1,39v-5c0,0,0.2-1.5-2.4,0l-12.6,7.4c0,0-5,2-1.6-2.2l17.2-10.4v-3.8l-8.7,5c0,0-1.8,1-2-0.1
			c-0.2-1.1,13.2-10.2,13.2-10.2"/>
	</g>
	<circle class="st28" cx="57.4" cy="31.7" r="1.1"/>
	<circle class="st28" cx="49.9" cy="41.9" r="1.5"/>
	<circle class="st28" cx="49.2" cy="51.2" r="1.4"/>
	<circle class="st28" cx="50.2" cy="64" r="1.9"/>
	<circle class="st28" cx="47.6" cy="84.2" r="1.5"/>
	<circle class="st28" cx="47.6" cy="76.2" r="1.2"/>
	<circle class="st28" cx="47.3" cy="93.9" r="1.5"/>
	<circle class="st26" cx="58.3" cy="27" r="1.1"/>
	<ellipse class="st26" cx="52.5" cy="45.9" rx="1.1" ry="1.3"/>
	<circle class="st26" cx="48.2" cy="58.7" r="1.5"/>
	<circle class="st26" cx="48.6" cy="70.1" r="1"/>
	<circle class="st26" cx="49.9" cy="79.7" r="1"/>
	<circle class="st26" cx="45.8" cy="89.9" r="1.2"/>
</g>
<circle class="st29" cx="65.8" cy="118.1" r="3"/>
<circle class="st29" cx="83.5" cy="118.1" r="3"/>
<path class="st30" d="M50.4,118.1l4.1-3.6c0,0-1.9,17.9,11,17.9s18,0,18,0s10.8,0.7,10.9-17.9l3.9,3.6"/>
<line class="st31" x1="60.7" y1="115.3" x2="58.4" y2="115.3"/>
<line class="st31" x1="68.7" y1="125.8" x2="68.7" y2="123.5"/>
<line class="st31" x1="60" y1="123.8" x2="61.6" y2="122.1"/>
<line class="st31" x1="58.3" y1="119.5" x2="60.5" y2="118.9"/>
<line class="st31" x1="64.5" y1="125.8" x2="65.1" y2="123.6"/>
<line class="st31" x1="88.7" y1="115.3" x2="91.1" y2="115.3"/>
<line class="st31" x1="80.7" y1="125.8" x2="80.7" y2="123.5"/>
<line class="st31" x1="89.5" y1="123.8" x2="87.8" y2="122.1"/>
<line class="st31" x1="91.2" y1="119.5" x2="88.9" y2="118.9"/>
<line class="st31" x1="85" y1="125.8" x2="84.4" y2="123.6"/>
<polygon class="st28" points="105.2,168.3 106.6,167.8 116.1,146.2 115.7,144.6 "/>
<path class="st28" d="M111.4,165.1l5.9-13.6l-0.4-1.7l-7.3,17l1.3-0.5c0,0,4.7-1.7,6.3-2.3s2-1.9,2-1.9L111.4,165.1z"/>
<polygon class="st28" points="43.9,168.3 42.5,167.8 33,146.2 33.3,144.6 "/>
<path class="st28" d="M37.7,165.1l-5.9-13.6l0.4-1.7l7.3,17l-1.3-0.5c0,0-4.7-1.7-6.3-2.3s-2-1.9-2-1.9L37.7,165.1z"/>
<path class="st32" d="M87.7,21.8l4.8-4.1c0,0,0.8-1,1.6-0.4s-0.2,1.3-0.2,1.3l-5.3,4.8c0,0-1.2,1.2-1.8,0.3S87.7,21.8,87.7,21.8z"/>
<path class="st33" d="M91.1,14.6l-7.6,5.9c0,0-1.3,0.7-2.2-0.3s0.6-1.9,0.6-1.9l8.9-6.7c0,0,1-0.9,2.4-0.8
	c1.7,0.1,10.5,0.2,10.5,0.2"/>
<path class="st32" d="M61,21.8l-4.8-4.1c0,0-0.8-1-1.6-0.4s0.2,1.3,0.2,1.3l5.3,4.8c0,0,1.2,1.2,1.8,0.3S61,21.8,61,21.8z"/>
<path class="st33" d="M57.7,14.6l7.6,5.9c0,0,1.3,0.7,2.2-0.3s-0.6-1.9-0.6-1.9l-8.9-6.7c0,0-1-0.9-2.4-0.8
	c-1.7,0.1-10.5,0.2-10.5,0.2"/>
<path class="st34" d="M112.8,139.7l-7.6,16.5c0,0-1,1.7-2.5,0.8s-0.5-2.4-0.5-2.4l7.9-17.6"/>
<line class="st34" x1="105.9" y1="119.4" x2="109.6" y2="133.4"/>
<line class="st32" x1="107.3" y1="115.9" x2="112.8" y2="137.5"/>
<path class="st34" d="M36.4,139.4l7.6,16.5c0,0,1,1.7,2.5,0.8s0.5-2.4,0.5-2.4l-7.9-17.6"/>
<line class="st34" x1="43.3" y1="119" x2="39.6" y2="133"/>
<line class="st32" x1="41.9" y1="115.5" x2="36.4" y2="137.1"/>
<g>
	<path class="st35" d="M137.1,55.1h-0.5c-1.7-3.4-3.3-16.1-1.3-19.8l0.5-0.1"/>
	<path class="st35" d="M137.1,71.8h-0.6c0,0-3.1,5.1,0.1,11.7h0.5"/>
	<path class="st36" d="M137.1,62.1l-12.4,0l2.3-7.7c0,0,0.6-1.9,0-2.3s-1.4,1.5-1.4,1.5l-3.8,10.8h-3.7l-1.2-3.3l-0.8,0"/>
	<path class="st36" d="M137.1,64.8h-13.3l7.1,9c0,0,0.9,0.9,0.5,1.6c-0.4,0.7-1.5,0-1.5,0l-7.6-8.8l-3.2,0.6l-2.5,5.6l-0.4,0"/>
	<path class="st36" d="M113.3,49.1l4.6-1.8l-6-3.9c0,0,7.3,0.8,8.5,1.3c1.2,0.6-2,10.5-2,10.5s-0.3-5.4-0.3-6.1
		c-0.1-0.8-3.8,1.8-3.8,1.8"/>
	<path class="st36" d="M116,83.4l5.4-0.3l-4.5-5.6c0,0,6.7,3,7.7,3.9c1,0.9-5.2,9.4-5.2,9.4s1.1-5.4,1.5-5.9
		c0.6-0.7-4.9,0.6-4.9,0.6"/>
	<path class="st36" d="M131.8,19.8l-18.7,8.8l-1.1-8c0,0-0.2-2-1-2.1c-0.7-0.2-0.6,1.9-0.6,1.9l1,11.4l-3.3,1.5l-2.4-2.5l4.1,11.1"
		/>
	<path class="st36" d="M133,22.5l-19.7,8.9l10.2,5.3c0,0,1.2,0.4,1.1,1.3c-0.1,0.8-1.4,0.6-1.4,0.6l-10.5-4.9l-2.7,1.8l0,6.2
		l-0.4,0.1"/>
	<path class="st32" d="M111.9,10.9c0,0,12.7-1,17.8,7.6"/>
</g>
<g>
	<path class="st35" d="M11.8,55.2h0.5c1.7-3.4,3.3-16.1,1.3-19.8l-0.5-0.1"/>
	<path class="st35" d="M11.7,71.9h0.6c0,0,3.1,5.1-0.1,11.7h-0.5"/>
	<path class="st36" d="M11.8,62.2l12.4,0l-2.3-7.7c0,0-0.6-1.9,0-2.3c0.6-0.4,1.4,1.5,1.4,1.5l3.8,10.8h3.7l1.2-3.3l0.8,0"/>
	<path class="st36" d="M11.8,64.9h13.3l-7.1,9c0,0-0.9,0.9-0.5,1.6c0.4,0.7,1.5,0,1.5,0l7.6-8.8l3.2,0.6l2.5,5.6l0.4,0"/>
	<path class="st36" d="M35.6,49.2l-4.6-1.8l6-3.9c0,0-7.3,0.8-8.5,1.3s2,10.5,2,10.5s0.3-5.4,0.3-6.1c0.1-0.8,3.8,1.8,3.8,1.8"/>
	<path class="st36" d="M32.9,83.5l-5.4-0.3l4.5-5.6c0,0-6.7,3-7.7,3.9s5.2,9.4,5.2,9.4s-1.1-5.4-1.5-5.9c-0.6-0.7,4.9,0.6,4.9,0.6"
		/>
	<path class="st36" d="M17.1,19.9l18.7,8.8l1.1-8c0,0,0.2-2,1-2.1c0.7-0.2,0.6,1.9,0.6,1.9l-1,11.4l3.3,1.5l2.4-2.5L39.2,42"/>
	<path class="st36" d="M15.8,22.6l19.7,8.9l-10.2,5.3c0,0-1.2,0.4-1.1,1.3c0.1,0.8,1.4,0.6,1.4,0.6l10.5-4.9l2.7,1.8l0,6.2l0.4,0.1"
		/>
	<path class="st32" d="M36.9,11c0,0-12.7-1-17.8,7.6"/>
</g>
</svg>
