<svg width="256" height="256" viewBox="0 0 256 256" fill="none" xmlns="http://www.w3.org/2000/svg">
<path d="M193.289 109.213L174 92.875V71.5C174 69.6103 173.25 67.7981 171.913 66.4619C170.577 65.1257 168.765 64.375 166.875 64.375H138.375C136.486 64.375 134.673 65.1257 133.337 66.4619C132.001 67.7981 131.25 69.6103 131.25 71.5V92.875L111.961 109.213C110.965 110.209 110.286 111.479 110.012 112.861C109.737 114.243 109.878 115.675 110.418 116.977C110.957 118.279 111.87 119.392 113.042 120.174C114.214 120.957 115.591 121.375 117 121.375H188.25C189.659 121.375 191.037 120.957 192.209 120.174C193.38 119.392 194.294 118.279 194.833 116.977C195.372 115.675 195.514 114.243 195.239 112.861C194.964 111.479 194.286 110.209 193.289 109.213Z" fill="#E6F9FE"/>
<path d="M124.669 116.975C124.129 115.674 123.988 114.242 124.263 112.86C124.537 111.478 125.215 110.209 126.211 109.213L145.5 92.875V71.5C145.5 69.6103 146.251 67.7981 147.587 66.4619C148.923 65.1257 150.736 64.375 152.625 64.375H138.375C136.486 64.375 134.673 65.1257 133.337 66.4619C132.001 67.7981 131.25 69.6103 131.25 71.5V92.875L111.961 109.213C110.965 110.209 110.286 111.479 110.012 112.861C109.737 114.243 109.878 115.675 110.418 116.977C110.957 118.279 111.87 119.392 113.042 120.174C114.214 120.957 115.591 121.375 117 121.375H131.25C129.841 121.375 128.464 120.957 127.292 120.173C126.121 119.39 125.208 118.277 124.669 116.975Z" fill="#CCF2FE"/>
<path d="M174 92.875H131.25L111.961 109.213C110.965 110.209 110.286 111.479 110.012 112.861C109.737 114.243 109.878 115.675 110.418 116.977C110.957 118.279 111.87 119.392 113.042 120.174C114.214 120.957 115.591 121.375 117 121.375H188.25C189.659 121.375 191.037 120.957 192.209 120.174C193.38 119.392 194.294 118.279 194.833 116.977C195.372 115.675 195.514 114.243 195.239 112.861C194.964 111.479 194.286 110.209 193.289 109.213L174 92.875Z" fill="#99E6FD"/>
<path d="M188.25 107.125H117C115.11 107.125 113.298 107.876 111.962 109.212C110.626 110.548 109.875 112.36 109.875 114.25V199.75C109.879 203.528 111.382 207.15 114.053 209.822C116.725 212.493 120.347 213.996 124.125 214H181.125C184.903 213.996 188.525 212.493 191.197 209.822C193.868 207.15 195.371 203.528 195.375 199.75V114.25C195.375 112.36 194.624 110.548 193.288 109.212C191.952 107.876 190.14 107.125 188.25 107.125Z" fill="#E6F9FE"/>
<path d="M131.25 185.5V107.125H117C115.11 107.125 113.298 107.876 111.962 109.212C110.626 110.548 109.875 112.36 109.875 114.25V199.75C109.879 203.528 111.382 207.15 114.053 209.822C116.725 212.493 120.347 213.996 124.125 214H181.125C184.903 213.996 188.525 212.493 191.197 209.822C193.868 207.15 195.371 203.528 195.375 199.75H145.5C141.722 199.746 138.1 198.243 135.428 195.572C132.757 192.9 131.254 189.278 131.25 185.5Z" fill="#CCF2FE"/>
<path d="M174 149.875H159.75V135.625H145.5V149.875H131.25V164.125H145.5V178.375H159.75V164.125H174V149.875Z" fill="url(#paint0_linear)"/>
<path d="M109.875 85.75C113.81 85.75 117 82.56 117 78.625C117 74.69 113.81 71.5 109.875 71.5C105.94 71.5 102.75 74.69 102.75 78.625C102.75 82.56 105.94 85.75 109.875 85.75Z" fill="#34CDFA"/>
<path d="M88.5 64.375C92.435 64.375 95.625 61.185 95.625 57.25C95.625 53.315 92.435 50.125 88.5 50.125C84.565 50.125 81.375 53.315 81.375 57.25C81.375 61.185 84.565 64.375 88.5 64.375Z" fill="#67D9FB"/>
<path d="M67.125 57.25C71.06 57.25 74.25 54.06 74.25 50.125C74.25 46.19 71.06 43 67.125 43C63.19 43 60 46.19 60 50.125C60 54.06 63.19 57.25 67.125 57.25Z" fill="#99E6FD"/>
<path d="M88.5 107.125C92.435 107.125 95.625 103.935 95.625 100C95.625 96.065 92.435 92.875 88.5 92.875C84.565 92.875 81.375 96.065 81.375 100C81.375 103.935 84.565 107.125 88.5 107.125Z" fill="#67D9FB"/>
<path d="M67.125 114.25C71.06 114.25 74.25 111.06 74.25 107.125C74.25 103.19 71.06 100 67.125 100C63.19 100 60 103.19 60 107.125C60 111.06 63.19 114.25 67.125 114.25Z" fill="#99E6FD"/>
<path d="M88.5 85.75C92.435 85.75 95.625 82.56 95.625 78.625C95.625 74.69 92.435 71.5 88.5 71.5C84.565 71.5 81.375 74.69 81.375 78.625C81.375 82.56 84.565 85.75 88.5 85.75Z" fill="#99E6FD"/>
<path d="M67.125 85.75C71.06 85.75 74.25 82.56 74.25 78.625C74.25 74.69 71.06 71.5 67.125 71.5C63.19 71.5 60 74.69 60 78.625C60 82.56 63.19 85.75 67.125 85.75Z" fill="#CCF2FE"/>
<defs>
<linearGradient id="paint0_linear" x1="138.375" y1="171.25" x2="166.875" y2="142.75" gradientUnits="userSpaceOnUse">
<stop stop-color="#34CDFA"/>
<stop offset="1" stop-color="#E8D9F1"/>
</linearGradient>
</defs>
</svg>
