<svg width="177" height="178" viewBox="0 0 177 178" fill="none" xmlns="http://www.w3.org/2000/svg">
<path d="M89.3245 86.3757L108.882 105.934L88.0104 126.806C87.1724 127.644 85.9593 127.987 84.8062 127.713C83.6531 127.438 82.44 127.782 81.6019 128.62L71.5518 138.67C71.3659 138.856 71.1531 139.013 70.9205 139.135L60.0271 144.853C59.5543 145.102 59.1693 145.489 58.9239 145.964L53.6149 156.234C53.3558 156.735 52.9406 157.139 52.4325 157.384L44.0669 161.419C43.6248 161.632 43.2518 161.966 42.9911 162.382L35.3538 174.574C35.042 175.072 34.5234 175.404 33.9408 175.478L20.2181 177.234C18.9451 177.397 17.8611 176.313 18.0241 175.04L19.7799 161.317C19.8544 160.735 20.1863 160.216 20.684 159.904L32.8758 152.267C33.2918 152.006 33.6261 151.633 33.8394 151.191L37.8741 142.826C38.1191 142.318 38.5231 141.902 39.0244 141.643L49.2946 136.334C49.7689 136.089 50.1564 135.704 50.4047 135.231L56.1236 124.338C56.2455 124.105 56.4024 123.892 56.5879 123.706L66.638 113.656C67.4761 112.818 67.8197 111.605 67.5453 110.452C67.2709 109.299 67.6141 108.086 68.4525 107.248L89.3245 86.3757Z" fill="#E1EFFB"/>
<path d="M98.5145 95.5657L18.4941 176.577C18.5444 176.635 18.5983 176.69 18.6551 176.741C18.6571 176.743 18.6595 176.745 18.6615 176.747C18.7154 176.796 18.7722 176.841 18.8313 176.884C18.8373 176.888 18.843 176.892 18.849 176.896C18.9041 176.935 18.9621 176.971 19.0212 177.004C19.0317 177.01 19.0421 177.016 19.0526 177.021C19.1077 177.051 19.1648 177.077 19.2232 177.101C19.2385 177.107 19.2534 177.114 19.2691 177.12C19.3234 177.141 19.3797 177.159 19.436 177.175C19.4561 177.181 19.4755 177.187 19.4956 177.192C19.5495 177.206 19.605 177.215 19.6605 177.224C19.6839 177.228 19.7068 177.233 19.7301 177.236C19.7869 177.243 19.8444 177.245 19.9027 177.247C19.9257 177.247 19.9482 177.25 19.9715 177.25C20.0524 177.25 20.1349 177.245 20.2178 177.234L33.9409 175.478C34.5235 175.404 35.0421 175.072 35.3539 174.574L42.9912 162.382C43.2519 161.966 43.6249 161.632 44.0671 161.419L52.4326 157.384C52.9407 157.139 53.356 156.735 53.6151 156.234L58.924 145.964C59.169 145.489 59.5545 145.102 60.0272 144.854L70.9206 139.135C71.1532 139.012 71.366 138.856 71.5519 138.67L81.602 128.62C82.4401 127.782 83.6532 127.438 84.8063 127.713C85.9594 127.987 87.1725 127.644 88.0106 126.806L108.883 105.934L98.5145 95.5657Z" fill="#CCDFED"/>
<path d="M115.588 25.6647L83.0711 67.6959C77.4738 74.9308 78.1263 85.1986 84.5944 91.6666L103.593 110.665C110.061 117.133 120.328 117.786 127.563 112.188L169.595 79.6712C178.232 72.9887 179.042 60.2412 171.32 52.5191L142.74 23.939C135.018 16.2165 122.271 17.0268 115.588 25.6647ZM133.775 36.942L158.317 61.4841C160.635 63.8028 160.635 67.5615 158.317 69.8802C155.998 72.1985 152.24 72.1985 149.921 69.8802L125.379 45.3381C123.06 43.0198 123.06 39.2607 125.379 36.942C127.697 34.6233 131.457 34.6233 133.775 36.942Z" fill="#2C5871"/>
<path d="M171.32 52.5191L158.344 39.5439C165.018 46.218 165.314 56.6423 159.696 63.664C160.454 65.7618 159.998 68.1988 158.317 69.8802C156.396 71.8006 153.49 72.1253 151.23 70.8643L114.588 99.2126C107.353 104.81 97.0849 104.157 90.6168 97.6893L84.5938 91.6663C84.5942 91.6667 84.5941 91.6667 84.5945 91.6671L103.593 110.665C110.061 117.133 120.329 117.786 127.564 112.189L169.595 79.6716C178.232 72.9887 179.042 60.2413 171.32 52.5191Z" fill="#1D4859"/>
<path d="M71.3167 74.8279L90.8746 94.3858L70.0026 115.258C69.1645 116.096 67.9515 116.439 66.7984 116.165C65.6453 115.891 64.4322 116.234 63.5941 117.072L53.544 127.122C53.3581 127.308 53.1453 127.465 52.9127 127.587L42.0193 133.306C41.5465 133.554 41.1615 133.941 40.916 134.416L35.6071 144.686C35.348 145.187 34.9328 145.591 34.4246 145.836L26.0591 149.871C25.617 150.084 25.244 150.418 24.9833 150.834L17.346 163.026C17.0342 163.524 16.5156 163.856 15.933 163.93L2.21026 165.686C0.937244 165.849 -0.146669 164.765 0.0162796 163.492L1.77211 149.769C1.84654 149.187 2.17847 148.668 2.67617 148.356L14.868 140.719C15.284 140.458 15.6183 140.085 15.8316 139.643L19.8663 131.278C20.1113 130.77 20.5153 130.354 21.0166 130.095L31.2868 124.786C31.7611 124.541 32.1486 124.156 32.3968 123.683L38.1157 112.79C38.2377 112.557 38.3946 112.344 38.58 112.158L48.6302 102.108C49.4683 101.27 49.8119 100.057 49.5375 98.9041C49.2631 97.751 49.6063 96.5379 50.4447 95.6998L71.3167 74.8279Z" fill="#E1EFFB"/>
<path d="M80.5067 84.0178L0.486328 165.03C0.536621 165.087 0.590533 165.142 0.647263 165.193C0.649275 165.195 0.651691 165.197 0.653703 165.199C0.707617 165.248 0.764346 165.293 0.823491 165.336C0.829526 165.34 0.835158 165.344 0.841193 165.348C0.896314 165.387 0.954252 165.423 1.0134 165.456C1.02386 165.462 1.03432 165.468 1.04478 165.473C1.0999 165.503 1.15703 165.529 1.21537 165.553C1.23066 165.559 1.24555 165.566 1.26124 165.572C1.31555 165.593 1.37188 165.611 1.42821 165.627C1.44833 165.633 1.46764 165.64 1.48776 165.644C1.54167 165.658 1.59719 165.667 1.65272 165.676C1.67605 165.68 1.69899 165.685 1.72233 165.688C1.77906 165.695 1.83659 165.697 1.89493 165.699C1.91786 165.699 1.94039 165.702 1.96373 165.702C2.0446 165.702 2.12708 165.697 2.20996 165.687L15.9331 163.93C16.5157 163.856 17.0343 163.524 17.3461 163.026L24.9834 150.835C25.2441 150.418 25.6171 150.084 26.0592 149.871L34.4248 145.836C34.9329 145.591 35.3481 145.188 35.6073 144.686L40.9162 134.416C41.1612 133.941 41.5466 133.554 42.0194 133.306L52.9128 127.587C53.1454 127.464 53.3582 127.308 53.5441 127.122L63.5942 117.072C64.4323 116.234 65.6454 115.891 66.7985 116.165C67.9516 116.439 69.1647 116.096 70.0027 115.258L90.8747 94.3858L80.5067 84.0178Z" fill="#CCDFED"/>
<path d="M97.5803 14.1168L65.0633 56.148C59.4659 63.3829 60.1185 73.6507 66.5866 80.1188L85.5848 99.117C92.0529 105.585 102.321 106.238 109.556 100.64L151.587 68.1233C160.225 61.4408 161.035 48.6934 153.312 40.9712L124.732 12.3912C117.01 4.66862 104.263 5.47894 97.5803 14.1168ZM115.767 25.3941L140.309 49.9362C142.627 52.2549 142.627 56.0136 140.309 58.3323C137.99 60.6506 134.232 60.6506 131.913 58.3323L107.371 33.7902C105.053 31.4719 105.053 27.7128 107.371 25.3941C109.69 23.0754 113.449 23.0754 115.767 25.3941Z" fill="#2C5871"/>
<path d="M153.312 40.9713L140.337 27.9961C147.01 34.6702 147.306 45.0945 141.688 52.1161C142.446 54.214 141.99 56.651 140.309 58.3323C138.388 60.2527 135.482 60.5774 133.222 59.3165L96.5798 87.6648C89.3449 93.2622 79.0771 92.6096 72.609 86.1415L66.5859 80.1184C66.5863 80.1188 66.5863 80.1188 66.5867 80.1192L85.585 99.1175C92.053 105.586 102.321 106.238 109.556 100.641L151.587 68.1238C160.224 61.4409 161.034 48.6934 153.312 40.9713Z" fill="#1D4859"/>
<path d="M119.613 48.1387C111.453 48.1387 101.651 45.8627 92.0134 41.7302C82.3744 37.5973 73.9675 32.0647 68.3419 26.1519C62.1072 19.5993 59.8915 13.1518 62.102 7.99616C64.3129 2.84054 70.5109 0.000804686 79.5556 0C79.5564 0 79.5576 0 79.5588 0C87.7195 0 97.521 2.27605 107.159 6.40852C116.798 10.5414 125.204 16.074 130.83 21.9868C137.065 28.5394 139.281 34.9869 137.07 40.1426C134.859 45.2982 128.661 48.1379 119.616 48.1387C119.616 48.1387 119.614 48.1387 119.613 48.1387ZM79.5588 6.03555C79.5576 6.03555 79.5572 6.03555 79.556 6.03555C73.2646 6.03595 68.8135 7.6582 67.6487 10.3748C66.4839 13.0914 68.3773 17.4339 72.7142 21.9921C77.7889 27.3255 85.4877 32.3657 94.3916 36.1835C103.294 40.0009 112.252 42.1036 119.613 42.1036C119.614 42.1036 119.615 42.1036 119.616 42.1036C125.907 42.1032 130.359 40.4809 131.523 37.7643C132.688 35.0477 130.795 30.7052 126.458 26.1471C121.384 20.8136 113.685 15.7735 104.781 11.9556C95.8779 8.13859 86.9201 6.03555 79.5588 6.03555ZM64.8753 9.18589H64.8794H64.8753Z" fill="#82635A"/>
<path d="M124.731 12.3913L130.007 17.6676L119.023 28.6516L115.766 25.3942C114.654 24.2821 113.211 23.7096 111.754 23.6641L99.8086 11.7189C106.817 5.40699 117.798 5.45809 124.731 12.3913Z" fill="#2C5871"/>
<path d="M142.739 23.9391L148.015 29.2154L137.031 40.1994L133.774 36.942C132.662 35.83 131.218 35.2574 129.762 35.212L117.816 23.2668C124.825 16.9548 135.806 17.0059 142.739 23.9391Z" fill="#2C5871"/>
</svg>
