<svg width="17" height="28" viewBox="0 0 17 28" fill="none" xmlns="http://www.w3.org/2000/svg">
<path d="M14.1092 0.23494H2.63447C1.30861 0.23494 0.22998 1.31357 0.22998 2.63938V24.9699C0.22998 26.2957 1.30867 27.3743 2.63447 27.3743H14.1092C15.435 27.3743 16.5137 26.2957 16.5137 24.9699V2.63938C16.5137 1.31357 15.435 0.23494 14.1092 0.23494V0.23494Z" fill="#00366D"/>
<path d="M16.5137 24.9699V2.63938C16.5137 1.31357 15.435 0.23494 14.1092 0.23494H8.37183V27.3744H14.1092C15.435 27.3744 16.5137 26.2958 16.5137 24.9699Z" fill="#01223C"/>
<path d="M14.0151 1.82513H13.107V2.7333C13.107 4.11312 11.9884 5.23166 10.6086 5.23166H6.13482C4.755 5.23166 3.63645 4.11312 3.63645 2.7333V1.82513H2.72829C2.22753 1.82513 1.82007 2.23254 1.82007 2.7333V24.876C1.82007 25.3767 2.22753 25.7841 2.72829 25.7841H14.0151C14.5159 25.7841 14.9233 25.3767 14.9233 24.876V2.7333C14.9233 2.23254 14.5159 1.82513 14.0151 1.82513Z" fill="#5FF9FE"/>
<path d="M14.9235 24.876V2.7333C14.9235 2.23254 14.516 1.82513 14.0152 1.82513H13.1071V2.7333C13.1071 4.11312 11.9885 5.23167 10.6087 5.23167H8.37183V25.7842H14.0152C14.516 25.7842 14.9235 25.3768 14.9235 24.876Z" fill="#00DDE7"/>
<path d="M10.075 23.9678H6.66839C6.22928 23.9678 5.87329 23.6118 5.87329 23.1727C5.87329 22.7336 6.22928 22.3776 6.66839 22.3776H10.075C10.5141 22.3776 10.8701 22.7336 10.8701 23.1727C10.8701 23.6118 10.5141 23.9678 10.075 23.9678Z" fill="#00DDE7"/>
<path d="M10.8702 23.1727C10.8702 22.7336 10.5142 22.3776 10.0751 22.3776H8.37183V23.9678H10.0751C10.5142 23.9678 10.8702 23.6119 10.8702 23.1727Z" fill="#00BDCD"/>
</svg>
