<svg width="151" height="187" viewBox="0 0 151 187" fill="none" xmlns="http://www.w3.org/2000/svg">
<path d="M136.351 13.1909H12.415V172.56C12.415 180.535 18.8804 187 26.8553 187H136.351C144.327 187 150.792 180.535 150.792 172.56V27.6312C150.792 19.6563 144.327 13.1909 136.351 13.1909Z" fill="#EFEDEE"/>
<path d="M27.4653 172.56V13.1909H12.415V172.56C12.415 180.535 18.8804 187 26.8553 187H41.9055C33.9306 187 27.4653 180.535 27.4653 172.56Z" fill="#D2D2D2"/>
<path d="M123.937 0H0V159.369C0 167.344 6.46538 173.809 14.4403 173.809H123.936C131.912 173.809 138.377 167.344 138.377 159.369V14.4403C138.377 6.46538 131.912 0 123.937 0Z" fill="#2D9CDB"/>
<path d="M15.0502 159.369V0H0V159.369C0 167.344 6.46538 173.809 14.4403 173.809H29.4905C21.5156 173.809 15.0502 167.344 15.0502 159.369Z" fill="#1777AD"/>
<path d="M38.022 20.025H100.355C101.914 20.025 103.177 18.762 103.177 17.2031C103.177 15.6447 101.914 14.3813 100.355 14.3813H38.022C36.4632 14.3813 35.2002 15.6447 35.2002 17.2031C35.2002 18.7616 36.4632 20.025 38.022 20.025Z" fill="#EFEDEE"/>
<path d="M100.355 138.269H38.022C36.4632 138.269 35.2002 139.532 35.2002 141.09C35.2002 142.649 36.4632 143.912 38.022 143.912H100.355C101.914 143.912 103.177 142.649 103.177 141.09C103.177 139.532 101.914 138.269 100.355 138.269Z" fill="#EFEDEE"/>
<path d="M100.355 151.718H38.022C36.4632 151.718 35.2002 152.982 35.2002 154.54C35.2002 156.099 36.4632 157.362 38.022 157.362H100.355C101.914 157.362 103.177 156.099 103.177 154.54C103.177 152.981 101.914 151.718 100.355 151.718Z" fill="#EFEDEE"/>
<path d="M37.8199 94.0843C37.3982 94.0843 36.9766 93.9157 36.6674 93.6065C36.3582 93.2973 36.1614 92.8756 36.1614 92.4259V74.4077C36.1614 73.4801 36.9204 72.7493 37.8199 72.7493C38.7475 72.7493 39.4783 73.4801 39.4783 74.4077V90.7393L47.7425 90.655H47.7706C48.6701 90.655 49.4009 91.3858 49.4291 92.2853C49.4291 93.2129 48.6982 93.9719 47.7706 93.9719L37.848 94.0843H37.8199ZM61.291 82.1097C60.4477 81.9129 59.6607 81.8848 58.8736 81.8286C57.7211 81.7724 56.7373 81.7162 56.0064 81.2102C55.2194 80.6761 54.601 79.6361 54.8821 78.6523C55.1913 77.4717 56.3719 76.544 57.693 76.3473C59.4077 76.0943 61.2348 76.5722 62.4997 77.5841C63.2306 78.1463 64.2987 78.0057 64.8609 77.303C65.4231 76.5722 65.2826 75.504 64.5798 74.9418C62.584 73.3958 59.8293 72.6649 57.2433 73.0304C54.5729 73.4239 52.3241 75.3072 51.6495 77.7528C51.0311 80.0015 52.043 82.5595 54.095 83.9649C55.6129 85.005 57.2433 85.0893 58.7049 85.1736C59.3515 85.2017 59.998 85.2299 60.5602 85.3704C61.9375 85.6796 62.9214 86.8602 62.837 88.1251C62.7527 89.5587 61.2348 90.402 59.8574 90.5988C57.7773 90.908 55.5567 90.1209 54.3199 88.6873C53.7296 87.9846 52.6895 87.9003 51.9868 88.4906C51.2841 89.109 51.1997 90.149 51.79 90.8517C53.4766 92.8475 56.2032 94 58.9579 94C59.4077 94 59.8855 93.9719 60.3353 93.9157C63.0057 93.5221 65.9853 91.6107 66.1821 88.3219C66.3507 85.4547 64.2425 82.7562 61.291 82.1097ZM76.7009 72.6087H70.292V72.7774C69.4206 72.8336 68.7178 73.5644 68.7178 74.4358V92.2853C68.7178 93.2129 69.4487 93.9438 70.3763 93.9438C71.3039 93.9438 72.0347 93.2129 72.0347 92.2853V85.2299H76.476C79.9616 85.2299 82.885 82.3908 82.885 79.0739C82.885 75.5602 80.0459 72.6087 76.7009 72.6087ZM76.476 81.8848H72.0347V75.9537H76.7009C78.1907 75.9537 79.54 77.4435 79.54 79.0739C79.54 80.5637 78.1064 81.8848 76.476 81.8848ZM90.9585 72.8336H86.5454C85.5896 72.8336 84.8588 73.5644 84.8588 74.4921V92.2853C84.8588 93.2129 85.5615 93.9719 86.4891 94L90.9023 94.1687H90.9585C96.8334 94.1687 101.64 89.3619 101.64 83.4871C101.64 77.6122 96.8334 72.8336 90.9585 72.8336ZM90.9866 90.7674L88.2319 90.6831V76.2067H90.9585C94.9501 76.2067 98.267 79.4674 98.267 83.4871C98.267 87.5067 95.0063 90.7674 90.9866 90.7674Z" fill="#EFEDEE"/>
</svg>
