<svg width="194" height="104" viewBox="0 0 194 104" fill="none" xmlns="http://www.w3.org/2000/svg">
<path d="M194 40.2494V17.1429C194 16.1119 193.254 15.2109 192.232 15.0722C185.871 14.209 180.967 8.75545 180.967 2.15831C180.967 2.15111 180.967 2.14353 180.967 2.13633C180.969 0.964373 180.049 0.00195312 178.877 0.00195312H15.1233C13.9513 0.00195312 13.031 0.964373 13.0329 2.13633C13.0329 2.14353 13.0329 2.15111 13.0329 2.15831C13.0329 8.75545 8.12906 14.209 1.76836 15.0722C0.746445 15.2109 0 16.1115 0 17.1429V40.2494C0 41.2626 0.727121 42.1287 1.72478 42.3053C6.33228 43.1203 9.83262 47.1451 9.83262 51.9867C9.83262 56.8284 6.33266 60.8532 1.72478 61.6686C0.727121 61.8451 0 62.7109 0 63.7241V86.8306C0 87.8616 0.746445 88.7626 1.76836 88.9013C8.12906 89.7645 13.0329 95.2181 13.0329 101.815C13.0329 101.822 13.0329 101.83 13.0329 101.837C13.031 103.009 13.9513 103.972 15.1233 103.972H178.877C180.049 103.972 180.969 103.009 180.967 101.837C180.967 101.83 180.967 101.822 180.967 101.815C180.967 95.2181 185.871 89.7645 192.232 88.9013C193.254 88.7626 194 87.862 194 86.8306V63.7241C194 62.7109 193.273 61.8447 192.275 61.6682C187.667 60.8531 184.167 56.8284 184.167 51.9867C184.167 47.1451 187.667 43.1203 192.275 42.3049C193.273 42.1284 194 41.2626 194 40.2494Z" fill="#2D9CDB"/>
<path d="M184.165 51.9867C184.165 56.8276 187.667 60.8527 192.274 61.6689C193.274 61.8447 194 62.7112 194 63.7225V86.8305C194 87.8612 193.254 88.7629 192.231 88.8997C185.871 89.7663 180.968 95.2165 180.968 101.814V101.838C180.968 103.009 180.046 103.973 178.875 103.973H169.08C169.346 97.2663 173.15 87.1988 179.678 86.3129C180.755 86.1686 181.54 85.216 181.54 84.1304V21.0145C181.54 19.9293 180.755 18.9768 179.678 18.832C173.15 17.9458 169.346 6.7074 169.08 0H178.875C180.046 0 180.968 0.964317 180.968 2.13552V2.15901C180.968 8.7569 185.871 14.2071 192.231 15.0736C193.254 15.2104 194 16.1122 194 17.1429V40.2508C194 41.2621 193.274 42.1287 192.274 42.3045C187.667 43.1207 184.165 47.1458 184.165 51.9867Z" fill="#1777AD"/>
<path d="M163.575 90.0022H30.4248C29.3468 90.0022 28.4727 89.1281 28.4727 88.0501V15.9238C28.4727 14.8458 29.3468 13.9717 30.4248 13.9717H163.575C164.653 13.9717 165.527 14.8458 165.527 15.9238V88.0501C165.526 89.1281 164.653 90.0022 163.575 90.0022Z" fill="#E2EEFD"/>
<path d="M163.575 90.0022H154.39V13.9717H163.575C164.653 13.9717 165.527 14.8458 165.527 15.9238V88.0501C165.527 89.1281 164.653 90.0022 163.575 90.0022Z" fill="#C7DCF2"/>
<path d="M54.0411 68.1034C53.4583 68.1034 52.8754 67.8702 52.448 67.4428C52.0206 67.0154 51.7486 66.4325 51.7486 65.8108V40.9034C51.7486 39.6211 52.7977 38.6108 54.0411 38.6108C55.3234 38.6108 56.3337 39.6211 56.3337 40.9034V63.4794L67.7577 63.3628H67.7966C69.04 63.3628 70.0503 64.3731 70.0891 65.6165C70.0891 66.8988 69.0789 67.948 67.7966 67.948L54.08 68.1034H54.0411ZM86.4866 51.5502C85.3208 51.2782 84.2328 51.2394 83.1448 51.1617C81.5517 51.084 80.1917 51.0062 79.1814 50.3068C78.0934 49.5685 77.2386 48.1308 77.6271 46.7708C78.0546 45.1388 79.6866 43.8565 81.5128 43.5845C83.8831 43.2348 86.4088 43.8954 88.1574 45.2942C89.1677 46.0714 90.6443 45.8771 91.4214 44.9057C92.1986 43.8954 92.0043 42.4188 91.0328 41.6417C88.274 39.5045 84.466 38.4942 80.8911 38.9994C77.1997 39.5434 74.0911 42.1468 73.1586 45.5274C72.3037 48.636 73.7026 52.172 76.5391 54.1148C78.6374 55.5525 80.8911 55.6691 82.9117 55.7857C83.8054 55.8245 84.6991 55.8634 85.4763 56.0577C87.3803 56.4851 88.7403 58.1171 88.6237 59.8657C88.5071 61.8474 86.4088 63.0131 84.5048 63.2851C81.6294 63.7125 78.5597 62.6245 76.85 60.6428C76.034 59.6714 74.5963 59.5548 73.6248 60.3708C72.6534 61.2257 72.5368 62.6634 73.3528 63.6348C75.6843 66.3937 79.4534 67.9868 83.2614 67.9868C83.8831 67.9868 84.5437 67.948 85.1654 67.8702C88.8568 67.3262 92.9757 64.684 93.2477 60.1377C93.4808 56.1742 90.5666 52.444 86.4866 51.5502ZM107.788 38.4165H98.929V38.6497C97.7245 38.7274 96.753 39.7377 96.753 40.9422V65.6165C96.753 66.8988 97.7633 67.9091 99.0456 67.9091C100.328 67.9091 101.338 66.8988 101.338 65.6165V55.8634H107.478C112.296 55.8634 116.337 51.9388 116.337 47.3537C116.337 42.4965 112.412 38.4165 107.788 38.4165ZM107.478 51.2394H101.338V43.0405H107.788C109.848 43.0405 111.713 45.1 111.713 47.3537C111.713 49.4131 109.731 51.2394 107.478 51.2394ZM127.498 38.7274H121.397C120.076 38.7274 119.066 39.7377 119.066 41.02V65.6165C119.066 66.8988 120.037 67.948 121.319 67.9868L127.42 68.22H127.498C135.619 68.22 142.263 61.5754 142.263 53.4542C142.263 45.3331 135.619 38.7274 127.498 38.7274ZM127.536 63.5182L123.728 63.4017V43.3902H127.498C133.015 43.3902 137.6 47.8977 137.6 53.4542C137.6 59.0108 133.093 63.5182 127.536 63.5182Z" fill="#92B3D6"/>
</svg>
