<?xml version="1.0" encoding="utf-8"?>
<!-- Generator: Adobe Illustrator 24.2.1, SVG Export Plug-In . SVG Version: 6.00 Build 0)  -->
<svg version="1.1" id="Layer_1" xmlns="http://www.w3.org/2000/svg" xmlns:xlink="http://www.w3.org/1999/xlink" x="0px" y="0px"
	 viewBox="0 0 149 173" style="enable-background:new 0 0 149 173;" xml:space="preserve">
<style type="text/css">
	.st0{fill:#2C3E50;}
	.st1{fill:#E64C3C;}
	.st2{fill:#FFF6E9;}
	.st3{fill:none;stroke:#CD8322;stroke-width:2;stroke-miterlimit:10;}
	.st4{fill:#00001A;}
	.st5{fill:url(#SVGID_1_);}
	.st6{fill:url(#SVGID_2_);}
	.st7{fill:url(#SVGID_3_);}
	.st8{fill:url(#SVGID_4_);}
	.st9{fill:url(#SVGID_5_);}
	.st10{fill:url(#SVGID_6_);}
	.st11{fill:url(#SVGID_7_);}
	.st12{fill:url(#SVGID_8_);}
	.st13{fill:url(#SVGID_9_);}
	.st14{fill:url(#SVGID_10_);}
	.st15{fill:url(#SVGID_11_);}
	.st16{fill:url(#SVGID_12_);}
	.st17{fill:url(#SVGID_13_);}
	.st18{fill:url(#SVGID_14_);}
	.st19{fill:url(#SVGID_15_);}
	.st20{fill:url(#SVGID_16_);}
	.st21{fill:url(#SVGID_17_);}
	.st22{fill:url(#SVGID_18_);}
	.st23{fill:none;stroke:#D4000B;stroke-width:2;stroke-miterlimit:10;}
	.st24{fill:none;stroke:#D4000B;stroke-miterlimit:10;}
	.st25{fill:none;stroke:#00E9D9;stroke-width:1.5;stroke-miterlimit:10;}
	.st26{fill:#00E9D9;}
	.st27{fill:none;stroke:#33FF00;stroke-linecap:round;stroke-linejoin:round;stroke-miterlimit:10;}
	.st28{fill:#D4000B;}
	.st29{fill:none;stroke:#D4000B;stroke-width:1.5;stroke-miterlimit:10;}
	.st30{fill:none;stroke:#D4000B;stroke-width:1.5;stroke-linecap:round;stroke-linejoin:round;stroke-miterlimit:10;}
	.st31{fill:none;stroke:#00E9D9;stroke-width:1.5;stroke-linecap:round;stroke-linejoin:round;stroke-miterlimit:10;}
	.st32{fill:none;stroke:#00E9D9;stroke-linecap:round;stroke-miterlimit:10;}
	.st33{fill:none;stroke:#D4000B;stroke-linecap:round;stroke-miterlimit:10;}
	.st34{fill:none;stroke:#D4000B;stroke-linecap:round;stroke-linejoin:round;stroke-miterlimit:10;}
	.st35{fill:none;stroke:#00E9D9;stroke-miterlimit:10;}
	.st36{fill:none;stroke:#D4000B;stroke-linejoin:round;stroke-miterlimit:10;}
	.st37{fill:#D71920;}
	.st38{fill:#ED1C24;}
	.st39{fill:#CB2027;}
	.st40{fill:#F48072;}
	.st41{fill:#333333;}
	.st42{fill:#4D4D4D;}
	.st43{fill:#F15A24;}
	.st44{fill:#FBB03B;}
	.st45{fill:#999999;}
	.st46{fill:#B3B3B3;}
	.st47{fill:#D90033;}
	.st48{opacity:0.75;fill:#353535;}
	.st49{fill:#00823D;}
	.st50{fill:#FF7A00;}
	.st51{opacity:0.25;fill:#FFFFFF;}
	.st52{fill:#BB1997;}
	.st53{opacity:0.75;}
	.st54{fill:#353535;}
	.st55{fill:#00713A;}
	.st56{fill:#00A992;}
	.st57{fill:#729600;}
	.st58{fill:#C69C6D;}
	.st59{fill:none;stroke:#4F342D;stroke-width:5;stroke-miterlimit:10;}
	.st60{fill:#4F342D;}
	.st61{fill-rule:evenodd;clip-rule:evenodd;fill:#342D2A;}
	.st62{fill-rule:evenodd;clip-rule:evenodd;fill:#7D706A;}
	.st63{fill-rule:evenodd;clip-rule:evenodd;fill:#4D4441;}
	.st64{fill-rule:evenodd;clip-rule:evenodd;fill:#747A50;}
	.st65{fill-rule:evenodd;clip-rule:evenodd;fill:#878E63;}
	.st66{fill-rule:evenodd;clip-rule:evenodd;fill:#978A85;}
	.st67{fill-rule:evenodd;clip-rule:evenodd;fill:#D5CAC6;}
</style>
<g>
	<path class="st61" d="M86.1,49.1c0-4.1-12.4-4.1-12.4,0v44h12.4V49.1z"/>
	<path class="st61" d="M101,49.1c0-4.1-12.4-4.1-12.4,0v44H101V49.1z"/>
	<path class="st61" d="M63.7,3.1c0-4.1-12.4-4.1-12.4,0v44h12.4V3.1z"/>
	<path class="st62" d="M67,44.4c0-6.4-19.1-6.4-19.1,0v37.4H67V44.4z"/>
	<path class="st63" d="M60.1,60.6h34.4l2.3-4.3l9.8,6.5c0.2,0.1,0.3,0.2,0.5,0.3l0,0l0,0c3.7,2.6,6.1,6.9,6.1,11.7v84
		c0,7.8-6.4,14.2-14.2,14.2H60.1c-3,0-5.7-0.9-8-2.5v0l-11.6-8l5.4-10.2V74.8C45.9,67,52.3,60.6,60.1,60.6z"/>
	<path class="st61" d="M50.1,53.9h38.8c7.8,0,14.2,6.4,14.2,14.2v84c0,7.8-6.4,14.2-14.2,14.2H50.1c-7.8,0-14.2-6.4-14.2-14.2v-84
		C35.8,60.3,42.2,53.9,50.1,53.9z"/>
	<path class="st64" d="M51.2,82.2h36.6c3.9,0,7.1,3.2,7.1,7.1v19.4c0,3.9-3.2,7.1-7.1,7.1H51.2c-3.9,0-7.1-3.2-7.1-7.1V89.3
		C44.1,85.4,47.3,82.2,51.2,82.2z"/>
	<path class="st65" d="M52.4,85.6h34.2c2.9,0,5.3,2.4,5.3,5.3v0c0,2.9-2.4,5.3-5.3,5.3H52.4c-2.9,0-5.3-2.4-5.3-5.3v0
		C47.1,88,49.5,85.6,52.4,85.6z"/>
	<path class="st63" d="M51.2,61.5h36.6c3.9,0,7.1,3.2,7.1,7.1v3.1c0,3.9-3.2,7.1-7.1,7.1H51.2c-3.9,0-7.1-3.2-7.1-7.1v-3.1
		C44.1,64.7,47.3,61.5,51.2,61.5z"/>
	<path class="st61" d="M57.8,64.6c1.5,0,2.8,1.2,2.8,2.8c0,1.5-1.2,2.8-2.8,2.8c-1.5,0-2.8-1.2-2.8-2.8C55,65.8,56.3,64.6,57.8,64.6
		L57.8,64.6z M61.9,70.9c1.5,0,2.8,1.2,2.8,2.8c0,1.5-1.2,2.8-2.8,2.8c-1.5,0-2.8-1.2-2.8-2.8C59.1,72.1,60.4,70.9,61.9,70.9
		L61.9,70.9z M76.8,70.9c1.5,0,2.8,1.2,2.8,2.8c0,1.5-1.2,2.8-2.8,2.8c-1.5,0-2.8-1.2-2.8-2.8C74,72.1,75.3,70.9,76.8,70.9
		L76.8,70.9z M69.4,70.9c1.5,0,2.8,1.2,2.8,2.8c0,1.5-1.2,2.8-2.8,2.8c-1.5,0-2.8-1.2-2.8-2.8C66.6,72.1,67.8,70.9,69.4,70.9
		L69.4,70.9z M80.2,64.6c1.5,0,2.8,1.2,2.8,2.8c0,1.5-1.2,2.8-2.8,2.8c-1.5,0-2.8-1.2-2.8-2.8C77.4,65.8,78.6,64.6,80.2,64.6
		L80.2,64.6z M72.7,64.6c1.5,0,2.8,1.2,2.8,2.8c0,1.5-1.2,2.8-2.8,2.8c-1.5,0-2.8-1.2-2.8-2.8C69.9,65.8,71.2,64.6,72.7,64.6
		L72.7,64.6z M65.3,64.6c1.5,0,2.8,1.2,2.8,2.8c0,1.5-1.2,2.8-2.8,2.8c-1.5,0-2.8-1.2-2.8-2.8C62.5,65.8,63.7,64.6,65.3,64.6z"/>
	<path class="st63" d="M59.2,4.8L59.2,4.8c-1.3,0-2.4,1.1-2.4,2.4v25.1c0,1.3,1.1,2.4,2.4,2.4l0,0c1.3,0,2.4-1.1,2.4-2.4V7.3
		C61.7,5.9,60.6,4.8,59.2,4.8z"/>
	<rect x="35.8" y="118.5" class="st63" width="72.5" height="3.5"/>
	<g>
		<path class="st63" d="M108.3,124.4c-24.2,0-48.3,0-72.5,0c0,1.2,0,2.3,0,3.5c24.2,0,48.3,0,72.5,0
			C108.3,126.7,108.3,125.5,108.3,124.4z"/>
		<path class="st63" d="M108.3,130.2c-24.2,0-48.3,0-72.5,0c0,1.2,0,2.3,0,3.5c24.2,0,48.3,0,72.5,0
			C108.3,132.6,108.3,131.4,108.3,130.2z"/>
	</g>
	<rect x="35.8" y="136.1" class="st63" width="72.5" height="3.5"/>
	<g>
		<g>
			<path class="st66" d="M59.4,144c8.1,6.3-0.3,16.6-8.4,10.4l-2.4-1.8l1.6-1.9c0,0,0-0.1,0-0.2c0-3.3,2.4-6.1,5.6-6.6l1.4-1.6
				L59.4,144z"/>
			<circle class="st62" cx="53.1" cy="147.6" r="6.7"/>
			<path class="st67" d="M56.8,146c0.7,0,1.4-0.6,1.4-1.4c0-0.7-0.6-1.4-1.4-1.4c-0.7,0-1.4,0.6-1.4,1.4C55.4,145.4,56,146,56.8,146
				z"/>
		</g>
		<g>
			<path class="st66" d="M85.9,144c8.1,6.3-0.3,16.6-8.4,10.4l-2.4-1.8l1.6-1.9c0,0,0-0.1,0-0.2c0-3.3,2.4-6.1,5.6-6.6l1.4-1.6
				L85.9,144z"/>
			<circle class="st62" cx="79.6" cy="147.6" r="6.7"/>
			<path class="st67" d="M83.3,146c0.7,0,1.4-0.6,1.4-1.4c0-0.7-0.6-1.4-1.4-1.4c-0.7,0-1.4,0.6-1.4,1.4C82,145.4,82.6,146,83.3,146
				z"/>
		</g>
	</g>
</g>
</svg>
