<svg width="154" height="154" viewBox="0 0 154 154" fill="none" xmlns="http://www.w3.org/2000/svg">
<path d="M148.738 119.555L148.738 37.9823C155.868 28.5928 155.222 15.1812 147.011 6.9707C140.107 13.8794 140.599 13.4538 140.568 13.4234C145.831 18.6865 145.827 27.6623 140.742 33.3701C135.353 39.5498 125.694 40.2711 119.408 34.3716C115.654 38.3714 117.144 36.8939 112.947 40.8331C118.479 46.7278 118.331 55.8265 112.61 61.547C106.89 67.2675 97.7915 67.4149 91.8968 61.8828C88.143 65.8829 89.6324 64.4048 85.4362 68.3453C90.9692 74.2381 90.8658 83.2918 85.2006 88.957C79.5355 94.6222 70.4818 94.7258 64.5889 89.1926L58.3472 95.8398C62.902 100.117 68.8453 102.434 75.0822 102.364C89.6017 102.203 100.63 89.2415 98.2964 74.7248C114.367 77.2625 128.369 63.475 125.785 47.2099C130.567 47.9695 135.347 47.2901 139.619 45.3241V119.555C139.619 123.074 136.756 125.938 133.236 125.938C129.717 125.938 126.854 123.075 126.853 119.555L126.853 108.612H117.734L117.734 119.555C117.734 123.829 119.473 127.704 122.28 130.51C131.977 140.208 148.738 133.383 148.738 119.555Z" fill="#86BFEC"/>
<path d="M58.2344 89.2924L147.527 -2.40263e-05L153.974 6.44692L64.6813 95.7393L58.2344 89.2924Z" fill="#604850"/>
<path d="M61.458 92.5161L150.75 3.22372L153.974 6.4472L64.6815 95.7396L61.458 92.5161Z" fill="#3E2F3B"/>
<path d="M23.64 153.987L0 130.346L29.0134 101.329C49.0707 121.386 42.7149 115.035 52.6516 124.971L23.64 153.987Z" fill="#604850"/>
<path d="M23.6401 153.987L11.8188 142.165L40.8344 113.15C50.9987 123.319 48.281 120.601 52.6513 124.971L23.6401 153.987Z" fill="#3E2F3B"/>
<path d="M49.4316 126.133C61.3505 126.133 71.0126 116.471 71.0126 104.552C71.0126 92.6336 61.3505 82.9714 49.4316 82.9714C37.5127 82.9714 27.8506 92.6336 27.8506 104.552C27.8506 116.471 37.5127 126.133 49.4316 126.133Z" fill="#FF80A9"/>
<path d="M64.692 119.813C56.2775 128.227 42.5863 128.227 34.1719 119.813L64.692 89.2926C73.1065 97.7071 73.1065 111.398 64.692 119.813Z" fill="#FF3C7D"/>
</svg>
