<svg width="185" height="136" viewBox="0 0 185 136" fill="none" xmlns="http://www.w3.org/2000/svg">
<path d="M18.5 0H52.4105C53.2283 0 54.0126 0.324961 54.5906 0.903039L60.651 6.96337L165.703 112.015L184.091 130.403C186.033 132.345 184.657 135.667 181.91 135.667H148L18.5 0Z" fill="#F4DBB3"/>
<path d="M136.641 62.1038L124.63 6.05367C123.915 2.71436 120.621 0.592259 117.285 1.32109L97.843 5.5679L95.0557 70.3894L121.422 96.7558L136.641 62.1038Z" fill="#FFD97D"/>
<path d="M124.63 6.05367C123.914 2.71436 120.621 0.592259 117.285 1.32109L113.393 2.17127C114.715 3.02853 115.713 4.38978 116.069 6.05367L127.677 60.2226C127.939 61.4457 127.81 62.7203 127.307 63.8652L115.474 90.8067L121.422 96.7558L136.641 62.1038L124.63 6.05367Z" fill="#FFC269"/>
<path d="M147.483 122.817C161.813 120.163 172.666 107.599 172.666 92.4997C172.666 75.4708 158.862 61.6665 141.833 61.6665C129.907 61.6665 119.562 68.4374 114.434 78.3448L119.301 107.687L147.483 122.817Z" fill="#E55964"/>
<path d="M142.18 110.997C152.237 110.812 160.333 102.601 160.333 92.5C160.333 82.2826 152.05 74 141.833 74C135.752 74 130.356 76.934 126.984 81.4633L119.3 107.687L142.18 110.997Z" fill="#DB404F"/>
<path d="M141.833 61.6666C140.372 61.6666 138.935 61.7697 137.528 61.9663C152.541 64.0407 164.105 76.9163 164.105 92.5002C164.105 105.565 155.976 116.726 144.503 121.217L147.483 122.817C161.813 120.163 172.666 107.599 172.666 92.5002C172.666 75.4713 158.862 61.6666 141.833 61.6666Z" fill="#DB404F"/>
<path d="M135.667 135.666H160.333L24.6668 0H0L82.7408 135.666H135.667Z" fill="#EAC89F"/>
<path d="M104.423 49.8703C108.543 44.6282 111 38.0177 111 30.8332C111 13.8043 97.1958 0 80.1672 0C69.113 0 59.417 5.81726 53.9746 14.5577L81.0356 56.3684L104.423 49.8703Z" fill="#E55964"/>
<path d="M66.8154 18.028C70.1823 14.5183 74.9197 12.3333 80.1675 12.3333C90.3849 12.3333 98.6675 20.6162 98.6675 30.8333C98.6675 34.4834 97.6103 37.8867 95.7853 40.7536L81.0359 56.3685L66.8154 21.5769V18.028Z" fill="#DB404F"/>
<path d="M80.1671 0C78.7079 0 77.2733 0.104225 75.8682 0.300392C90.8785 2.37708 102.439 15.2515 102.439 30.8332C102.439 38.0177 99.9818 44.6282 95.8619 49.8703L79.7308 54.3524L81.0359 56.3684L104.424 49.8703C108.543 44.6282 111 38.0177 111 30.8332C111 13.8046 97.1957 0 80.1671 0Z" fill="#DB404F"/>
<path d="M135.667 135.666H6.16679C2.76086 135.666 0 132.906 0 129.5V0L135.667 135.666Z" fill="#F4DBB3"/>
<path d="M43.1665 126.125H18.4998C16.958 126.125 15.708 124.875 15.708 123.333C15.708 121.791 16.958 120.541 18.4998 120.541H43.1665C44.7083 120.541 45.9583 121.791 45.9583 123.333C45.9583 124.875 44.7083 126.125 43.1665 126.125Z" fill="#EAC89F"/>
<path d="M24.667 76.7915C23.1252 76.7915 21.8752 75.542 21.8752 73.9998C21.8752 72.139 20.3613 70.6251 18.5005 70.6251C16.6394 70.6251 15.1255 72.139 15.1255 73.9998C15.1255 75.542 13.8755 76.7915 12.3337 76.7915C10.792 76.7915 9.54199 75.542 9.54199 73.9998C9.54162 69.0603 13.5606 65.0416 18.5002 65.0416C23.4397 65.0416 27.4583 69.0603 27.4583 73.9998C27.4587 75.542 26.2087 76.7915 24.667 76.7915Z" fill="#EAC89F"/>
<path d="M24.667 107.625C23.1252 107.625 21.8752 106.375 21.8752 104.833C21.8752 102.972 20.3613 101.458 18.5005 101.458C16.6394 101.458 15.1255 102.972 15.1255 104.833C15.1255 106.375 13.8755 107.625 12.3337 107.625C10.792 107.625 9.54199 106.375 9.54199 104.833C9.54199 99.8933 13.5606 95.8746 18.5005 95.8746C23.4404 95.8746 27.4587 99.8936 27.4587 104.833C27.4587 106.375 26.2087 107.625 24.667 107.625Z" fill="#EAC89F"/>
<path d="M49.333 92.2083C47.7912 92.2083 46.5412 90.9587 46.5412 89.4165C46.5412 87.5557 45.0273 86.0419 43.1666 86.0419C41.3058 86.0419 39.7915 87.5557 39.7915 89.4165C39.7915 90.9587 38.5415 92.2083 36.9998 92.2083C35.458 92.2083 34.208 90.9587 34.208 89.4165C34.208 84.4766 38.2266 80.4584 43.1666 80.4584C48.1065 80.4584 52.1247 84.477 52.1247 89.4165C52.1247 90.9587 50.8748 92.2083 49.333 92.2083Z" fill="#EAC89F"/>
<path d="M138.64 113.973C144.581 110.641 146.695 103.124 143.363 97.1827C140.73 92.4904 135.487 90.1885 130.472 91.0692C130.66 88.7144 130.175 86.2804 128.933 84.0652C125.6 78.1247 118.083 76.0105 112.142 79.3431C110.385 80.3287 108.963 81.6811 107.917 83.25L138.64 113.973Z" fill="#B3E59F"/>
<path d="M97.8786 73.2116C102.756 73.6341 107.623 71.1107 109.961 66.472C113.027 60.3893 110.581 52.9733 104.498 49.9076C102.23 48.7644 99.7766 48.3885 97.4326 48.6811C98.09 43.6321 95.5577 38.4964 90.7529 36.0746C88.4849 34.9315 86.0315 34.5555 83.6875 34.8477C84.3449 29.7988 81.8122 24.6631 77.0078 22.2417C74.4026 20.9284 71.5531 20.6295 68.905 21.1912C67.7816 18.7285 65.846 16.6161 63.2408 15.3032C57.1581 12.2375 49.7421 14.6835 46.6764 20.7661C46.5342 21.0483 46.4039 21.3334 46.2852 21.6208L97.8786 73.2116Z" fill="#B3E59F"/>
<path d="M104.498 49.9079C102.23 48.7647 99.7765 48.3888 97.4326 48.6814C98.0899 43.6324 95.5576 38.4967 90.7528 36.0749C88.4848 34.9318 86.0314 34.5558 83.6875 34.848C84.3448 29.7991 81.8122 24.6634 77.0077 22.2416C74.4025 20.9287 71.553 20.6295 68.905 21.1915C67.7816 18.7288 65.846 16.6164 63.2407 15.3032C60.0577 13.6989 56.51 13.6065 53.4111 14.7523C53.8388 14.9112 54.2624 15.0929 54.6793 15.3032C57.2846 16.6164 59.2202 18.7285 60.3436 21.1915C62.9917 20.6298 65.8411 20.9287 68.4464 22.2416C73.2512 24.663 75.7835 29.7987 75.1261 34.848C77.4701 34.5558 79.9235 34.9318 82.1915 36.0749C86.9963 38.4963 89.5286 43.632 88.8712 48.6814C91.2155 48.3891 93.6685 48.7651 95.9366 49.9079C102.019 52.9736 104.465 60.3896 101.399 66.4722C100.242 68.7689 98.4629 70.5452 96.3706 71.704L97.8785 73.2115C102.756 73.634 107.623 71.1106 109.961 66.4719C113.026 60.3896 110.581 52.9732 104.498 49.9079Z" fill="#8AD689"/>
<path d="M143.362 97.1826C140.73 92.4903 135.487 90.1884 130.472 91.0691C130.66 88.7143 130.175 86.2803 128.933 84.0651C125.906 78.6696 119.428 76.4317 113.813 78.5628C116.435 79.5511 118.736 81.4308 120.214 84.0651C121.457 86.2803 121.941 88.7143 121.753 91.0691C126.768 90.188 132.011 92.4903 134.644 97.1826C136.916 101.234 136.654 106.017 134.375 109.708L138.64 113.973C144.581 110.641 146.695 103.123 143.362 97.1826Z" fill="#8AD689"/>
</svg>
