<svg id="Layer_1" data-name="Layer 1" xmlns="http://www.w3.org/2000/svg" viewBox="0 0 149 173"><defs><style>.cls-1{fill:#2c3e50;}.cls-2{fill:#e64c3c;}.cls-3{fill:#fff6e9;}.cls-4{fill:none;stroke:#cd8322;stroke-miterlimit:10;stroke-width:2px;}</style></defs><path class="cls-1" d="M74.57,23.86l-6-6,3-17.9H83.52l3,14.91Z"/><path class="cls-2" d="M137.24,88.24a3,3,0,0,1-2.15,3.14L118.3,96.56a2.81,2.81,0,0,1-1.79,0c-.09,0-.48-2.27-.55-2.33L116.27,52l3-13.2,15.93-6.71c1,5.3,1.54,9.1,1.83,11.63C137.14,44.27,137.2,87.79,137.24,88.24Z"/><path class="cls-3" d="M63.09,164.34l-2.69,6.81a3,3,0,0,1-3.61,1.73L32,164.05a3,3,0,0,1-2.06-3.46l3.19-14.68,17.6-14.67Z"/><path class="cls-3" d="M117.22,164.05l-24.75,8.83a3,3,0,0,1-3.61-1.73l-2.72-6.86,12.29-24.1,17.63,5.72,3.22,14.68A3,3,0,0,1,117.22,164.05Z"/><path class="cls-2" d="M116.06,145.91,86.14,164.29,77.31,142a3,3,0,0,0-5.49,0l-8.73,22.28-30-18.43,9.72-44.5,28.76-9,34.71,9Z"/><path class="cls-2" d="M105.2,96.34l1.1,5.07H42.83l1.11-5.07"/><path class="cls-2" d="M11.93,43.81c.29-2.52.87-6.33,1.83-11.62L29.69,38.9l3,13.2L33,94.3c-.07.06-.46,2.31-.55,2.33a2.81,2.81,0,0,1-1.79.06L13.91,91.5a3,3,0,0,1-2.15-3.13C11.8,87.92,11.86,44.4,11.93,43.81Z"/><path class="cls-2" d="M135.24,32.06l-19,21.33a2.64,2.64,0,0,1-1.17-.89l-7.52-14.08L104.75,86.5H65.62l8.95-62.64,1-2.77L83.52,0h6a2.93,2.93,0,0,1,2.93,2.92V6a3,3,0,0,0,3,3h20.88c6,0,14.91,3,17.89,17.89C134.61,28.72,134.94,30.48,135.24,32.06Z"/><path class="cls-2" d="M74.57,17.9V86.5H44.39L41.58,38.71,34,52.5a2.74,2.74,0,0,1-1.46,1L13.75,32.93q.5-2.73,1.17-6.09C17.9,11.93,26.85,9,32.81,9H53.69a3,3,0,0,0,3-3v-3A2.93,2.93,0,0,1,59.6,0h12Z"/><polygon class="cls-3" points="79.46 116.92 79.46 23.65 88.06 0 83.52 0 74.57 23.86 74.57 116.18 79.46 116.92"/><path class="cls-3" d="M39.16,118.23s28.06,12.64,70.83,0l-1.27-5.82s-40.86,8.61-68.29,0Z"/><path class="cls-1" d="M104.75,86.5l-.12,2a30.34,30.34,0,0,0,.57,7.84H43.94a29.9,29.9,0,0,0,.56-7.84l-.12-2"/><rect class="cls-4" x="70.28" y="85.42" width="7.06" height="12" rx="1.42"/><line class="cls-4" x1="77.35" y1="91.42" x2="73.82" y2="91.42"/><path class="cls-3" d="M56.67,5.62H72.52L71.59,0h-12s-2.93.23-2.93,2.92Z"/><path class="cls-3" d="M86,5.62h6.45V2.92A3,3,0,0,0,89.54,0H87.21Z"/><path class="cls-3" d="M116.06,90.43l21.15-6.25,0,4.06a3,3,0,0,1-2.15,3.14L118.3,96.56s-2.36,1-2.34-2.38S116.06,90.43,116.06,90.43Z"/><path class="cls-3" d="M32.94,90.55,11.78,84.3l0,4.06a3,3,0,0,0,2.15,3.13L30.7,96.68s2.36.95,2.34-2.38S32.94,90.55,32.94,90.55Z"/></svg>