<svg width="187" height="187" viewBox="0 0 187 187" fill="none" xmlns="http://www.w3.org/2000/svg">
<g clip-path="url(#clip0)">
<path d="M96.6244 80.9104L73.1947 70.2419C73.1947 70.2419 63.139 65.2141 56.177 70.2419C49.2152 75.2701 31.0383 90.9123 14.407 72.6484C14.407 72.6484 0 58.0592 0 81.4582C0 99.6363 0 114.067 0 114.067H10.1524H20.5948H110.259C110.426 114.067 110.093 114.059 110.259 114.067C115.519 114.32 120.637 114.366 126.929 113.934C126.425 113.969 126.929 113.934 126.929 113.934C126.929 105.451 127.933 99.6812 129.217 95.7553L129.214 95.7487L105.8 85.0883" fill="#FF633E"/>
<path d="M8.30834 123.815V114.067C8.30834 114.067 8.30834 113.926 8.30834 113.663C8.30834 111.279 8.30834 98.5224 8.30834 82.676C8.30834 82.2713 8.30834 81.8666 8.30834 81.458C8.30834 75.2077 9.33647 71.6697 10.8434 69.838C6.57676 67.181 0 65.6477 0 81.458C0 81.8666 0 82.2713 0 82.676C0 98.5224 0 111.28 0 113.663C0 113.926 0 114.067 0 114.067V123.815C0 129.422 4.54497 133.968 10.1524 133.968H18.4604C12.8533 133.968 8.30834 129.423 8.30834 123.815Z" fill="#F7502F"/>
<path d="M73.8886 55.0792C60.8355 48.6975 62.1292 68.5323 62.1292 68.5323C67.9112 67.8033 73.5986 70.6462 73.5986 70.6462L117.424 90.6012L129.618 96.1531L129.621 96.1597C129.619 96.1644 129.618 96.1688 129.617 96.1732C131.906 89.1636 135.094 88.0511 135.094 88.0511C135.094 88.0511 86.9417 61.4606 73.8886 55.0792Z" fill="#E03C2F"/>
<path d="M134.464 93.2534L75.9956 62.8451C75.9956 62.8451 69.4787 59.5883 62.8534 60.4236C62.8534 60.4236 62.8519 60.3995 62.8494 60.355C61.8538 64.2863 62.1299 68.5329 62.1299 68.5329C67.9119 67.8039 73.5993 70.6469 73.5993 70.6469L117.424 90.6018L129.619 96.1537L129.622 96.1603C129.62 96.1651 129.619 96.1694 129.617 96.1738C130.909 92.2194 138.204 95.9306 139.334 94.871L134.464 93.2534Z" fill="#CC251D"/>
<path d="M80.8477 66.2333C80.3167 66.2333 79.7791 66.0938 79.2907 65.8009C77.855 64.9393 77.3893 63.0773 78.2509 61.6416L82.6023 54.3899C83.4639 52.9534 85.3266 52.4877 86.762 53.35C88.1977 54.2116 88.6634 56.0736 87.8018 57.5093L83.4504 64.7607C82.8821 65.7081 81.8773 66.2333 80.8477 66.2333Z" fill="#AA1713"/>
<path d="M90.1027 71.2029C89.572 71.2029 89.034 71.0634 88.5457 70.7708C87.11 69.9092 86.6443 68.0469 87.5055 66.6112L91.8566 59.3595C92.7185 57.923 94.5808 57.4584 96.0162 58.3193C97.4519 59.1809 97.9176 61.0432 97.0564 62.4789L92.7054 69.7306C92.1367 70.6777 91.1323 71.2029 90.1027 71.2029Z" fill="#AA1713"/>
<path d="M99.3578 76.1728C98.8267 76.1728 98.2891 76.0332 97.8008 75.7403C96.3643 74.8787 95.8994 73.0168 96.7606 71.581L101.112 64.3293C101.974 62.8929 103.836 62.4272 105.272 63.2895C106.708 64.1511 107.173 66.0131 106.311 67.4488L101.96 74.7005C101.392 75.6479 100.388 76.1728 99.3578 76.1728Z" fill="#AA1713"/>
<path d="M108.612 81.1429C108.081 81.1429 107.543 81.0034 107.055 80.7104C105.618 79.8489 105.153 77.9869 106.015 76.5512L110.366 69.2995C111.228 67.863 113.09 67.398 114.526 68.2596C115.961 69.1212 116.427 70.9832 115.565 72.4189L111.214 79.6706C110.645 80.6177 109.641 81.1429 108.612 81.1429Z" fill="#AA1713"/>
<path d="M117.867 86.1126C117.336 86.1126 116.798 85.9731 116.309 85.6801C114.874 84.8186 114.408 82.9566 115.269 81.5209L119.621 74.2695C120.483 72.833 122.345 72.3674 123.781 73.2297C125.216 74.0913 125.682 75.9532 124.82 77.389L120.469 84.6403C119.901 85.5874 118.897 86.1126 117.867 86.1126Z" fill="#AA1713"/>
<path d="M126.56 106.658C116.209 106.658 105.624 103.123 95.3646 99.6956C79.3798 94.357 64.2822 89.3146 50.3664 96.6225C25.9169 109.462 14.4142 100.507 13.9365 100.12L17.8639 95.4432L17.8219 95.4096C17.9114 95.4772 26.9998 102.018 47.458 91.2741C63.7339 82.7269 80.8232 88.4351 97.3493 93.9542C108.248 97.5941 118.542 101.028 128.391 100.55C130.093 100.466 131.541 101.754 131.626 103.426C131.71 105.099 130.4 106.522 128.698 106.605C127.987 106.641 127.274 106.658 126.56 106.658Z" fill="#FCF1D4"/>
<path d="M168.95 101.555C170.03 100.217 171.382 99.2304 172.86 98.6L172.861 98.5967L134.69 87.6462C134.69 87.6462 126.929 90.3285 126.929 113.933C144.036 112.915 162.802 109.167 168.95 101.555Z" fill="#FCF1D4"/>
<path d="M140.717 89.3751L134.691 87.6465C134.691 87.6465 126.93 90.3288 126.93 113.933C129.635 113.772 132.38 113.542 135.112 113.24C135.211 98.3208 138.455 91.9825 140.717 89.3751Z" fill="#F2D17E"/>
<path d="M10.1524 114.067H20.5948H26.7789C26.6095 94.0717 0 82.676 0 82.676C0 100.276 0 114.067 0 114.067H10.1524Z" fill="#E03C2F"/>
<path d="M8.30895 108.428C8.30895 103.615 8.30895 96.083 8.30895 87.2586C3.67961 84.2524 0.000976562 82.676 0.000976562 82.676C0.000976562 98.5224 0.000976562 111.28 0.000976562 113.663C0.000976562 113.926 0.000976562 114.067 0.000976562 114.067H5.39292H8.30895H12.6019C8.58141 114.067 8.32137 109.336 8.30895 108.428Z" fill="#CC251D"/>
<path d="M36.9215 133.968H110.032C110.804 134.001 113.072 134.083 116.373 134.083C121.817 134.083 130.068 133.859 139.029 132.814C161.332 130.214 176.713 123.854 184.744 113.91C188.268 109.548 187.588 103.156 183.226 99.6329C178.864 96.1091 172.472 96.7888 168.949 101.151C160.732 111.324 129.97 114.597 110.759 113.675C110.593 113.667 110.426 113.663 110.26 113.663H20.5948H10.1524H0V123.815C0 129.422 4.54497 133.968 10.1524 133.968H27.489" fill="#275D68"/>
<path d="M183.524 99.8867C183.266 101.615 182.561 103.299 181.383 104.757C178.342 108.523 174.244 111.773 169.118 114.502C160.862 119.022 149.855 122.116 136.198 123.742C127.419 124.786 119.336 125.01 114.004 125.01C113.795 125.01 113.591 125.01 113.39 125.009C113.128 125.009 112.871 125.008 112.623 125.006V125.005C110.14 124.987 108.434 124.923 107.791 124.895H36.1695H26.929H9.94568C9.52858 124.895 9.11842 124.866 8.71521 124.815H6.79152C4.17973 124.815 1.79914 123.829 0 122.208V123.816C0 129.423 4.54497 133.969 10.1524 133.969H27.4889H36.9215H110.032C110.803 134.002 113.072 134.084 116.373 134.084C121.817 134.084 130.068 133.859 139.029 132.815C161.332 130.215 176.713 123.854 184.744 113.911C188.186 109.65 187.615 103.456 183.524 99.8867Z" fill="#204C5B"/>
<path d="M183.226 99.633C178.864 96.1092 172.472 96.7893 168.949 101.151C162.801 108.762 144.036 112.511 126.929 113.53C126.924 113.531 114.097 117.306 114.965 134.079C115.411 134.082 115.878 134.083 116.373 134.083C121.817 134.083 130.068 133.859 139.029 132.814C161.332 130.214 176.713 123.854 184.744 113.91C188.268 109.548 187.588 103.156 183.226 99.633Z" fill="#527A84"/>
<path d="M183.226 99.6329C183.195 99.6073 183.163 99.5847 183.132 99.5598C182.934 101.43 182.227 103.265 180.983 104.838C173.115 114.782 158.047 121.142 136.199 123.742C128.471 124.662 121.284 124.946 116.036 125C115.225 127.491 114.78 130.484 114.966 134.079C115.412 134.082 115.879 134.084 116.374 134.084C121.818 134.084 130.069 133.859 139.03 132.815C161.333 130.215 176.714 123.854 184.745 113.911C188.269 109.548 187.588 103.156 183.226 99.6329Z" fill="#426972"/>
</g>
<defs>
<clipPath id="clip0">
<rect width="187" height="187" fill="white"/>
</clipPath>
</defs>
</svg>
