<svg width="116" height="163" viewBox="0 0 116 163" fill="none" xmlns="http://www.w3.org/2000/svg">
<path d="M98.4794 5.30685e-06H37.3544C36.4531 -0.00158649 35.5881 0.354976 34.9501 0.991695L0.991694 34.9498C0.355294 35.5878 -0.00158649 36.4528 5.30215e-06 37.3541V146.021C0.000323662 155.398 7.60211 163 16.9794 163H98.4794C107.857 163 115.458 155.398 115.458 146.021V16.9791C115.458 7.60179 107.857 5.30685e-06 98.4794 5.30685e-06Z" fill="#CFD8DC"/>
<path d="M30.5625 54.3335H84.896C90.5223 54.3335 95.0835 58.8946 95.0835 64.521V132.438C95.0835 138.064 90.5223 142.625 84.896 142.625H30.5625C24.9361 142.625 20.375 138.064 20.375 132.438V64.521C20.375 58.8946 24.9361 54.3335 30.5625 54.3335Z" fill="#FFC107"/>
<path d="M95.0835 95.0834H20.375V101.875H95.0835V95.0834Z" fill="#FFA000"/>
<path d="M44.1459 81.4999C42.2705 81.4999 40.75 79.9794 40.75 78.104V57.7289C40.75 55.8535 42.2705 54.333 44.1459 54.333C46.0214 54.333 47.5419 55.8535 47.5419 57.7289V78.104C47.5419 79.9794 46.0214 81.4999 44.1459 81.4999Z" fill="#FFA000"/>
<path d="M57.729 101.875C55.8535 101.875 54.333 100.354 54.333 98.479V78.1039C54.333 76.2285 55.8535 74.708 57.729 74.708C59.6044 74.708 61.1249 76.2285 61.1249 78.1039V98.479C61.1249 100.354 59.6044 101.875 57.729 101.875Z" fill="#FFA000"/>
<path d="M71.3129 81.4999C69.4375 81.4999 67.917 79.9794 67.917 78.104V57.7289C67.917 55.8535 69.4375 54.333 71.3129 54.333C73.1884 54.333 74.7089 55.8535 74.7089 57.7289V78.104C74.7086 79.9794 73.1884 81.4999 71.3129 81.4999Z" fill="#FFA000"/>
<path d="M57.729 142.625C55.8535 142.625 54.333 141.104 54.333 139.229V118.854C54.333 116.978 55.8535 115.458 57.729 115.458C59.6044 115.458 61.1249 116.978 61.1249 118.854V139.229C61.1249 141.104 59.6044 142.625 57.729 142.625Z" fill="#FFA000"/>
<path d="M44.1459 122.25C42.2705 122.25 40.75 120.729 40.75 118.854V98.479C40.75 96.6035 42.2705 95.083 44.1459 95.083C46.0214 95.083 47.5419 96.6035 47.5419 98.479V118.854C47.5419 120.729 46.0214 122.25 44.1459 122.25Z" fill="#FFA000"/>
<path d="M71.3129 122.25C69.4375 122.25 67.917 120.729 67.917 118.854V98.479C67.917 96.6035 69.4375 95.083 71.3129 95.083C73.1884 95.083 74.7089 96.6035 74.7089 98.479V118.854C74.7086 120.729 73.1884 122.25 71.3129 122.25Z" fill="#FFA000"/>
</svg>
