<svg width="136" height="171" viewBox="0 0 136 171" fill="none" xmlns="http://www.w3.org/2000/svg">
<path d="M133.289 66.2126L114 49.875V28.5C114 26.6103 113.25 24.7981 111.913 23.4619C110.577 22.1257 108.765 21.375 106.875 21.375H78.3753C76.4856 21.375 74.6733 22.1257 73.3371 23.4619C72.0009 24.7981 71.2503 26.6103 71.2503 28.5V49.875L51.9611 66.2126C50.9649 67.2092 50.2865 68.4788 50.0117 69.8608C49.737 71.2429 49.8782 72.6754 50.4176 73.9772C50.957 75.279 51.8703 76.3917 53.042 77.1745C54.2136 77.9573 55.5911 78.375 57.0003 78.375H128.25C129.659 78.375 131.037 77.9573 132.209 77.1745C133.38 76.3917 134.294 75.279 134.833 73.9772C135.372 72.6754 135.514 71.2429 135.239 69.8608C134.964 68.4788 134.286 67.2092 133.289 66.2126Z" fill="#E6F9FE"/>
<path d="M64.6685 73.9753C64.1295 72.6738 63.9883 71.2418 64.2629 69.8601C64.5374 68.4784 65.2154 67.2091 66.2111 66.2126L85.5003 49.875V28.5C85.5003 26.6103 86.2509 24.7981 87.5871 23.4619C88.9233 22.1257 90.7356 21.375 92.6253 21.375H78.3753C76.4856 21.375 74.6733 22.1257 73.3371 23.4619C72.0009 24.7981 71.2503 26.6103 71.2503 28.5V49.875L51.9611 66.2126C50.9649 67.2092 50.2865 68.4788 50.0117 69.8608C49.737 71.2429 49.8782 72.6754 50.4176 73.9772C50.957 75.279 51.8703 76.3917 53.042 77.1745C54.2136 77.9573 55.5911 78.375 57.0003 78.375H71.2503C69.8411 78.3747 68.4636 77.9566 67.2921 77.1734C66.1206 76.3903 65.2076 75.2773 64.6685 73.9753Z" fill="#CCF2FE"/>
<path d="M114 49.875H71.2503L51.9611 66.2126C50.9649 67.2092 50.2865 68.4788 50.0117 69.8608C49.737 71.2429 49.8782 72.6754 50.4176 73.9772C50.957 75.279 51.8703 76.3917 53.042 77.1745C54.2136 77.9573 55.5911 78.3751 57.0003 78.375H128.25C129.659 78.3751 131.037 77.9573 132.209 77.1745C133.38 76.3917 134.294 75.279 134.833 73.9772C135.372 72.6754 135.514 71.2429 135.239 69.8608C134.964 68.4788 134.286 67.2092 133.289 66.2126L114 49.875Z" fill="#99E6FD"/>
<path d="M128.25 64.125H57C55.1103 64.125 53.2981 64.8757 51.9619 66.2119C50.6257 67.5481 49.875 69.3603 49.875 71.25V156.75C49.8792 160.528 51.3819 164.15 54.0534 166.822C56.7249 169.493 60.347 170.996 64.125 171H121.125C124.903 170.996 128.525 169.493 131.197 166.822C133.868 164.15 135.371 160.528 135.375 156.75V71.25C135.375 69.3603 134.624 67.5481 133.288 66.2119C131.952 64.8757 130.14 64.125 128.25 64.125Z" fill="#E6F9FE"/>
<path d="M71.25 142.5V64.125H57C55.1103 64.125 53.2981 64.8757 51.9619 66.2119C50.6257 67.5481 49.875 69.3603 49.875 71.25V156.75C49.8792 160.528 51.3819 164.15 54.0534 166.822C56.7249 169.493 60.347 170.996 64.125 171H121.125C124.903 170.996 128.525 169.493 131.197 166.822C133.868 164.15 135.371 160.528 135.375 156.75H85.5C81.722 156.746 78.0999 155.243 75.4284 152.572C72.7569 149.9 71.2542 146.278 71.25 142.5Z" fill="#CCF2FE"/>
<path d="M114 106.875H99.75V92.625H85.5V106.875H71.25V121.125H85.5V135.375H99.75V121.125H114V106.875Z" fill="url(#paint0_linear)"/>
<path d="M49.875 42.75C53.81 42.75 57 39.56 57 35.625C57 31.69 53.81 28.5 49.875 28.5C45.94 28.5 42.75 31.69 42.75 35.625C42.75 39.56 45.94 42.75 49.875 42.75Z" fill="#34CDFA"/>
<path d="M28.5 21.375C32.435 21.375 35.625 18.185 35.625 14.25C35.625 10.315 32.435 7.125 28.5 7.125C24.565 7.125 21.375 10.315 21.375 14.25C21.375 18.185 24.565 21.375 28.5 21.375Z" fill="#67D9FB"/>
<path d="M7.125 14.25C11.06 14.25 14.25 11.06 14.25 7.125C14.25 3.18997 11.06 0 7.125 0C3.18997 0 0 3.18997 0 7.125C0 11.06 3.18997 14.25 7.125 14.25Z" fill="#99E6FD"/>
<path d="M28.5 64.125C32.435 64.125 35.625 60.935 35.625 57C35.625 53.065 32.435 49.875 28.5 49.875C24.565 49.875 21.375 53.065 21.375 57C21.375 60.935 24.565 64.125 28.5 64.125Z" fill="#67D9FB"/>
<path d="M7.125 71.25C11.06 71.25 14.25 68.06 14.25 64.125C14.25 60.19 11.06 57 7.125 57C3.18997 57 0 60.19 0 64.125C0 68.06 3.18997 71.25 7.125 71.25Z" fill="#99E6FD"/>
<path d="M28.5 42.75C32.435 42.75 35.625 39.56 35.625 35.625C35.625 31.69 32.435 28.5 28.5 28.5C24.565 28.5 21.375 31.69 21.375 35.625C21.375 39.56 24.565 42.75 28.5 42.75Z" fill="#99E6FD"/>
<path d="M7.125 42.75C11.06 42.75 14.25 39.56 14.25 35.625C14.25 31.69 11.06 28.5 7.125 28.5C3.18997 28.5 0 31.69 0 35.625C0 39.56 3.18997 42.75 7.125 42.75Z" fill="#CCF2FE"/>
<defs>
<linearGradient id="paint0_linear" x1="78.375" y1="128.25" x2="106.875" y2="99.75" gradientUnits="userSpaceOnUse">
<stop stop-color="#34CDFA"/>
<stop offset="1" stop-color="#E8D9F1"/>
</linearGradient>
</defs>
</svg>
