<?xml version="1.0" encoding="utf-8"?>
<!-- Generator: Adobe Illustrator 24.2.1, SVG Export Plug-In . SVG Version: 6.00 Build 0)  -->
<svg version="1.1" id="Layer_1" xmlns="http://www.w3.org/2000/svg" xmlns:xlink="http://www.w3.org/1999/xlink" x="0px" y="0px"
	 viewBox="0 0 149 173" style="enable-background:new 0 0 149 173;" xml:space="preserve">
<style type="text/css">
	.st0{fill:#2C3E50;}
	.st1{fill:#E64C3C;}
	.st2{fill:#FFF6E9;}
	.st3{fill:none;stroke:#CD8322;stroke-width:2;stroke-miterlimit:10;}
	.st4{fill:#00001A;}
	.st5{fill:url(#SVGID_1_);}
	.st6{fill:url(#SVGID_2_);}
	.st7{fill:url(#SVGID_3_);}
	.st8{fill:url(#SVGID_4_);}
	.st9{fill:url(#SVGID_5_);}
	.st10{fill:url(#SVGID_6_);}
	.st11{fill:url(#SVGID_7_);}
	.st12{fill:url(#SVGID_8_);}
	.st13{fill:url(#SVGID_9_);}
	.st14{fill:url(#SVGID_10_);}
	.st15{fill:url(#SVGID_11_);}
	.st16{fill:url(#SVGID_12_);}
	.st17{fill:url(#SVGID_13_);}
	.st18{fill:url(#SVGID_14_);}
	.st19{fill:url(#SVGID_15_);}
	.st20{fill:url(#SVGID_16_);}
	.st21{fill:url(#SVGID_17_);}
	.st22{fill:url(#SVGID_18_);}
	.st23{fill:none;stroke:#D4000B;stroke-width:2;stroke-miterlimit:10;}
	.st24{fill:none;stroke:#D4000B;stroke-miterlimit:10;}
	.st25{fill:none;stroke:#00E9D9;stroke-width:1.5;stroke-miterlimit:10;}
	.st26{fill:#00E9D9;}
	.st27{fill:none;stroke:#33FF00;stroke-linecap:round;stroke-linejoin:round;stroke-miterlimit:10;}
	.st28{fill:#D4000B;}
	.st29{fill:none;stroke:#D4000B;stroke-width:1.5;stroke-miterlimit:10;}
	.st30{fill:none;stroke:#D4000B;stroke-width:1.5;stroke-linecap:round;stroke-linejoin:round;stroke-miterlimit:10;}
	.st31{fill:none;stroke:#00E9D9;stroke-width:1.5;stroke-linecap:round;stroke-linejoin:round;stroke-miterlimit:10;}
	.st32{fill:none;stroke:#00E9D9;stroke-linecap:round;stroke-miterlimit:10;}
	.st33{fill:none;stroke:#D4000B;stroke-linecap:round;stroke-miterlimit:10;}
	.st34{fill:none;stroke:#D4000B;stroke-linecap:round;stroke-linejoin:round;stroke-miterlimit:10;}
	.st35{fill:none;stroke:#00E9D9;stroke-miterlimit:10;}
	.st36{fill:none;stroke:#D4000B;stroke-linejoin:round;stroke-miterlimit:10;}
	.st37{fill:#D71920;}
	.st38{fill:#ED1C24;}
	.st39{fill:#CB2027;}
	.st40{fill:#F48072;}
	.st41{fill:#333333;}
	.st42{fill:#4D4D4D;}
	.st43{fill:#F15A24;}
	.st44{fill:#FBB03B;}
	.st45{fill:#999999;}
	.st46{fill:#B3B3B3;}
	.st47{fill:#D90033;}
	.st48{opacity:0.75;fill:#353535;}
	.st49{fill:#00823D;}
	.st50{fill:#FF7A00;}
	.st51{opacity:0.25;fill:#FFFFFF;}
	.st52{fill:#BB1997;}
	.st53{opacity:0.75;}
	.st54{fill:#353535;}
	.st55{fill:#00713A;}
	.st56{fill:#00A992;}
	.st57{fill:#729600;}
</style>
<g>
	<g>
		<polygon class="st47" points="91.2,137.9 87.6,172.8 65.7,172.8 61.4,137.9 		"/>
		<polygon class="st48" points="63.7,137.9 67.1,172.8 70.2,172.8 66.8,137.9 		"/>
		<polygon class="st48" points="71.1,137.9 72.1,172.8 75.1,172.8 74.1,137.9 		"/>
		<rect x="77.9" y="137.9" class="st48" width="3" height="34.9"/>
		<polygon class="st48" points="85.2,137.9 82.1,172.8 85.1,172.8 88.2,137.9 		"/>
		<path class="st48" d="M61.4,137.9l2.4,19.5c1-0.9,1.9-1.9,2.6-3.1c2.2,4.3,6.5,7.2,11.4,7.2c3.2,0,8.5-1.6,11.5-4.6l1.9-19H61.4z"
			/>
	</g>
	<g>
		<g>
			<path class="st49" d="M116.5,124c-14.6-3.8-17.2-23-27.7-31.4c-8.9-7.1-23.6-7.9-32.9-0.7c-5.9,4.5-8.1,12-11,18.6
				c-3.2,7.4-7.3,14-13.9,18.9c-4,3-9.5,8.8-2.9,13.2c3.8,2.5,10,0.7,13.9-0.8c0.1,12.9,18.9,13,24.3,3.5c2.2,4.3,6.5,7.2,11.4,7.2
				c4.7,0,13.7-3.5,13.8-9.4c2.5,3.8,7.1,7.6,12,6.4c6.7-1.7,6-9.8,2.4-14.2c3.5,4.4,9.7,5.5,14.6,2.6
				C127.3,133.9,122.9,125.7,116.5,124z"/>
		</g>
		<path class="st47" d="M116.5,124c-1.1-0.3-2.2-0.7-3.2-1.2c-0.5,0.1-1,0.3-1.6,0.4c-0.3,0.1-0.5,0.1-0.8,0.2
			c-0.1,0-0.3,0.1-0.4,0.1c0,0,0,0-0.1,0c0,0,0,0,0.1,0c0,0,0,0,0,0c-0.7,0.1-1.4,0.3-2.2,0.4c-1.6,0.3-3.2,0.5-4.8,0.7
			c-6.1,0.8-12.2,1.2-18.3,1.1c-1.5,0-2.9-0.1-4.4-0.1c-0.4,0-0.7,0-1.1-0.1c-0.1,0-0.2,0-0.4,0c0.1,0,0.1,0,0.2,0
			c-0.8-0.1-0.5,0-0.2,0c-0.8-0.1-1.6-0.1-2.4-0.2c-3-0.3-6-0.6-9-1.1c-5.9-0.9-11.7-2.2-17.4-3.9c-1.5-0.4-2.9-0.9-4.4-1.4
			c-0.1,0-0.7-0.2-0.8-0.3c0.2,0.1,0.3,0.1,0.5,0.2c-0.4-0.1-0.5-0.2-0.5-0.2c-0.2-0.1-0.5-0.2-0.7-0.2c-0.8-0.3-1.5-0.6-2.3-0.8
			c-0.3-0.1-0.7-0.3-1-0.4c-1.8,3.1-3.8,5.9-6.2,8.4c21,8.6,44.4,12,66.8,9.4c7.3-0.9,14.5-2.4,21.5-4.5
			C122.7,127.6,119.9,124.9,116.5,124z"/>
		<g>
			<circle class="st50" cx="55.1" cy="127.8" r="5.5"/>
			<path class="st48" d="M57.6,129.4c-1.4,1.5-3.2,2.6-5.2,3.2c0.8,0.5,1.7,0.7,2.7,0.7c3,0,5.5-2.5,5.5-5.5c0-0.9-0.2-1.7-0.6-2.4
				C59.5,126.9,58.6,128.3,57.6,129.4z"/>
			<path class="st51" d="M52.3,128.4c0-0.1-0.1-0.2-0.1-0.3c0,0,0-0.1,0-0.1c0,0.1,0,0,0,0c0-0.2,0-0.4,0-0.6c0,0.1,0,0,0,0
				c0,0,0-0.1,0-0.1c0-0.1,0.1-0.2,0.1-0.3c0,0,0.1-0.2,0,0c0,0,0-0.1,0.1-0.1c0-0.1,0.1-0.2,0.2-0.3c0,0,0-0.1,0.1-0.1
				c0,0,0.1-0.1,0.1-0.1c-0.1,0.1,0.1-0.1,0.1-0.1c0,0,0.1-0.1,0.1-0.1c0.1-0.1,0.1-0.1,0.2-0.2c0,0,0.1-0.1,0.1-0.1
				c-0.1,0.1,0,0,0,0c0.2-0.1,0.3-0.2,0.5-0.3c0.1-0.1-0.1,0,0,0c0,0,0.1,0,0.1-0.1c0.1,0,0.2-0.1,0.3-0.1c0.4-0.1,0.6-0.5,0.5-0.9
				c-0.1-0.4-0.5-0.6-0.9-0.5c-1,0.2-1.9,0.9-2.4,1.8c-0.6,0.9-0.7,2.2-0.4,3.2c0.1,0.4,0.5,0.6,0.9,0.5
				C52.2,129.2,52.5,128.8,52.3,128.4L52.3,128.4z"/>
		</g>
		<g>
			<circle class="st52" cx="100.5" cy="131.8" r="5.5"/>
			<path class="st48" d="M103,133.4c-1.4,1.5-3.2,2.6-5.2,3.2c0.8,0.5,1.7,0.7,2.7,0.7c3,0,5.5-2.5,5.5-5.5c0-0.9-0.2-1.7-0.6-2.4
				C104.9,130.9,104.1,132.3,103,133.4z"/>
			<path class="st51" d="M97.8,132.4c0-0.1-0.1-0.2-0.1-0.3c0,0,0-0.1,0-0.1c0,0.1,0,0,0,0c0-0.2,0-0.4,0-0.6c0,0.1,0,0,0,0
				c0,0,0-0.1,0-0.1c0-0.1,0.1-0.2,0.1-0.3c0,0,0.1-0.2,0,0c0,0,0-0.1,0.1-0.1c0-0.1,0.1-0.2,0.2-0.3c0,0,0-0.1,0.1-0.1
				c0,0,0.1-0.1,0.1-0.1c-0.1,0.1,0.1-0.1,0.1-0.1c0,0,0.1-0.1,0.1-0.1c0.1-0.1,0.1-0.1,0.2-0.2c0,0,0.1-0.1,0.1-0.1
				c-0.1,0.1,0,0,0,0c0.2-0.1,0.3-0.2,0.5-0.3c0.1-0.1-0.1,0,0,0c0,0,0.1,0,0.1-0.1c0.1,0,0.2-0.1,0.3-0.1c0.4-0.1,0.6-0.5,0.5-0.9
				c-0.1-0.4-0.5-0.6-0.9-0.5c-1,0.2-1.9,0.9-2.4,1.8c-0.6,0.9-0.7,2.2-0.4,3.2c0.1,0.4,0.5,0.6,0.9,0.5
				C97.6,133.2,97.9,132.8,97.8,132.4L97.8,132.4z"/>
		</g>
		<g class="st53">
			<path class="st54" d="M46.9,120.3c-2.2,3.8-0.3,9.1,3.5,11.5c3.8,2.4,9,2.3,13.2,0.5c4.2-1.8,7.5-5,10.3-8.5
				c1.3,5.5,7.5,9.5,13.3,8.7c5.8-0.8,10.5-6.3,10.2-11.9c2.7,2.7,6.9,4.1,10.7,3.3c1.4-0.3,2.7-0.9,3.9-1.7
				c-10.8-6.1-13.9-22.1-23.2-29.6c-8.9-7.1-23.6-7.9-32.9-0.7c-5.9,4.5-8.1,12-11,18.6c-2.2,5-4.7,9.6-8.1,13.6c0.1,0,0.1,0,0.2,0
				C40.6,124.2,44.1,122.5,46.9,120.3z"/>
		</g>
	</g>
	<g>
		<g>
			<path class="st55" d="M107.6,94.1c-3.6-2.7-7.8-4.5-11-7.6c-7.4-7.2-9.8-25.5-20.6-26.6c-8.6-0.1-15.6,6.9-20,14.3
				c-4.3,7.4-7.3,15.9-13.2,22c-3,3.1-7.1,6.5-6.4,10.7c0.5,3.2,3.8,5.4,7.1,5.6c3.2,0.1,6.3-1.5,8.9-3.5c-2,3.6-0.3,8.5,3.1,10.8
				c3.4,2.3,8,2.2,11.8,0.5c3.8-1.7,6.7-4.7,9.2-8c1.2,5.1,6.7,8.9,11.9,8.1c5.2-0.7,9.4-5.9,9.1-11.1c2.4,2.5,6.2,3.9,9.6,3.1
				c3.4-0.7,6.4-3.7,6.8-7.1C114.4,100.8,111.2,96.7,107.6,94.1z"/>
		</g>
		<path class="st47" d="M97.6,87.4c-3.9,1.4-8,2.7-12,3.7c-1.4,0.4-2.8,0.7-4.2,1c-0.4,0.1-0.7,0.2-1.1,0.2c-0.1,0-0.2,0-0.4,0.1
			c0.1,0,0.1,0,0.2,0c-0.8,0.1-0.5,0.1-0.2,0c-0.8,0.2-1.6,0.3-2.3,0.4c-3,0.5-6,1-9,1.3c-5.9,0.6-11.9,0.9-17.8,0.8
			c-1.5,0-3-0.1-4.6-0.2c-0.1,0-0.8,0-0.8-0.1c0.2,0,0.3,0,0.5,0c-0.4,0-0.5,0-0.5,0c-0.2,0-0.5,0-0.7-0.1c-0.1,0-0.3,0-0.4,0
			c-0.5,0.6-1,1.1-1.5,1.7c-2.3,2.3-5.1,4.8-6.1,7.7c22.7,3,46.4,0.2,67.7-8.2c1.2-0.5,2.4-1,3.6-1.5c-0.1-0.1-0.1-0.1-0.2-0.2
			C104.4,91.7,100.7,90,97.6,87.4z"/>
		<g>
			<circle class="st56" cx="57.4" cy="87.9" r="5.5"/>
			<path class="st48" d="M59.9,89.6c-1.4,1.5-3.2,2.6-5.2,3.2c0.8,0.5,1.7,0.7,2.7,0.7c3,0,5.5-2.5,5.5-5.5c0-0.9-0.2-1.7-0.6-2.4
				C61.8,87,61,88.4,59.9,89.6z"/>
			<path class="st51" d="M54.7,88.5c0-0.1-0.1-0.2-0.1-0.3c0,0,0-0.1,0-0.1c0,0.1,0,0,0,0c0-0.2,0-0.4,0-0.6c0,0.1,0,0,0,0
				c0,0,0-0.1,0-0.1c0-0.1,0.1-0.2,0.1-0.3c0,0,0.1-0.2,0,0c0,0,0-0.1,0.1-0.1c0-0.1,0.1-0.2,0.2-0.3c0,0,0-0.1,0.1-0.1
				c0,0,0.1-0.1,0.1-0.1c-0.1,0.1,0.1-0.1,0.1-0.1c0,0,0.1-0.1,0.1-0.1c0.1-0.1,0.1-0.1,0.2-0.2c0,0,0.1-0.1,0.1-0.1
				c-0.1,0.1,0,0,0,0c0.2-0.1,0.3-0.2,0.5-0.3c0.1-0.1-0.1,0,0,0c0,0,0.1,0,0.1-0.1c0.1,0,0.2-0.1,0.3-0.1c0.4-0.1,0.6-0.5,0.5-0.9
				c-0.1-0.4-0.5-0.6-0.9-0.5c-1,0.2-1.9,0.9-2.4,1.8c-0.6,0.9-0.7,2.2-0.4,3.2c0.1,0.4,0.5,0.6,0.9,0.5
				C54.5,89.3,54.8,88.9,54.7,88.5L54.7,88.5z"/>
		</g>
		<g>
			<circle class="st57" cx="89.5" cy="95.2" r="5.5"/>
			<path class="st48" d="M92,96.9c-1.4,1.5-3.2,2.6-5.2,3.2c0.8,0.5,1.7,0.7,2.7,0.7c3,0,5.5-2.5,5.5-5.5c0-0.9-0.2-1.7-0.6-2.4
				C93.9,94.3,93.1,95.7,92,96.9z"/>
			<path class="st51" d="M86.8,95.8c0-0.1-0.1-0.2-0.1-0.3c0,0,0-0.1,0-0.1c0,0.1,0,0,0,0c0-0.2,0-0.4,0-0.6c0,0.1,0,0,0,0
				c0,0,0-0.1,0-0.1c0-0.1,0.1-0.2,0.1-0.3c0,0,0.1-0.2,0,0c0,0,0-0.1,0.1-0.1c0-0.1,0.1-0.2,0.2-0.3c0,0,0-0.1,0.1-0.1
				c0,0,0.1-0.1,0.1-0.1c-0.1,0.1,0.1-0.1,0.1-0.1c0,0,0.1-0.1,0.1-0.1c0.1-0.1,0.1-0.1,0.2-0.2c0,0,0.1-0.1,0.1-0.1
				c-0.1,0.1,0,0,0,0c0.2-0.1,0.3-0.2,0.5-0.3c0.1-0.1-0.1,0,0,0c0,0,0.1,0,0.1-0.1c0.1,0,0.2-0.1,0.3-0.1c0.4-0.1,0.6-0.5,0.5-0.9
				c-0.1-0.4-0.5-0.6-0.9-0.5c-1,0.2-1.9,0.9-2.4,1.8c-0.6,0.9-0.7,2.2-0.4,3.2c0.1,0.4,0.5,0.6,0.9,0.5
				C86.6,96.6,86.9,96.2,86.8,95.8L86.8,95.8z"/>
		</g>
		<g class="st53">
			<path class="st54" d="M57,88.4c-0.5,3.2,0.9,6.5,3.3,8.7c2.3,2.2,5.5,3.4,8.8,3.6c8.3,0.6,16.6-5,19-13c4.3,1.9,9,2.7,13.7,2.5
				c-1.8-1.1-3.5-2.3-5-3.7c-7.4-7.2-9.8-25.5-20.6-26.6c-8.6-0.1-15.6,6.9-20,14.3c-3,5.1-5.3,10.6-8.3,15.6
				C50.8,90.3,54.1,89.9,57,88.4z"/>
		</g>
	</g>
	<g>
		<path class="st49" d="M101.1,71.1c-2-2.5-4.7-4.4-6.8-6.9c-4.2-4.9-5.3-11.7-8.1-17.5c-2.2-4.7-6.6-9.1-11.5-9.7
			c-0.1,0-0.2-0.1-0.3-0.1c-7.4-0.7-13.3,7.1-15.6,14.2c-2.4,7.1-7,15-7,15c-1.4,2-2.8,4.1-4.2,6.1c-1.1,1.6-2.2,3.3-2.1,5.2
			c0.2,3.5,4.8,5.3,8.2,4.2c3.3-1.2,5.6-4.2,7.6-7.1c-1.7,4.2,0.7,9.4,4.8,11.5c4.1,2,9.2,1.2,12.9-1.5c3.7-2.6,6.1-6.8,7.4-11.2
			c1.5,3.1,3.4,6.3,6.4,8.1c3,1.8,7.5,1.5,9.4-1.4C104.1,77.4,103,73.7,101.1,71.1z"/>
		<path class="st48" d="M86.2,46.8c-0.2-0.4-0.4-0.9-0.7-1.3c-2.4-4.2-6.4-7.9-10.8-8.4c-0.1,0-0.2-0.1-0.3-0.1
			c-5.3-0.5-9.8,3.4-12.8,8.2c-1.2,1.9-2.1,3.9-2.8,5.9c7.5,1.5,17.9,2.5,29.3,0.4C87.5,49.8,86.9,48.3,86.2,46.8z"/>
		<path class="st50" d="M71.5,22.2l-9.9,23c5.6,1.4,14.3,2.6,24,0.3l-10-23.3C74.8,20.5,72.3,20.4,71.5,22.2z"/>
		<path class="st47" d="M94.3,64.3c-1.4-1.6-2.4-3.4-3.3-5.3c-2-0.1-3.9-0.2-5.9-0.3c-1.4-0.1-2.9-0.3-4.3-0.4
			c-0.4,0-0.7-0.1-1.1-0.1c-0.1,0-0.2,0-0.4,0c0.1,0,0.1,0,0.2,0c-0.8-0.1-0.5-0.1-0.2,0c-0.8-0.1-1.6-0.2-2.4-0.4
			c-3-0.5-6-1-8.9-1.7c-3.4-0.8-6.7-1.7-10-2.7c-1.3,3.4-3,6.9-4.3,9.3c14.7,4.7,30.1,7,45.4,6.6C97.6,67.5,95.8,66,94.3,64.3z"/>
		<path class="st48" d="M71.5,22.2l-4.4,10.1c0,0,0.1,0,0.1,0l5.2-2.8c0.7-0.3,1.4-0.3,2.1,0l5.2,2.8c0,0,0,0,0.1,0l-4.3-10.1
			C74.8,20.5,72.3,20.4,71.5,22.2z"/>
	</g>
	<path class="st51" d="M71.9,21.6l-6,24.5c1,0.2,2,0.3,3,0.4l6.2-25.1C74.2,20.7,72.7,20.7,71.9,21.6z"/>
	<g>
		<path class="st50" d="M75.6,1.5l2.6,5.3c0.3,0.7,1,1.1,1.7,1.2l5.9,0.9c1.8,0.3,2.6,2.5,1.2,3.8l-4.2,4.1c-0.5,0.5-0.8,1.3-0.6,2
			l1,5.8c0.3,1.8-1.6,3.2-3.3,2.4l-5.2-2.8c-0.7-0.3-1.4-0.3-2.1,0L67.3,27c-1.6,0.9-3.6-0.5-3.3-2.4l1-5.8c0.1-0.7-0.1-1.5-0.6-2
			l-4.2-4.1c-1.3-1.3-0.6-3.6,1.2-3.8L67.3,8c0.7-0.1,1.4-0.6,1.7-1.2l2.6-5.3C72.4-0.2,74.8-0.2,75.6,1.5z"/>
		<path class="st51" d="M72.1,2.8c-0.8,1.4-1.4,2.9-1.9,4.4c-0.2,0.6,0.2,1.4,0.9,1.6c0.7,0.2,1.3-0.2,1.6-0.9
			c0.2-0.6,0.4-1.2,0.7-1.7c0,0.1-0.1,0.2-0.1,0.3c0.3-0.8,0.7-1.6,1.1-2.4c0.3-0.6,0.2-1.4-0.5-1.7C73.2,2.1,72.4,2.2,72.1,2.8
			L72.1,2.8z"/>
	</g>
	<g>
		<circle class="st50" cx="73.5" cy="60.1" r="5.5"/>
		<path class="st48" d="M76,61.7c-1.4,1.5-3.2,2.6-5.2,3.2c0.8,0.5,1.7,0.7,2.7,0.7c3,0,5.5-2.5,5.5-5.5c0-0.9-0.2-1.7-0.6-2.4
			C77.9,59.2,77.1,60.5,76,61.7z"/>
		<path class="st51" d="M70.8,60.7c0-0.1-0.1-0.2-0.1-0.3c0,0,0-0.1,0-0.1c0,0.1,0,0,0,0c0-0.2,0-0.4,0-0.6c0,0.1,0,0,0,0
			c0,0,0-0.1,0-0.1c0-0.1,0.1-0.2,0.1-0.3c0,0,0.1-0.2,0,0c0,0,0-0.1,0.1-0.1c0-0.1,0.1-0.2,0.2-0.3c0,0,0-0.1,0.1-0.1
			c0,0,0.1-0.1,0.1-0.1c-0.1,0.1,0.1-0.1,0.1-0.1c0,0,0.1-0.1,0.1-0.1c0.1-0.1,0.1-0.1,0.2-0.2c0,0,0.1-0.1,0.1-0.1
			c-0.1,0.1,0,0,0,0c0.2-0.1,0.3-0.2,0.5-0.3c0.1-0.1-0.1,0,0,0c0,0,0.1,0,0.1-0.1c0.1,0,0.2-0.1,0.3-0.1c0.4-0.1,0.6-0.5,0.5-0.9
			c-0.1-0.4-0.5-0.6-0.9-0.5c-1,0.2-1.9,0.9-2.4,1.8c-0.6,0.9-0.7,2.2-0.4,3.2c0.1,0.4,0.5,0.6,0.9,0.5
			C70.6,61.5,70.9,61.1,70.8,60.7L70.8,60.7z"/>
	</g>
</g>
</svg>
