<?xml version="1.0" encoding="utf-8"?>
<!-- Generator: Adobe Illustrator 24.2.1, SVG Export Plug-In . SVG Version: 6.00 Build 0)  -->
<svg version="1.1" id="Layer_1" xmlns="http://www.w3.org/2000/svg" xmlns:xlink="http://www.w3.org/1999/xlink" x="0px" y="0px"
	 viewBox="0 0 149 173" style="enable-background:new 0 0 149 173;" xml:space="preserve">
<style type="text/css">
	.st0{fill:#2C3E50;}
	.st1{fill:#E64C3C;}
	.st2{fill:#FFF6E9;}
	.st3{fill:none;stroke:#CD8322;stroke-width:2;stroke-miterlimit:10;}
	.st4{fill:#00001A;}
	.st5{fill:url(#SVGID_1_);}
	.st6{fill:url(#SVGID_2_);}
	.st7{fill:url(#SVGID_3_);}
	.st8{fill:url(#SVGID_4_);}
	.st9{fill:url(#SVGID_5_);}
	.st10{fill:url(#SVGID_6_);}
	.st11{fill:url(#SVGID_7_);}
	.st12{fill:url(#SVGID_8_);}
	.st13{fill:url(#SVGID_9_);}
	.st14{fill:url(#SVGID_10_);}
	.st15{fill:url(#SVGID_11_);}
	.st16{fill:url(#SVGID_12_);}
	.st17{fill:url(#SVGID_13_);}
	.st18{fill:url(#SVGID_14_);}
	.st19{fill:url(#SVGID_15_);}
	.st20{fill:url(#SVGID_16_);}
	.st21{fill:url(#SVGID_17_);}
	.st22{fill:url(#SVGID_18_);}
	.st23{fill:none;stroke:#D4000B;stroke-width:2;stroke-miterlimit:10;}
	.st24{fill:none;stroke:#D4000B;stroke-miterlimit:10;}
	.st25{fill:none;stroke:#00E9D9;stroke-width:1.5;stroke-miterlimit:10;}
	.st26{fill:#00E9D9;}
	.st27{fill:none;stroke:#33FF00;stroke-linecap:round;stroke-linejoin:round;stroke-miterlimit:10;}
	.st28{fill:#D4000B;}
	.st29{fill:none;stroke:#D4000B;stroke-width:1.5;stroke-miterlimit:10;}
	.st30{fill:none;stroke:#D4000B;stroke-width:1.5;stroke-linecap:round;stroke-linejoin:round;stroke-miterlimit:10;}
	.st31{fill:none;stroke:#00E9D9;stroke-width:1.5;stroke-linecap:round;stroke-linejoin:round;stroke-miterlimit:10;}
	.st32{fill:none;stroke:#00E9D9;stroke-linecap:round;stroke-miterlimit:10;}
	.st33{fill:none;stroke:#D4000B;stroke-linecap:round;stroke-miterlimit:10;}
	.st34{fill:none;stroke:#D4000B;stroke-linecap:round;stroke-linejoin:round;stroke-miterlimit:10;}
	.st35{fill:none;stroke:#00E9D9;stroke-miterlimit:10;}
	.st36{fill:none;stroke:#D4000B;stroke-linejoin:round;stroke-miterlimit:10;}
	.st37{fill:#D71920;}
	.st38{fill:#ED1C24;}
	.st39{fill:#CB2027;}
	.st40{fill:#F48072;}
	.st41{fill:#333333;}
	.st42{fill:#4D4D4D;}
	.st43{fill:#F15A24;}
	.st44{fill:#FBB03B;}
	.st45{fill:#999999;}
	.st46{fill:#B3B3B3;}
	.st47{fill:#D90033;}
	.st48{opacity:0.75;fill:#353535;}
	.st49{fill:#00823D;}
	.st50{fill:#FF7A00;}
	.st51{opacity:0.25;fill:#FFFFFF;}
	.st52{fill:#BB1997;}
	.st53{opacity:0.75;}
	.st54{fill:#353535;}
	.st55{fill:#00713A;}
	.st56{fill:#00A992;}
	.st57{fill:#729600;}
	.st58{fill:#C69C6D;}
	.st59{fill:none;stroke:#4F342D;stroke-width:5;stroke-miterlimit:10;}
	.st60{fill:#4F342D;}
	.st61{fill-rule:evenodd;clip-rule:evenodd;fill:#342D2A;}
	.st62{fill-rule:evenodd;clip-rule:evenodd;fill:#7D706A;}
	.st63{fill-rule:evenodd;clip-rule:evenodd;fill:#4D4441;}
	.st64{fill-rule:evenodd;clip-rule:evenodd;fill:#747A50;}
	.st65{fill-rule:evenodd;clip-rule:evenodd;fill:#878E63;}
	.st66{fill-rule:evenodd;clip-rule:evenodd;fill:#978A85;}
	.st67{fill-rule:evenodd;clip-rule:evenodd;fill:#D5CAC6;}
	.st68{fill-rule:evenodd;clip-rule:evenodd;fill:#4E4E4E;}
	.st69{fill-rule:evenodd;clip-rule:evenodd;fill:#676767;}
	.st70{fill-rule:evenodd;clip-rule:evenodd;fill:#808080;}
	.st71{fill-rule:evenodd;clip-rule:evenodd;fill:#989897;}
	.st72{fill-rule:evenodd;clip-rule:evenodd;fill:#1A1A1A;}
	.st73{fill-rule:evenodd;clip-rule:evenodd;fill:#CDCCCB;}
	.st74{fill-rule:evenodd;clip-rule:evenodd;fill:#DBDBDA;}
	.st75{fill-rule:evenodd;clip-rule:evenodd;fill:#B3B2B3;}
	.st76{fill-rule:evenodd;clip-rule:evenodd;fill:#767676;}
	.st77{fill-rule:evenodd;clip-rule:evenodd;fill:#FFDC8A;}
	.st78{fill-rule:evenodd;clip-rule:evenodd;fill:#B8832C;}
	.st79{fill-rule:evenodd;clip-rule:evenodd;fill:#BE2126;}
	.st80{fill-rule:evenodd;clip-rule:evenodd;fill:#9EBF5F;}
	.st81{fill-rule:evenodd;clip-rule:evenodd;fill:#C6DD7F;}
	.st82{fill-rule:evenodd;clip-rule:evenodd;fill:#ED362C;}
	.st83{fill-rule:evenodd;clip-rule:evenodd;fill:#663E17;}
	.st84{fill-rule:evenodd;clip-rule:evenodd;fill:#FCB912;}
	.st85{fill-rule:evenodd;clip-rule:evenodd;fill:#F2AA1D;}
	.st86{fill-rule:evenodd;clip-rule:evenodd;fill:#E19426;}
	.st87{fill-rule:evenodd;clip-rule:evenodd;fill:#C7832A;}
	.st88{fill-rule:evenodd;clip-rule:evenodd;fill:#825221;}
</style>
<g>
	<path class="st77" d="M76.2,49.2h-36C18.1,49.2,0,67.2,0,89.3v32.9c0,7.9,6.5,14.4,14.4,14.4h92.8h9h14.4
		c-7.9,0-14.4-6.5-14.4-14.4V89.3C116.3,67.2,98.2,49.2,76.2,49.2z"/>
	<path class="st78" d="M80,49.2H44c-22.1,0-40.1,18-40.1,40.1v32.9c0,7.9,6.5,14.4,14.4,14.4h92.8h9h14.4c-7.9,0-14.4-6.5-14.4-14.4
		V89.3C120.1,67.2,102.1,49.2,80,49.2z"/>
	<path class="st79" d="M26,78.6c-1.7,13.5-16,11.3-15.6-0.4c0.2-5,3.7-14.1,9.9-12.7C25.6,66.6,26.4,74.2,26,78.6L26,78.6z
		 M82.5,49.5c-4.9-0.8-10.2-4.1-8.2-9.9c1.4-4.1,5.1-3.5,8.3-2.2c8,3.4,15.9-1.5,21.4,1.9c3.4,2.1,0.8,5.2-1.9,6.6
		C97.2,48.3,88.1,50.1,82.5,49.5L82.5,49.5z M50.3,52.9c-2.1,5.6-8.1,8.2-13.5,6c-4.5-1.8-5.5-5.7-2-9.4c3.5-3.5,13-9.7,15.6-1.9
		C51,49.5,50.8,51.1,50.3,52.9z"/>
	<path class="st80" d="M12.5,111l-3.8-6.7c-1-1.7-1.1-3.6-0.5-5.5c0.7-1.9,2-3.2,3.8-3.9l0.2-0.1c3.1-1.2,4.8-4.5,4-7.7l-1.7-7.3
		c-0.4-1.9-0.1-3.7,1-5.3c0.5-0.7,1.1-1.3,1.7-1.8c2.6-1.8,4.3-4.5,4.7-7.4c0.4-2.6,2.2-4.6,4.8-5.3c3.3-0.8,5.8-3,7.3-6.2
		c0.8-1.9,2.3-3.3,4.2-4.1c1.1-0.4,2.2-0.7,3.2-0.7c3,0,5.6-0.9,7.9-2.8c1.7-1.5,3.9-2.1,6.1-1.8c4.2,0.5,7.9-0.4,11.4-2.6
		c5-3.2,11-3.6,16.5-0.9l0,0c4.1,2,8.3,2.3,12.7,1c6.1-1.9,12.8-0.2,17.3,4.7l12.2,13.1L12.5,111z"/>
	<path class="st81" d="M113.4,49.2c-0.4-0.5-0.9-0.9-1.3-1.4c-4-4.4-10.1-6.1-15.8-4.3c-1.3,0.4-2.7,0.7-4,0.8
		c3.9,0.9,8.5-0.1,12.4,0.8C107.9,45.8,110.3,48.5,113.4,49.2L113.4,49.2z M85.6,43.6c-1-0.3-2-0.7-3.1-1.2c0,0,0,0,0,0
		c-4.9-2.4-10.4-2.1-15,0.8c-1.5,0.9-3,1.7-4.5,2.1c4.3-0.3,8.3-2.3,12.6-2.6C78.9,42.5,82.4,43.9,85.6,43.6L85.6,43.6z M59.1,46.2
		c-1.3,0.1-2.6,0.1-4-0.1c-1.8-0.2-3.6,0.3-4.9,1.5c-0.7,0.6-1.4,1.1-2.1,1.5c1.7-0.5,3.3-1.4,5-1.8C55.1,46.8,57.1,46.7,59.1,46.2
		L59.1,46.2z M44.6,50.5c-1,0.2-2.1,0.4-3.3,0.3c-0.9,0-1.8,0.2-2.6,0.5c-1.6,0.7-2.7,1.7-3.4,3.3c-0.6,1.4-1.5,2.6-2.5,3.7
		c2.2-1.5,3.6-3.8,5.8-5.2C40.3,51.9,42.9,51.6,44.6,50.5L44.6,50.5z M30.4,60.2c-1,0.6-2.2,1.1-3.4,1.4c-2,0.5-3.3,2-3.6,4
		c-0.1,0.9-0.4,1.8-0.7,2.7c1.2-1.3,1.7-3.2,3-4.5C27,62.4,29.1,61.6,30.4,60.2L30.4,60.2z M21.2,71c-0.9,1.2-2,2.3-3.2,3.2
		c-0.5,0.4-1,0.8-1.3,1.4c-0.8,1.2-1.1,2.6-0.7,4c0.5,2,1,4.1,1.5,6.1c0.7-2.6-0.9-5.2-0.2-7.8C17.7,75.6,20.6,73.3,21.2,71L21.2,71
		z M15,94.9c-0.7,0.5-1.4,1-2.2,1.3c-0.1,0-0.1,0-0.2,0.1c-1.4,0.6-2.4,1.6-2.9,3c-0.5,1.5-0.4,2.9,0.4,4.2c0.6,1.1,1.2,2.2,1.9,3.3
		c0.5-2.1-0.7-4.9-0.2-7C12.2,98,14.5,96.9,15,94.9z"/>
	<path class="st82" d="M81.9,46c8.5-4.1,12.4-5.9,19.7,1.9c6.1,6.5-0.8,7.7-6,9.5c-5.1,1.8-10.5,2-15.6,0.1
		c-8.7-3.2-4.4-8.4,1.7-11.4L81.9,46L81.9,46z M59.6,43.7c5.1,1.4,8.4,3.2,7.3,9.1c-1.4,7.7-15.3,11-17.1,4.7
		c-0.9-3,0.3-13,4.2-14.4C55.6,42.6,58,43.3,59.6,43.7L59.6,43.7z M41.8,71.9c-1.4,3.6-3.7,8.4-8.3,7.6c-3.1-0.5-8.5-2.5-9.1-6
		c-0.4-2.6,0.7-5.1,2.1-7.2c2.5-3,10.6-9.8,14.1-5.2C43.1,64.6,43,68.2,41.8,71.9L41.8,71.9z M18.2,104.1c-3.8-0.9-9.1-3.5-7.1-8.4
		c1.7-4.1,9.8-7.3,13.7-9.2c4.6-2.2,8.2-2.1,9.1,3.7c1,5.9-2.6,13.3-9.2,14.2C22.6,104.7,20.4,104.5,18.2,104.1z"/>
	<path class="st83" d="M9.6,115.9c-1.8,1.2-2.9,3.3-2.9,5.6c0,3.4,2.4,6.2,5.6,6.8c0.2,4.3,3.8,7.8,8.2,7.8c4.3,0,7.9-3.4,8.2-7.6
		c0.7,0.3,1.6,0.4,2.4,0.4c3.9,0,7-3.1,7-7c0-2-0.9-3.9-2.3-5.2c0.2-0.5,0.3-1.1,0.3-1.8c0-2.7-2.2-4.8-4.8-4.8c-0.1,0-0.1,0-0.2,0
		c1-1.4,1.6-3,1.6-4.9c0-4.6-3.7-8.3-8.3-8.3c-4.6,0-8.3,3.7-8.3,8.3c0,0.2,0,0.5,0,0.7c-0.3,0-0.5,0-0.8,0c-3.7,0-6.6,3-6.6,6.6
		C8.7,113.8,9,114.9,9.6,115.9z"/>
	<path class="st77" d="M69,49.2H105c22.1,0,40.1,18,40.1,40.1v32.9c0,7.9-6.5,14.4-14.4,14.4H37.9h-9H14.4c7.9,0,14.4-6.5,14.4-14.4
		V89.3C28.9,67.2,46.9,49.2,69,49.2z"/>
	<path class="st84" d="M72.8,49.2h36c22.1,0,40.1,18,40.1,40.1v32.9c0,7.9-6.5,14.4-14.4,14.4H41.8h-9H18.3
		c7.9,0,14.4-6.5,14.4-14.4V89.3C32.7,67.2,50.8,49.2,72.8,49.2z"/>
	<path class="st85" d="M84.1,49.2h24.8c22.1,0,40.1,18,40.1,40.1v32.9c0,7.9-6.5,14.4-14.4,14.4H67.3c11.3-2,22.7-3.9,34-5.9
		c11.4-2,19.4-11.9,18.9-23.5c-0.4-9.1-0.8-18.2-1.2-27.3C118.3,66,108.6,54.2,95,51.5c-3.7-0.7-7.4-1.5-11.1-2.2L84.1,49.2z"/>
	<path class="st86" d="M71.4,69.3c1.6,0,3,1.3,3,3c0,1.6-1.3,3-3,3c-1.6,0-3-1.3-3-3C68.4,70.7,69.8,69.3,71.4,69.3L71.4,69.3z
		 M129.3,107.9c-1.5,0-2.7,1.2-2.7,2.7c0,1.5,1.2,2.7,2.7,2.7c1.5,0,2.7-1.2,2.7-2.7C131.9,109.1,130.7,107.9,129.3,107.9
		L129.3,107.9z M75.6,79.8c1.1,0,2,0.9,2,2c0,1.1-0.9,2-2,2c-1.1,0-2-0.9-2-2C73.6,80.7,74.5,79.8,75.6,79.8L75.6,79.8z
		 M116.3,105.5c1.4,0,2.6,1.1,2.6,2.6c0,1.4-1.2,2.6-2.6,2.6c-1.4,0-2.6-1.2-2.6-2.6C113.7,106.6,114.9,105.5,116.3,105.5
		L116.3,105.5z M51.1,66.8c1.3,0,2.4,1.1,2.4,2.4c0,1.3-1.1,2.4-2.4,2.4c-1.3,0-2.4-1.1-2.4-2.4C48.7,67.9,49.8,66.8,51.1,66.8
		L51.1,66.8z M84.3,103.8c0.9,0,1.7,0.8,1.7,1.7c0,0.9-0.8,1.7-1.7,1.7c-0.9,0-1.7-0.8-1.7-1.7C82.6,104.5,83.4,103.8,84.3,103.8
		L84.3,103.8z M74,110.9c1.5,0,2.7,1.2,2.7,2.7s-1.2,2.7-2.7,2.7c-1.5,0-2.7-1.2-2.7-2.7S72.5,110.9,74,110.9L74,110.9z M99.4,113
		c2.3,0,4.2,1.9,4.2,4.2s-1.9,4.2-4.2,4.2c-2.3,0-4.2-1.9-4.2-4.2S97,113,99.4,113L99.4,113z M96.1,82.9c1.9,0,3.4,1.5,3.4,3.4
		c0,1.9-1.5,3.4-3.4,3.4c-1.9,0-3.4-1.5-3.4-3.4C92.7,84.4,94.3,82.9,96.1,82.9L96.1,82.9z M66.5,89.7c1.1,0,2,0.9,2,2
		c0,1.1-0.9,2-2,2c-1.1,0-2-0.9-2-2C64.5,90.6,65.4,89.7,66.5,89.7L66.5,89.7z M47.7,115.4c1.4,0,2.6,1.1,2.6,2.6s-1.1,2.6-2.6,2.6
		c-1.4,0-2.6-1.1-2.6-2.6S46.3,115.4,47.7,115.4L47.7,115.4z M56.7,83.6c1.5,0,2.7,1.2,2.7,2.7c0,1.5-1.2,2.7-2.7,2.7
		c-1.5,0-2.7-1.2-2.7-2.7C54,84.8,55.2,83.6,56.7,83.6L56.7,83.6z M53.3,96.5c1,0,1.8,0.8,1.8,1.8s-0.8,1.8-1.8,1.8
		c-1,0-1.8-0.8-1.8-1.8S52.3,96.5,53.3,96.5L53.3,96.5z M111.9,92c1,0,1.8,0.8,1.8,1.8c0,1-0.8,1.8-1.8,1.8c-1,0-1.8-0.8-1.8-1.8
		C110.1,92.8,110.9,92,111.9,92L111.9,92z M67.3,100c1.3,0,2.4,1.1,2.4,2.4c0,1.3-1.1,2.4-2.4,2.4c-1.3,0-2.4-1.1-2.4-2.4
		C64.9,101.1,66,100,67.3,100L67.3,100z M96.2,95.9c1.1,0,2,0.9,2,2c0,1.1-0.9,2-2,2c-1.1,0-2-0.9-2-2
		C94.2,96.8,95.1,95.9,96.2,95.9L96.2,95.9z M83.4,88.4c0.9,0,1.7,0.8,1.7,1.7c0,0.9-0.8,1.7-1.7,1.7c-0.9,0-1.7-0.8-1.7-1.7
		C81.7,89.2,82.5,88.4,83.4,88.4L83.4,88.4z M134,85.9c1.9,0,3.4,1.5,3.4,3.4c0,1.9-1.5,3.4-3.4,3.4c-1.9,0-3.4-1.5-3.4-3.4
		C130.6,87.4,132.1,85.9,134,85.9L134,85.9z M85.1,57.7c1.4,0,2.5,1.1,2.5,2.5c0,1.4-1.1,2.5-2.5,2.5c-1.4,0-2.5-1.1-2.5-2.5
		C82.6,58.8,83.7,57.7,85.1,57.7L85.1,57.7z M84.4,73c1.1,0,1.9,0.9,1.9,1.9c0,1.1-0.9,1.9-1.9,1.9c-1.1,0-1.9-0.9-1.9-1.9
		C82.5,73.9,83.4,73,84.4,73L84.4,73z M109,75.5c1.4,0,2.6,1.2,2.6,2.6c0,1.4-1.2,2.6-2.6,2.6c-1.4,0-2.6-1.2-2.6-2.6
		C106.4,76.7,107.6,75.5,109,75.5L109,75.5z M124.5,65.3c1.5,0,2.7,1.2,2.7,2.7s-1.2,2.7-2.7,2.7c-1.5,0-2.7-1.2-2.7-2.7
		S123,65.3,124.5,65.3L124.5,65.3z M102.4,60.9c1.3,0,2.4,1.1,2.4,2.4c0,1.3-1.1,2.4-2.4,2.4c-1.3,0-2.4-1.1-2.4-2.4
		C100,62,101.1,60.9,102.4,60.9L102.4,60.9z M124.7,76.4c1.6,0,2.8,1.3,2.8,2.8c0,1.6-1.3,2.8-2.8,2.8c-1.6,0-2.8-1.3-2.8-2.8
		C121.9,77.6,123.2,76.4,124.7,76.4L124.7,76.4z M101.5,73.3c1,0,1.9,0.8,1.9,1.9s-0.8,1.9-1.9,1.9c-1,0-1.9-0.8-1.9-1.9
		S100.5,73.3,101.5,73.3z"/>
	<path class="st87" d="M129.3,107.9c-1.5,0-2.7,1.2-2.7,2.7c0,1.5,1.2,2.7,2.7,2.7c1.5,0,2.7-1.2,2.7-2.7
		C131.9,109.1,130.7,107.9,129.3,107.9L129.3,107.9z M134,85.9c1.9,0,3.4,1.5,3.4,3.4c0,1.9-1.5,3.4-3.4,3.4c-1.9,0-3.4-1.5-3.4-3.4
		C130.6,87.4,132.1,85.9,134,85.9L134,85.9z M124.5,65.3c1.5,0,2.7,1.2,2.7,2.7s-1.2,2.7-2.7,2.7c-1.5,0-2.7-1.2-2.7-2.7
		S123,65.3,124.5,65.3L124.5,65.3z M124.7,76.4c1.6,0,2.8,1.3,2.8,2.8c0,1.6-1.3,2.8-2.8,2.8c-1.6,0-2.8-1.3-2.8-2.8
		C121.9,77.6,123.2,76.4,124.7,76.4z"/>
	<path class="st88" d="M16.1,125.8c1.8,0,3.2,1.4,3.2,3.2c0,1.8-1.4,3.2-3.2,3.2c-1.8,0-3.2-1.4-3.2-3.2
		C12.9,127.2,14.3,125.8,16.1,125.8L16.1,125.8z M21.5,100.6c1.4,0,2.5,1.1,2.5,2.5c0,1.4-1.1,2.5-2.5,2.5c-1.4,0-2.5-1.1-2.5-2.5
		C19,101.7,20.1,100.6,21.5,100.6L21.5,100.6z M13.3,107.7c1.9,0,3.5,1.6,3.5,3.5c0,1.9-1.6,3.5-3.5,3.5c-1.9,0-3.5-1.6-3.5-3.5
		C9.8,109.3,11.3,107.7,13.3,107.7L13.3,107.7z M10.7,118.8c1,0,1.8,0.8,1.8,1.8c0,1-0.8,1.8-1.8,1.8c-1,0-1.8-0.8-1.8-1.8
		C8.9,119.6,9.7,118.8,10.7,118.8z"/>
</g>
</svg>
