<svg width="172" height="179" viewBox="0 0 172 179" fill="none" xmlns="http://www.w3.org/2000/svg">
<path d="M54.2731 69.7395H41.1166C40.1941 69.7388 39.2983 70.0495 38.5744 70.6213C37.8504 71.193 37.3406 71.9924 37.1275 72.8899C36.9143 73.7874 37.0103 74.7306 37.3999 75.5668C37.7895 76.403 38.45 77.0833 39.2743 77.4974C39.8447 77.7883 40.4763 77.9388 41.1166 77.9366H54.2731C54.9116 77.9383 55.5415 77.7891 56.1115 77.5013C56.5023 77.3037 56.8591 77.0452 57.1687 76.7356C57.7419 76.1627 58.1324 75.4326 58.2907 74.6378C58.4491 73.843 58.3681 73.019 58.0582 72.2702C57.7483 71.5213 57.2232 70.8812 56.5495 70.4308C55.8757 69.9803 55.0836 69.7397 54.2731 69.7395Z" fill="#EDB740"/>
<path d="M57.7211 86.3824L56.3763 89.0875H37.2031C37.8095 85.3329 38.6101 81.8155 39.2747 77.4973C39.8452 77.7882 40.4768 77.9387 41.117 77.9365H54.2736C54.9121 77.9382 55.542 77.789 56.112 77.5012C56.6212 80.7816 57.2042 83.5839 57.7211 86.3824Z" fill="#D8A43D"/>
<path d="M53.6975 5.08383L50.3121 69.7394H44.7774L41.6875 5.08383L47.6925 0L53.6975 5.08383Z" fill="#CCD3DF"/>
<path d="M112.94 91.6818L108.862 83.4809C108.816 83.3881 108.776 83.2922 108.743 83.194C107.882 80.6628 106.25 78.4647 104.077 76.908C101.903 75.3514 99.2967 74.5144 96.6232 74.5146H74.7837C72.1098 74.5141 69.5028 75.351 67.3288 76.9078C65.1548 78.4646 63.5229 80.6631 62.6622 83.1948C62.6289 83.293 62.5889 83.3889 62.5425 83.4816L58.4653 91.6826L54.2891 89.6063L58.2994 81.5406C59.4964 78.1238 61.7257 75.1635 64.679 73.0693C67.6322 70.9752 71.1633 69.8506 74.7837 69.8513H96.6232C100.244 69.8506 103.775 70.9752 106.728 73.0693C109.681 75.1635 111.911 78.1238 113.108 81.5406L117.118 89.6063L112.94 91.6818Z" fill="#4A5160"/>
<path d="M126.018 61.0913H144.891V67.9864H126.018V61.0913Z" fill="#EDB740"/>
<path d="M144.289 89.0876H126.663C127.118 81.6367 127.444 75.5851 127.541 67.9866H143.046C143.236 75.5424 143.749 81.6095 144.289 89.0876Z" fill="#D8A43D"/>
<path d="M127.468 52.7271H143.081C143.015 54.4994 142.98 59.2723 142.972 61.0913H127.561C127.546 59.2762 127.514 54.4994 127.468 52.7271Z" fill="#B0B5CA"/>
<path d="M124.565 28.2759V49.9482C122.563 49.0582 112.236 49.1281 110.401 49.9482V28.2759C112.236 29.0921 122.563 29.1621 124.565 28.2759Z" fill="#B0B5CA"/>
<path d="M160.509 28.2759V49.9482C158.678 49.1281 148.351 49.0582 146.35 49.9482V28.2759C148.351 29.1621 158.678 29.0921 160.509 28.2759Z" fill="#B0B5CA"/>
<path d="M171.404 28.2875V49.9366C171.406 51.3813 170.833 52.7674 169.813 53.7901C168.792 54.8127 167.408 55.3881 165.963 55.3896C164.518 55.3912 163.132 54.8188 162.109 53.7983C161.087 52.7778 160.511 51.3929 160.51 49.9482V28.2759C160.511 26.8312 161.087 25.4463 162.109 24.4258C163.132 23.4054 164.518 22.8329 165.963 22.8345C167.408 22.836 168.792 23.4114 169.813 24.4341C170.833 25.4567 171.406 26.8428 171.404 28.2875Z" fill="#CCD3DF"/>
<path d="M124.565 25.4969H146.35V52.7273H124.565V25.4969Z" fill="#CCD3DF"/>
<path d="M110.402 28.2876V49.9482C110.401 51.3924 109.826 52.7768 108.803 53.7969C107.781 54.817 106.395 55.3892 104.951 55.3877C103.507 55.3862 102.123 54.811 101.102 53.7887C100.082 52.7664 99.5102 51.3808 99.5117 49.9366V28.2876C99.5102 26.8434 100.082 25.4577 101.102 24.4354C102.123 23.4132 103.507 22.838 104.951 22.8364C106.395 22.8349 107.781 23.4071 108.803 24.4272C109.826 25.4473 110.401 26.8317 110.402 28.2759V28.2876Z" fill="#CCD3DF"/>
<path d="M1.48828 35.066H35.6448C35.6448 56.0815 32.2128 75.418 28.2483 89.0875C26.0951 96.5151 23.7825 102.267 21.7808 105.707H15.3522C13.6848 103.088 11.7997 98.7149 9.97299 93.0248C5.56933 79.3241 1.48828 57.9821 1.48828 35.066Z" fill="#CCD3DF"/>
<path d="M9.97291 93.0247H9.96902C7.13674 95.5932 5.38504 99.141 5.06787 102.951L3.41602 122.513C3.89522 120.122 4.94476 117.882 6.47542 115.983C8.00608 114.084 9.97259 112.583 12.2078 111.607L15.3521 105.707C13.6847 103.087 11.7997 98.7148 9.97291 93.0247Z" fill="#4A5160"/>
<path d="M166.335 102.951C166.016 99.1712 164.289 95.6487 161.496 93.0813C158.703 90.5138 155.048 89.0884 151.255 89.0874H28.2478C26.0945 96.5149 23.7819 102.267 21.7803 105.707L23.3699 110.348H153.144C156.639 110.348 160.027 111.557 162.732 113.771C165.437 115.985 167.292 119.067 167.983 122.494L166.335 102.951Z" fill="#6D7486"/>
<path d="M171.349 162.379L168.558 129.288H2.84432L0.0536515 162.379C-0.122571 164.467 0.136428 166.568 0.814256 168.55C1.49208 170.532 2.57398 172.352 3.99149 173.895C5.409 175.437 7.13125 176.669 9.04925 177.511C10.9673 178.354 13.0393 178.789 15.1341 178.789H156.269C158.364 178.789 160.436 178.354 162.354 177.511C164.272 176.669 165.994 175.437 167.411 173.895C168.829 172.352 169.911 170.532 170.589 168.55C171.266 166.568 171.525 164.467 171.349 162.379Z" fill="#5FA8ED"/>
<path d="M12.2069 114.631V111.607C9.97168 112.583 8.00517 114.084 6.47451 115.983C4.94385 117.882 3.8943 120.122 3.4151 122.513L2.84375 129.288H23.0158L23.1674 114.631H12.2069Z" fill="#5FA8ED"/>
<path d="M167.983 122.494C167.292 119.067 165.437 115.985 162.732 113.772C160.027 111.558 156.639 110.348 153.143 110.348H22.981L22.5068 129.288H168.558L167.983 122.494Z" fill="#4689D3"/>
<path d="M11.7138 162.379L14.5045 129.288H2.84432L0.0536515 162.379C-0.122571 164.467 0.136428 166.568 0.814256 168.55C1.49208 170.532 2.57398 172.352 3.99149 173.895C5.409 175.437 7.13125 176.669 9.04925 177.511C10.9673 178.354 13.0393 178.789 15.1341 178.789H26.7943C24.6994 178.789 22.6274 178.354 20.7094 177.511C18.7914 176.669 17.0692 175.437 15.6516 173.895C14.2341 172.352 13.1522 170.532 12.4744 168.55C11.7966 166.568 11.5376 164.467 11.7138 162.379Z" fill="#4689D3"/>
<path d="M17.7464 93.0247C13.3428 79.324 9.26172 57.982 9.26172 35.0659H1.48828C1.48828 57.982 5.56933 79.324 9.97299 93.0247C11.7997 98.7148 13.6848 103.087 15.3522 105.707H21.7808C21.9931 105.342 22.2084 104.946 22.4284 104.529C20.9425 101.862 19.3229 97.9351 17.7464 93.0247Z" fill="#B0B5CA"/>
<path d="M58.4551 110.348H112.947V160.316H58.4551V110.348Z" fill="#FEA92A"/>
<path d="M12.207 105.707H24.9244V114.631H12.207V105.707Z" fill="#EDB740"/>
<path d="M24.4498 129.288H12.5215C13.2911 123.539 13.8391 118.903 13.8391 114.631H23.2605C23.2605 118.926 23.7191 123.539 24.4498 129.288Z" fill="#D8A43D"/>
</svg>
