<svg id="Layer_1" data-name="Layer 1" xmlns="http://www.w3.org/2000/svg" xmlns:xlink="http://www.w3.org/1999/xlink" viewBox="0 0 149 173"><defs><style>.cls-1{fill:#00001a;}.cls-2{fill:url(#linear-gradient);}.cls-3{fill:url(#linear-gradient-2);}.cls-4{fill:url(#linear-gradient-3);}.cls-5{fill:url(#linear-gradient-4);}.cls-6{fill:url(#linear-gradient-5);}.cls-7{fill:url(#linear-gradient-6);}.cls-8{fill:url(#linear-gradient-7);}.cls-9{fill:url(#linear-gradient-8);}.cls-10{fill:url(#linear-gradient-9);}.cls-11{fill:url(#linear-gradient-10);}.cls-12{fill:url(#linear-gradient-11);}.cls-13{fill:url(#linear-gradient-12);}.cls-14{fill:url(#linear-gradient-13);}.cls-15{fill:url(#linear-gradient-14);}.cls-16{fill:url(#linear-gradient-15);}.cls-17{fill:url(#linear-gradient-16);}.cls-18{fill:url(#linear-gradient-17);}.cls-19{fill:url(#linear-gradient-18);}</style><linearGradient id="linear-gradient" x1="90.03" y1="113.02" x2="108.83" y2="113.02" gradientUnits="userSpaceOnUse"><stop offset="0.36" stop-color="#c4bfd6"/><stop offset="1" stop-color="#7386bc"/></linearGradient><linearGradient id="linear-gradient-2" x1="90.03" y1="143.28" x2="105.1" y2="143.28" xlink:href="#linear-gradient"/><linearGradient id="linear-gradient-3" x1="346.91" y1="113.02" x2="365.72" y2="113.02" gradientTransform="matrix(-1, 0, 0, 1, 406, 0)" xlink:href="#linear-gradient"/><linearGradient id="linear-gradient-4" x1="346.91" y1="143.28" x2="361.99" y2="143.28" gradientTransform="matrix(-1, 0, 0, 1, 406, 0)" xlink:href="#linear-gradient"/><linearGradient id="linear-gradient-5" x1="97.57" y1="80.27" x2="74.55" y2="80.27" xlink:href="#linear-gradient"/><linearGradient id="linear-gradient-6" x1="106.28" y1="32.21" x2="80.78" y2="32.21" xlink:href="#linear-gradient"/><linearGradient id="linear-gradient-7" x1="502.46" y1="80.27" x2="479.45" y2="80.27" gradientTransform="matrix(-1, 0, 0, 1, 554, 0)" xlink:href="#linear-gradient"/><linearGradient id="linear-gradient-8" x1="511.17" y1="32.21" x2="485.68" y2="32.21" gradientTransform="matrix(-1, 0, 0, 1, 554, 0)" xlink:href="#linear-gradient"/><linearGradient id="linear-gradient-9" x1="114.1" y1="46.17" x2="136.82" y2="46.17" xlink:href="#linear-gradient"/><linearGradient id="linear-gradient-10" x1="112.24" y1="42.29" x2="136.17" y2="42.29" xlink:href="#linear-gradient"/><linearGradient id="linear-gradient-11" x1="571.01" y1="46.21" x2="593.73" y2="46.21" gradientTransform="matrix(-1, 0, 0, 1, 606, 0)" xlink:href="#linear-gradient"/><linearGradient id="linear-gradient-12" x1="569.15" y1="42.33" x2="593.08" y2="42.33" gradientTransform="matrix(-1, 0, 0, 1, 606, 0)" xlink:href="#linear-gradient"/><linearGradient id="linear-gradient-13" x1="94.03" y1="71.52" x2="106.8" y2="71.52" xlink:href="#linear-gradient"/><linearGradient id="linear-gradient-14" x1="486.92" y1="71.52" x2="499.69" y2="71.52" gradientTransform="matrix(-1, 0, 0, 1, 542, 0)" xlink:href="#linear-gradient"/><linearGradient id="linear-gradient-15" x1="11.75" y1="91.02" x2="33.02" y2="91.02" xlink:href="#linear-gradient"/><linearGradient id="linear-gradient-16" x1="434.79" y1="90.89" x2="456.06" y2="90.89" gradientTransform="matrix(-1, 0, 0, 1, 572, 0)" xlink:href="#linear-gradient"/><linearGradient id="linear-gradient-17" x1="11.74" y1="74.45" x2="33.02" y2="74.45" xlink:href="#linear-gradient"/><linearGradient id="linear-gradient-18" x1="348.74" y1="74.45" x2="370.02" y2="74.45" gradientTransform="matrix(-1, 0, 0, 1, 486, 0)" xlink:href="#linear-gradient"/></defs><path class="cls-1" d="M137.22,88.24c0-.45-.09-44-.16-44.56-.3-2.52-.87-6.33-1.84-11.62h0c-.3-1.58-.63-3.34-1-5.22-3-14.91-11.93-17.9-17.9-17.9H95.43a3,3,0,0,1-3-3v-3A2.92,2.92,0,0,0,89.53,0H78.36L74.55,19.65v4.21l-9,62.63h39.14l2.82-48.08,7.53,14.08a2.59,2.59,0,0,0,1.15.89l-.3,40.79c.07.06.46,2.31.55,2.33a2.75,2.75,0,0,0,1.79.06l16.79-5.19A3,3,0,0,0,137.22,88.24Z"/><path class="cls-1" d="M73.41,0H59.58a2.92,2.92,0,0,0-2.92,2.92V6a3,3,0,0,1-3,3H32.79c-6,0-14.91,3-17.89,17.9-.39,2-.74,3.75-1,5.39l-.11,0c-1,5.3-1.55,9.1-1.84,11.63-.07.59-.12,44.1-.16,44.55A3,3,0,0,0,13.9,91.5l16.79,5.19a2.88,2.88,0,0,0,1.79-.06c.08,0,.47-2.27.54-2.33l-.29-40.86A2.77,2.77,0,0,0,34,52.49L41.56,38.7l2.81,47.79H74.55V17.89Z"/><path class="cls-1" d="M119.26,160.58,116,145.91h0l-9.75-44.5-1.11-5.07a30,30,0,0,1-.56-7.85l.12-2H44.37l.12,2a30.41,30.41,0,0,1-.57,7.85l-1.1,5.07h0l-9.73,44.5h0L29.9,160.58A3,3,0,0,0,32,164l24.82,8.83a3,3,0,0,0,3.6-1.73l2.69-6.8h0l8.74-22.28a3,3,0,0,1,5.49,0l8.83,22.25h0l2.71,6.86a3,3,0,0,0,3.61,1.73L117.2,164A3,3,0,0,0,119.26,160.58Z"/><polygon class="cls-2" points="107.6 107.39 94.28 111.4 90.03 118.65 108.83 113.02 107.6 107.39"/><path class="cls-3" d="M98.36,140c0-7.33-6.82-21.78-6.82-21.78l-1.51.45c2.83,3.17,4.5,12,4.5,12,1.5,5.5-1.5,11.25,0,21.5s10.57,16.21,10.57,16.21L102,158.53S98.36,147.32,98.36,140Z"/><polygon class="cls-4" points="41.52 107.39 54.84 111.4 59.09 118.65 40.28 113.02 41.52 107.39"/><path class="cls-5" d="M50.75,140c0-7.33,6.82-21.78,6.82-21.78l1.52.45c-2.84,3.17-4.5,12-4.5,12-1.5,5.5,1.5,11.25,0,21.5S44,168.36,44,168.36l3.08-9.83S50.75,147.32,50.75,140Z"/><path class="cls-6" d="M91.59,82.88s.2.85-1.32,2.06l-3.55,4.21a4,4,0,0,1-3,1.07H74.55v6.42h7.91s5.27-.78,7-3.78L97,82.45l.1-10.63.51-7.92-6,6.06Z"/><path class="cls-7" d="M101.43,17.15s0,.38-.1.93l.1-.93C84.09,13.32,81.45,0,81.45,0h-.67c.75,13.59,20.55,18.08,20.55,18.08-.18,1.44-.58,4.11-1.15,4.85-.8,1-6,6.42-7.59,10.71,0,0,.42,5.3,1.15,9h0l3.31,21.83.52-.52s-2.64-16.1-3.22-20.44c1.13-2.49,5.52-12,7.46-15,2.23-3.45,4.47-4,4.47-4V18.83Z"/><path class="cls-8" d="M57.52,82.88s-.2.85,1.32,2.06l3.55,4.21a4,4,0,0,0,3,1.07h9.12v6.42H66.64s-5.27-.78-7-3.78L52.14,82.45,52,71.82l-.5-7.92,6,6.06Z"/><path class="cls-9" d="M47.67,17.15s0,.38.11.93l-.11-.93C65,13.32,67.66,0,67.66,0h.66c-.75,13.59-20.54,18.08-20.54,18.08.18,1.44.58,4.11,1.15,4.85.79,1,6,6.42,7.59,10.71,0,0-.43,5.3-1.15,9h0L52.05,64.42l-.51-.52s2.63-16.1,3.21-20.44c-1.13-2.49-5.52-12-7.45-15-2.24-3.45-4.47-4-4.47-4V18.83Z"/><polygon class="cls-10" points="114.44 51.28 136.82 41.86 136.71 41.07 114.1 50.65 114.44 51.28"/><polygon class="cls-11" points="112.24 47.17 112.5 47.65 136.17 37.52 136.07 36.94 112.24 47.17"/><polygon class="cls-12" points="34.65 51.32 12.27 41.89 12.38 41.1 34.99 50.69 34.65 51.32"/><polygon class="cls-13" points="36.85 47.21 36.59 47.68 12.92 37.56 13.02 36.97 36.85 47.21"/><polygon class="cls-14" points="106.8 51.32 102.45 51.32 101.44 68.81 101.42 68.81 99.43 82.96 94.03 91.71 94.31 91.71 99.78 83 101.62 68.81 101.62 68.81 106.42 57.78 106.8 51.32"/><polygon class="cls-15" points="42.31 51.32 46.66 51.32 47.66 68.81 47.69 68.81 49.68 82.96 55.08 91.71 54.8 91.71 49.33 82.99 47.49 68.81 47.49 68.81 42.69 57.78 42.31 51.32"/><polygon class="cls-16" points="11.76 87.73 33.02 93.82 33.02 94.3 11.75 88.14 11.76 87.73"/><polygon class="cls-17" points="137.21 87.61 115.95 93.69 115.94 94.18 137.21 88.01 137.21 87.61"/><path class="cls-18" d="M11.74,83.65l0,.58L33,89.94v-.66L31.94,89V69.19h-.37v19.7l.37.1L20.24,85.9S15,84.48,15,80.27V63.48L12.92,59V84"/><path class="cls-19" d="M137.26,83.65l0,.58L116,89.94v-.66l1.08-.29V69.19h.37v19.7l-.37.1,11.7-3.09S134,84.48,134,80.27V63.48L136.08,59V84"/></svg>