<svg width="182" height="182" viewBox="0 0 182 182" fill="none" xmlns="http://www.w3.org/2000/svg">
<path d="M135.712 85.6111H127.479C127.695 87.3767 127.808 89.1757 127.808 90.9993C127.808 92.8235 127.695 94.6226 127.479 96.3885H135.712C138.688 96.3885 141.101 93.9749 141.101 90.9993C141.101 88.024 138.688 85.6111 135.712 85.6111Z" fill="#49BAED"/>
<path d="M117.5 61.694L113.086 27.7169C112.907 26.3369 111.731 25.304 110.34 25.304H59.1599C57.7679 25.304 56.593 26.3366 56.4135 27.7169L52 61.694C51.9847 61.8124 51.9766 61.9315 51.9766 62.0505V119.95C51.9766 120.069 51.9844 120.188 52 120.306L56.4135 154.282C56.5927 155.662 57.7682 156.695 59.1599 156.695H110.339C111.731 156.695 112.906 155.663 113.086 154.282L117.499 120.306C117.514 120.188 117.523 120.069 117.523 119.95V62.0505C117.523 61.9311 117.515 61.8124 117.5 61.694Z" fill="#FFE8A5"/>
<path d="M65.1828 154.282L60.7693 120.306C60.7541 120.188 60.7459 120.069 60.7459 119.95V62.0505C60.7459 61.9311 60.7537 61.8124 60.7693 61.694L65.1828 27.7169C65.362 26.3369 66.5375 25.304 67.9292 25.304H59.1608C57.7688 25.304 56.594 26.3366 56.4145 27.7169L52.001 61.694C51.9857 61.8124 51.9775 61.9315 51.9775 62.0505V119.95C51.9775 120.069 51.9854 120.188 52.001 120.306L56.4145 154.282C56.5937 155.662 57.7692 156.695 59.1608 156.695H67.9292C66.5375 156.695 65.362 155.663 65.1828 154.282Z" fill="#F5C282"/>
<path d="M84.7493 134.849C108.967 134.849 128.599 115.217 128.599 90.9996C128.599 66.7819 108.967 47.1497 84.7493 47.1497C60.5317 47.1497 40.8994 66.7819 40.8994 90.9996C40.8994 115.217 60.5317 134.849 84.7493 134.849Z" fill="#FFB76D"/>
<path d="M48.8892 90.9997C48.8892 68.1292 66.3996 49.3516 88.7443 47.3339C87.4284 47.2149 86.0972 47.1509 84.7499 47.1509C60.5326 47.1509 40.9004 66.7827 40.9004 91.0001C40.9004 115.218 60.5326 134.85 84.7499 134.85C86.0968 134.85 87.4284 134.786 88.7443 134.667C66.3996 132.649 48.8892 113.871 48.8892 90.9997Z" fill="#F79C59"/>
<path d="M115.761 89.5717C115.756 89.4668 115.751 89.3623 115.745 89.2575C115.72 88.7925 115.686 88.3297 115.64 87.8701C115.634 87.8128 115.626 87.7556 115.62 87.6984C115.576 87.2775 115.522 86.8591 115.461 86.4429C115.447 86.3511 115.435 86.2584 115.42 86.167C115.35 85.717 115.27 85.2709 115.181 84.8276C115.164 84.7444 115.146 84.662 115.128 84.5788C115.044 84.1778 114.952 83.7804 114.853 83.3851C114.835 83.3162 114.82 83.2475 114.802 83.1789C114.689 82.7428 114.565 82.312 114.434 81.884C114.406 81.7923 114.377 81.7009 114.347 81.6099C114.217 81.1976 114.08 80.7884 113.933 80.3839C113.923 80.359 113.915 80.3334 113.906 80.3089C113.751 79.8855 113.584 79.4678 113.411 79.053C113.373 78.962 113.335 78.8714 113.296 78.7804C113.12 78.3687 112.937 77.9607 112.743 77.5583C112.73 77.5305 112.716 77.5035 112.702 77.4765C112.517 77.0954 112.324 76.7201 112.124 76.3483C112.08 76.2651 112.036 76.1815 111.99 76.0991C111.952 76.0298 111.917 75.9594 111.878 75.8911L111.85 75.8542C110.278 73.0474 108.283 70.5118 105.952 68.3296L105.922 68.2919C105.872 68.2457 105.82 68.202 105.769 68.1558C105.603 68.0026 105.433 67.854 105.263 67.7047C105.068 67.533 104.874 67.3617 104.674 67.1946C104.5 67.0478 104.321 66.9056 104.143 66.763C103.941 66.602 103.74 66.4413 103.534 66.2846C103.352 66.1452 103.166 66.0102 102.98 65.8747C102.773 65.724 102.564 65.574 102.353 65.4283C102.163 65.2967 101.97 65.1691 101.777 65.0422C101.562 64.9011 101.347 64.7617 101.128 64.626C100.931 64.5033 100.733 64.3842 100.534 64.2662C100.312 64.1347 100.089 64.0067 99.8642 63.8805C99.6616 63.7679 99.4586 63.6566 99.2528 63.5478C99.0246 63.4266 98.7943 63.3097 98.5628 63.1941C98.3552 63.0903 98.1462 62.9883 97.9361 62.8895C97.7008 62.7789 97.4634 62.6727 97.2245 62.5678C97.0119 62.4743 96.7997 62.3815 96.5847 62.2934C96.3422 62.1931 96.0973 62.0982 95.851 62.004C95.6348 61.9212 95.4191 61.8384 95.2008 61.7602C94.9499 61.6706 94.6971 61.5874 94.4437 61.5039C94.2247 61.4317 94.0068 61.3596 93.7861 61.2924C93.5273 61.2138 93.2653 61.1424 93.004 61.0698C92.7836 61.0094 92.5643 60.9469 92.3421 60.8911C92.073 60.8235 91.8018 60.7641 91.5299 60.7034C91.3106 60.6543 91.0927 60.6024 90.8716 60.5587C90.5893 60.5022 90.3042 60.4549 90.0195 60.4062C89.8052 60.3692 89.5919 60.3291 89.3754 60.2967C89.0747 60.2519 88.7704 60.2174 88.4668 60.1812C88.2624 60.1567 88.0602 60.1275 87.8543 60.1069C87.5145 60.0731 87.1704 60.0514 86.8274 60.029C86.6553 60.018 86.4854 60.0002 86.3127 59.9914C85.7948 59.9661 85.274 59.9519 84.7504 59.9519C84.2264 59.9519 83.7053 59.9658 83.1881 59.9914C83.0157 59.9995 82.8454 60.0173 82.6734 60.029C82.3304 60.0521 81.9866 60.0735 81.6464 60.1069C81.4406 60.1275 81.2384 60.1567 81.034 60.1812C80.7304 60.2174 80.4261 60.2519 80.1254 60.2967C79.9089 60.3291 79.6956 60.3699 79.4813 60.4062C79.1965 60.4549 78.9111 60.5018 78.6292 60.5587C78.4081 60.6028 78.1902 60.6543 77.9709 60.7034C77.699 60.7634 77.4277 60.8232 77.1586 60.8911C76.9361 60.9469 76.7171 61.0094 76.4968 61.0698C76.2351 61.1424 75.9739 61.2131 75.7147 61.2924C75.4936 61.3596 75.2761 61.4324 75.0571 61.5039C74.8037 61.5874 74.5506 61.6709 74.3 61.7602C74.0821 61.838 73.8659 61.9212 73.6498 62.004C73.4042 62.0982 73.1593 62.1935 72.9161 62.2934C72.7014 62.3819 72.4888 62.4747 72.2763 62.5678C72.0374 62.6727 71.7999 62.7786 71.5646 62.8895C71.3545 62.9883 71.1455 63.0903 70.9379 63.1941C70.7065 63.3097 70.4762 63.4266 70.248 63.5478C70.0422 63.6562 69.8392 63.7679 69.6366 63.8805C69.4119 64.0064 69.1883 64.1351 68.9669 64.2662C68.7674 64.3842 68.5698 64.5037 68.3732 64.626C68.1546 64.7617 67.9389 64.9004 67.7238 65.0422C67.5308 65.1688 67.3381 65.2971 67.1483 65.4283C66.9368 65.574 66.7278 65.7236 66.5205 65.8747C66.3346 66.0102 66.1491 66.1456 65.9664 66.2846C65.7605 66.4413 65.5593 66.602 65.3578 66.763C65.1797 66.9056 65.0013 67.0478 64.8264 67.1946C64.6269 67.3617 64.4321 67.533 64.2377 67.7047C64.0681 67.854 63.8979 68.0026 63.7315 68.1558C63.6814 68.2016 63.6288 68.2457 63.5787 68.2919L63.5492 68.3296C61.2169 70.5122 59.2224 73.0477 57.6509 75.8542L57.6224 75.8904C57.5844 75.9583 57.5489 76.0276 57.5119 76.0962C57.4657 76.1808 57.4198 76.2669 57.3743 76.3518C57.1763 76.7201 56.9851 77.0923 56.8017 77.4694C56.7871 77.4996 56.7711 77.5295 56.7565 77.56C56.5639 77.961 56.3822 78.3673 56.2062 78.7768C56.1664 78.8699 56.127 78.9631 56.0879 79.0566C55.9162 79.4693 55.7498 79.8852 55.5952 80.306C55.5849 80.3345 55.5753 80.3633 55.565 80.3921C55.4192 80.7923 55.2838 81.1976 55.1544 81.6056C55.1249 81.6995 55.0947 81.7933 55.0659 81.8872C54.9351 82.3134 54.8117 82.7428 54.6994 83.1768C54.6809 83.2479 54.6642 83.3197 54.6461 83.3915C54.548 83.7825 54.4566 84.1764 54.3734 84.5738C54.3557 84.6591 54.3361 84.7448 54.3187 84.8301C54.2291 85.2712 54.1506 85.7156 54.0805 86.1635C54.066 86.258 54.0528 86.3529 54.039 86.4482C53.9789 86.8591 53.9256 87.2736 53.8815 87.6902C53.8751 87.751 53.8669 87.8118 53.8605 87.8725C53.815 88.3297 53.7812 88.7904 53.7553 89.2535C53.7496 89.3605 53.745 89.4679 53.74 89.5752C53.7187 90.0477 53.7041 90.5215 53.7041 90.9993C53.7041 108.146 67.6044 122.046 84.7507 122.046C87.9653 122.046 91.0664 121.557 93.983 120.651C106.621 116.72 115.797 104.931 115.797 90.9996C115.797 90.5204 115.782 90.0452 115.761 89.5717Z" fill="#B7DFF7"/>
<path d="M62.042 90.9996C62.042 90.5222 62.0565 90.0484 62.0779 89.5756C62.0829 89.4683 62.0878 89.3609 62.0932 89.2539C62.1191 88.7911 62.1525 88.3301 62.1984 87.8729C62.2048 87.8121 62.213 87.7514 62.2194 87.6906C62.2634 87.274 62.3168 86.8598 62.3768 86.4486C62.3907 86.3537 62.4038 86.2588 62.4184 86.1638C62.4888 85.716 62.5677 85.2716 62.6566 84.8305C62.674 84.7445 62.6936 84.6591 62.7113 84.5742C62.7949 84.1771 62.8859 83.7829 62.9843 83.3919C63.0025 83.3197 63.0192 83.2483 63.0376 83.1772C63.15 82.7432 63.273 82.3134 63.4041 81.8872C63.4326 81.793 63.4631 81.6992 63.4926 81.6057C63.622 81.1976 63.7578 80.7924 63.9032 80.3921C63.9135 80.3637 63.9231 80.3349 63.9334 80.3061C64.0881 79.8852 64.2544 79.4693 64.4261 79.0566C64.4652 78.9631 64.5043 78.87 64.5445 78.7768C64.7201 78.3673 64.9017 77.9607 65.0947 77.5601C65.1093 77.5295 65.1253 77.4996 65.1399 77.4694C65.323 77.0919 65.5146 76.7197 65.7125 76.3518C65.758 76.2665 65.8039 76.1805 65.8501 76.0963C65.8874 76.0276 65.923 75.9587 65.9607 75.8904L65.9891 75.8542C67.561 73.0474 69.5555 70.5118 71.8874 68.3296L71.9169 68.2919C71.9667 68.2457 72.0193 68.202 72.0697 68.1558C72.2358 68.0026 72.4064 67.854 72.5759 67.7047C72.7707 67.533 72.9652 67.3617 73.1646 67.1946C73.3391 67.0478 73.5176 66.9056 73.696 66.7631C73.8976 66.602 74.0991 66.4414 74.3046 66.2846C74.4873 66.1453 74.6732 66.0102 74.8588 65.8747C75.066 65.724 75.275 65.574 75.4865 65.4283C75.6763 65.2968 75.869 65.1691 76.062 65.0422C76.2767 64.9011 76.4925 64.7618 76.7115 64.626C76.9077 64.5033 77.1057 64.3843 77.3051 64.2662C77.5269 64.1347 77.7501 64.0068 77.9748 63.8806C78.1774 63.7679 78.3804 63.6566 78.5862 63.5478C78.8144 63.4266 79.0448 63.3097 79.2762 63.1942C79.4838 63.0904 79.6928 62.9883 79.9029 62.8895C80.1382 62.779 80.3756 62.6727 80.6145 62.5678C80.8271 62.4743 81.0393 62.3816 81.2544 62.2934C81.4968 62.1932 81.7417 62.0982 81.988 62.004C82.2042 61.9212 82.4199 61.8384 82.6382 61.7602C82.8892 61.6706 83.1419 61.5874 83.3953 61.5039C83.6143 61.4317 83.8322 61.3596 84.053 61.2924C84.3117 61.2135 84.5734 61.1424 84.835 61.0699C85.0554 61.0094 85.2747 60.9469 85.4969 60.8911C85.766 60.8235 86.0372 60.7642 86.3091 60.7034C86.5284 60.6543 86.7463 60.6024 86.9674 60.5587C87.2497 60.5022 87.5351 60.4549 87.8195 60.4062C88.0338 60.3692 88.2471 60.3291 88.4636 60.2967C88.6143 60.2743 88.7675 60.2573 88.9193 60.2391C88.7682 60.2207 88.6179 60.1997 88.4668 60.1819C88.2624 60.1574 88.0602 60.1282 87.8543 60.1076C87.5145 60.0738 87.1704 60.0522 86.8274 60.0298C86.6553 60.0188 86.4854 60.001 86.3127 59.9921C85.7948 59.9669 85.274 59.9526 84.7504 59.9526C84.2264 59.9526 83.7053 59.9665 83.1881 59.9921C83.0157 60.0003 82.8454 60.018 82.6734 60.0298C82.3304 60.0529 81.9866 60.0742 81.6464 60.1076C81.4406 60.1282 81.2384 60.1574 81.034 60.1819C80.7304 60.2182 80.4261 60.2527 80.1254 60.2974C79.9089 60.3298 79.6956 60.3707 79.4813 60.4069C79.1965 60.4556 78.9111 60.5025 78.6292 60.5594C78.4081 60.6035 78.1902 60.655 77.9709 60.7041C77.699 60.7642 77.4277 60.8239 77.1586 60.8918C76.9361 60.9476 76.7171 61.0102 76.4968 61.0706C76.2351 61.1431 75.9739 61.2138 75.7147 61.2931C75.4936 61.3603 75.2761 61.4332 75.0571 61.5046C74.8037 61.5881 74.5506 61.6717 74.3 61.7609C74.0821 61.8388 73.8659 61.9219 73.6498 62.0048C73.4042 62.099 73.1593 62.1942 72.9161 62.2941C72.7014 62.3826 72.4888 62.4754 72.2763 62.5685C72.0374 62.6734 71.7999 62.7793 71.5646 62.8902C71.3545 62.989 71.1455 63.0911 70.9379 63.1949C70.7065 63.3104 70.4762 63.4273 70.248 63.5486C70.0422 63.657 69.8392 63.7686 69.6366 63.8813C69.4119 64.0071 69.1883 64.1358 68.9669 64.267C68.7674 64.385 68.5698 64.5044 68.3732 64.6267C68.1543 64.7625 67.9388 64.9011 67.7238 65.0429C67.5308 65.1695 67.3381 65.2978 67.1483 65.429C66.9368 65.5747 66.7278 65.7244 66.5205 65.8755C66.3346 66.0109 66.1491 66.1463 65.9664 66.2853C65.7605 66.4421 65.5593 66.6027 65.3578 66.7638C65.1797 66.9063 65.0013 67.0485 64.8264 67.1953C64.6269 67.3624 64.4321 67.5337 64.2377 67.7054C64.0681 67.8547 63.8979 68.0033 63.7315 68.1565C63.6814 68.2024 63.6288 68.2464 63.5787 68.2926L63.5492 68.3303C61.2169 70.5129 59.2224 73.0485 57.6509 75.8549L57.6224 75.8911C57.5844 75.959 57.5489 76.0284 57.5119 76.097C57.4657 76.1816 57.4198 76.2676 57.3743 76.3525C57.1763 76.7208 56.9851 77.093 56.8017 77.4701C56.7871 77.5004 56.7711 77.5302 56.7565 77.5608C56.5638 77.9617 56.3822 78.3681 56.2062 78.7776C56.1664 78.8707 56.127 78.9638 56.0879 79.0573C55.9162 79.47 55.7498 79.8859 55.5952 80.3068C55.5849 80.3352 55.5753 80.364 55.565 80.3928C55.4192 80.7931 55.2838 81.1983 55.1544 81.6064C55.1249 81.7002 55.0947 81.7941 55.0659 81.8879C54.9351 82.3141 54.8117 82.7435 54.6994 83.1775C54.6809 83.2486 54.6642 83.3204 54.6461 83.3923C54.548 83.7833 54.4566 84.1771 54.3734 84.5745C54.3557 84.6598 54.3361 84.7455 54.3187 84.8308C54.2291 85.272 54.1506 85.7163 54.0805 86.1642C54.066 86.2587 54.0528 86.3537 54.039 86.4489C53.9789 86.8598 53.9256 87.2743 53.8815 87.6909C53.8751 87.7517 53.8669 87.8125 53.8605 87.8733C53.815 88.3304 53.7812 88.7911 53.7553 89.2543C53.7496 89.3613 53.745 89.4686 53.74 89.576C53.7187 90.0484 53.7041 90.5222 53.7041 91C53.7041 108.147 67.6044 122.047 84.7507 122.047C86.1694 122.047 87.565 121.946 88.9335 121.762C73.7525 119.73 62.042 106.736 62.042 90.9996Z" fill="#77C2E0"/>
<path d="M103.862 176.625C103.862 179.593 101.456 182 98.4872 182H71.0141C68.0452 182 65.6387 179.593 65.6387 176.625V151.541C65.6387 148.573 68.0452 146.166 71.0141 146.166H98.4872C101.456 146.166 103.862 148.573 103.862 151.541V176.625Z" fill="#FFB76D"/>
<path d="M103.862 30.4587C103.862 33.4269 101.456 35.8341 98.4872 35.8341H71.0141C68.0452 35.8341 65.6387 33.4269 65.6387 30.4587V5.3754C65.6387 2.40652 68.0452 0 71.0141 0H98.4872C101.456 0 103.862 2.40652 103.862 5.3754V30.4587Z" fill="#FFB76D"/>
<path d="M73.7704 176.625V151.541C73.7704 148.573 76.1769 146.166 79.1458 146.166H71.0141C68.0452 146.166 65.6387 148.573 65.6387 151.541V176.625C65.6387 179.593 68.0452 182 71.0141 182H79.1458C76.1769 182 73.7704 179.593 73.7704 176.625Z" fill="#F79C59"/>
<path d="M73.7704 30.4587V5.3754C73.7704 2.40652 76.1769 0 79.1458 0H71.0141C68.0452 0 65.6387 2.40652 65.6387 5.3754V30.4587C65.6387 33.4269 68.0452 35.8341 71.0141 35.8341H79.1458C76.1769 35.8341 73.7704 33.4269 73.7704 30.4587Z" fill="#F79C59"/>
<path d="M96.1002 12.1802H103.862V23.654H65.6387V12.1802H85.4177" fill="#FFE8A5"/>
<path d="M73.7704 12.1802H65.6387V23.654H73.7704V12.1802Z" fill="#F5C282"/>
<path d="M65.6387 158.346V169.82H86.6046H96.8915H103.862V158.346H65.6387Z" fill="#FFE8A5"/>
<path d="M73.7704 158.347H65.6387V169.821H73.7704V158.347Z" fill="#F5C282"/>
<path d="M96.3581 104.786C95.6336 104.786 94.9078 104.523 94.3358 103.989L87.0946 97.2408C85.8956 96.1239 85.8298 94.246 86.9471 93.047C88.0643 91.8476 89.9419 91.7819 91.1409 92.8995L98.3821 99.6481C99.5808 100.765 99.6469 102.643 98.5297 103.842C97.9456 104.469 97.1529 104.786 96.3581 104.786Z" fill="#49BAED"/>
<path d="M84.7497 87.5553C83.1106 87.5553 81.7822 86.2273 81.7822 84.5879V71.6232C81.7822 69.9842 83.1103 68.6558 84.7497 68.6558C86.3887 68.6558 87.7171 69.9838 87.7171 71.6232V84.5879C87.7171 86.2269 86.3891 87.5553 84.7497 87.5553Z" fill="#49BAED"/>
<path d="M84.7502 98.7844C80.4579 98.7844 76.9658 95.2923 76.9658 90.9996C76.9658 86.7073 80.4579 83.2156 84.7502 83.2156C89.0425 83.2156 92.5346 86.7073 92.5346 90.9996C92.5346 95.2923 89.0429 98.7844 84.7502 98.7844ZM84.7502 89.1505C83.7304 89.1505 82.9007 89.9801 82.9007 90.9996C82.9007 92.0195 83.7304 92.8499 84.7502 92.8499C85.7701 92.8499 86.5997 92.0198 86.5997 90.9996C86.6001 89.9801 85.7704 89.1505 84.7502 89.1505Z" fill="#4799B5"/>
</svg>
