<svg width="96" height="205" viewBox="0 0 96 205" fill="none" xmlns="http://www.w3.org/2000/svg">
<path d="M95.6665 136.667V129.833C95.6665 126.059 92.6071 123 88.8331 123V120.864H6.83347V123C3.05939 123 0 126.059 0 129.833V136.667C0 139.377 1.58034 141.715 3.86777 142.819C4.12642 142.944 4.28578 143.212 4.28578 143.499V143.501C4.28578 143.788 4.12682 144.056 3.86777 144.181C1.57994 145.285 0 147.623 0 150.334V157.167C0 159.878 1.58034 162.216 3.86777 163.32C4.12642 163.445 4.28578 163.712 4.28578 164V164.001C4.28578 164.288 4.12682 164.556 3.86777 164.681C1.57994 165.785 0 168.123 0 170.834V177.667C0 180.378 1.58034 182.716 3.86777 183.82C4.12642 183.945 4.28578 184.212 4.28578 184.5V184.501C4.28578 184.788 4.12682 185.056 3.86777 185.181C1.57994 186.285 0 188.623 0 191.334C0 198.881 6.11877 205 13.6665 205H82C89.5482 205 95.6665 198.881 95.6665 191.334C95.6665 188.623 94.0866 186.285 91.7988 185.181C91.5401 185.056 91.3807 184.788 91.3807 184.501V184.5C91.3807 184.212 91.5397 183.945 91.7988 183.82C94.0866 182.716 95.6665 180.378 95.6665 177.667V170.834C95.6665 168.123 94.0866 165.785 91.7988 164.681C91.5401 164.556 91.3807 164.288 91.3807 164.001V164C91.3807 163.712 91.5397 163.445 91.7988 163.32C94.0866 162.216 95.6665 159.878 95.6665 157.167V150.334C95.6665 147.623 94.0866 145.285 91.7988 144.181C91.5401 144.056 91.3807 143.788 91.3807 143.501V143.499C91.3807 143.212 91.5397 142.944 91.7988 142.819C94.0866 141.715 95.6665 139.377 95.6665 136.667Z" fill="#D8E2F3"/>
<path d="M91.7993 142.819C94.0871 141.715 95.6671 139.377 95.6671 136.667V129.833C95.6671 126.059 92.6077 123 88.8336 123H79.0108C82.7849 123 85.8443 126.059 85.8443 129.833V136.667C85.8443 139.377 84.2643 141.715 81.9765 142.819C81.7178 142.944 81.5585 143.212 81.5585 143.499V143.501C81.5585 143.788 81.7174 144.056 81.9765 144.181C84.2643 145.285 85.8443 147.623 85.8443 150.334V157.167C85.8443 159.878 84.2643 162.215 81.9765 163.32C81.7178 163.445 81.5585 163.712 81.5585 164V164.001C81.5585 164.289 81.7174 164.556 81.9765 164.681C84.2643 165.785 85.8443 168.123 85.8443 170.834V177.667C85.8443 180.378 84.2643 182.716 81.9765 183.82C81.7178 183.945 81.5585 184.213 81.5585 184.5V184.502C81.5585 184.789 81.7174 185.057 81.9765 185.182C84.2643 186.286 85.8443 188.624 85.8443 191.334C85.8443 198.882 79.7255 205.001 72.1777 205.001H82.0005C89.5487 205.001 95.6671 198.882 95.6671 191.334C95.6671 188.624 94.0871 186.286 91.7993 185.182C91.5406 185.057 91.3813 184.789 91.3813 184.502V184.5C91.3813 184.213 91.5402 183.945 91.7993 183.82C94.0871 182.716 95.6671 180.378 95.6671 177.667V170.834C95.6671 168.123 94.0871 165.785 91.7993 164.681C91.5406 164.556 91.3813 164.289 91.3813 164.001V164C91.3813 163.712 91.5402 163.445 91.7993 163.32C94.0871 162.215 95.6671 159.878 95.6671 157.167V150.334C95.6671 147.623 94.0871 145.285 91.7993 144.181C91.5406 144.056 91.3813 143.788 91.3813 143.501V143.499C91.3813 143.212 91.5402 142.944 91.7993 142.819Z" fill="#BACDEA"/>
<path d="M75.1668 140.297H1.04688C1.72954 141.38 2.70689 142.259 3.86763 142.82C4.12628 142.945 4.28564 143.212 4.28564 143.5V143.501C4.28564 143.789 4.12668 144.056 3.86763 144.181C2.70689 144.741 1.72954 145.62 1.04688 146.704H75.1664C76.9357 146.704 78.3695 145.27 78.3695 143.5C78.3699 141.731 76.9357 140.297 75.1668 140.297Z" fill="#BACDEA"/>
<path d="M91.7992 163.319C92.9599 162.759 93.9372 161.88 94.6199 160.797H20.5C18.7307 160.797 17.2969 162.23 17.2969 164C17.2969 165.769 18.7307 167.203 20.5 167.203H94.6195C93.9373 166.12 92.9599 165.24 91.7992 164.68C91.5405 164.555 91.3812 164.288 91.3812 164V163.999C91.3812 163.712 91.5401 163.444 91.7992 163.319Z" fill="#BACDEA"/>
<path d="M75.1668 181.297H1.04688C1.72954 182.38 2.70689 183.259 3.86763 183.82C4.12628 183.945 4.28564 184.212 4.28564 184.5V184.501C4.28564 184.789 4.12668 185.056 3.86763 185.181C2.70689 185.741 1.72954 186.62 1.04688 187.704H75.1664C76.9357 187.704 78.3695 186.27 78.3695 184.5C78.3699 182.731 76.9357 181.297 75.1668 181.297Z" fill="#BACDEA"/>
<path d="M92.2496 123H3.41654C1.52949 123 0 121.471 0 119.583V78.5835C0 76.6964 1.52989 75.1669 3.41654 75.1669V73.0312H92.25V75.1665C94.137 75.1665 95.6665 76.6964 95.6665 78.5831V119.583C95.6665 121.471 94.1367 123 92.2496 123Z" fill="#62A4FB"/>
<path d="M92.2496 75.1665V73.0312H82.4268V75.1665C84.3138 75.1665 85.8433 76.696 85.8433 78.5831V119.583C85.8433 121.47 84.3138 123 82.4268 123H92.2496C94.1366 123 95.6661 121.47 95.6661 119.583V78.5831C95.6661 76.6964 94.1366 75.1665 92.2496 75.1665Z" fill="#5392F9"/>
<path d="M68.333 20.5H27.333V6.40625C27.333 2.868 30.201 0 33.7393 0H61.9268C65.465 0 68.333 2.868 68.333 6.40625V20.5Z" fill="#EDF6FF"/>
<path d="M34.167 18.0208H61.5005V36.6461H34.167V18.0208Z" fill="#BACDEA"/>
<path d="M58.2973 102.5H37.3701C35.6012 102.5 34.167 101.066 34.167 99.2969V92.0366C34.167 90.2677 35.6012 88.8335 37.3701 88.8335H58.2973C60.0663 88.8335 61.5005 90.2677 61.5005 92.0366V99.2969C61.5005 101.066 60.0667 102.5 58.2973 102.5Z" fill="#EDF6FF"/>
<path d="M34.1665 34.1665C15.2969 34.1665 0 49.4634 0 68.333V71.7496C0 73.6366 1.52989 75.1661 3.41654 75.1661H92.25C94.137 75.1661 95.6665 73.6366 95.6665 71.7496V68.333C95.6665 49.4634 80.3696 34.1665 61.5 34.1665H34.1665Z" fill="#D8E2F3"/>
<path d="M68.333 20.5H27.333V6.40625C27.333 2.868 30.201 0 33.7393 0H61.9268C65.465 0 68.333 2.868 68.333 6.40625V20.5Z" fill="#EDF6FF"/>
<path d="M61.5005 0H51.6777C55.4518 0 58.5112 3.05938 58.5112 6.83347V20.5H68.334V6.83347C68.334 3.05938 65.2746 0 61.5005 0Z" fill="#D8E2F3"/>
<path d="M68.333 23.7031H27.333C25.5637 23.7031 24.1299 22.2693 24.1299 20.5C24.1299 18.7307 25.5637 17.2969 27.333 17.2969H68.333C70.1023 17.2969 71.5361 18.7307 71.5361 20.5C71.5361 22.2689 70.1023 23.7031 68.333 23.7031Z" fill="#D8E2F3"/>
<path d="M61.5005 34.1665H51.6777C70.5473 34.1665 85.8443 49.4634 85.8443 68.333V71.7496C85.8443 73.6366 84.3148 75.1661 82.4277 75.1661H92.2505C94.1376 75.1661 95.6671 73.6362 95.6671 71.7496V68.333C95.6671 49.4634 80.3705 34.1665 61.5005 34.1665Z" fill="#BACDEA"/>
<path d="M58.0835 88.8335H48.2607C50.1478 88.8335 51.6773 90.3634 51.6773 92.25V99.0835C51.6773 100.971 50.1478 102.5 48.2607 102.5H58.0835C59.9706 102.5 61.5001 100.971 61.5001 99.0835V92.25C61.5001 90.363 59.9706 88.8335 58.0835 88.8335Z" fill="#D8E2F3"/>
<path d="M13.6665 106.13H0V112.536H13.6665C15.4359 112.536 16.8697 111.102 16.8697 109.333C16.8697 107.564 15.4355 106.13 13.6665 106.13Z" fill="#5392F9"/>
<path d="M95.6665 112.536V106.13H82C80.2307 106.13 78.7969 107.564 78.7969 109.333C78.7969 111.102 80.2307 112.536 82 112.536H95.6665Z" fill="#5392F9"/>
</svg>
