<svg width="163" height="163" viewBox="0 0 163 163" fill="none" xmlns="http://www.w3.org/2000/svg">
<path d="M83.992 123.482C83.2257 122.925 64.9732 109.834 42.98 109.834C20.9868 109.834 2.73429 122.925 1.968 123.482C-0.654641 125.389 -0.649547 129.302 1.968 131.206C2.73429 131.763 20.9865 144.854 42.98 144.854C64.9736 144.854 83.2257 131.763 83.992 131.206C86.6147 129.298 86.6096 125.386 83.992 123.482Z" fill="#A2E786"/>
<path d="M160.398 123.482C159.632 122.925 141.379 109.834 119.386 109.834C97.393 109.834 79.1405 122.925 78.3743 123.482C75.7516 125.389 75.7567 129.302 78.3743 131.206C79.1405 131.763 97.3927 144.854 119.386 144.854C141.38 144.854 159.632 131.763 160.398 131.206C163.021 129.298 163.016 125.386 160.398 123.482Z" fill="#00CB75"/>
<path d="M85.8968 126.576C85.6864 125.285 80.4984 94.6921 58.9633 73.1574C37.4285 51.6223 6.83607 46.4343 5.54448 46.2238C2.32842 45.7011 -0.460094 48.4874 0.0636071 51.7047C0.274043 52.9963 5.46203 83.5887 26.9971 105.124C48.5319 126.659 79.1243 131.847 80.4159 132.057C83.6314 132.58 86.4208 129.794 85.8968 126.576Z" fill="#00CB75"/>
<path d="M156.822 46.2241C155.531 46.4345 124.938 51.6225 103.403 73.1576C81.8683 94.6924 76.6803 125.285 76.4699 126.576C75.9462 129.792 78.7334 132.581 81.9508 132.057C83.2423 131.847 113.835 126.659 135.37 105.124C156.905 83.589 162.093 52.9965 162.303 51.705C162.828 48.4835 160.035 45.7017 156.822 46.2241Z" fill="#009859"/>
<path d="M103.787 66.2189C103.787 96.7973 89.4705 122.772 85.959 128.681V158.225C85.959 160.861 83.8196 163 81.1836 163C78.5476 163 76.4082 160.861 76.4082 158.225V128.681C72.8967 122.772 58.5801 96.7973 58.5801 66.2189C58.5801 32.1226 76.3827 3.43523 77.1404 2.23183C79.0098 -0.732099 83.3456 -0.750563 85.2268 2.23183C85.9845 3.43523 103.787 32.1226 103.787 66.2189Z" fill="#A2E786"/>
<path d="M103.787 66.2188C103.787 96.7972 89.4705 122.772 85.959 128.681V158.225C85.959 160.861 83.8196 163 81.1836 163V0C82.8263 0 84.3513 0.843652 85.2268 2.2317C85.9845 3.4351 103.787 32.1225 103.787 66.2188Z" fill="#00CB75"/>
</svg>
