<svg width="149" height="173" viewBox="0 0 149 173" fill="none" xmlns="http://www.w3.org/2000/svg">
<path d="M74.441 23.8616L68.4766 17.8959L71.4581 0H83.3896L86.3724 14.913L74.441 23.8616Z" fill="#2C3E50"/>
<path d="M13.6249 32.929L29.7007 38.7746L32.4447 53.5094C31.8916 53.7219 31.2819 53.743 30.7157 53.5688L13.9522 48.4689C12.5783 48.0742 11.6781 46.761 11.8048 45.3369C11.9843 43.0403 12.5215 39.0135 13.6249 32.929Z" fill="#E64C3C"/>
<path d="M137.108 45.2471C137.234 46.6713 136.334 47.9845 134.96 48.3791L118.168 53.5688C117.58 53.7443 116.952 53.7232 116.378 53.5094C116.291 53.4883 116.209 53.4474 116.139 53.3906L119.181 38.7746L135.109 32.0645C136.303 38.5964 136.899 42.8608 137.108 45.2471Z" fill="#E64C3C"/>
<path d="M62.9586 164.345L60.274 171.146C59.6933 172.564 58.1332 173.312 56.6656 172.877L31.8484 164.047C30.3609 163.613 29.4621 162.103 29.7908 160.588L32.9822 145.912L50.5797 131.238L62.9586 164.345Z" fill="#E64C3C"/>
<path d="M117.093 164.047L92.3381 172.877C90.8691 173.312 89.309 172.564 88.7283 171.146L86.0146 164.286L98.3025 140.187L115.93 145.912L119.152 160.588C119.453 162.097 118.565 163.592 117.093 164.047Z" fill="#E64C3C"/>
<path d="M115.931 145.912L86.0149 164.286L77.1851 142.036C76.7113 140.938 75.6277 140.23 74.4319 140.237C73.2361 140.243 72.1604 140.963 71.6971 142.065L62.9584 164.345L32.9819 145.912L42.7053 101.411L71.4582 92.4634L106.177 101.411L115.931 145.912Z" fill="#2C2F38"/>
<path d="M106.177 101.411H42.7051L43.8098 96.3414C44.3404 93.7624 44.5318 91.1254 44.376 88.4962L44.2572 86.498L71.458 71.585L104.626 86.498L104.507 88.4962C104.351 91.1254 104.541 93.7624 105.073 96.3414L106.177 101.411Z" fill="#2C3E50"/>
<path d="M135.11 32.0645L116.139 53.3906C115.675 53.2085 115.271 52.8983 114.977 52.4958L107.252 41.7575L104.626 86.4978H65.4941L74.4414 23.8616L75.4854 21.0873L83.39 0H89.4151C91.028 0.0026397 92.3346 1.31061 92.3386 2.92347V5.96573C92.3386 7.6129 93.673 8.94859 95.3201 8.94859H116.199C122.165 8.94859 131.113 11.9301 134.096 26.8445C134.483 28.7226 134.811 30.4833 135.11 32.0645Z" fill="#464F5D"/>
<path d="M74.4411 17.8959V86.4978H44.2574L41.6322 41.7575L33.9072 52.4958C33.5468 52.9867 33.0321 53.3431 32.4448 53.5094L13.625 32.929C13.9523 31.1089 14.3404 29.0816 14.7878 26.8445C17.7707 11.9301 26.7192 8.94859 32.6837 8.94859H53.5624C55.2096 8.94859 56.5452 7.6129 56.5452 5.96573V2.92347C56.5492 1.31061 57.8559 0.0026397 59.4687 0H71.4582L74.4411 17.8959Z" fill="#2C2F38"/>
<path d="M85.8658 31.4683C85.3168 32.3011 84.3876 32.8053 83.3897 32.8093C82.8037 32.8172 82.2296 32.639 81.7491 32.3025L74.4409 27.4413V23.8618L75.4849 21.0874C75.6974 21.1574 75.8994 21.2577 76.0815 21.3857L85.0304 27.3516C85.6916 27.7819 86.1523 28.4603 86.3093 29.2351C86.4664 30.0085 86.3067 30.8123 85.8658 31.4683Z" fill="#2C3E50"/>
<path d="M148.883 86.623C148.883 93.143 143.597 98.4277 137.077 98.4277C130.558 98.4277 125.272 93.143 125.272 86.623C125.272 82.0418 131.094 69.622 134.563 64.1274C135.111 63.2695 136.06 62.7495 137.077 62.7495C138.096 62.7495 139.044 63.2695 139.592 64.1274C143.061 69.6246 148.883 82.0418 148.883 86.623Z" fill="#90BAE1"/>
<path d="M145.778 134.541C145.778 139.345 141.883 143.241 137.077 143.241C132.273 143.241 128.377 139.345 128.377 134.541C129.48 128.662 131.556 123.01 134.522 117.817C135.061 116.919 136.031 116.37 137.077 116.37C138.124 116.37 139.094 116.919 139.634 117.817C142.598 123.01 144.676 128.662 145.778 134.541Z" fill="#B0D3F0"/>
<path d="M23.6108 86.6231C23.6108 93.1432 18.3248 98.4278 11.8047 98.4278C5.28469 98.4278 0 93.1432 0 86.6231C0 82.0419 5.82186 69.5323 9.29043 64.0352C9.83817 63.1759 10.7871 62.6572 11.8047 62.6572C12.8237 62.6572 13.7713 63.1759 14.3191 64.0352C17.789 69.5323 23.6108 82.0419 23.6108 86.6231Z" fill="#90BAE1"/>
<path d="M20.5054 134.541C20.5054 139.345 16.6105 143.241 11.805 143.241C7.00069 143.241 3.10449 139.345 3.10449 134.541C4.20789 128.662 6.28401 123.01 9.24972 117.817C9.78822 116.919 10.7583 116.37 11.805 116.37C12.8516 116.37 13.8217 116.919 14.3615 117.817C17.3259 123.01 19.4033 128.662 20.5054 134.541Z" fill="#B0D3F0"/>
</svg>
