<svg width="68" height="182" viewBox="0 0 68 182" fill="none" xmlns="http://www.w3.org/2000/svg">
<path d="M15.4561 44.0898H52.3776V148.755H15.4561V44.0898Z" fill="#516980"/>
<path d="M48.4673 5.20948V20.3822L33.9264 30.8213L19.3869 20.3822V5.20948C19.3869 0.441199 13.4745 -1.82353 10.3225 1.75477C5.2751 7.48253 0 16.8178 0 30.8213C0 57.6647 33.9278 57.6564 33.9278 57.6564C33.9278 57.6564 67.8543 57.6647 67.8543 30.8213C67.8543 16.8178 62.5792 7.48253 57.5318 1.75477C54.3784 -1.82353 48.4673 0.441199 48.4673 5.20948Z" fill="#889CB0"/>
<path d="M48.4673 176.789V161.618L33.9264 151.179L19.3869 161.618V176.789C19.3869 181.559 13.4745 183.824 10.3225 180.245C5.2751 174.518 0 165.181 0 151.179C0 124.334 33.9278 124.342 33.9278 124.342C33.9278 124.342 67.8543 124.334 67.8543 151.179C67.8543 165.181 62.5792 174.518 57.5318 180.245C54.3784 183.822 48.4673 181.559 48.4673 176.789Z" fill="#889CB0"/>
</svg>
