<svg width="22" height="23" viewBox="0 0 22 23" fill="none" xmlns="http://www.w3.org/2000/svg">
<g clip-path="url(#clip0)">
<path d="M11.5391 17.3703H14.0499V19.2534H11.5391V17.3703Z" fill="#141414" fill-opacity="0.52"/>
<path d="M7.77295 17.3703H10.2838V19.2534H7.77295V17.3703Z" fill="#141414" fill-opacity="0.52"/>
<path d="M4.63435 9.83773C4.63435 10.5298 4.071 11.0932 3.37893 11.0932C3.03189 11.0932 2.75122 11.3738 2.75122 11.7209V12.9763H10.2838V8.42484C9.55473 8.16484 9.02833 7.47461 9.02833 6.65733V6.02962H4.63435V9.83773Z" fill="#141414" fill-opacity="0.52"/>
<path d="M17.1885 9.83773V6.02962H12.7945V6.65733C12.7945 7.47461 12.2681 8.16484 11.5391 8.42484V12.9763H19.0716V11.7209C19.0716 11.3738 18.7908 11.0932 18.4439 11.0932C17.7517 11.0932 17.1885 10.5298 17.1885 9.83773Z" fill="#141414" fill-opacity="0.52"/>
<path d="M7.77295 14.2317H10.2838V16.1148H7.77295V14.2317Z" fill="#141414" fill-opacity="0.52"/>
<path d="M7.77295 20.5088H10.2838V22.392H7.77295V20.5088Z" fill="#141414" fill-opacity="0.52"/>
<path d="M11.5391 14.2317H14.0499V16.1148H11.5391V14.2317Z" fill="#141414" fill-opacity="0.52"/>
<path d="M1.49585 14.8594V21.7642C1.49585 22.1108 1.7769 22.392 2.12356 22.392H6.51754V14.2317H2.12356C1.7769 14.2317 1.49585 14.5128 1.49585 14.8594Z" fill="#141414" fill-opacity="0.52"/>
<path d="M20.3271 21.7642V14.8594C20.3271 14.5128 20.046 14.2317 19.6994 14.2317H15.3054V22.392H19.6994C20.046 22.392 20.3271 22.1108 20.3271 21.7642Z" fill="#141414" fill-opacity="0.52"/>
<path d="M9.02826 1.59379C9.02826 1.24675 8.7475 0.96608 8.40055 0.96608H5.26199C4.91495 0.96608 4.63428 1.24675 4.63428 1.59379V4.77419H9.02826V1.59379Z" fill="#141414" fill-opacity="0.52"/>
<path d="M11.5391 20.5088H14.0499V22.392H11.5391V20.5088Z" fill="#141414" fill-opacity="0.52"/>
<path d="M12.7947 1.59379V4.77419H17.1887V1.59379C17.1887 1.24675 16.9079 0.96608 16.5609 0.96608H13.4224C13.0753 0.96608 12.7947 1.24675 12.7947 1.59379Z" fill="#141414" fill-opacity="0.52"/>
</g>
<defs>
<clipPath id="clip0">
<rect width="21.4259" height="21.4259" fill="white" transform="translate(0.198486 0.966095)"/>
</clipPath>
</defs>
</svg>
