<svg width="22" height="22" viewBox="0 0 22 22" fill="none" xmlns="http://www.w3.org/2000/svg">
<g clip-path="url(#clip0)">
<path d="M3.55238 14.9487C3.70095 15.4829 3.91282 15.9929 4.18942 16.4762C3.71216 17.1907 3.75336 18.1502 4.38677 18.7836C5.0198 19.4167 5.97977 19.4585 6.69398 18.9808C7.17738 19.2574 7.68746 19.4695 8.22163 19.618C8.38142 20.4717 9.12935 21.1206 10.0287 21.1206C10.9281 21.1206 11.676 20.4717 11.8358 19.618C12.3699 19.4695 12.8799 19.2576 13.3632 18.981C14.0777 19.4583 15.0373 19.417 15.6707 18.7836C16.3036 18.1507 16.3456 17.1912 15.868 16.4763C16.1446 15.9929 16.3565 15.483 16.5051 14.9487C17.3587 14.789 18.0076 14.0411 18.0076 13.1417C18.0076 12.3426 17.493 11.6677 16.7801 11.4135V11.3004C16.7801 10.6237 17.3309 10.0729 18.0076 10.0729C18.6843 10.0729 19.2351 10.6237 19.2351 11.3004V13.7555H20.4627V11.3004C20.4627 9.94641 19.3616 8.84536 18.0076 8.84536C16.6536 8.84536 15.5526 9.94641 15.5526 11.3004V11.4135C14.8397 11.6677 14.325 12.3426 14.325 13.1417C14.325 13.8375 14.7174 14.4369 15.2883 14.75C15.1825 15.0973 15.0433 15.4308 14.8699 15.7516C14.2438 15.5824 13.5382 15.7082 13.067 16.1793C12.576 16.6703 12.4455 17.3654 12.6259 17.9897C12.309 18.1598 11.9797 18.2968 11.6371 18.4013C11.324 17.8304 10.7245 17.438 10.0287 17.438C9.33291 17.438 8.73347 17.8304 8.42037 18.4013C8.08354 18.2986 7.75963 18.1645 7.44764 17.9983C7.49641 17.8318 7.52988 17.66 7.52988 17.4818C7.52988 16.9897 7.33806 16.527 6.99104 16.18C6.51902 15.708 5.81348 15.5823 5.18744 15.7516C5.01415 15.4309 4.87495 15.0973 4.76906 14.7501C5.34002 14.4369 5.73238 13.8375 5.73238 13.1417C5.73238 12.4459 5.34002 11.8465 4.7691 11.5334C4.8736 11.1906 5.01055 10.8612 5.18081 10.5443C5.80468 10.7247 6.49974 10.5948 6.99047 10.1041C7.4818 9.61273 7.61196 8.91774 7.43152 8.29371C7.74842 8.12358 8.07764 7.98654 8.42033 7.88208C8.73347 8.453 9.33291 8.84536 10.0287 8.84536C10.8278 8.84536 11.5027 8.3307 11.7569 7.61784H12.4838C13.4991 7.61784 14.325 6.79188 14.325 5.77655V2.01214C14.325 1.67351 14.6002 1.39838 14.9388 1.39838C15.2774 1.39838 15.5526 1.67351 15.5526 2.01214V5.77655C15.5526 6.79188 16.3785 7.61784 17.3939 7.61784H18.6214C19.6367 7.61784 20.4627 6.79188 20.4627 5.77655C20.4627 4.76122 19.6367 3.93526 18.6214 3.93526H18.0076V5.16279H18.6214C18.96 5.16279 19.2351 5.43792 19.2351 5.77655C19.2351 6.11518 18.96 6.39031 18.6214 6.39031H17.3939C17.0552 6.39031 16.7801 6.11518 16.7801 5.77655V2.01214C16.7801 0.996815 15.9541 0.170855 14.9388 0.170855C13.9235 0.170855 13.0975 0.996815 13.0975 2.01214V5.77655C13.0975 6.11518 12.8224 6.39031 12.4838 6.39031H11.7569C11.5027 5.67745 10.8278 5.16279 10.0287 5.16279C9.12935 5.16279 8.38142 5.8117 8.22167 6.66536C7.68615 6.8143 7.1748 7.02686 6.69034 7.30453C5.98316 6.84818 4.99574 6.89081 4.38677 7.49979C3.75373 8.13282 3.71195 9.09279 4.18958 9.807C3.91298 10.2904 3.70095 10.8005 3.55238 11.3347C2.69871 11.4944 2.0498 12.2423 2.0498 13.1417C2.0498 14.0411 2.69871 14.789 3.55238 14.9487Z" fill="#141414" fill-opacity="0.52"/>
</g>
<defs>
<clipPath id="clip0">
<rect width="20.9497" height="20.9497" fill="white" transform="translate(0.781494 0.170853)"/>
</clipPath>
</defs>
</svg>
