<svg width="21" height="20" viewBox="0 0 21 20" fill="none" xmlns="http://www.w3.org/2000/svg">
<g clip-path="url(#clip0)">
<path d="M5.8224 16.2841C6.13826 16.2841 6.39432 16.0281 6.39432 15.7122C6.39432 15.3963 6.13826 15.1403 5.8224 15.1403C5.50654 15.1403 5.25049 15.3963 5.25049 15.7122C5.25049 16.0281 5.50654 16.2841 5.8224 16.2841Z" fill="#141414" fill-opacity="0.52"/>
<path d="M1.81901 15.7122C1.81901 17.9195 3.61516 19.7537 5.82241 19.7537C8.02966 19.7537 9.82582 17.9195 9.82582 15.7122C9.82582 13.7008 8.3293 12.0471 6.39433 11.7666V10.4596C7.05859 10.2228 7.53816 9.59387 7.53816 8.84924C7.53816 8.20054 7.17205 7.64158 6.63956 7.35006L9.76546 1.0601C9.85426 0.88304 9.84476 0.672499 9.74033 0.503822C9.6359 0.335145 9.45216 0.232391 9.2539 0.232391H2.39092C2.19266 0.232391 2.00889 0.335145 1.90445 0.503822C1.80002 0.672499 1.79053 0.88304 1.87933 1.0601L5.00522 7.35006C4.47277 7.64158 4.10667 8.20054 4.10667 8.84924C4.10667 9.59387 4.58624 10.2228 5.2505 10.4596V11.7666C3.31552 12.0471 1.81901 13.7008 1.81901 15.7122ZM3.31636 1.37622H8.32843L5.82241 6.42642L3.31636 1.37622ZM5.82241 13.9965C6.76851 13.9965 7.53816 14.7661 7.53816 15.7122C7.53816 16.6583 6.76851 17.428 5.82241 17.428C4.87631 17.428 4.10667 16.6583 4.10667 15.7122C4.10667 14.7661 4.87631 13.9965 5.82241 13.9965Z" fill="#141414" fill-opacity="0.52"/>
<path d="M14.973 16.2841C15.2889 16.2841 15.545 16.0281 15.545 15.7122C15.545 15.3963 15.2889 15.1403 14.973 15.1403C14.6572 15.1403 14.4011 15.3963 14.4011 15.7122C14.4011 16.0281 14.6572 16.2841 14.973 16.2841Z" fill="#141414" fill-opacity="0.52"/>
<path d="M10.9696 15.7122C10.9696 17.9194 12.7658 19.7537 14.973 19.7537C17.1803 19.7537 18.9765 17.9194 18.9765 15.7122C18.9765 13.7008 17.4799 12.0471 15.545 11.7666V10.4596C16.2092 10.2227 16.6888 9.59386 16.6888 8.84923C16.6888 8.20052 16.3227 7.64157 15.7902 7.35005L18.9161 1.06009C19.0049 0.883024 18.9954 0.672484 18.891 0.503807C18.7865 0.33513 18.6028 0.232376 18.4045 0.232376H11.5416C11.3433 0.232376 11.1595 0.33513 11.0551 0.503807C10.9507 0.672484 10.9412 0.883024 11.03 1.06009L14.1559 7.35005C13.6234 7.64157 13.2573 8.20052 13.2573 8.84923C13.2573 9.59386 13.7369 10.2227 14.4011 10.4596V11.7666C12.4662 12.0471 10.9696 13.7008 10.9696 15.7122ZM12.467 1.37621H17.4791L14.973 6.4264L12.467 1.37621ZM14.973 13.9965C15.9191 13.9965 16.6888 14.7661 16.6888 15.7122C16.6888 16.6583 15.9191 17.4279 14.973 17.4279C14.0269 17.4279 13.2573 16.6583 13.2573 15.7122C13.2573 14.7661 14.0269 13.9965 14.973 13.9965Z" fill="#141414" fill-opacity="0.52"/>
</g>
<defs>
<clipPath id="clip0">
<rect width="19.5214" height="19.5214" fill="white" transform="translate(0.636963 0.232407)"/>
</clipPath>
</defs>
</svg>
