<svg width="26" height="26" viewBox="0 0 26 26" fill="none" xmlns="http://www.w3.org/2000/svg">
<g clip-path="url(#clip0)">
<path d="M25.5616 8.68957C25.4336 8.46177 24.955 8.29796 24.2537 8.20326C23.6803 8.12391 22.9048 8.05992 22.0371 8.01897C19.3189 7.89099 15.6587 8.01897 14.3841 8.69469H14.361C14.0121 8.88224 13.6405 9.02423 13.2553 9.11701C12.8649 9.02544 12.488 8.88345 12.1342 8.69469C10.8775 7.99849 7.19178 7.8782 4.45563 8.00617C3.58795 8.04713 2.81241 8.11111 2.23907 8.19046C1.53776 8.28772 1.05913 8.44641 0.93115 8.67933C0.886614 8.75714 0.864474 8.8457 0.867162 8.93529L0.936269 10.3686C0.959305 10.8805 1.26389 10.9292 1.66062 10.9829C1.85002 11.0085 2.12134 11.0443 2.17253 11.5665C2.19044 11.8224 2.193 12.127 2.17253 12.4879C2.15205 12.8488 2.14181 13.2967 2.1111 13.8214C2.1111 13.9067 2.1111 13.9972 2.1111 14.0928C2.09459 15.1429 2.63369 16.1237 3.52908 16.6728C4.34045 17.2 5.42314 17.4662 6.57749 17.5328C6.81297 17.5456 7.06124 17.5507 7.3172 17.5481C8.90923 17.5277 10.1455 17.0695 11.1156 16.2684C12.0856 15.4672 12.7665 14.4076 13.2553 13.1099V13.1073C13.7928 14.3871 14.4685 15.48 15.4105 16.2632C16.3524 17.0465 17.5758 17.5251 19.1679 17.543C19.4238 17.543 19.6798 17.543 19.9076 17.5277C21.0619 17.4611 22.1472 17.1949 22.956 16.6676C23.8549 16.1208 24.398 15.1397 24.3842 14.0876C24.3842 13.9929 24.3842 13.9008 24.3842 13.8163C24.3535 13.2916 24.3304 12.8463 24.3228 12.4828C24.3151 12.1193 24.3228 11.8173 24.3228 11.5639C24.3612 11.052 24.6325 11.0034 24.8347 10.9804C25.2314 10.9266 25.536 10.8882 25.559 10.3661L25.6256 8.94552C25.6281 8.856 25.606 8.76744 25.5616 8.68957ZM7.34023 15.585C5.69957 15.6054 4.28414 15.05 4.26879 13.4836L4.23295 10.3737C4.23295 10.1792 11.2768 8.86618 11.2256 11.8762C10.6958 14.0134 9.64126 15.5568 7.34023 15.585ZM19.1704 15.5798C16.8668 15.5517 15.8174 14.0108 15.285 11.8736C15.2342 8.88979 22.1663 10.1587 22.2751 10.3688L22.2419 13.4785C22.2265 15.0449 20.8085 15.6003 19.1704 15.5798Z" fill="#141414" fill-opacity="0.52"/>
</g>
<defs>
<clipPath id="clip0">
<rect width="24.7588" height="24.7588" fill="white" transform="translate(0.866943 0.375626)"/>
</clipPath>
</defs>
</svg>
