<svg width="23" height="23" viewBox="0 0 23 23" fill="none" xmlns="http://www.w3.org/2000/svg">
<g clip-path="url(#clip0)">
<path d="M8.93099 18.0225C8.88316 17.8879 8.83458 17.7547 8.78712 17.6181C8.14359 15.7762 7.53563 14.0369 5.57747 13.5288C4.95691 13.3706 4.30627 13.3733 3.68701 13.5365L3.88215 14.0721C4.07536 14.6029 4.34682 15.1019 4.68754 15.5524L7.06849 18.7005L8.93099 18.0225Z" fill="#141414" fill-opacity="0.52"/>
<path d="M5.76943 12.7888C8.12322 13.3991 8.85974 15.5053 9.50938 17.3663C9.55566 17.4987 9.60349 17.6295 9.65019 17.7612L13.544 16.3455L12.944 14.6953C12.9265 14.6474 12.9186 14.5964 12.9211 14.5453C12.9245 14.5112 12.9326 14.4778 12.9452 14.4459C12.9476 14.4307 12.9512 14.4157 12.9559 14.4011L15.4333 9.08861C15.6304 8.66558 15.5462 8.16483 15.2217 7.82946C14.9646 7.55909 14.5902 7.43388 14.2222 7.49519C13.8542 7.55649 13.5406 7.79641 13.3852 8.13554L12.5721 9.87752C12.4461 10.1598 12.1583 10.3343 11.8497 10.3156C11.5423 10.3028 11.2732 10.1053 11.1687 9.81592L8.24759 1.79201C8.17566 1.59613 8.02563 1.43886 7.83339 1.3578C7.6411 1.2767 7.42378 1.27905 7.23334 1.36429C6.87052 1.5529 6.7087 1.98506 6.85838 2.36557L8.35439 6.47704L8.77525 7.63098C8.79312 7.67902 8.8009 7.7302 8.79822 7.78134C8.78876 7.96296 8.6528 8.11281 8.47294 8.13981C8.29308 8.1668 8.11908 8.06348 8.05673 7.89265L5.61602 1.18941C5.54672 1.00352 5.40707 0.852371 5.2273 0.768551C5.04719 0.683266 4.84038 0.674059 4.6534 0.742898C4.26414 0.885138 4.06344 1.31554 4.20459 1.70514L6.64446 8.40838C6.67903 8.50384 6.67426 8.60908 6.63124 8.70098C6.58818 8.79292 6.51038 8.86393 6.41493 8.89846C6.37321 8.91398 6.32901 8.92189 6.28445 8.92181C6.28064 8.92181 6.27717 8.92181 6.27373 8.92181C6.26147 8.92181 6.25038 8.918 6.23816 8.91645C6.20548 8.91269 6.17343 8.90457 6.14288 8.89235C6.12969 8.88682 6.11693 8.88046 6.10463 8.87322C6.07697 8.85795 6.05123 8.83929 6.02809 8.81773C6.01813 8.80815 6.00779 8.80012 5.99863 8.78982C5.96737 8.75509 5.94285 8.71487 5.92632 8.67123L3.98728 3.34229C3.84294 2.95608 3.41426 2.7584 3.02679 2.89946C2.63937 3.04053 2.43808 3.46754 2.57585 3.85614L3.48034 6.34079L4.90173 10.2468C4.94458 10.3641 4.92746 10.4949 4.8559 10.5973C4.78434 10.6996 4.66734 10.7606 4.54247 10.7606C4.53824 10.7606 4.53443 10.7606 4.53062 10.7606C4.52029 10.7606 4.51112 10.7572 4.50079 10.756C4.4658 10.7525 4.43149 10.7439 4.39901 10.7304C4.38675 10.7253 4.37474 10.7195 4.36307 10.7132C4.33415 10.6975 4.30737 10.6781 4.28347 10.6554C4.27368 10.6471 4.26439 10.6383 4.25556 10.629C4.22434 10.5942 4.19969 10.554 4.18287 10.5104L2.7614 6.6025C2.68938 6.4069 2.53944 6.24989 2.34736 6.16888C2.15528 6.0879 1.93822 6.09016 1.74785 6.17511C1.3847 6.36359 1.2225 6.79592 1.37215 7.17677L3.42485 12.8141C4.1907 12.6007 4.99915 12.592 5.76943 12.7888Z" fill="#141414" fill-opacity="0.52"/>
<path d="M12.6927 7.81118C12.7269 7.74506 12.7652 7.68116 12.8074 7.61989V2.94826C12.8074 2.52564 12.4648 2.18303 12.0422 2.18303C11.6187 2.18241 11.2747 2.52476 11.2732 2.94826V7.86395L11.8888 9.55584L12.6927 7.81118Z" fill="#141414" fill-opacity="0.52"/>
<path d="M15.1096 6.8589V1.46376C15.1096 1.03905 14.7653 0.694729 14.3406 0.694729C13.9158 0.694729 13.5715 1.03905 13.5715 1.46376V6.92393C14.0514 6.68355 14.6112 6.65991 15.1096 6.8589Z" fill="#141414" fill-opacity="0.52"/>
<path d="M17.7917 19.4347H16.0022C15.8906 19.7574 15.6401 20.013 15.3197 20.1311L15.1173 20.2045H16.64C17.0635 20.2039 17.4076 20.5462 17.4091 20.9697V21.3523C17.4091 21.5636 17.2378 21.7349 17.0265 21.7349C16.8152 21.7349 16.6439 21.5637 16.6439 21.3523V20.9697H13.0145L9.85034 22.1206H17.7917C18.003 22.1206 18.1743 21.9493 18.1743 21.738V19.8173C18.1743 19.606 18.003 19.4347 17.7917 19.4347Z" fill="#141414" fill-opacity="0.52"/>
<path d="M21.724 10.7725V10.7737C21.2729 10.3275 20.5464 10.3287 20.0967 10.7764L18.7167 12.1599C18.4979 12.3799 18.1679 12.4459 17.8813 12.3272C17.5946 12.2084 17.4081 11.9284 17.409 11.6181V2.94825C17.4085 2.73563 17.3196 2.53279 17.1635 2.38833C17.0075 2.24392 16.7984 2.17089 16.5864 2.18684C16.1719 2.23827 15.8641 2.59577 15.8747 3.01328V7.42128C16.3388 7.97882 16.4375 8.75492 16.1276 9.41083L13.7168 14.5802L14.288 16.1489C14.7691 16.1485 15.1994 16.4482 15.3658 16.8996L16.0055 18.6569C16.0055 18.6603 16.0055 18.6641 16.0082 18.6676H17.3898V16.7871V16.7844C17.3905 16.7384 17.3995 16.6929 17.4166 16.6501C17.4357 16.5995 17.4653 16.5535 17.5034 16.5151V16.5128L21.7297 12.4024C22.1743 11.9492 22.1717 11.2227 21.724 10.7725Z" fill="#141414" fill-opacity="0.52"/>
<path d="M15.2726 19.2133C15.3156 19.1213 15.3203 19.016 15.2856 18.9205L14.6467 17.1636C14.5916 17.0123 14.4477 16.9116 14.2867 16.9118C14.2422 16.9117 14.198 16.9195 14.1562 16.9348L7.05349 19.5189L6.71411 19.6425L7.61517 22.1206L15.0561 19.411C15.1516 19.3765 15.2295 19.3054 15.2726 19.2133ZM14.2304 19.3203H14.23C14.1346 19.3549 14.0293 19.3501 13.9374 19.3071C13.8455 19.264 13.7744 19.1862 13.7399 19.0908L13.6106 18.7357L8.29239 20.677C8.1632 20.7269 8.0172 20.7031 7.91053 20.6148C7.8039 20.5265 7.75327 20.3875 7.77821 20.2513C7.80311 20.1151 7.89969 20.003 8.03067 19.9581L13.3561 18.0195C13.7505 17.8783 14.1849 18.0815 14.3291 18.4748L14.4584 18.8299C14.5309 19.0282 14.4288 19.2478 14.2304 19.3203Z" fill="#141414" fill-opacity="0.52"/>
</g>
<defs>
<clipPath id="clip0">
<rect width="21.4259" height="21.4259" fill="white" transform="translate(0.976074 0.694717)"/>
</clipPath>
</defs>
</svg>
