<svg width="23" height="16" viewBox="0 0 23 16" fill="none" xmlns="http://www.w3.org/2000/svg">
<path d="M19.6567 7.9679C19.6577 8.02059 19.6586 8.07321 19.6586 8.12605V10.2738C19.6586 10.7537 19.3565 11.1817 18.9042 11.3424C17.4435 11.8615 14.9217 12.4802 11.2029 12.4802C7.48398 12.4802 4.96221 11.8615 3.50158 11.3424C3.04941 11.1817 2.7473 10.7537 2.7473 10.2738V8.12605C2.7473 8.07321 2.74828 8.02059 2.74919 7.9679C1.04528 8.77396 0.013916 9.82619 0.013916 10.9771C0.013916 13.5143 5.02352 15.5712 11.203 15.5712C17.3824 15.5712 22.3921 13.5143 22.3921 10.9771C22.3921 9.82619 21.3606 8.77396 19.6567 7.9679Z" fill="#141414" fill-opacity="0.52"/>
<path d="M3.8811 8.12598V10.2738C5.56922 10.8737 8.03028 11.3461 11.2027 11.3461C14.375 11.3461 16.8361 10.8737 18.5243 10.2738V8.12598C18.5243 4.08219 15.2464 0.804321 11.2027 0.804321C7.1589 0.804397 3.8811 4.08227 3.8811 8.12598Z" fill="#141414" fill-opacity="0.52"/>
</svg>
