<svg width="23" height="24" viewBox="0 0 23 24" fill="none" xmlns="http://www.w3.org/2000/svg">
<g clip-path="url(#clip0)">
<path d="M22.1986 8.40728H21.4844V0.998167C21.4844 0.759492 21.3563 0.538493 21.1497 0.41882C20.9437 0.299148 20.6887 0.298523 20.4814 0.416856C14.9066 3.60382 7.97818 3.60445 2.39938 0.416232C2.19279 0.297854 1.93778 0.298523 1.73116 0.418196C1.52453 0.538493 1.39767 0.758822 1.39767 0.997498V8.40728H0.683475C0.313387 8.40728 0.013916 8.70675 0.013916 9.07684C0.013916 9.44693 0.313387 9.7464 0.683475 9.7464H1.39767V10.0406C1.39767 16.0785 5.4523 21.4985 11.2573 23.1567C11.3175 23.1737 11.3789 23.1822 11.4411 23.1822C11.5032 23.1822 11.5647 23.1737 11.6248 23.1567C17.4298 21.4985 21.4844 16.0785 21.4844 10.0406V9.7464H22.1986C22.5687 9.7464 22.8682 9.44693 22.8682 9.07684C22.8682 8.70675 22.5687 8.40728 22.1986 8.40728ZM4.07591 7.73772C4.07591 7.36763 4.37538 7.06816 4.74546 7.06816H6.08458C8.66868 7.06816 10.7715 9.17098 10.7715 11.7551C10.7715 12.1252 10.472 12.4246 10.1019 12.4246H8.76282C6.17872 12.4246 4.07591 10.3218 4.07591 7.73772ZM10.7715 14.4333C10.7715 14.8031 10.4717 15.1029 10.1019 15.1029C9.73216 15.1029 9.43237 14.8031 9.43237 14.4333C9.43237 14.0634 9.73216 13.7638 10.1019 13.7638C10.4717 13.7638 10.7715 14.0635 10.7715 14.4333ZM14.1193 17.7811H8.76282C8.39273 17.7811 8.09326 17.4816 8.09326 17.1115C8.09326 16.7415 8.39273 16.442 8.76282 16.442H14.1193C14.4894 16.442 14.7888 16.7415 14.7888 17.1115C14.7888 17.4816 14.4894 17.7811 14.1193 17.7811ZM12.1106 14.4333C12.1106 14.0634 12.4104 13.7638 12.7802 13.7638C13.1499 13.7638 13.4497 14.0634 13.4497 14.4333C13.4497 14.8031 13.1499 15.1029 12.7802 15.1029C12.4104 15.1029 12.1106 14.8031 12.1106 14.4333ZM14.1193 12.4246H12.7802C12.4101 12.4246 12.1106 12.1252 12.1106 11.7551C12.1106 9.17098 14.2134 7.06816 16.7975 7.06816H18.1366C18.5067 7.06816 18.8062 7.36763 18.8062 7.73772C18.8062 10.3218 16.7034 12.4246 14.1193 12.4246Z" fill="#141414" fill-opacity="0.52"/>
<path d="M6.08438 8.40723H5.48218C5.79343 9.93334 7.14563 11.0855 8.76261 11.0855H9.36481C9.05356 9.55937 7.70136 8.40723 6.08438 8.40723Z" fill="#141414" fill-opacity="0.52"/>
<path d="M16.7973 8.40723C15.1803 8.40723 13.8281 9.55937 13.5168 11.0855H14.119C15.7361 11.0855 17.0883 9.93334 17.3995 8.40723H16.7973Z" fill="#141414" fill-opacity="0.52"/>
</g>
<defs>
<clipPath id="clip0">
<rect width="22.8543" height="22.8543" fill="white" transform="translate(0.013916 0.327881)"/>
</clipPath>
</defs>
</svg>
