<svg width="25" height="25" viewBox="0 0 25 25" fill="none" xmlns="http://www.w3.org/2000/svg">
<g clip-path="url(#clip0)">
<path d="M24.3254 16.2714C24.2045 15.8742 24.0836 15.477 23.9628 15.0798C23.8936 14.8525 23.6545 14.7231 23.4263 14.7894C23.2363 14.8446 23.3732 14.8107 23.1825 14.8625L23.156 14.7673C22.7189 13.1907 21.3507 12.0476 19.7215 11.8968C18.5114 11.7849 16.8904 11.458 14.8802 10.6686C14.6351 10.5723 14.3542 10.4295 14.0531 10.2557L13.3054 11.431C13.1859 11.6187 12.9832 11.7215 12.776 11.7215C12.6608 11.7215 12.5445 11.6898 12.4401 11.6234C12.148 11.4376 12.0619 11.0503 12.2476 10.7581L12.9955 9.58252C12.6478 9.34475 12.2965 9.09145 11.96 8.84065L10.4549 10.8976C10.3321 11.0654 10.1416 11.1543 9.9485 11.1543C9.82005 11.1543 9.69043 11.1149 9.57886 11.0333C9.29948 10.8289 9.23873 10.4367 9.44314 10.1574L10.9654 8.07705C10.6806 7.85241 10.4297 7.64975 10.2324 7.48837C9.97934 7.28136 9.61004 7.30727 9.38782 7.54704C8.51967 8.4838 6.14506 10.576 2.18684 10.6685C1.80383 10.6775 1.42751 10.6601 1.05971 10.6312C0.943207 10.622 0.828212 10.6619 0.742384 10.7413C0.656639 10.8207 0.608 10.9323 0.608 11.0491V15.8952H0.444534C0.233013 15.8952 0.0615234 16.0667 0.0615234 16.2782V17.6258C0.0615234 17.8373 0.233013 18.0088 0.444534 18.0088C0.444534 18.0088 10.6005 17.9752 10.7166 17.9752C16.0674 17.9752 19.6061 18.102 24.0312 16.8144C24.1427 16.782 24.2365 16.7064 24.2918 16.6042C24.3471 16.5025 24.3591 16.3825 24.3254 16.2714Z" fill="#141414" fill-opacity="0.52"/>
</g>
<defs>
<clipPath id="clip0">
<rect width="24.2827" height="24.2827" fill="white" transform="translate(0.0615234 0.537689)"/>
</clipPath>
</defs>
</svg>
