<svg width="25" height="25" viewBox="0 0 25 25" fill="none" xmlns="http://www.w3.org/2000/svg">
<g clip-path="url(#clip0)">
<path d="M17.2015 3.74825H7.68032C7.36907 3.74825 7.10669 3.98151 7.07118 4.29079C7.00371 4.87898 6.97744 5.47167 6.99413 6.06476L7.50314 24.1789C7.50812 24.3556 7.6528 24.4962 7.82951 24.4962H10.7964C10.9673 24.4962 11.1094 24.3644 11.122 24.1938L12.2414 9.10432C12.2492 9.0003 12.3358 8.91986 12.4401 8.91986C12.5445 8.91986 12.6311 9.0003 12.6388 9.10432L13.7583 24.1938C13.7709 24.3643 13.9129 24.4962 14.0839 24.4962H17.0507C17.2275 24.4962 17.3721 24.3556 17.3771 24.1789L17.8876 6.065C17.9043 5.47183 17.8781 4.87906 17.8106 4.29079C17.7751 3.98088 17.5134 3.74825 17.2015 3.74825Z" fill="#141414" fill-opacity="0.52"/>
<path d="M17.28 0.689699H7.60309C7.26447 0.689699 6.98999 0.964175 6.98999 1.30288V2.18595C6.98999 2.52457 7.26447 2.79905 7.60309 2.79905H17.28C17.6186 2.79905 17.8931 2.52457 17.8931 2.18595V1.30288C17.8932 0.964175 17.6186 0.689699 17.28 0.689699ZM11.4923 2.11349C11.2885 2.11349 11.1232 1.94825 11.1232 1.74433C11.1232 1.54049 11.2884 1.37518 11.4923 1.37518C11.6962 1.37518 11.8615 1.54042 11.8615 1.74433C11.8615 1.94825 11.6963 2.11349 11.4923 2.11349ZM13.3907 2.11349C13.1869 2.11349 13.0216 1.94825 13.0216 1.74433C13.0216 1.54049 13.1868 1.37518 13.3907 1.37518C13.5947 1.37518 13.7599 1.54042 13.7599 1.74433C13.7599 1.94825 13.5947 2.11349 13.3907 2.11349Z" fill="#141414" fill-opacity="0.52"/>
</g>
<defs>
<clipPath id="clip0">
<rect width="23.8065" height="23.8065" fill="white" transform="translate(0.537598 0.689697)"/>
</clipPath>
</defs>
</svg>
