<svg width="25" height="24" viewBox="0 0 25 24" fill="none" xmlns="http://www.w3.org/2000/svg">
<g clip-path="url(#clip0)">
<path d="M7.91168 0.0138134H7.07847C6.60393 0.0123894 6.20736 0.374435 6.16553 0.847017H7.91168V0.0138134Z" fill="#141414" fill-opacity="0.52"/>
<path d="M5.46094 9.02349C6.2322 7.54629 7.3728 5.43365 8.18233 4.25157C8.00594 3.9828 7.91178 3.66828 7.9116 3.34681V1.68023H6.07307L5.46094 9.02349Z" fill="#141414" fill-opacity="0.52"/>
<path d="M9.57808 4.18001H9.99103C9.93727 1.40024 9.34348 0.476254 8.74487 0.16832V3.34681C8.74487 3.80693 9.11795 4.18001 9.57808 4.18001Z" fill="#141414" fill-opacity="0.52"/>
<path d="M17.0771 3.34681C17.077 3.66828 16.9828 3.9828 16.8064 4.25157C17.6159 5.43365 18.7565 7.54629 19.5278 9.02349L18.9157 1.68023H17.0771V3.34681Z" fill="#141414" fill-opacity="0.52"/>
<path d="M16.2438 3.34681V0.16832C15.6452 0.476254 15.0514 1.40024 14.9978 4.18001H15.4106C15.8707 4.18001 16.2438 3.80693 16.2438 3.34681Z" fill="#141414" fill-opacity="0.52"/>
<path d="M17.4938 0.0138168H17.0771V0.84702H18.7854C18.5501 0.344713 18.0485 0.0211147 17.4938 0.0138168Z" fill="#141414" fill-opacity="0.52"/>
<path d="M4.57861 23.3442C5.89934 23.3442 7.02873 22.8501 7.45575 22.0856C7.77828 21.5085 7.69871 20.7941 7.22702 19.9646C6.90912 19.9176 6.59851 19.8302 6.3025 19.7047C6.50542 20.2008 6.62664 20.7264 6.6617 21.2611C6.6617 22.0331 5.57859 22.511 4.57861 22.511C3.02505 22.511 1.6623 20.7586 1.6623 18.7615C1.6623 17.0766 2.68223 15.7331 4.08698 15.4773L4.15871 14.6202C2.2335 14.8383 0.829102 16.5447 0.829102 18.7615C0.829102 21.2458 2.54642 23.3442 4.57861 23.3442Z" fill="#141414" fill-opacity="0.52"/>
<path d="M10.3105 19.178C9.90434 17.4321 8.32817 11.619 5.27286 11.2815L4.87788 16.0214C4.8106 16.8336 5.08632 17.6367 5.63811 18.2364C6.1899 18.8361 6.96757 19.1777 7.78244 19.178H10.3105Z" fill="#141414" fill-opacity="0.52"/>
<path d="M20.8301 14.6202L20.9018 15.4773C22.3066 15.7331 23.3265 17.0766 23.3265 18.7615C23.3265 20.7586 21.9637 22.511 20.4102 22.511C19.4082 22.511 18.3271 22.0331 18.3271 21.2611C18.3621 20.7262 18.4835 20.2004 18.6863 19.7042C18.3906 19.8302 18.08 19.9176 17.7621 19.9646C17.2901 20.7949 17.2105 21.5091 17.533 22.0856C17.9601 22.8501 19.0894 23.3442 20.4102 23.3442C22.4424 23.3442 24.1597 21.2458 24.1597 18.7615C24.1597 16.5447 22.7553 14.8383 20.8301 14.6202Z" fill="#141414" fill-opacity="0.52"/>
<path d="M17.9103 12.1998V15.5052C18.408 15.6811 18.7414 16.1507 18.7437 16.6784V17.0949C18.7437 17.5552 18.3706 17.9283 17.9103 17.9283H17.0771C16.617 17.9283 16.2439 17.5552 16.2439 17.0949V16.6784C16.246 16.1507 16.5796 15.6811 17.0771 15.5052V13.1813C15.7152 15.137 14.9449 18.0324 14.6782 19.178H17.2063C18.0212 19.1777 18.7988 18.8361 19.3506 18.2364C19.9024 17.6367 20.1781 16.8336 20.1109 16.0214L19.7159 11.2815C19.0294 11.38 18.3944 11.7029 17.9103 12.1998Z" fill="#141414" fill-opacity="0.52"/>
<path d="M17.4938 16.2617C17.2637 16.2617 17.0771 16.4483 17.0771 16.6784V17.0949H17.9104V16.6784C17.9104 16.4483 17.724 16.2617 17.4938 16.2617Z" fill="#141414" fill-opacity="0.52"/>
<path d="M8.80781 4.81528C7.80426 6.30885 6.26352 9.27303 5.6416 10.4916C9.21026 11.1954 10.8231 17.6054 11.1672 19.178H13.8218C14.0822 17.9886 15.068 14.0334 17.0772 11.8707V9.59592C17.0772 9.36594 17.2637 9.1794 17.4939 9.1794C17.724 9.1794 17.9104 9.36594 17.9104 9.59592V11.1329C18.3381 10.8189 18.8281 10.6004 19.3474 10.4916C18.7254 9.27356 17.1847 6.30885 16.1812 4.81528C15.9444 4.94343 15.6799 5.01125 15.4108 5.01321H9.57818C9.30905 5.01125 9.04455 4.94343 8.80781 4.81528ZM10.4114 7.09631H14.5776C14.8077 7.09631 14.9941 7.28285 14.9941 7.51282C14.9941 7.74297 14.8077 7.92951 14.5776 7.92951H10.4114C10.1812 7.92951 9.99487 7.74297 9.99487 7.51282C9.99487 7.28285 10.1812 7.09631 10.4114 7.09631Z" fill="#141414" fill-opacity="0.52"/>
</g>
<defs>
<clipPath id="clip0">
<rect width="23.3304" height="23.3304" fill="white" transform="translate(0.829102 0.0138245)"/>
</clipPath>
</defs>
</svg>
