<svg width="9" height="9" viewBox="0 0 9 9" fill="none" xmlns="http://www.w3.org/2000/svg">
<g clip-path="url(#clip0)">
<path d="M6.57038 0.854279H3.7136C3.67147 0.854204 3.63105 0.870869 3.60123 0.900627L2.01412 2.48772C1.98438 2.51754 1.9677 2.55796 1.96777 2.60009V7.67881C1.96779 8.11709 2.32307 8.47237 2.76133 8.47237H6.57038C7.00864 8.47237 7.36393 8.11709 7.36393 7.67882V1.64782C7.36393 1.20956 7.00864 0.854279 6.57038 0.854279Z" fill="#CFD8DC"/>
<path d="M3.39605 3.39365H5.93542C6.19838 3.39365 6.41155 3.60682 6.41155 3.86978V7.04398C6.41155 7.30693 6.19838 7.52011 5.93542 7.52011H3.39605C3.13309 7.52011 2.91992 7.30693 2.91992 7.04398V3.86978C2.91992 3.60682 3.13309 3.39365 3.39605 3.39365Z" fill="#FFC107"/>
<path d="M6.41155 5.29817H2.91992V5.61559H6.41155V5.29817Z" fill="#FFA000"/>
<path d="M4.03103 4.66334C3.94338 4.66334 3.87231 4.59227 3.87231 4.50462V3.55236C3.87231 3.46471 3.94338 3.39365 4.03103 3.39365C4.11868 3.39365 4.18974 3.46471 4.18974 3.55236V4.50462C4.18974 4.59227 4.11868 4.66334 4.03103 4.66334Z" fill="#FFA000"/>
<path d="M4.6658 5.61559C4.57814 5.61559 4.50708 5.54453 4.50708 5.45688V4.50462C4.50708 4.41696 4.57814 4.3459 4.6658 4.3459C4.75345 4.3459 4.82451 4.41696 4.82451 4.50462V5.45688C4.82451 5.54453 4.75345 5.61559 4.6658 5.61559Z" fill="#FFA000"/>
<path d="M5.30056 4.66334C5.21291 4.66334 5.14185 4.59227 5.14185 4.50462V3.55236C5.14185 3.46471 5.21291 3.39365 5.30056 3.39365C5.38821 3.39365 5.45928 3.46471 5.45928 3.55236V4.50462C5.45926 4.59227 5.38821 4.66334 5.30056 4.66334Z" fill="#FFA000"/>
<path d="M4.6658 7.52012C4.57814 7.52012 4.50708 7.44906 4.50708 7.3614V6.40914C4.50708 6.32149 4.57814 6.25043 4.6658 6.25043C4.75345 6.25043 4.82451 6.32149 4.82451 6.40914V7.3614C4.82451 7.44906 4.75345 7.52012 4.6658 7.52012Z" fill="#FFA000"/>
<path d="M4.03103 6.56785C3.94338 6.56785 3.87231 6.49679 3.87231 6.40913V5.45687C3.87231 5.36922 3.94338 5.29816 4.03103 5.29816C4.11868 5.29816 4.18974 5.36922 4.18974 5.45687V6.40913C4.18974 6.49679 4.11868 6.56785 4.03103 6.56785Z" fill="#FFA000"/>
<path d="M5.30056 6.56785C5.21291 6.56785 5.14185 6.49679 5.14185 6.40913V5.45687C5.14185 5.36922 5.21291 5.29816 5.30056 5.29816C5.38821 5.29816 5.45928 5.36922 5.45928 5.45687V6.40913C5.45926 6.49679 5.38821 6.56785 5.30056 6.56785Z" fill="#FFA000"/>
</g>
<defs>
<clipPath id="clip0">
<rect width="7.61809" height="7.61809" fill="white" transform="translate(0.856689 0.854279)"/>
</clipPath>
</defs>
</svg>
