<svg width="22" height="21" viewBox="0 0 22 21" fill="none" xmlns="http://www.w3.org/2000/svg">
<g clip-path="url(#clip0)">
<path d="M7.13701 3.43215C7.17679 3.74519 7.44308 3.97978 7.75867 3.97978H10.6397C10.9552 3.97978 11.2215 3.74512 11.2613 3.43208L11.6032 0.739421C11.6258 0.560905 11.5706 0.381284 11.4517 0.246275C11.3327 0.111266 11.1615 0.0339203 10.9816 0.0339203H7.41663C7.23666 0.0339203 7.0654 0.111266 6.94648 0.246275C6.82749 0.381284 6.77238 0.560974 6.79503 0.73949L7.13701 3.43215Z" fill="#141414" fill-opacity="0.52"/>
<path d="M15.6823 14.8836L15.1782 12.4671C15.0868 12.0287 14.9049 11.6144 14.6442 11.2503L12.4739 8.21962L12.9005 14.1862L14.9883 15.3867C15.1487 15.479 15.3484 15.4684 15.4982 15.3598C15.6481 15.2512 15.7202 15.0648 15.6823 14.8836Z" fill="#141414" fill-opacity="0.52"/>
<path d="M11.2902 6.18923C11.2668 5.86134 10.9939 5.60728 10.6651 5.60728H7.73332C7.4046 5.60728 7.13175 5.86134 7.10827 6.18923L6.33447 17.0117C6.27488 17.5463 6.46548 18.0783 6.85089 18.4535L8.78936 20.3407C8.90352 20.4519 9.05144 20.5075 9.19943 20.5075C9.34735 20.5075 9.49535 20.4519 9.60943 20.3407L11.5476 18.4535C11.933 18.0782 12.1237 17.5462 12.0641 17.0117L11.2902 6.18923Z" fill="#141414" fill-opacity="0.52"/>
</g>
<defs>
<clipPath id="clip0">
<rect width="20.4736" height="20.4736" fill="white" transform="translate(0.77124 0.0339203)"/>
</clipPath>
</defs>
</svg>
