<svg width="26" height="26" viewBox="0 0 26 26" fill="none" xmlns="http://www.w3.org/2000/svg">
<g clip-path="url(#clip0)">
<path d="M25.6211 15.35L19.4046 6.70561C18.9734 6.10599 18.2799 5.75056 17.5413 5.75056H16.4965V4.31055C16.4965 3.72589 16.0225 3.25189 15.4378 3.25189H14.9466L13.5882 6.92908C13.5286 7.09036 13.3749 7.19744 13.2029 7.19744C13.031 7.19744 12.8772 7.09036 12.8176 6.92908L11.4592 3.25189H10.968C10.3833 3.25189 9.90932 3.72589 9.90932 4.31055V5.75056H8.86459C8.12596 5.75056 7.43249 6.10599 7.00129 6.70561L0.784632 15.35C0.462078 15.7986 0.538715 16.4198 0.960611 16.7766L2.10364 17.743C2.5238 18.0983 3.14603 18.0724 3.53531 17.6836L6.88507 14.3382L6.41768 19.336C6.38993 19.6327 6.48849 19.9273 6.68908 20.1475C6.83227 20.3047 7.01825 20.4124 7.22111 20.4619C6.87228 20.6351 6.63202 20.9939 6.63202 21.4097V22.2309C6.63202 22.8156 7.10602 23.2896 7.69067 23.2896H18.7152C19.2998 23.2896 19.7738 22.8156 19.7738 22.2309V21.4097C19.7738 20.9939 19.5335 20.635 19.1848 20.4619C19.3876 20.4124 19.5736 20.3046 19.7168 20.1475C19.9174 19.9272 20.0159 19.6327 19.9882 19.336L19.5208 14.3382L22.8706 17.6836C23.2598 18.0724 23.8821 18.0982 24.3022 17.743L25.4453 16.7766C25.8672 16.4198 25.9438 15.7986 25.6211 15.35ZM11.0029 16.1272L9.48273 18.723C9.36129 18.9303 9.14321 19.0458 8.91913 19.0458C8.80709 19.0458 8.69365 19.017 8.59005 18.9563C8.27915 18.7743 8.17468 18.3745 8.35674 18.0636L9.87696 15.4678C10.0591 15.1569 10.4587 15.0524 10.7696 15.2345C11.0805 15.4166 11.185 15.8163 11.0029 16.1272ZM17.8157 18.9563C17.7121 19.017 17.5987 19.0458 17.4867 19.0458C17.2627 19.0458 17.0445 18.9303 16.9231 18.723L15.4028 16.1272C15.2207 15.8163 15.3252 15.4166 15.6361 15.2345C15.947 15.0524 16.3467 15.1568 16.5288 15.4678L18.049 18.0636C18.2311 18.3745 18.1266 18.7743 17.8157 18.9563Z" fill="#141414" fill-opacity="0.52"/>
</g>
<defs>
<clipPath id="clip0">
<rect width="25.2349" height="25.2349" fill="white" transform="translate(0.585449 0.653267)"/>
</clipPath>
</defs>
</svg>
