<svg width="20" height="20" viewBox="0 0 20 20" fill="none" xmlns="http://www.w3.org/2000/svg">
<g clip-path="url(#clip0)">
<path d="M5.68579 18.6104C5.68579 18.9188 5.93535 19.1683 6.24376 19.1683H12.9393C13.2478 19.1683 13.4973 18.9188 13.4973 18.6104V16.8993H5.68579V18.6104Z" fill="#141414" fill-opacity="0.52"/>
<path d="M13.4973 0.681073C13.4973 0.372667 13.2478 0.123108 12.9393 0.123108H6.24376C5.93535 0.123108 5.68579 0.372667 5.68579 0.681073V2.39217H13.4973V0.681073Z" fill="#141414" fill-opacity="0.52"/>
<path d="M5.67203 15.7833H13.5109C13.5455 14.9534 13.8361 14.1508 14.3565 13.5106C15.123 12.5662 15.5692 11.4073 15.6809 10.2037H16.2871C16.5955 10.2037 16.845 9.95413 16.845 9.64572C16.845 9.33732 16.5955 9.08776 16.2871 9.08776H15.6809C15.5692 7.88415 15.123 6.72518 14.3565 5.78084C13.8361 5.14067 13.5456 4.33813 13.5109 3.5081H5.67203C5.63744 4.33809 5.34689 5.14067 4.82642 5.78084C3.94152 6.87114 3.45386 8.24374 3.45386 9.64572C3.45386 11.0477 3.94152 12.4203 4.82642 13.5106C5.34689 14.1508 5.63744 14.9534 5.67203 15.7833ZM9.59148 5.73996C11.7449 5.73996 13.4972 7.49231 13.4972 9.64572C13.4972 11.7991 11.7449 13.5515 9.59148 13.5515C7.43807 13.5515 5.68572 11.7991 5.68572 9.64572C5.68572 7.49231 7.43807 5.73996 9.59148 5.73996Z" fill="#141414" fill-opacity="0.52"/>
<path d="M9.59159 12.4355C11.1298 12.4355 12.3814 11.184 12.3814 9.64572C12.3814 8.10748 11.1298 6.85589 9.59159 6.85589C8.05335 6.85589 6.80176 8.10748 6.80176 9.64572C6.80176 11.184 8.05335 12.4355 9.59159 12.4355ZM9.03362 8.52979C9.03362 8.22138 9.28318 7.97182 9.59159 7.97182C9.89999 7.97182 10.1496 8.22138 10.1496 8.52979V9.08776H10.7075C11.0159 9.08776 11.2655 9.33732 11.2655 9.64572C11.2655 9.95413 11.0159 10.2037 10.7075 10.2037H9.59159C9.28318 10.2037 9.03362 9.95413 9.03362 9.64572V8.52979Z" fill="#141414" fill-opacity="0.52"/>
</g>
<defs>
<clipPath id="clip0">
<rect width="19.0452" height="19.0452" fill="white" transform="translate(0.626953 0.123123)"/>
</clipPath>
</defs>
</svg>
